<?xml version="1.0" encoding="utf-8" standalone="no"?>
<!DOCTYPE svg PUBLIC "-//W3C//DTD SVG 1.1//EN"
  "http://www.w3.org/Graphics/SVG/1.1/DTD/svg11.dtd">
<svg xmlns:xlink="http://www.w3.org/1999/xlink" width="907.407686pt" height="471.852054pt" viewBox="0 0 907.407686 471.852054" xmlns="http://www.w3.org/2000/svg" version="1.1">
 <metadata>
  <rdf:RDF xmlns:dc="http://purl.org/dc/elements/1.1/" xmlns:cc="http://creativecommons.org/ns#" xmlns:rdf="http://www.w3.org/1999/02/22-rdf-syntax-ns#">
   <cc:Work>
    <dc:type rdf:resource="http://purl.org/dc/dcmitype/StillImage"/>
    <dc:date>2026-07-16T17:29:42.598203</dc:date>
    <dc:format>image/svg+xml</dc:format>
    <dc:creator>
     <cc:Agent>
      <dc:title>Matplotlib v3.10.9, https://matplotlib.org/</dc:title>
     </cc:Agent>
    </dc:creator>
   </cc:Work>
  </rdf:RDF>
 </metadata>
 <defs>
  <style type="text/css">*{stroke-linejoin: round; stroke-linecap: butt}</style>
 </defs>
 <g id="figure_1">
  <g id="patch_1">
   <path d="M 0 471.852054 
L 907.407686 471.852054 
L 907.407686 0 
L 0 0 
z
" style="fill: #ffffff"/>
  </g>
  <g id="axes_1">
   <g id="patch_2">
    <path d="M 271.555781 15.418125 
L 235.068708 15.418125 
L 211.448075 43.970566 
" style="fill: none; stroke: #000000; stroke-width: 0.8; stroke-linecap: round"/>
   </g>
   <g id="text_1">
    <g id="patch_3">
     <path d="M 273.948737 27.23625 
L 317.17405 27.23625 
L 317.17405 3.6 
L 273.948737 3.6 
z
" style="fill: #ffffff; stroke: #1a1a1a; stroke-width: 0.8; stroke-linejoin: miter"/>
    </g>
    <!-- 28% -->
    <g style="fill: #0f6838" transform="translate(277.548737 20.084062) scale(0.18 -0.18)">
     <defs>
      <path id="Arial-BoldMT-32" d="M 3238 816 
L 3238 0 
L 159 0 
Q 209 463 459 877 
Q 709 1291 1447 1975 
Q 2041 2528 2175 2725 
Q 2356 2997 2356 3263 
Q 2356 3556 2198 3714 
Q 2041 3872 1763 3872 
Q 1488 3872 1325 3706 
Q 1163 3541 1138 3156 
L 263 3244 
Q 341 3969 753 4284 
Q 1166 4600 1784 4600 
Q 2463 4600 2850 4234 
Q 3238 3869 3238 3325 
Q 3238 3016 3127 2736 
Q 3016 2456 2775 2150 
Q 2616 1947 2200 1565 
Q 1784 1184 1673 1059 
Q 1563 934 1494 816 
L 3238 816 
z
" transform="scale(0.015625)"/>
      <path id="Arial-BoldMT-38" d="M 1025 2472 
Q 684 2616 529 2867 
Q 375 3119 375 3419 
Q 375 3931 733 4265 
Q 1091 4600 1750 4600 
Q 2403 4600 2764 4265 
Q 3125 3931 3125 3419 
Q 3125 3100 2959 2851 
Q 2794 2603 2494 2472 
Q 2875 2319 3073 2025 
Q 3272 1731 3272 1347 
Q 3272 713 2867 316 
Q 2463 -81 1791 -81 
Q 1166 -81 750 247 
Q 259 634 259 1309 
Q 259 1681 443 1992 
Q 628 2303 1025 2472 
z
M 1206 3356 
Q 1206 3094 1354 2947 
Q 1503 2800 1750 2800 
Q 2000 2800 2150 2948 
Q 2300 3097 2300 3359 
Q 2300 3606 2151 3754 
Q 2003 3903 1759 3903 
Q 1506 3903 1356 3753 
Q 1206 3603 1206 3356 
z
M 1125 1394 
Q 1125 1031 1311 828 
Q 1497 625 1775 625 
Q 2047 625 2225 820 
Q 2403 1016 2403 1384 
Q 2403 1706 2222 1901 
Q 2041 2097 1763 2097 
Q 1441 2097 1283 1875 
Q 1125 1653 1125 1394 
z
" transform="scale(0.015625)"/>
      <path id="Arial-BoldMT-25" d="M 278 3450 
Q 278 4066 548 4362 
Q 819 4659 1281 4659 
Q 1759 4659 2029 4364 
Q 2300 4069 2300 3450 
Q 2300 2834 2029 2537 
Q 1759 2241 1297 2241 
Q 819 2241 548 2536 
Q 278 2831 278 3450 
z
M 963 3456 
Q 963 3009 1066 2856 
Q 1144 2744 1281 2744 
Q 1422 2744 1500 2856 
Q 1600 3009 1600 3456 
Q 1600 3903 1500 4053 
Q 1422 4169 1281 4169 
Q 1144 4169 1066 4056 
Q 963 3903 963 3456 
z
M 1950 -175 
L 1300 -175 
L 3741 4659 
L 4372 4659 
L 1950 -175 
z
M 3369 1028 
Q 3369 1644 3639 1941 
Q 3909 2238 4378 2238 
Q 4850 2238 5120 1941 
Q 5391 1644 5391 1028 
Q 5391 409 5120 112 
Q 4850 -184 4388 -184 
Q 3909 -184 3639 112 
Q 3369 409 3369 1028 
z
M 4053 1031 
Q 4053 584 4156 434 
Q 4234 319 4372 319 
Q 4513 319 4588 431 
Q 4691 584 4691 1031 
Q 4691 1478 4591 1631 
Q 4513 1744 4372 1744 
Q 4231 1744 4156 1631 
Q 4053 1478 4053 1031 
z
" transform="scale(0.015625)"/>
     </defs>
     <use xlink:href="#Arial-BoldMT-32"/>
     <use xlink:href="#Arial-BoldMT-38" transform="translate(55.615234 0)"/>
     <use xlink:href="#Arial-BoldMT-25" transform="translate(111.230469 0)"/>
    </g>
   </g>
   <g id="patch_4">
    <path d="M 49.198606 123.303282 
L 81.266967 118.224153 
" style="fill: none; stroke: #000000; stroke-width: 0.8; stroke-linecap: round"/>
   </g>
   <g id="text_2">
    <g id="patch_5">
     <path d="M 3.6 135.839018 
L 46.825312 135.839018 
L 46.825312 112.202768 
L 3.6 112.202768 
z
" style="fill: #ffffff; stroke: #1a1a1a; stroke-width: 0.8; stroke-linejoin: miter"/>
    </g>
    <!-- 49% -->
    <g style="fill: #3eab71" transform="translate(7.2 128.686831) scale(0.18 -0.18)">
     <defs>
      <path id="Arial-BoldMT-34" d="M 1994 0 
L 1994 922 
L 119 922 
L 119 1691 
L 2106 4600 
L 2844 4600 
L 2844 1694 
L 3413 1694 
L 3413 922 
L 2844 922 
L 2844 0 
L 1994 0 
z
M 1994 1694 
L 1994 3259 
L 941 1694 
L 1994 1694 
z
" transform="scale(0.015625)"/>
      <path id="Arial-BoldMT-39" d="M 291 1059 
L 1141 1153 
Q 1172 894 1303 769 
Q 1434 644 1650 644 
Q 1922 644 2112 894 
Q 2303 1144 2356 1931 
Q 2025 1547 1528 1547 
Q 988 1547 595 1964 
Q 203 2381 203 3050 
Q 203 3747 617 4173 
Q 1031 4600 1672 4600 
Q 2369 4600 2816 4061 
Q 3263 3522 3263 2288 
Q 3263 1031 2797 475 
Q 2331 -81 1584 -81 
Q 1047 -81 715 205 
Q 384 491 291 1059 
z
M 2278 2978 
Q 2278 3403 2083 3637 
Q 1888 3872 1631 3872 
Q 1388 3872 1227 3680 
Q 1066 3488 1066 3050 
Q 1066 2606 1241 2398 
Q 1416 2191 1678 2191 
Q 1931 2191 2104 2391 
Q 2278 2591 2278 2978 
z
" transform="scale(0.015625)"/>
     </defs>
     <use xlink:href="#Arial-BoldMT-34"/>
     <use xlink:href="#Arial-BoldMT-39" transform="translate(55.615234 0)"/>
     <use xlink:href="#Arial-BoldMT-25" transform="translate(111.230469 0)"/>
    </g>
   </g>
   <g id="patch_6">
    <path d="M 271.544687 183.17325 
L 248.271283 183.17325 
L 220.474879 158.667402 
" style="fill: none; stroke: #000000; stroke-width: 0.8; stroke-linecap: round"/>
   </g>
   <g id="text_3">
    <g id="patch_7">
     <path d="M 273.948737 194.991375 
L 317.17405 194.991375 
L 317.17405 171.355125 
L 273.948737 171.355125 
z
" style="fill: #ffffff; stroke: #1a1a1a; stroke-width: 0.8; stroke-linejoin: miter"/>
    </g>
    <!-- 23% -->
    <g style="fill: #09a6f3" transform="translate(277.548737 187.839187) scale(0.18 -0.18)">
     <defs>
      <path id="Arial-BoldMT-33" d="M 241 1216 
L 1091 1319 
Q 1131 994 1309 822 
Q 1488 650 1741 650 
Q 2013 650 2198 856 
Q 2384 1063 2384 1413 
Q 2384 1744 2206 1937 
Q 2028 2131 1772 2131 
Q 1603 2131 1369 2066 
L 1466 2781 
Q 1822 2772 2009 2936 
Q 2197 3100 2197 3372 
Q 2197 3603 2059 3740 
Q 1922 3878 1694 3878 
Q 1469 3878 1309 3722 
Q 1150 3566 1116 3266 
L 306 3403 
Q 391 3819 561 4067 
Q 731 4316 1036 4458 
Q 1341 4600 1719 4600 
Q 2366 4600 2756 4188 
Q 3078 3850 3078 3425 
Q 3078 2822 2419 2463 
Q 2813 2378 3048 2084 
Q 3284 1791 3284 1375 
Q 3284 772 2843 347 
Q 2403 -78 1747 -78 
Q 1125 -78 715 280 
Q 306 638 241 1216 
z
" transform="scale(0.015625)"/>
     </defs>
     <use xlink:href="#Arial-BoldMT-32"/>
     <use xlink:href="#Arial-BoldMT-33" transform="translate(55.615234 0)"/>
     <use xlink:href="#Arial-BoldMT-25" transform="translate(111.230469 0)"/>
    </g>
   </g>
   <g id="matplotlib.axis_1"/>
   <g id="matplotlib.axis_2"/>
   <g id="patch_8">
    <path d="M 238.494833 105.692773 
C 238.494833 94.19562 235.956332 82.839019 231.061082 72.436085 
C 226.165833 62.03315 219.033522 52.838231 210.174814 45.509671 
C 201.316106 38.18111 190.947592 32.898089 179.811644 30.038864 
C 168.675695 27.179639 157.044583 26.814117 145.751077 28.968469 
L 151.605456 59.658191 
C 158.38156 58.365579 165.360227 58.584893 172.041796 60.300428 
C 178.723365 62.015963 184.944473 65.185775 190.259698 69.582912 
C 195.574923 73.980048 199.85431 79.496999 202.791459 85.73876 
C 205.728609 91.980521 207.25171 98.794481 207.25171 105.692773 
z
" style="fill: #0f6838; stroke: #ffffff; stroke-linejoin: miter"/>
   </g>
   <g id="patch_9">
    <path d="M 145.751081 28.96847 
C 125.826876 32.769218 108.14626 44.185437 96.483151 60.78036 
C 84.820041 77.375284 80.067822 97.877761 83.240852 117.91152 
C 86.413886 137.945279 97.269116 155.97576 113.489502 168.154378 
C 129.709888 180.332997 150.052955 185.726868 170.176498 183.184684 
L 166.260708 152.187919 
C 154.186583 153.71323 141.980743 150.476907 132.248511 143.169736 
C 122.51628 135.862565 116.003142 125.044277 114.099321 113.024021 
C 112.195503 101.003765 115.046835 88.702279 122.0447 78.745325 
C 129.042566 68.788371 139.650935 61.93864 151.605459 59.658191 
z
" style="fill: #3eab71; stroke: #ffffff; stroke-linejoin: miter"/>
   </g>
   <g id="patch_10">
    <path d="M 176.03545 188.350047 
C 194.90035 185.966865 212.260763 176.775002 224.835502 162.511765 
C 237.410241 148.248528 244.353786 129.872955 244.353786 110.858122 
L 213.110662 110.858127 
C 213.110662 122.267027 208.944536 133.292371 201.399692 141.850313 
C 193.854849 150.408256 183.438601 155.923373 172.119661 157.353282 
z
" style="fill: #09a6f3; stroke: #ffffff; stroke-linejoin: miter"/>
   </g>
   <g id="text_4">
    <!-- AJE -->
    <g style="fill: #262626" transform="translate(153.050775 109.456249) scale(0.08 -0.08)">
     <defs>
      <path id="ArialMT-41" d="M -9 0 
L 1750 4581 
L 2403 4581 
L 4278 0 
L 3588 0 
L 3053 1388 
L 1138 1388 
L 634 0 
L -9 0 
z
M 1313 1881 
L 2866 1881 
L 2388 3150 
Q 2169 3728 2063 4100 
Q 1975 3659 1816 3225 
L 1313 1881 
z
" transform="scale(0.015625)"/>
      <path id="ArialMT-4a" d="M 184 1300 
L 731 1375 
Q 753 850 928 656 
Q 1103 463 1413 463 
Q 1641 463 1806 567 
Q 1972 672 2034 851 
Q 2097 1031 2097 1425 
L 2097 4581 
L 2703 4581 
L 2703 1459 
Q 2703 884 2564 568 
Q 2425 253 2123 87 
Q 1822 -78 1416 -78 
Q 813 -78 492 269 
Q 172 616 184 1300 
z
" transform="scale(0.015625)"/>
      <path id="ArialMT-45" d="M 506 0 
L 506 4581 
L 3819 4581 
L 3819 4041 
L 1113 4041 
L 1113 2638 
L 3647 2638 
L 3647 2100 
L 1113 2100 
L 1113 541 
L 3925 541 
L 3925 0 
L 506 0 
z
" transform="scale(0.015625)"/>
     </defs>
     <use xlink:href="#ArialMT-41"/>
     <use xlink:href="#ArialMT-4a" transform="translate(66.699219 0)"/>
     <use xlink:href="#ArialMT-45" transform="translate(116.699219 0)"/>
    </g>
   </g>
  </g>
  <g id="axes_2">
   <g id="patch_11">
    <path d="M 635.862638 66.005653 
L 636.78546 66.005653 
L 671.651109 78.558061 
" style="fill: none; stroke: #000000; stroke-width: 0.8; stroke-linecap: round"/>
   </g>
   <g id="text_5">
    <g id="patch_12">
     <path d="M 590.233636 77.823778 
L 633.458949 77.823778 
L 633.458949 54.187528 
L 590.233636 54.187528 
z
" style="fill: #ffffff; stroke: #1a1a1a; stroke-width: 0.8; stroke-linejoin: miter"/>
    </g>
    <!-- 89% -->
    <g style="fill: #0f6838" transform="translate(593.833636 70.67159) scale(0.18 -0.18)">
     <use xlink:href="#Arial-BoldMT-38"/>
     <use xlink:href="#Arial-BoldMT-39" transform="translate(55.615234 0)"/>
     <use xlink:href="#Arial-BoldMT-25" transform="translate(111.230469 0)"/>
    </g>
   </g>
   <g id="patch_13">
    <path d="M 858.181756 152.2233 
L 854.546377 152.2233 
L 820.537688 137.50643 
" style="fill: none; stroke: #000000; stroke-width: 0.8; stroke-linecap: round"/>
   </g>
   <g id="text_6">
    <g id="patch_14">
     <path d="M 860.582373 164.041425 
L 893.797998 164.041425 
L 893.797998 140.405175 
L 860.582373 140.405175 
z
" style="fill: #ffffff; stroke: #1a1a1a; stroke-width: 0.8; stroke-linejoin: miter"/>
    </g>
    <!-- 9% -->
    <g style="fill: #3eab71" transform="translate(864.182373 156.889238) scale(0.18 -0.18)">
     <use xlink:href="#Arial-BoldMT-39"/>
     <use xlink:href="#Arial-BoldMT-25" transform="translate(55.615234 0)"/>
    </g>
   </g>
   <g id="patch_15">
    <path d="M 858.180043 112.686303 
L 826.972683 110.722915 
" style="fill: none; stroke: #000000; stroke-width: 0.8; stroke-linecap: round"/>
   </g>
   <g id="text_7">
    <g id="patch_16">
     <path d="M 860.582373 124.867526 
L 893.797998 124.867526 
L 893.797998 101.231276 
L 860.582373 101.231276 
z
" style="fill: #ffffff; stroke: #1a1a1a; stroke-width: 0.8; stroke-linejoin: miter"/>
    </g>
    <!-- 2% -->
    <g style="fill: #09a6f3" transform="translate(864.182373 117.715338) scale(0.18 -0.18)">
     <use xlink:href="#Arial-BoldMT-32"/>
     <use xlink:href="#Arial-BoldMT-25" transform="translate(55.615234 0)"/>
    </g>
   </g>
   <g id="matplotlib.axis_3"/>
   <g id="matplotlib.axis_4"/>
   <g id="patch_17">
    <path d="M 825.128469 105.692773 
C 825.128469 96.570062 823.53022 87.517488 820.406329 78.946306 
C 817.282438 70.375125 812.680939 62.417128 806.810878 55.433846 
C 800.940816 48.450565 793.892451 42.549374 785.985988 37.998364 
C 778.079525 33.447354 769.436535 30.316503 760.449668 28.748043 
C 751.462801 27.179583 742.27024 27.197633 733.289602 28.801371 
C 724.308963 30.405109 715.678334 33.569877 707.789804 38.1519 
C 699.901273 42.733922 692.876136 48.662746 687.033543 55.669025 
C 681.190949 62.675304 676.620736 70.65131 673.530528 79.234692 
C 670.44032 87.818075 668.877631 96.876856 668.913455 105.999496 
C 668.949279 115.122136 670.583065 124.168365 673.74059 132.727213 
C 676.898116 141.286061 681.530829 149.225927 687.428268 156.186103 
C 693.325707 163.14628 700.397192 169.019747 708.321465 173.539673 
C 716.245739 178.0596 724.900956 181.156487 733.893913 182.689644 
C 742.88687 184.222801 752.07929 184.168653 761.053561 182.529661 
C 770.027833 180.890669 778.645967 177.692034 786.516444 173.079069 
C 794.38692 168.466104 801.388721 162.509739 807.203756 155.48057 
L 783.130518 135.565451 
C 779.641497 139.782952 775.440416 143.356771 770.718131 146.12455 
C 765.995845 148.892329 760.824964 150.811511 755.440401 151.794906 
C 750.055838 152.778301 744.540387 152.81079 739.144612 151.890896 
C 733.748838 150.971002 728.555708 149.112869 723.801144 146.400913 
C 719.046579 143.688957 714.803689 140.164877 711.265225 135.988771 
C 707.726762 131.812665 704.947134 127.048746 703.052619 121.913437 
C 701.158104 116.778128 700.177832 111.350391 700.156338 105.876807 
C 700.134843 100.403223 701.072456 94.967954 702.926581 89.817925 
C 704.780706 84.667895 707.522834 79.882292 711.02839 75.678524 
C 714.533946 71.474757 718.749029 67.917463 723.482147 65.168249 
C 728.215265 62.419035 733.393642 60.520175 738.782025 59.557932 
C 744.170409 58.595689 749.685945 58.584859 755.078066 59.525935 
C 760.470186 60.467011 765.65598 62.345522 770.399857 65.076128 
C 775.143735 67.806733 779.372754 71.347448 782.894791 75.537417 
C 786.416828 79.727386 789.177727 84.502184 791.052062 89.644893 
C 792.926396 94.787602 793.885346 100.219147 793.885346 105.692773 
z
" style="fill: #0f6838; stroke: #ffffff; stroke-linejoin: miter"/>
   </g>
   <g id="patch_18">
    <path d="M 807.203757 155.480568 
C 811.90395 149.799014 815.776003 143.480399 818.704465 136.713124 
C 821.632928 129.94585 823.588396 122.797851 824.512568 115.482267 
L 793.515805 111.566469 
C 792.961302 115.95582 791.788021 120.244619 790.030944 124.304984 
C 788.273866 128.365348 785.950634 132.156518 783.130518 135.56545 
z
" style="fill: #3eab71; stroke: #ffffff; stroke-linejoin: miter"/>
   </g>
   <g id="patch_19">
    <path d="M 832.307936 115.972708 
C 832.512982 114.349588 832.666984 112.720426 832.76971 111.087633 
C 832.872435 109.45484 832.923837 107.819222 832.923837 106.183201 
L 801.680714 106.183206 
C 801.680714 107.164819 801.649873 108.14619 801.588237 109.125866 
C 801.526602 110.105541 801.434201 111.083038 801.311173 112.056911 
z
" style="fill: #09a6f3; stroke: #ffffff; stroke-linejoin: miter"/>
   </g>
   <g id="text_8">
    <!-- BBC -->
    <g style="fill: #262626" transform="translate(738.795661 109.456249) scale(0.08 -0.08)">
     <defs>
      <path id="ArialMT-42" d="M 469 0 
L 469 4581 
L 2188 4581 
Q 2713 4581 3030 4442 
Q 3347 4303 3526 4014 
Q 3706 3725 3706 3409 
Q 3706 3116 3547 2856 
Q 3388 2597 3066 2438 
Q 3481 2316 3704 2022 
Q 3928 1728 3928 1328 
Q 3928 1006 3792 729 
Q 3656 453 3456 303 
Q 3256 153 2954 76 
Q 2653 0 2216 0 
L 469 0 
z
M 1075 2656 
L 2066 2656 
Q 2469 2656 2644 2709 
Q 2875 2778 2992 2937 
Q 3109 3097 3109 3338 
Q 3109 3566 3000 3739 
Q 2891 3913 2687 3977 
Q 2484 4041 1991 4041 
L 1075 4041 
L 1075 2656 
z
M 1075 541 
L 2216 541 
Q 2509 541 2628 563 
Q 2838 600 2978 687 
Q 3119 775 3209 942 
Q 3300 1109 3300 1328 
Q 3300 1584 3169 1773 
Q 3038 1963 2805 2039 
Q 2572 2116 2134 2116 
L 1075 2116 
L 1075 541 
z
" transform="scale(0.015625)"/>
      <path id="ArialMT-43" d="M 3763 1606 
L 4369 1453 
Q 4178 706 3683 314 
Q 3188 -78 2472 -78 
Q 1731 -78 1267 223 
Q 803 525 561 1097 
Q 319 1669 319 2325 
Q 319 3041 592 3573 
Q 866 4106 1370 4382 
Q 1875 4659 2481 4659 
Q 3169 4659 3637 4309 
Q 4106 3959 4291 3325 
L 3694 3184 
Q 3534 3684 3231 3912 
Q 2928 4141 2469 4141 
Q 1941 4141 1586 3887 
Q 1231 3634 1087 3207 
Q 944 2781 944 2328 
Q 944 1744 1114 1308 
Q 1284 872 1643 656 
Q 2003 441 2422 441 
Q 2931 441 3284 734 
Q 3638 1028 3763 1606 
z
" transform="scale(0.015625)"/>
     </defs>
     <use xlink:href="#ArialMT-42"/>
     <use xlink:href="#ArialMT-42" transform="translate(66.699219 0)"/>
     <use xlink:href="#ArialMT-43" transform="translate(133.398438 0)"/>
    </g>
   </g>
  </g>
  <g id="axes_3">
   <g id="patch_20">
    <path d="M 49.227919 267.391785 
L 52.86132 267.391785 
L 86.869994 282.108648 
" style="fill: none; stroke: #000000; stroke-width: 0.8; stroke-linecap: round"/>
   </g>
   <g id="text_9">
    <g id="patch_21">
     <path d="M 3.6 279.20991 
L 46.825312 279.20991 
L 46.825312 255.57366 
L 3.6 255.57366 
z
" style="fill: #ffffff; stroke: #1a1a1a; stroke-width: 0.8; stroke-linejoin: miter"/>
    </g>
    <!-- 87% -->
    <g style="fill: #0f6838" transform="translate(7.2 272.057722) scale(0.18 -0.18)">
     <defs>
      <path id="Arial-BoldMT-37" d="M 272 3703 
L 272 4519 
L 3275 4519 
L 3275 3881 
Q 2903 3516 2518 2831 
Q 2134 2147 1932 1376 
Q 1731 606 1734 0 
L 888 0 
Q 909 950 1279 1937 
Q 1650 2925 2269 3703 
L 272 3703 
z
" transform="scale(0.015625)"/>
     </defs>
     <use xlink:href="#Arial-BoldMT-38"/>
     <use xlink:href="#Arial-BoldMT-37" transform="translate(55.615234 0)"/>
     <use xlink:href="#Arial-BoldMT-25" transform="translate(111.230469 0)"/>
    </g>
   </g>
   <g id="patch_22">
    <path d="M 271.55176 367.112602 
L 264.778881 367.112602 
L 231.761385 350.289348 
" style="fill: none; stroke: #000000; stroke-width: 0.8; stroke-linecap: round"/>
   </g>
   <g id="text_10">
    <g id="patch_23">
     <path d="M 273.948737 378.930727 
L 316.18405 378.930727 
L 316.18405 355.294477 
L 273.948737 355.294477 
z
" style="fill: #ffffff; stroke: #1a1a1a; stroke-width: 0.8; stroke-linejoin: miter"/>
    </g>
    <!-- 11% -->
    <g style="fill: #3eab71" transform="translate(277.548737 371.77854) scale(0.18 -0.18)">
     <defs>
      <path id="Arial-BoldMT-31" d="M 2519 0 
L 1641 0 
L 1641 3309 
Q 1159 2859 506 2644 
L 506 3441 
Q 850 3553 1253 3867 
Q 1656 4181 1806 4600 
L 2519 4600 
L 2519 0 
z
" transform="scale(0.015625)"/>
     </defs>
     <use xlink:href="#Arial-BoldMT-31"/>
     <use xlink:href="#Arial-BoldMT-31" transform="translate(50.115234 0)"/>
     <use xlink:href="#Arial-BoldMT-25" transform="translate(105.730469 0)"/>
    </g>
   </g>
   <g id="patch_24">
    <path d="M 271.546407 320.915823 
L 240.339046 318.952436 
" style="fill: none; stroke: #000000; stroke-width: 0.8; stroke-linecap: round"/>
   </g>
   <g id="text_11">
    <g id="patch_25">
     <path d="M 273.948737 333.097046 
L 307.164362 333.097046 
L 307.164362 309.460796 
L 273.948737 309.460796 
z
" style="fill: #ffffff; stroke: #1a1a1a; stroke-width: 0.8; stroke-linejoin: miter"/>
    </g>
    <!-- 2% -->
    <g style="fill: #09a6f3" transform="translate(277.548737 325.944859) scale(0.18 -0.18)">
     <use xlink:href="#Arial-BoldMT-32"/>
     <use xlink:href="#Arial-BoldMT-25" transform="translate(55.615234 0)"/>
    </g>
   </g>
   <g id="matplotlib.axis_5"/>
   <g id="matplotlib.axis_6"/>
   <g id="patch_26">
    <path d="M 238.494833 313.922293 
C 238.494833 305.005588 236.96795 296.154367 233.980493 287.753014 
C 230.993035 279.351661 226.588883 271.523576 220.959296 264.608709 
C 215.329709 257.693842 208.557375 251.79376 200.936397 247.164686 
C 193.315418 242.535612 184.957734 239.245539 176.226292 237.437345 
C 167.49485 235.629151 158.517901 235.329395 149.685286 236.551094 
C 140.852671 237.772793 132.294125 240.498003 124.381321 244.608377 
C 116.468517 248.71875 109.317679 254.153913 103.239347 260.677832 
C 97.161015 267.201751 92.244469 274.718601 88.703219 282.90195 
C 85.161969 291.085298 83.04803 299.814945 82.453205 308.711788 
C 81.858379 317.608631 82.791403 326.541992 85.211759 335.123922 
C 87.632114 343.705852 91.504251 351.810297 96.660013 359.085306 
C 101.815775 366.360315 108.179434 372.69903 115.474635 377.826182 
C 122.769836 382.953333 130.889426 386.793611 139.480795 389.180245 
C 148.072164 391.566878 157.00912 392.464811 165.903558 391.835049 
C 174.797997 391.205288 183.519274 389.057081 191.688652 385.48372 
C 199.85803 381.910359 207.355514 376.96433 213.855511 370.860424 
L 192.468117 348.085172 
C 188.568118 351.747515 184.069628 354.715133 179.168001 356.859149 
C 174.266375 359.003166 169.033608 360.29209 163.696945 360.669947 
C 158.360282 361.047804 152.998108 360.509044 147.843287 359.077064 
C 142.688465 357.645084 137.816712 355.340917 133.439591 352.264626 
C 129.06247 349.188335 125.244275 345.385106 122.150818 341.020101 
C 119.05736 336.655095 116.734079 331.792428 115.281865 326.64327 
C 113.829652 321.494113 113.269837 316.134096 113.626733 310.79599 
C 113.983628 305.457884 115.251991 300.220096 117.376741 295.310087 
C 119.501491 290.400078 122.451419 285.889968 126.098418 281.975616 
C 129.745418 278.061265 134.03592 274.800168 138.783603 272.333943 
C 143.531285 269.867719 148.666412 268.232593 153.965981 267.499574 
C 159.265551 266.766554 164.65172 266.946408 169.890585 268.031324 
C 175.12945 269.116241 180.144061 271.090285 184.716648 273.867729 
C 189.289235 276.645173 193.352635 280.185222 196.730388 284.334143 
C 200.10814 288.483063 202.750631 293.179914 204.543106 298.220726 
C 206.33558 303.261538 207.25171 308.57227 207.25171 313.922293 
z
" style="fill: #0f6838; stroke: #ffffff; stroke-linejoin: miter"/>
   </g>
   <g id="patch_27">
    <path d="M 213.855514 370.860421 
C 220.430588 364.686012 225.886751 357.419076 229.981606 349.382465 
C 234.076461 341.345854 236.748466 332.660361 237.878931 323.711787 
L 206.882169 319.79599 
C 206.20389 325.165134 204.600687 330.37643 202.143773 335.198396 
C 199.68686 340.020363 196.413162 344.380524 192.468119 348.08517 
z
" style="fill: #3eab71; stroke: #ffffff; stroke-linejoin: miter"/>
   </g>
   <g id="patch_28">
    <path d="M 245.674299 324.202229 
C 245.879345 322.579108 246.033348 320.949946 246.136073 319.317153 
C 246.238799 317.684361 246.290201 316.048743 246.290201 314.412721 
L 215.047078 314.412727 
C 215.047078 315.39434 215.016236 316.37571 214.954601 317.355386 
C 214.892966 318.335062 214.800564 319.312559 214.677537 320.286431 
z
" style="fill: #09a6f3; stroke: #ffffff; stroke-linejoin: miter"/>
   </g>
   <g id="text_12">
    <!-- CNN -->
    <g style="fill: #262626" transform="translate(151.720775 317.685769) scale(0.08 -0.08)">
     <defs>
      <path id="ArialMT-4e" d="M 488 0 
L 488 4581 
L 1109 4581 
L 3516 984 
L 3516 4581 
L 4097 4581 
L 4097 0 
L 3475 0 
L 1069 3600 
L 1069 0 
L 488 0 
z
" transform="scale(0.015625)"/>
     </defs>
     <use xlink:href="#ArialMT-43"/>
     <use xlink:href="#ArialMT-4e" transform="translate(72.216797 0)"/>
     <use xlink:href="#ArialMT-4e" transform="translate(144.433594 0)"/>
    </g>
   </g>
  </g>
  <g id="axes_4">
   <g id="patch_29">
    <path d="M 635.862987 236.441844 
L 659.136379 236.441844 
L 686.932788 260.947683 
" style="fill: none; stroke: #000000; stroke-width: 0.8; stroke-linecap: round"/>
   </g>
   <g id="text_13">
    <g id="patch_30">
     <path d="M 590.233636 248.259969 
L 633.458949 248.259969 
L 633.458949 224.623719 
L 590.233636 224.623719 
z
" style="fill: #ffffff; stroke: #1a1a1a; stroke-width: 0.8; stroke-linejoin: miter"/>
    </g>
    <!-- 77% -->
    <g style="fill: #0f6838" transform="translate(593.833636 241.107782) scale(0.18 -0.18)">
     <use xlink:href="#Arial-BoldMT-37"/>
     <use xlink:href="#Arial-BoldMT-37" transform="translate(55.615234 0)"/>
     <use xlink:href="#Arial-BoldMT-25" transform="translate(111.230469 0)"/>
    </g>
   </g>
   <g id="patch_31">
    <path d="M 858.177735 396.768149 
L 829.866499 396.768149 
L 803.663664 370.565314 
" style="fill: none; stroke: #000000; stroke-width: 0.8; stroke-linecap: round"/>
   </g>
   <g id="text_14">
    <g id="patch_32">
     <path d="M 860.582373 408.586274 
L 903.807686 408.586274 
L 903.807686 384.950024 
L 860.582373 384.950024 
z
" style="fill: #ffffff; stroke: #1a1a1a; stroke-width: 0.8; stroke-linejoin: miter"/>
    </g>
    <!-- 21% -->
    <g style="fill: #3eab71" transform="translate(864.182373 401.434087) scale(0.18 -0.18)">
     <use xlink:href="#Arial-BoldMT-32"/>
     <use xlink:href="#Arial-BoldMT-31" transform="translate(55.615234 0)"/>
     <use xlink:href="#Arial-BoldMT-25" transform="translate(111.230469 0)"/>
    </g>
   </g>
   <g id="patch_33">
    <path d="M 858.179978 320.915929 
L 826.972674 318.952512 
" style="fill: none; stroke: #000000; stroke-width: 0.8; stroke-linecap: round"/>
   </g>
   <g id="text_15">
    <g id="patch_34">
     <path d="M 860.582373 333.097158 
L 893.797998 333.097158 
L 893.797998 309.460908 
L 860.582373 309.460908 
z
" style="fill: #ffffff; stroke: #1a1a1a; stroke-width: 0.8; stroke-linejoin: miter"/>
    </g>
    <!-- 2% -->
    <g style="fill: #09a6f3" transform="translate(864.182373 325.94497) scale(0.18 -0.18)">
     <use xlink:href="#Arial-BoldMT-32"/>
     <use xlink:href="#Arial-BoldMT-25" transform="translate(55.615234 0)"/>
    </g>
   </g>
   <g id="matplotlib.axis_7"/>
   <g id="matplotlib.axis_8"/>
   <g id="patch_35">
    <path d="M 825.128469 313.922293 
C 825.128469 306.034626 823.933673 298.19227 821.584793 290.662458 
C 819.235913 283.132647 815.759937 276.001891 811.275311 269.513176 
C 806.790684 263.024461 801.348932 257.252336 795.135485 252.393492 
C 788.922038 247.534647 782.008283 243.644905 774.629812 240.856813 
C 767.251341 238.06872 759.492925 236.414309 751.618938 235.949955 
C 743.744951 235.485601 735.845858 236.216639 728.190826 238.118158 
C 720.535793 240.019677 713.212771 243.06983 706.471296 247.164682 
C 699.729821 251.259534 693.647347 256.352038 688.431138 262.268664 
C 683.214929 268.185289 678.924915 274.85806 675.707281 282.059597 
C 672.489646 289.261133 670.38136 296.908696 669.454262 304.741689 
C 668.527165 312.574683 668.791908 320.503113 670.23947 328.256812 
C 671.687033 336.010512 674.300783 343.500399 677.991656 350.471249 
C 681.682529 357.442099 686.40812 363.813824 692.007401 369.369303 
C 697.606682 374.924782 704.015323 379.600188 711.014944 383.236203 
C 718.014565 386.872217 725.524747 389.427066 733.289576 390.813691 
C 741.054405 392.200316 748.98467 392.402786 756.810141 391.414201 
L 752.894349 360.417438 
C 748.199066 361.010589 743.440907 360.889107 738.78201 360.057132 
C 734.123113 359.225157 729.617003 357.692248 725.417231 355.510639 
C 721.217458 353.32903 717.372274 350.523787 714.012705 347.190499 
C 710.653137 343.857212 707.817782 340.034177 705.603258 335.851667 
C 703.388734 331.669157 701.820484 327.175225 700.951947 322.523005 
C 700.083409 317.870785 699.924563 313.113727 700.480822 308.413931 
C 701.03708 303.714135 702.302052 299.125597 704.232633 294.804675 
C 706.163213 290.483753 708.737222 286.480091 711.866947 282.930115 
C 714.996673 279.38014 718.646157 276.324638 722.691042 273.867726 
C 726.735927 271.410815 731.12974 269.580723 735.72276 268.439812 
C 740.315779 267.2989 745.055235 266.860278 749.779627 267.13889 
C 754.50402 267.417503 759.159069 268.410149 763.586152 270.083005 
C 768.013234 271.75586 772.161487 274.089705 775.889555 277.005012 
C 779.617624 279.920319 782.882675 283.383594 785.573451 287.276823 
C 788.264227 291.170052 790.349813 295.448505 791.75914 299.966392 
C 793.168468 304.484279 793.885346 309.189693 793.885346 313.922293 
z
" style="fill: #0f6838; stroke: #ffffff; stroke-linejoin: miter"/>
   </g>
   <g id="patch_36">
    <path d="M 756.810134 391.414204 
C 774.004469 389.242061 789.996316 381.407744 802.251188 369.15289 
C 814.506061 356.898037 822.340405 340.906157 824.512563 323.711824 
L 793.515802 319.796012 
C 792.212508 330.112611 787.511901 339.707739 780.158978 347.060652 
C 772.806054 354.413564 763.210946 359.114154 752.894345 360.41744 
z
" style="fill: #3eab71; stroke: #ffffff; stroke-linejoin: miter"/>
   </g>
   <g id="patch_37">
    <path d="M 832.307931 324.20227 
C 832.512977 322.579156 832.666984 320.949981 832.769709 319.317194 
C 832.872435 317.684408 832.923837 316.048815 832.923837 314.4128 
L 801.680714 314.412775 
C 801.680714 315.394384 801.649873 316.37574 801.588237 317.355412 
C 801.526602 318.335084 801.434198 319.312589 801.31117 320.286457 
z
" style="fill: #09a6f3; stroke: #ffffff; stroke-linejoin: miter"/>
   </g>
   <g id="text_16">
    <!-- NYT -->
    <g style="fill: #262626" transform="translate(739.020661 317.685769) scale(0.08 -0.08)">
     <defs>
      <path id="ArialMT-59" d="M 1784 0 
L 1784 1941 
L 19 4581 
L 756 4581 
L 1659 3200 
Q 1909 2813 2125 2425 
Q 2331 2784 2625 3234 
L 3513 4581 
L 4219 4581 
L 2391 1941 
L 2391 0 
L 1784 0 
z
" transform="scale(0.015625)"/>
      <path id="ArialMT-54" d="M 1659 0 
L 1659 4041 
L 150 4041 
L 150 4581 
L 3781 4581 
L 3781 4041 
L 2266 4041 
L 2266 0 
L 1659 0 
z
" transform="scale(0.015625)"/>
     </defs>
     <use xlink:href="#ArialMT-4e"/>
     <use xlink:href="#ArialMT-59" transform="translate(72.216797 0)"/>
     <use xlink:href="#ArialMT-54" transform="translate(138.916016 0)"/>
    </g>
   </g>
  </g>
  <g id="legend_1">
   <g id="patch_38">
    <path d="M 47.645093 464.652054 
L 859.762593 464.652054 
Q 862.962593 464.652054 862.962593 461.452054 
L 862.962593 440.037054 
Q 862.962593 436.837054 859.762593 436.837054 
L 47.645093 436.837054 
Q 44.445093 436.837054 44.445093 440.037054 
L 44.445093 461.452054 
Q 44.445093 464.652054 47.645093 464.652054 
z
" style="fill: #ffffff; opacity: 0.8; stroke: #cccccc; stroke-linejoin: miter"/>
   </g>
   <g id="patch_39">
    <path d="M 50.845093 454.884554 
L 82.845093 454.884554 
L 82.845093 443.684554 
L 50.845093 443.684554 
z
" style="fill: #0f6838; stroke: #ffffff; stroke-linejoin: miter"/>
   </g>
   <g id="text_17">
    <!-- Source Doubting (Palestine) -->
    <g style="fill: #262626" transform="translate(95.645093 454.884554) scale(0.16 -0.16)">
     <defs>
      <path id="ArialMT-53" d="M 288 1472 
L 859 1522 
Q 900 1178 1048 958 
Q 1197 738 1509 602 
Q 1822 466 2213 466 
Q 2559 466 2825 569 
Q 3091 672 3220 851 
Q 3350 1031 3350 1244 
Q 3350 1459 3225 1620 
Q 3100 1781 2813 1891 
Q 2628 1963 1997 2114 
Q 1366 2266 1113 2400 
Q 784 2572 623 2826 
Q 463 3081 463 3397 
Q 463 3744 659 4045 
Q 856 4347 1234 4503 
Q 1613 4659 2075 4659 
Q 2584 4659 2973 4495 
Q 3363 4331 3572 4012 
Q 3781 3694 3797 3291 
L 3216 3247 
Q 3169 3681 2898 3903 
Q 2628 4125 2100 4125 
Q 1550 4125 1298 3923 
Q 1047 3722 1047 3438 
Q 1047 3191 1225 3031 
Q 1400 2872 2139 2705 
Q 2878 2538 3153 2413 
Q 3553 2228 3743 1945 
Q 3934 1663 3934 1294 
Q 3934 928 3725 604 
Q 3516 281 3123 101 
Q 2731 -78 2241 -78 
Q 1619 -78 1198 103 
Q 778 284 539 648 
Q 300 1013 288 1472 
z
" transform="scale(0.015625)"/>
      <path id="ArialMT-6f" d="M 213 1659 
Q 213 2581 725 3025 
Q 1153 3394 1769 3394 
Q 2453 3394 2887 2945 
Q 3322 2497 3322 1706 
Q 3322 1066 3130 698 
Q 2938 331 2570 128 
Q 2203 -75 1769 -75 
Q 1072 -75 642 372 
Q 213 819 213 1659 
z
M 791 1659 
Q 791 1022 1069 705 
Q 1347 388 1769 388 
Q 2188 388 2466 706 
Q 2744 1025 2744 1678 
Q 2744 2294 2464 2611 
Q 2184 2928 1769 2928 
Q 1347 2928 1069 2612 
Q 791 2297 791 1659 
z
" transform="scale(0.015625)"/>
      <path id="ArialMT-75" d="M 2597 0 
L 2597 488 
Q 2209 -75 1544 -75 
Q 1250 -75 995 37 
Q 741 150 617 320 
Q 494 491 444 738 
Q 409 903 409 1263 
L 409 3319 
L 972 3319 
L 972 1478 
Q 972 1038 1006 884 
Q 1059 663 1231 536 
Q 1403 409 1656 409 
Q 1909 409 2131 539 
Q 2353 669 2445 892 
Q 2538 1116 2538 1541 
L 2538 3319 
L 3100 3319 
L 3100 0 
L 2597 0 
z
" transform="scale(0.015625)"/>
      <path id="ArialMT-72" d="M 416 0 
L 416 3319 
L 922 3319 
L 922 2816 
Q 1116 3169 1280 3281 
Q 1444 3394 1641 3394 
Q 1925 3394 2219 3213 
L 2025 2691 
Q 1819 2813 1613 2813 
Q 1428 2813 1281 2702 
Q 1134 2591 1072 2394 
Q 978 2094 978 1738 
L 978 0 
L 416 0 
z
" transform="scale(0.015625)"/>
      <path id="ArialMT-63" d="M 2588 1216 
L 3141 1144 
Q 3050 572 2676 248 
Q 2303 -75 1759 -75 
Q 1078 -75 664 370 
Q 250 816 250 1647 
Q 250 2184 428 2587 
Q 606 2991 970 3192 
Q 1334 3394 1763 3394 
Q 2303 3394 2647 3120 
Q 2991 2847 3088 2344 
L 2541 2259 
Q 2463 2594 2264 2762 
Q 2066 2931 1784 2931 
Q 1359 2931 1093 2626 
Q 828 2322 828 1663 
Q 828 994 1084 691 
Q 1341 388 1753 388 
Q 2084 388 2306 591 
Q 2528 794 2588 1216 
z
" transform="scale(0.015625)"/>
      <path id="ArialMT-65" d="M 2694 1069 
L 3275 997 
Q 3138 488 2766 206 
Q 2394 -75 1816 -75 
Q 1088 -75 661 373 
Q 234 822 234 1631 
Q 234 2469 665 2931 
Q 1097 3394 1784 3394 
Q 2450 3394 2872 2941 
Q 3294 2488 3294 1666 
Q 3294 1616 3291 1516 
L 816 1516 
Q 847 969 1125 678 
Q 1403 388 1819 388 
Q 2128 388 2347 550 
Q 2566 713 2694 1069 
z
M 847 1978 
L 2700 1978 
Q 2663 2397 2488 2606 
Q 2219 2931 1791 2931 
Q 1403 2931 1139 2672 
Q 875 2413 847 1978 
z
" transform="scale(0.015625)"/>
      <path id="ArialMT-20" transform="scale(0.015625)"/>
      <path id="ArialMT-44" d="M 494 0 
L 494 4581 
L 2072 4581 
Q 2606 4581 2888 4516 
Q 3281 4425 3559 4188 
Q 3922 3881 4101 3404 
Q 4281 2928 4281 2316 
Q 4281 1794 4159 1391 
Q 4038 988 3847 723 
Q 3656 459 3429 307 
Q 3203 156 2883 78 
Q 2563 0 2147 0 
L 494 0 
z
M 1100 541 
L 2078 541 
Q 2531 541 2789 625 
Q 3047 709 3200 863 
Q 3416 1078 3536 1442 
Q 3656 1806 3656 2325 
Q 3656 3044 3420 3430 
Q 3184 3816 2847 3947 
Q 2603 4041 2063 4041 
L 1100 4041 
L 1100 541 
z
" transform="scale(0.015625)"/>
      <path id="ArialMT-62" d="M 941 0 
L 419 0 
L 419 4581 
L 981 4581 
L 981 2947 
Q 1338 3394 1891 3394 
Q 2197 3394 2470 3270 
Q 2744 3147 2920 2923 
Q 3097 2700 3197 2384 
Q 3297 2069 3297 1709 
Q 3297 856 2875 390 
Q 2453 -75 1863 -75 
Q 1275 -75 941 416 
L 941 0 
z
M 934 1684 
Q 934 1088 1097 822 
Q 1363 388 1816 388 
Q 2184 388 2453 708 
Q 2722 1028 2722 1663 
Q 2722 2313 2464 2622 
Q 2206 2931 1841 2931 
Q 1472 2931 1203 2611 
Q 934 2291 934 1684 
z
" transform="scale(0.015625)"/>
      <path id="ArialMT-74" d="M 1650 503 
L 1731 6 
Q 1494 -44 1306 -44 
Q 1000 -44 831 53 
Q 663 150 594 308 
Q 525 466 525 972 
L 525 2881 
L 113 2881 
L 113 3319 
L 525 3319 
L 525 4141 
L 1084 4478 
L 1084 3319 
L 1650 3319 
L 1650 2881 
L 1084 2881 
L 1084 941 
Q 1084 700 1114 631 
Q 1144 563 1211 522 
Q 1278 481 1403 481 
Q 1497 481 1650 503 
z
" transform="scale(0.015625)"/>
      <path id="ArialMT-69" d="M 425 3934 
L 425 4581 
L 988 4581 
L 988 3934 
L 425 3934 
z
M 425 0 
L 425 3319 
L 988 3319 
L 988 0 
L 425 0 
z
" transform="scale(0.015625)"/>
      <path id="ArialMT-6e" d="M 422 0 
L 422 3319 
L 928 3319 
L 928 2847 
Q 1294 3394 1984 3394 
Q 2284 3394 2536 3286 
Q 2788 3178 2913 3003 
Q 3038 2828 3088 2588 
Q 3119 2431 3119 2041 
L 3119 0 
L 2556 0 
L 2556 2019 
Q 2556 2363 2490 2533 
Q 2425 2703 2258 2804 
Q 2091 2906 1866 2906 
Q 1506 2906 1245 2678 
Q 984 2450 984 1813 
L 984 0 
L 422 0 
z
" transform="scale(0.015625)"/>
      <path id="ArialMT-67" d="M 319 -275 
L 866 -356 
Q 900 -609 1056 -725 
Q 1266 -881 1628 -881 
Q 2019 -881 2231 -725 
Q 2444 -569 2519 -288 
Q 2563 -116 2559 434 
Q 2191 0 1641 0 
Q 956 0 581 494 
Q 206 988 206 1678 
Q 206 2153 378 2554 
Q 550 2956 876 3175 
Q 1203 3394 1644 3394 
Q 2231 3394 2613 2919 
L 2613 3319 
L 3131 3319 
L 3131 450 
Q 3131 -325 2973 -648 
Q 2816 -972 2473 -1159 
Q 2131 -1347 1631 -1347 
Q 1038 -1347 672 -1080 
Q 306 -813 319 -275 
z
M 784 1719 
Q 784 1066 1043 766 
Q 1303 466 1694 466 
Q 2081 466 2343 764 
Q 2606 1063 2606 1700 
Q 2606 2309 2336 2618 
Q 2066 2928 1684 2928 
Q 1309 2928 1046 2623 
Q 784 2319 784 1719 
z
" transform="scale(0.015625)"/>
      <path id="ArialMT-28" d="M 1497 -1347 
Q 1031 -759 709 28 
Q 388 816 388 1659 
Q 388 2403 628 3084 
Q 909 3875 1497 4659 
L 1900 4659 
Q 1522 4009 1400 3731 
Q 1209 3300 1100 2831 
Q 966 2247 966 1656 
Q 966 153 1900 -1347 
L 1497 -1347 
z
" transform="scale(0.015625)"/>
      <path id="ArialMT-50" d="M 494 0 
L 494 4581 
L 2222 4581 
Q 2678 4581 2919 4538 
Q 3256 4481 3484 4323 
Q 3713 4166 3852 3881 
Q 3991 3597 3991 3256 
Q 3991 2672 3619 2267 
Q 3247 1863 2275 1863 
L 1100 1863 
L 1100 0 
L 494 0 
z
M 1100 2403 
L 2284 2403 
Q 2872 2403 3119 2622 
Q 3366 2841 3366 3238 
Q 3366 3525 3220 3729 
Q 3075 3934 2838 4000 
Q 2684 4041 2272 4041 
L 1100 4041 
L 1100 2403 
z
" transform="scale(0.015625)"/>
      <path id="ArialMT-61" d="M 2588 409 
Q 2275 144 1986 34 
Q 1697 -75 1366 -75 
Q 819 -75 525 192 
Q 231 459 231 875 
Q 231 1119 342 1320 
Q 453 1522 633 1644 
Q 813 1766 1038 1828 
Q 1203 1872 1538 1913 
Q 2219 1994 2541 2106 
Q 2544 2222 2544 2253 
Q 2544 2597 2384 2738 
Q 2169 2928 1744 2928 
Q 1347 2928 1158 2789 
Q 969 2650 878 2297 
L 328 2372 
Q 403 2725 575 2942 
Q 747 3159 1072 3276 
Q 1397 3394 1825 3394 
Q 2250 3394 2515 3294 
Q 2781 3194 2906 3042 
Q 3031 2891 3081 2659 
Q 3109 2516 3109 2141 
L 3109 1391 
Q 3109 606 3145 398 
Q 3181 191 3288 0 
L 2700 0 
Q 2613 175 2588 409 
z
M 2541 1666 
Q 2234 1541 1622 1453 
Q 1275 1403 1131 1340 
Q 988 1278 909 1158 
Q 831 1038 831 891 
Q 831 666 1001 516 
Q 1172 366 1500 366 
Q 1825 366 2078 508 
Q 2331 650 2450 897 
Q 2541 1088 2541 1459 
L 2541 1666 
z
" transform="scale(0.015625)"/>
      <path id="ArialMT-6c" d="M 409 0 
L 409 4581 
L 972 4581 
L 972 0 
L 409 0 
z
" transform="scale(0.015625)"/>
      <path id="ArialMT-73" d="M 197 991 
L 753 1078 
Q 800 744 1014 566 
Q 1228 388 1613 388 
Q 2000 388 2187 545 
Q 2375 703 2375 916 
Q 2375 1106 2209 1216 
Q 2094 1291 1634 1406 
Q 1016 1563 777 1677 
Q 538 1791 414 1992 
Q 291 2194 291 2438 
Q 291 2659 392 2848 
Q 494 3038 669 3163 
Q 800 3259 1026 3326 
Q 1253 3394 1513 3394 
Q 1903 3394 2198 3281 
Q 2494 3169 2634 2976 
Q 2775 2784 2828 2463 
L 2278 2388 
Q 2241 2644 2061 2787 
Q 1881 2931 1553 2931 
Q 1166 2931 1000 2803 
Q 834 2675 834 2503 
Q 834 2394 903 2306 
Q 972 2216 1119 2156 
Q 1203 2125 1616 2013 
Q 2213 1853 2448 1751 
Q 2684 1650 2818 1456 
Q 2953 1263 2953 975 
Q 2953 694 2789 445 
Q 2625 197 2315 61 
Q 2006 -75 1616 -75 
Q 969 -75 630 194 
Q 291 463 197 991 
z
" transform="scale(0.015625)"/>
      <path id="ArialMT-29" d="M 791 -1347 
L 388 -1347 
Q 1322 153 1322 1656 
Q 1322 2244 1188 2822 
Q 1081 3291 891 3722 
Q 769 4003 388 4659 
L 791 4659 
Q 1378 3875 1659 3084 
Q 1900 2403 1900 1659 
Q 1900 816 1576 28 
Q 1253 -759 791 -1347 
z
" transform="scale(0.015625)"/>
     </defs>
     <use xlink:href="#ArialMT-53"/>
     <use xlink:href="#ArialMT-6f" transform="translate(66.699219 0)"/>
     <use xlink:href="#ArialMT-75" transform="translate(122.314453 0)"/>
     <use xlink:href="#ArialMT-72" transform="translate(177.929688 0)"/>
     <use xlink:href="#ArialMT-63" transform="translate(211.230469 0)"/>
     <use xlink:href="#ArialMT-65" transform="translate(261.230469 0)"/>
     <use xlink:href="#ArialMT-20" transform="translate(316.845703 0)"/>
     <use xlink:href="#ArialMT-44" transform="translate(344.628906 0)"/>
     <use xlink:href="#ArialMT-6f" transform="translate(416.845703 0)"/>
     <use xlink:href="#ArialMT-75" transform="translate(472.460938 0)"/>
     <use xlink:href="#ArialMT-62" transform="translate(528.076172 0)"/>
     <use xlink:href="#ArialMT-74" transform="translate(583.691406 0)"/>
     <use xlink:href="#ArialMT-69" transform="translate(611.474609 0)"/>
     <use xlink:href="#ArialMT-6e" transform="translate(633.691406 0)"/>
     <use xlink:href="#ArialMT-67" transform="translate(689.306641 0)"/>
     <use xlink:href="#ArialMT-20" transform="translate(744.921875 0)"/>
     <use xlink:href="#ArialMT-28" transform="translate(772.705078 0)"/>
     <use xlink:href="#ArialMT-50" transform="translate(806.005859 0)"/>
     <use xlink:href="#ArialMT-61" transform="translate(872.705078 0)"/>
     <use xlink:href="#ArialMT-6c" transform="translate(928.320312 0)"/>
     <use xlink:href="#ArialMT-65" transform="translate(950.537109 0)"/>
     <use xlink:href="#ArialMT-73" transform="translate(1006.152344 0)"/>
     <use xlink:href="#ArialMT-74" transform="translate(1056.152344 0)"/>
     <use xlink:href="#ArialMT-69" transform="translate(1083.935547 0)"/>
     <use xlink:href="#ArialMT-6e" transform="translate(1106.152344 0)"/>
     <use xlink:href="#ArialMT-65" transform="translate(1161.767578 0)"/>
     <use xlink:href="#ArialMT-29" transform="translate(1217.382812 0)"/>
    </g>
   </g>
   <g id="patch_40">
    <path d="M 327.742593 454.884554 
L 359.742593 454.884554 
L 359.742593 443.684554 
L 327.742593 443.684554 
z
" style="fill: #3eab71; stroke: #ffffff; stroke-linejoin: miter"/>
   </g>
   <g id="text_18">
    <!-- Uncertainty in Num (Palestine) -->
    <g style="fill: #262626" transform="translate(372.542593 454.884554) scale(0.16 -0.16)">
     <defs>
      <path id="ArialMT-55" d="M 3500 4581 
L 4106 4581 
L 4106 1934 
Q 4106 1244 3950 837 
Q 3794 431 3386 176 
Q 2978 -78 2316 -78 
Q 1672 -78 1262 144 
Q 853 366 678 786 
Q 503 1206 503 1934 
L 503 4581 
L 1109 4581 
L 1109 1938 
Q 1109 1341 1220 1058 
Q 1331 775 1601 622 
Q 1872 469 2263 469 
Q 2931 469 3215 772 
Q 3500 1075 3500 1938 
L 3500 4581 
z
" transform="scale(0.015625)"/>
      <path id="ArialMT-79" d="M 397 -1278 
L 334 -750 
Q 519 -800 656 -800 
Q 844 -800 956 -737 
Q 1069 -675 1141 -563 
Q 1194 -478 1313 -144 
Q 1328 -97 1363 -6 
L 103 3319 
L 709 3319 
L 1400 1397 
Q 1534 1031 1641 628 
Q 1738 1016 1872 1384 
L 2581 3319 
L 3144 3319 
L 1881 -56 
Q 1678 -603 1566 -809 
Q 1416 -1088 1222 -1217 
Q 1028 -1347 759 -1347 
Q 597 -1347 397 -1278 
z
" transform="scale(0.015625)"/>
      <path id="ArialMT-6d" d="M 422 0 
L 422 3319 
L 925 3319 
L 925 2853 
Q 1081 3097 1340 3245 
Q 1600 3394 1931 3394 
Q 2300 3394 2536 3241 
Q 2772 3088 2869 2813 
Q 3263 3394 3894 3394 
Q 4388 3394 4653 3120 
Q 4919 2847 4919 2278 
L 4919 0 
L 4359 0 
L 4359 2091 
Q 4359 2428 4304 2576 
Q 4250 2725 4106 2815 
Q 3963 2906 3769 2906 
Q 3419 2906 3187 2673 
Q 2956 2441 2956 1928 
L 2956 0 
L 2394 0 
L 2394 2156 
Q 2394 2531 2256 2718 
Q 2119 2906 1806 2906 
Q 1569 2906 1367 2781 
Q 1166 2656 1075 2415 
Q 984 2175 984 1722 
L 984 0 
L 422 0 
z
" transform="scale(0.015625)"/>
     </defs>
     <use xlink:href="#ArialMT-55"/>
     <use xlink:href="#ArialMT-6e" transform="translate(72.216797 0)"/>
     <use xlink:href="#ArialMT-63" transform="translate(127.832031 0)"/>
     <use xlink:href="#ArialMT-65" transform="translate(177.832031 0)"/>
     <use xlink:href="#ArialMT-72" transform="translate(233.447266 0)"/>
     <use xlink:href="#ArialMT-74" transform="translate(266.748047 0)"/>
     <use xlink:href="#ArialMT-61" transform="translate(294.53125 0)"/>
     <use xlink:href="#ArialMT-69" transform="translate(350.146484 0)"/>
     <use xlink:href="#ArialMT-6e" transform="translate(372.363281 0)"/>
     <use xlink:href="#ArialMT-74" transform="translate(427.978516 0)"/>
     <use xlink:href="#ArialMT-79" transform="translate(455.761719 0)"/>
     <use xlink:href="#ArialMT-20" transform="translate(505.761719 0)"/>
     <use xlink:href="#ArialMT-69" transform="translate(533.544922 0)"/>
     <use xlink:href="#ArialMT-6e" transform="translate(555.761719 0)"/>
     <use xlink:href="#ArialMT-20" transform="translate(611.376953 0)"/>
     <use xlink:href="#ArialMT-4e" transform="translate(639.160156 0)"/>
     <use xlink:href="#ArialMT-75" transform="translate(711.376953 0)"/>
     <use xlink:href="#ArialMT-6d" transform="translate(766.992188 0)"/>
     <use xlink:href="#ArialMT-20" transform="translate(850.292969 0)"/>
     <use xlink:href="#ArialMT-28" transform="translate(878.076172 0)"/>
     <use xlink:href="#ArialMT-50" transform="translate(911.376953 0)"/>
     <use xlink:href="#ArialMT-61" transform="translate(978.076172 0)"/>
     <use xlink:href="#ArialMT-6c" transform="translate(1033.691406 0)"/>
     <use xlink:href="#ArialMT-65" transform="translate(1055.908203 0)"/>
     <use xlink:href="#ArialMT-73" transform="translate(1111.523438 0)"/>
     <use xlink:href="#ArialMT-74" transform="translate(1161.523438 0)"/>
     <use xlink:href="#ArialMT-69" transform="translate(1189.306641 0)"/>
     <use xlink:href="#ArialMT-6e" transform="translate(1211.523438 0)"/>
     <use xlink:href="#ArialMT-65" transform="translate(1267.138672 0)"/>
     <use xlink:href="#ArialMT-29" transform="translate(1322.753906 0)"/>
    </g>
   </g>
   <g id="patch_41">
    <path d="M 621.500093 454.884554 
L 653.500093 454.884554 
L 653.500093 443.684554 
L 621.500093 443.684554 
z
" style="fill: #09a6f3; stroke: #ffffff; stroke-linejoin: miter"/>
   </g>
   <g id="text_19">
    <!-- Uncertainty in Num (Israel) -->
    <g style="fill: #262626" transform="translate(666.300093 454.884554) scale(0.16 -0.16)">
     <defs>
      <path id="ArialMT-49" d="M 597 0 
L 597 4581 
L 1203 4581 
L 1203 0 
L 597 0 
z
" transform="scale(0.015625)"/>
     </defs>
     <use xlink:href="#ArialMT-55"/>
     <use xlink:href="#ArialMT-6e" transform="translate(72.216797 0)"/>
     <use xlink:href="#ArialMT-63" transform="translate(127.832031 0)"/>
     <use xlink:href="#ArialMT-65" transform="translate(177.832031 0)"/>
     <use xlink:href="#ArialMT-72" transform="translate(233.447266 0)"/>
     <use xlink:href="#ArialMT-74" transform="translate(266.748047 0)"/>
     <use xlink:href="#ArialMT-61" transform="translate(294.53125 0)"/>
     <use xlink:href="#ArialMT-69" transform="translate(350.146484 0)"/>
     <use xlink:href="#ArialMT-6e" transform="translate(372.363281 0)"/>
     <use xlink:href="#ArialMT-74" transform="translate(427.978516 0)"/>
     <use xlink:href="#ArialMT-79" transform="translate(455.761719 0)"/>
     <use xlink:href="#ArialMT-20" transform="translate(505.761719 0)"/>
     <use xlink:href="#ArialMT-69" transform="translate(533.544922 0)"/>
     <use xlink:href="#ArialMT-6e" transform="translate(555.761719 0)"/>
     <use xlink:href="#ArialMT-20" transform="translate(611.376953 0)"/>
     <use xlink:href="#ArialMT-4e" transform="translate(639.160156 0)"/>
     <use xlink:href="#ArialMT-75" transform="translate(711.376953 0)"/>
     <use xlink:href="#ArialMT-6d" transform="translate(766.992188 0)"/>
     <use xlink:href="#ArialMT-20" transform="translate(850.292969 0)"/>
     <use xlink:href="#ArialMT-28" transform="translate(878.076172 0)"/>
     <use xlink:href="#ArialMT-49" transform="translate(911.376953 0)"/>
     <use xlink:href="#ArialMT-73" transform="translate(939.160156 0)"/>
     <use xlink:href="#ArialMT-72" transform="translate(989.160156 0)"/>
     <use xlink:href="#ArialMT-61" transform="translate(1022.460938 0)"/>
     <use xlink:href="#ArialMT-65" transform="translate(1078.076172 0)"/>
     <use xlink:href="#ArialMT-6c" transform="translate(1133.691406 0)"/>
     <use xlink:href="#ArialMT-29" transform="translate(1155.908203 0)"/>
    </g>
   </g>
  </g>
 </g>
</svg>
