<?xml version="1.0" encoding="utf-8" standalone="no"?>
<!DOCTYPE svg PUBLIC "-//W3C//DTD SVG 1.1//EN"
  "http://www.w3.org/Graphics/SVG/1.1/DTD/svg11.dtd">
<svg xmlns:xlink="http://www.w3.org/1999/xlink" width="1199.903906pt" height="462.998437pt" viewBox="0 0 1199.903906 462.998437" xmlns="http://www.w3.org/2000/svg" version="1.1">
 <metadata>
  <rdf:RDF xmlns:dc="http://purl.org/dc/elements/1.1/" xmlns:cc="http://creativecommons.org/ns#" xmlns:rdf="http://www.w3.org/1999/02/22-rdf-syntax-ns#">
   <cc:Work>
    <dc:type rdf:resource="http://purl.org/dc/dcmitype/StillImage"/>
    <dc:date>2026-07-16T16:42:00.291287</dc:date>
    <dc:format>image/svg+xml</dc:format>
    <dc:creator>
     <cc:Agent>
      <dc:title>Matplotlib v3.10.9, https://matplotlib.org/</dc:title>
     </cc:Agent>
    </dc:creator>
   </cc:Work>
  </rdf:RDF>
 </metadata>
 <defs>
  <style type="text/css">*{stroke-linejoin: round; stroke-linecap: butt}</style>
 </defs>
 <g id="figure_1">
  <g id="patch_1">
   <path d="M 0 462.998437 
L 1199.903906 462.998437 
L 1199.903906 0 
L 0 0 
z
" style="fill: #ffffff"/>
  </g>
  <g id="axes_1">
   <g id="patch_2">
    <path d="M 84.986719 400.496875 
L 1089.386719 400.496875 
L 1089.386719 12.416875 
L 84.986719 12.416875 
z
" style="fill: #ffffff"/>
   </g>
   <g id="matplotlib.axis_1">
    <g id="xtick_1">
     <g id="text_1">
      <!-- AJE -->
      <g style="fill: #262626" transform="translate(170.836875 420.733594) scale(0.15 -0.15)">
       <defs>
        <path id="Arial-BoldMT-41" d="M 4597 0 
L 3591 0 
L 3191 1041 
L 1359 1041 
L 981 0 
L 0 0 
L 1784 4581 
L 2763 4581 
L 4597 0 
z
M 2894 1813 
L 2263 3513 
L 1644 1813 
L 2894 1813 
z
" transform="scale(0.015625)"/>
        <path id="Arial-BoldMT-4a" d="M 2119 4581 
L 3041 4581 
L 3041 1681 
Q 3041 1113 2941 806 
Q 2806 406 2453 164 
Q 2100 -78 1522 -78 
Q 844 -78 478 301 
Q 113 681 109 1416 
L 981 1516 
Q 997 1122 1097 959 
Q 1247 713 1553 713 
Q 1863 713 1991 889 
Q 2119 1066 2119 1622 
L 2119 4581 
z
" transform="scale(0.015625)"/>
        <path id="Arial-BoldMT-45" d="M 466 0 
L 466 4581 
L 3863 4581 
L 3863 3806 
L 1391 3806 
L 1391 2791 
L 3691 2791 
L 3691 2019 
L 1391 2019 
L 1391 772 
L 3950 772 
L 3950 0 
L 466 0 
z
" transform="scale(0.015625)"/>
       </defs>
       <use xlink:href="#Arial-BoldMT-41"/>
       <use xlink:href="#Arial-BoldMT-4a" transform="translate(72.216797 0)"/>
       <use xlink:href="#Arial-BoldMT-45" transform="translate(127.832031 0)"/>
      </g>
     </g>
    </g>
    <g id="xtick_2">
     <g id="text_2">
      <!-- BBC -->
      <g style="fill: #262626" transform="translate(370.0575 420.733594) scale(0.15 -0.15)">
       <defs>
        <path id="Arial-BoldMT-42" d="M 469 4581 
L 2300 4581 
Q 2844 4581 3111 4536 
Q 3378 4491 3589 4347 
Q 3800 4203 3940 3964 
Q 4081 3725 4081 3428 
Q 4081 3106 3907 2837 
Q 3734 2569 3438 2434 
Q 3856 2313 4081 2019 
Q 4306 1725 4306 1328 
Q 4306 1016 4161 720 
Q 4016 425 3764 248 
Q 3513 72 3144 31 
Q 2913 6 2028 0 
L 469 0 
L 469 4581 
z
M 1394 3819 
L 1394 2759 
L 2000 2759 
Q 2541 2759 2672 2775 
Q 2909 2803 3045 2939 
Q 3181 3075 3181 3297 
Q 3181 3509 3064 3642 
Q 2947 3775 2716 3803 
Q 2578 3819 1925 3819 
L 1394 3819 
z
M 1394 1997 
L 1394 772 
L 2250 772 
Q 2750 772 2884 800 
Q 3091 838 3220 983 
Q 3350 1128 3350 1372 
Q 3350 1578 3250 1722 
Q 3150 1866 2961 1931 
Q 2772 1997 2141 1997 
L 1394 1997 
z
" transform="scale(0.015625)"/>
        <path id="Arial-BoldMT-43" d="M 3397 1684 
L 4294 1400 
Q 4088 650 3608 286 
Q 3128 -78 2391 -78 
Q 1478 -78 890 545 
Q 303 1169 303 2250 
Q 303 3394 893 4026 
Q 1484 4659 2447 4659 
Q 3288 4659 3813 4163 
Q 4125 3869 4281 3319 
L 3366 3100 
Q 3284 3456 3026 3662 
Q 2769 3869 2400 3869 
Q 1891 3869 1573 3503 
Q 1256 3138 1256 2319 
Q 1256 1450 1568 1081 
Q 1881 713 2381 713 
Q 2750 713 3015 947 
Q 3281 1181 3397 1684 
z
" transform="scale(0.015625)"/>
       </defs>
       <use xlink:href="#Arial-BoldMT-42"/>
       <use xlink:href="#Arial-BoldMT-42" transform="translate(72.216797 0)"/>
       <use xlink:href="#Arial-BoldMT-43" transform="translate(144.433594 0)"/>
      </g>
     </g>
    </g>
    <g id="xtick_3">
     <g id="text_3">
      <!-- CNN -->
      <g style="fill: #262626" transform="translate(570.9375 420.733594) scale(0.15 -0.15)">
       <defs>
        <path id="Arial-BoldMT-4e" d="M 475 0 
L 475 4581 
L 1375 4581 
L 3250 1522 
L 3250 4581 
L 4109 4581 
L 4109 0 
L 3181 0 
L 1334 2988 
L 1334 0 
L 475 0 
z
" transform="scale(0.015625)"/>
       </defs>
       <use xlink:href="#Arial-BoldMT-43"/>
       <use xlink:href="#Arial-BoldMT-4e" transform="translate(72.216797 0)"/>
       <use xlink:href="#Arial-BoldMT-4e" transform="translate(144.433594 0)"/>
      </g>
     </g>
    </g>
    <g id="xtick_4">
     <g id="text_4">
      <!-- NYT -->
      <g style="fill: #262626" transform="translate(773.066719 420.733594) scale(0.15 -0.15)">
       <defs>
        <path id="Arial-BoldMT-59" d="M 1669 0 
L 1669 1928 
L -9 4581 
L 1075 4581 
L 2153 2769 
L 3209 4581 
L 4275 4581 
L 2591 1922 
L 2591 0 
L 1669 0 
z
" transform="scale(0.015625)"/>
        <path id="Arial-BoldMT-54" d="M 1497 0 
L 1497 3806 
L 138 3806 
L 138 4581 
L 3778 4581 
L 3778 3806 
L 2422 3806 
L 2422 0 
L 1497 0 
z
" transform="scale(0.015625)"/>
       </defs>
       <use xlink:href="#Arial-BoldMT-4e"/>
       <use xlink:href="#Arial-BoldMT-59" transform="translate(72.216797 0)"/>
       <use xlink:href="#Arial-BoldMT-54" transform="translate(138.916016 0)"/>
      </g>
     </g>
    </g>
    <g id="xtick_5">
     <g id="text_5">
      <!-- Actual -->
      <g style="fill: #262626" transform="translate(966.027187 420.733594) scale(0.15 -0.15)">
       <defs>
        <path id="Arial-BoldMT-63" d="M 3353 2338 
L 2488 2181 
Q 2444 2441 2289 2572 
Q 2134 2703 1888 2703 
Q 1559 2703 1364 2476 
Q 1169 2250 1169 1719 
Q 1169 1128 1367 884 
Q 1566 641 1900 641 
Q 2150 641 2309 783 
Q 2469 925 2534 1272 
L 3397 1125 
Q 3263 531 2881 228 
Q 2500 -75 1859 -75 
Q 1131 -75 698 384 
Q 266 844 266 1656 
Q 266 2478 700 2936 
Q 1134 3394 1875 3394 
Q 2481 3394 2839 3133 
Q 3197 2872 3353 2338 
z
" transform="scale(0.015625)"/>
        <path id="Arial-BoldMT-74" d="M 1981 3319 
L 1981 2619 
L 1381 2619 
L 1381 1281 
Q 1381 875 1398 808 
Q 1416 741 1477 697 
Q 1538 653 1625 653 
Q 1747 653 1978 738 
L 2053 56 
Q 1747 -75 1359 -75 
Q 1122 -75 931 4 
Q 741 84 652 211 
Q 563 338 528 553 
Q 500 706 500 1172 
L 500 2619 
L 97 2619 
L 97 3319 
L 500 3319 
L 500 3978 
L 1381 4491 
L 1381 3319 
L 1981 3319 
z
" transform="scale(0.015625)"/>
        <path id="Arial-BoldMT-75" d="M 2644 0 
L 2644 497 
Q 2463 231 2167 78 
Q 1872 -75 1544 -75 
Q 1209 -75 943 72 
Q 678 219 559 484 
Q 441 750 441 1219 
L 441 3319 
L 1319 3319 
L 1319 1794 
Q 1319 1094 1367 936 
Q 1416 778 1544 686 
Q 1672 594 1869 594 
Q 2094 594 2272 717 
Q 2450 841 2515 1023 
Q 2581 1206 2581 1919 
L 2581 3319 
L 3459 3319 
L 3459 0 
L 2644 0 
z
" transform="scale(0.015625)"/>
        <path id="Arial-BoldMT-61" d="M 1116 2306 
L 319 2450 
Q 453 2931 781 3162 
Q 1109 3394 1756 3394 
Q 2344 3394 2631 3255 
Q 2919 3116 3036 2902 
Q 3153 2688 3153 2116 
L 3144 1091 
Q 3144 653 3186 445 
Q 3228 238 3344 0 
L 2475 0 
Q 2441 88 2391 259 
Q 2369 338 2359 363 
Q 2134 144 1878 34 
Q 1622 -75 1331 -75 
Q 819 -75 523 203 
Q 228 481 228 906 
Q 228 1188 362 1408 
Q 497 1628 739 1745 
Q 981 1863 1438 1950 
Q 2053 2066 2291 2166 
L 2291 2253 
Q 2291 2506 2166 2614 
Q 2041 2722 1694 2722 
Q 1459 2722 1328 2630 
Q 1197 2538 1116 2306 
z
M 2291 1594 
Q 2122 1538 1756 1459 
Q 1391 1381 1278 1306 
Q 1106 1184 1106 997 
Q 1106 813 1243 678 
Q 1381 544 1594 544 
Q 1831 544 2047 700 
Q 2206 819 2256 991 
Q 2291 1103 2291 1419 
L 2291 1594 
z
" transform="scale(0.015625)"/>
        <path id="Arial-BoldMT-6c" d="M 459 0 
L 459 4581 
L 1338 4581 
L 1338 0 
L 459 0 
z
" transform="scale(0.015625)"/>
       </defs>
       <use xlink:href="#Arial-BoldMT-41"/>
       <use xlink:href="#Arial-BoldMT-63" transform="translate(72.216797 0)"/>
       <use xlink:href="#Arial-BoldMT-74" transform="translate(127.832031 0)"/>
       <use xlink:href="#Arial-BoldMT-75" transform="translate(161.132812 0)"/>
       <use xlink:href="#Arial-BoldMT-61" transform="translate(222.216797 0)"/>
       <use xlink:href="#Arial-BoldMT-6c" transform="translate(277.832031 0)"/>
      </g>
      <!-- Casualty -->
      <g style="fill: #262626" transform="translate(957.685781 436.797187) scale(0.15 -0.15)">
       <defs>
        <path id="Arial-BoldMT-73" d="M 150 947 
L 1031 1081 
Q 1088 825 1259 692 
Q 1431 559 1741 559 
Q 2081 559 2253 684 
Q 2369 772 2369 919 
Q 2369 1019 2306 1084 
Q 2241 1147 2013 1200 
Q 950 1434 666 1628 
Q 272 1897 272 2375 
Q 272 2806 612 3100 
Q 953 3394 1669 3394 
Q 2350 3394 2681 3172 
Q 3013 2950 3138 2516 
L 2309 2363 
Q 2256 2556 2107 2659 
Q 1959 2763 1684 2763 
Q 1338 2763 1188 2666 
Q 1088 2597 1088 2488 
Q 1088 2394 1175 2328 
Q 1294 2241 1995 2081 
Q 2697 1922 2975 1691 
Q 3250 1456 3250 1038 
Q 3250 581 2869 253 
Q 2488 -75 1741 -75 
Q 1063 -75 667 200 
Q 272 475 150 947 
z
" transform="scale(0.015625)"/>
        <path id="Arial-BoldMT-79" d="M 44 3319 
L 978 3319 
L 1772 963 
L 2547 3319 
L 3456 3319 
L 2284 125 
L 2075 -453 
Q 1959 -744 1854 -897 
Q 1750 -1050 1614 -1145 
Q 1478 -1241 1279 -1294 
Q 1081 -1347 831 -1347 
Q 578 -1347 334 -1294 
L 256 -606 
Q 463 -647 628 -647 
Q 934 -647 1081 -467 
Q 1228 -288 1306 -9 
L 44 3319 
z
" transform="scale(0.015625)"/>
       </defs>
       <use xlink:href="#Arial-BoldMT-43"/>
       <use xlink:href="#Arial-BoldMT-61" transform="translate(72.216797 0)"/>
       <use xlink:href="#Arial-BoldMT-73" transform="translate(127.832031 0)"/>
       <use xlink:href="#Arial-BoldMT-75" transform="translate(183.447266 0)"/>
       <use xlink:href="#Arial-BoldMT-61" transform="translate(244.53125 0)"/>
       <use xlink:href="#Arial-BoldMT-6c" transform="translate(300.146484 0)"/>
       <use xlink:href="#Arial-BoldMT-74" transform="translate(327.929688 0)"/>
       <use xlink:href="#Arial-BoldMT-79" transform="translate(361.230469 0)"/>
      </g>
      <!-- Counts -->
      <g style="fill: #262626" transform="translate(963.119766 452.838281) scale(0.15 -0.15)">
       <defs>
        <path id="Arial-BoldMT-6f" d="M 256 1706 
Q 256 2144 472 2553 
Q 688 2963 1083 3178 
Q 1478 3394 1966 3394 
Q 2719 3394 3200 2905 
Q 3681 2416 3681 1669 
Q 3681 916 3195 420 
Q 2709 -75 1972 -75 
Q 1516 -75 1102 131 
Q 688 338 472 736 
Q 256 1134 256 1706 
z
M 1156 1659 
Q 1156 1166 1390 903 
Q 1625 641 1969 641 
Q 2313 641 2545 903 
Q 2778 1166 2778 1666 
Q 2778 2153 2545 2415 
Q 2313 2678 1969 2678 
Q 1625 2678 1390 2415 
Q 1156 2153 1156 1659 
z
" transform="scale(0.015625)"/>
        <path id="Arial-BoldMT-6e" d="M 3478 0 
L 2600 0 
L 2600 1694 
Q 2600 2231 2544 2389 
Q 2488 2547 2361 2634 
Q 2234 2722 2056 2722 
Q 1828 2722 1647 2597 
Q 1466 2472 1398 2265 
Q 1331 2059 1331 1503 
L 1331 0 
L 453 0 
L 453 3319 
L 1269 3319 
L 1269 2831 
Q 1703 3394 2363 3394 
Q 2653 3394 2893 3289 
Q 3134 3184 3257 3021 
Q 3381 2859 3429 2653 
Q 3478 2447 3478 2063 
L 3478 0 
z
" transform="scale(0.015625)"/>
       </defs>
       <use xlink:href="#Arial-BoldMT-43"/>
       <use xlink:href="#Arial-BoldMT-6f" transform="translate(72.216797 0)"/>
       <use xlink:href="#Arial-BoldMT-75" transform="translate(133.300781 0)"/>
       <use xlink:href="#Arial-BoldMT-6e" transform="translate(194.384766 0)"/>
       <use xlink:href="#Arial-BoldMT-74" transform="translate(255.46875 0)"/>
       <use xlink:href="#Arial-BoldMT-73" transform="translate(288.769531 0)"/>
      </g>
     </g>
    </g>
   </g>
   <g id="matplotlib.axis_2">
    <g id="ytick_1">
     <g id="line2d_1">
      <defs>
       <path id="m368efa9a45" d="M 0 0 
L -6 0 
" style="stroke: #262626; stroke-width: 1.25"/>
      </defs>
      <g>
       <use xlink:href="#m368efa9a45" x="84.986719" y="400.496875" style="fill: #262626; stroke: #262626; stroke-width: 1.25"/>
      </g>
     </g>
     <g id="text_6">
      <!-- 0 -->
      <g style="fill: #262626" transform="translate(67.145313 405.865234) scale(0.15 -0.15)">
       <defs>
        <path id="ArialMT-30" d="M 266 2259 
Q 266 3072 433 3567 
Q 600 4063 929 4331 
Q 1259 4600 1759 4600 
Q 2128 4600 2406 4451 
Q 2684 4303 2865 4023 
Q 3047 3744 3150 3342 
Q 3253 2941 3253 2259 
Q 3253 1453 3087 958 
Q 2922 463 2592 192 
Q 2263 -78 1759 -78 
Q 1097 -78 719 397 
Q 266 969 266 2259 
z
M 844 2259 
Q 844 1131 1108 757 
Q 1372 384 1759 384 
Q 2147 384 2411 759 
Q 2675 1134 2675 2259 
Q 2675 3391 2411 3762 
Q 2147 4134 1753 4134 
Q 1366 4134 1134 3806 
Q 844 3388 844 2259 
z
" transform="scale(0.015625)"/>
       </defs>
       <use xlink:href="#ArialMT-30"/>
      </g>
     </g>
    </g>
    <g id="ytick_2">
     <g id="line2d_2">
      <g>
       <use xlink:href="#m368efa9a45" x="84.986719" y="322.439853" style="fill: #262626; stroke: #262626; stroke-width: 1.25"/>
      </g>
     </g>
     <g id="text_7">
      <!-- 200 -->
      <g style="fill: #262626" transform="translate(50.4625 327.808212) scale(0.15 -0.15)">
       <defs>
        <path id="ArialMT-32" d="M 3222 541 
L 3222 0 
L 194 0 
Q 188 203 259 391 
Q 375 700 629 1000 
Q 884 1300 1366 1694 
Q 2113 2306 2375 2664 
Q 2638 3022 2638 3341 
Q 2638 3675 2398 3904 
Q 2159 4134 1775 4134 
Q 1369 4134 1125 3890 
Q 881 3647 878 3216 
L 300 3275 
Q 359 3922 746 4261 
Q 1134 4600 1788 4600 
Q 2447 4600 2831 4234 
Q 3216 3869 3216 3328 
Q 3216 3053 3103 2787 
Q 2991 2522 2730 2228 
Q 2469 1934 1863 1422 
Q 1356 997 1212 845 
Q 1069 694 975 541 
L 3222 541 
z
" transform="scale(0.015625)"/>
       </defs>
       <use xlink:href="#ArialMT-32"/>
       <use xlink:href="#ArialMT-30" transform="translate(55.615234 0)"/>
       <use xlink:href="#ArialMT-30" transform="translate(111.230469 0)"/>
      </g>
     </g>
    </g>
    <g id="ytick_3">
     <g id="line2d_3">
      <g>
       <use xlink:href="#m368efa9a45" x="84.986719" y="244.382831" style="fill: #262626; stroke: #262626; stroke-width: 1.25"/>
      </g>
     </g>
     <g id="text_8">
      <!-- 400 -->
      <g style="fill: #262626" transform="translate(50.4625 249.75119) scale(0.15 -0.15)">
       <defs>
        <path id="ArialMT-34" d="M 2069 0 
L 2069 1097 
L 81 1097 
L 81 1613 
L 2172 4581 
L 2631 4581 
L 2631 1613 
L 3250 1613 
L 3250 1097 
L 2631 1097 
L 2631 0 
L 2069 0 
z
M 2069 1613 
L 2069 3678 
L 634 1613 
L 2069 1613 
z
" transform="scale(0.015625)"/>
       </defs>
       <use xlink:href="#ArialMT-34"/>
       <use xlink:href="#ArialMT-30" transform="translate(55.615234 0)"/>
       <use xlink:href="#ArialMT-30" transform="translate(111.230469 0)"/>
      </g>
     </g>
    </g>
    <g id="ytick_4">
     <g id="line2d_4">
      <g>
       <use xlink:href="#m368efa9a45" x="84.986719" y="166.325808" style="fill: #262626; stroke: #262626; stroke-width: 1.25"/>
      </g>
     </g>
     <g id="text_9">
      <!-- 600 -->
      <g style="fill: #262626" transform="translate(50.4625 171.694168) scale(0.15 -0.15)">
       <defs>
        <path id="ArialMT-36" d="M 3184 3459 
L 2625 3416 
Q 2550 3747 2413 3897 
Q 2184 4138 1850 4138 
Q 1581 4138 1378 3988 
Q 1113 3794 959 3422 
Q 806 3050 800 2363 
Q 1003 2672 1297 2822 
Q 1591 2972 1913 2972 
Q 2475 2972 2870 2558 
Q 3266 2144 3266 1488 
Q 3266 1056 3080 686 
Q 2894 316 2569 119 
Q 2244 -78 1831 -78 
Q 1128 -78 684 439 
Q 241 956 241 2144 
Q 241 3472 731 4075 
Q 1159 4600 1884 4600 
Q 2425 4600 2770 4297 
Q 3116 3994 3184 3459 
z
M 888 1484 
Q 888 1194 1011 928 
Q 1134 663 1356 523 
Q 1578 384 1822 384 
Q 2178 384 2434 671 
Q 2691 959 2691 1453 
Q 2691 1928 2437 2201 
Q 2184 2475 1800 2475 
Q 1419 2475 1153 2201 
Q 888 1928 888 1484 
z
" transform="scale(0.015625)"/>
       </defs>
       <use xlink:href="#ArialMT-36"/>
       <use xlink:href="#ArialMT-30" transform="translate(55.615234 0)"/>
       <use xlink:href="#ArialMT-30" transform="translate(111.230469 0)"/>
      </g>
     </g>
    </g>
    <g id="ytick_5">
     <g id="line2d_5">
      <g>
       <use xlink:href="#m368efa9a45" x="84.986719" y="88.268786" style="fill: #262626; stroke: #262626; stroke-width: 1.25"/>
      </g>
     </g>
     <g id="text_10">
      <!-- 800 -->
      <g style="fill: #262626" transform="translate(50.4625 93.637146) scale(0.15 -0.15)">
       <defs>
        <path id="ArialMT-38" d="M 1131 2484 
Q 781 2613 612 2850 
Q 444 3088 444 3419 
Q 444 3919 803 4259 
Q 1163 4600 1759 4600 
Q 2359 4600 2725 4251 
Q 3091 3903 3091 3403 
Q 3091 3084 2923 2848 
Q 2756 2613 2416 2484 
Q 2838 2347 3058 2040 
Q 3278 1734 3278 1309 
Q 3278 722 2862 322 
Q 2447 -78 1769 -78 
Q 1091 -78 675 323 
Q 259 725 259 1325 
Q 259 1772 486 2073 
Q 713 2375 1131 2484 
z
M 1019 3438 
Q 1019 3113 1228 2906 
Q 1438 2700 1772 2700 
Q 2097 2700 2305 2904 
Q 2513 3109 2513 3406 
Q 2513 3716 2298 3927 
Q 2084 4138 1766 4138 
Q 1444 4138 1231 3931 
Q 1019 3725 1019 3438 
z
M 838 1322 
Q 838 1081 952 856 
Q 1066 631 1291 507 
Q 1516 384 1775 384 
Q 2178 384 2440 643 
Q 2703 903 2703 1303 
Q 2703 1709 2433 1975 
Q 2163 2241 1756 2241 
Q 1359 2241 1098 1978 
Q 838 1716 838 1322 
z
" transform="scale(0.015625)"/>
       </defs>
       <use xlink:href="#ArialMT-38"/>
       <use xlink:href="#ArialMT-30" transform="translate(55.615234 0)"/>
       <use xlink:href="#ArialMT-30" transform="translate(111.230469 0)"/>
      </g>
     </g>
    </g>
    <g id="text_11">
     <!-- No. of Casualties Mentions -->
     <g style="fill: #262626" transform="translate(21.515625 334.239687) rotate(-90) scale(0.2 -0.2)">
      <defs>
       <path id="Arial-BoldMT-2e" d="M 459 0 
L 459 878 
L 1338 878 
L 1338 0 
L 459 0 
z
" transform="scale(0.015625)"/>
       <path id="Arial-BoldMT-20" transform="scale(0.015625)"/>
       <path id="Arial-BoldMT-66" d="M 75 3319 
L 563 3319 
L 563 3569 
Q 563 3988 652 4194 
Q 741 4400 980 4529 
Q 1219 4659 1584 4659 
Q 1959 4659 2319 4547 
L 2200 3934 
Q 1991 3984 1797 3984 
Q 1606 3984 1523 3895 
Q 1441 3806 1441 3553 
L 1441 3319 
L 2097 3319 
L 2097 2628 
L 1441 2628 
L 1441 0 
L 563 0 
L 563 2628 
L 75 2628 
L 75 3319 
z
" transform="scale(0.015625)"/>
       <path id="Arial-BoldMT-69" d="M 459 3769 
L 459 4581 
L 1338 4581 
L 1338 3769 
L 459 3769 
z
M 459 0 
L 459 3319 
L 1338 3319 
L 1338 0 
L 459 0 
z
" transform="scale(0.015625)"/>
       <path id="Arial-BoldMT-65" d="M 2381 1056 
L 3256 909 
Q 3088 428 2723 176 
Q 2359 -75 1813 -75 
Q 947 -75 531 491 
Q 203 944 203 1634 
Q 203 2459 634 2926 
Q 1066 3394 1725 3394 
Q 2466 3394 2894 2905 
Q 3322 2416 3303 1406 
L 1103 1406 
Q 1113 1016 1316 798 
Q 1519 581 1822 581 
Q 2028 581 2168 693 
Q 2309 806 2381 1056 
z
M 2431 1944 
Q 2422 2325 2234 2523 
Q 2047 2722 1778 2722 
Q 1491 2722 1303 2513 
Q 1116 2303 1119 1944 
L 2431 1944 
z
" transform="scale(0.015625)"/>
       <path id="Arial-BoldMT-4d" d="M 453 0 
L 453 4581 
L 1838 4581 
L 2669 1456 
L 3491 4581 
L 4878 4581 
L 4878 0 
L 4019 0 
L 4019 3606 
L 3109 0 
L 2219 0 
L 1313 3606 
L 1313 0 
L 453 0 
z
" transform="scale(0.015625)"/>
      </defs>
      <use xlink:href="#Arial-BoldMT-4e"/>
      <use xlink:href="#Arial-BoldMT-6f" transform="translate(72.216797 0)"/>
      <use xlink:href="#Arial-BoldMT-2e" transform="translate(133.300781 0)"/>
      <use xlink:href="#Arial-BoldMT-20" transform="translate(161.083984 0)"/>
      <use xlink:href="#Arial-BoldMT-6f" transform="translate(188.867188 0)"/>
      <use xlink:href="#Arial-BoldMT-66" transform="translate(249.951172 0)"/>
      <use xlink:href="#Arial-BoldMT-20" transform="translate(283.251953 0)"/>
      <use xlink:href="#Arial-BoldMT-43" transform="translate(311.035156 0)"/>
      <use xlink:href="#Arial-BoldMT-61" transform="translate(383.251953 0)"/>
      <use xlink:href="#Arial-BoldMT-73" transform="translate(438.867188 0)"/>
      <use xlink:href="#Arial-BoldMT-75" transform="translate(494.482422 0)"/>
      <use xlink:href="#Arial-BoldMT-61" transform="translate(555.566406 0)"/>
      <use xlink:href="#Arial-BoldMT-6c" transform="translate(611.181641 0)"/>
      <use xlink:href="#Arial-BoldMT-74" transform="translate(638.964844 0)"/>
      <use xlink:href="#Arial-BoldMT-69" transform="translate(672.265625 0)"/>
      <use xlink:href="#Arial-BoldMT-65" transform="translate(700.048828 0)"/>
      <use xlink:href="#Arial-BoldMT-73" transform="translate(755.664062 0)"/>
      <use xlink:href="#Arial-BoldMT-20" transform="translate(811.279297 0)"/>
      <use xlink:href="#Arial-BoldMT-4d" transform="translate(839.0625 0)"/>
      <use xlink:href="#Arial-BoldMT-65" transform="translate(922.363281 0)"/>
      <use xlink:href="#Arial-BoldMT-6e" transform="translate(977.978516 0)"/>
      <use xlink:href="#Arial-BoldMT-74" transform="translate(1039.0625 0)"/>
      <use xlink:href="#Arial-BoldMT-69" transform="translate(1072.363281 0)"/>
      <use xlink:href="#Arial-BoldMT-6f" transform="translate(1100.146484 0)"/>
      <use xlink:href="#Arial-BoldMT-6e" transform="translate(1161.230469 0)"/>
      <use xlink:href="#Arial-BoldMT-73" transform="translate(1222.314453 0)"/>
     </g>
    </g>
   </g>
   <g id="patch_3">
    <path d="M 125.162719 400.496875 
L 185.426719 400.496875 
L 185.426719 30.896875 
L 125.162719 30.896875 
z
" clip-path="url(#p67a120b43d)" style="fill: #138141; stroke: #ffffff; stroke-linejoin: miter"/>
   </g>
   <g id="patch_4">
    <path d="M 326.042719 400.496875 
L 386.306719 400.496875 
L 386.306719 210.428026 
L 326.042719 210.428026 
z
" clip-path="url(#p67a120b43d)" style="fill: #138141; stroke: #ffffff; stroke-linejoin: miter"/>
   </g>
   <g id="patch_5">
    <path d="M 526.922719 400.496875 
L 587.186719 400.496875 
L 587.186719 250.627392 
L 526.922719 250.627392 
z
" clip-path="url(#p67a120b43d)" style="fill: #138141; stroke: #ffffff; stroke-linejoin: miter"/>
   </g>
   <g id="patch_6">
    <path d="M 727.802719 400.496875 
L 788.066719 400.496875 
L 788.066719 135.103 
L 727.802719 135.103 
z
" clip-path="url(#p67a120b43d)" style="fill: #138141; stroke: #ffffff; stroke-linejoin: miter"/>
   </g>
   <g id="patch_7">
    <path d="M 185.426719 400.496875 
L 245.690719 400.496875 
L 245.690719 352.101521 
L 185.426719 352.101521 
z
" clip-path="url(#p67a120b43d)" style="fill: #1741a1; stroke: #ffffff; stroke-linejoin: miter"/>
   </g>
   <g id="patch_8">
    <path d="M 386.306719 400.496875 
L 446.570719 400.496875 
L 446.570719 208.866886 
L 386.306719 208.866886 
z
" clip-path="url(#p67a120b43d)" style="fill: #1741a1; stroke: #ffffff; stroke-linejoin: miter"/>
   </g>
   <g id="patch_9">
    <path d="M 587.186719 400.496875 
L 647.450719 400.496875 
L 647.450719 257.262239 
L 587.186719 257.262239 
z
" clip-path="url(#p67a120b43d)" style="fill: #1741a1; stroke: #ffffff; stroke-linejoin: miter"/>
   </g>
   <g id="patch_10">
    <path d="M 788.066719 400.496875 
L 848.330719 400.496875 
L 848.330719 73.828237 
L 788.066719 73.828237 
z
" clip-path="url(#p67a120b43d)" style="fill: #1741a1; stroke: #ffffff; stroke-linejoin: miter"/>
   </g>
   <g id="patch_11">
    <path d="M 185.426719 400.496875 
L 185.426719 400.496875 
L 185.426719 400.496875 
L 185.426719 400.496875 
z
" clip-path="url(#p67a120b43d)" style="fill: #138141; stroke: #ffffff; stroke-linejoin: miter"/>
   </g>
   <g id="patch_12">
    <path d="M 185.426719 400.496875 
L 185.426719 400.496875 
L 185.426719 400.496875 
L 185.426719 400.496875 
z
" clip-path="url(#p67a120b43d)" style="fill: #1741a1; stroke: #ffffff; stroke-linejoin: miter"/>
   </g>
   <g id="patch_13">
    <path d="M 125.162719 400.496875 
L 185.426719 400.496875 
L 185.426719 30.896875 
L 125.162719 30.896875 
z
" clip-path="url(#p67a120b43d)" style="fill: #138141; stroke: #ffffff; stroke-linejoin: miter"/>
   </g>
   <g id="patch_14">
    <path d="M 326.042719 400.496875 
L 386.306719 400.496875 
L 386.306719 210.428026 
L 326.042719 210.428026 
z
" clip-path="url(#p67a120b43d)" style="fill: #138141; stroke: #ffffff; stroke-linejoin: miter"/>
   </g>
   <g id="patch_15">
    <path d="M 526.922719 400.496875 
L 587.186719 400.496875 
L 587.186719 250.627392 
L 526.922719 250.627392 
z
" clip-path="url(#p67a120b43d)" style="fill: #138141; stroke: #ffffff; stroke-linejoin: miter"/>
   </g>
   <g id="patch_16">
    <path d="M 727.802719 400.496875 
L 788.066719 400.496875 
L 788.066719 135.103 
L 727.802719 135.103 
z
" clip-path="url(#p67a120b43d)" style="fill: #138141; stroke: #ffffff; stroke-linejoin: miter"/>
   </g>
   <g id="patch_17">
    <path d="M 185.426719 400.496875 
L 245.690719 400.496875 
L 245.690719 352.101521 
L 185.426719 352.101521 
z
" clip-path="url(#p67a120b43d)" style="fill: #1741a1; stroke: #ffffff; stroke-linejoin: miter"/>
   </g>
   <g id="patch_18">
    <path d="M 386.306719 400.496875 
L 446.570719 400.496875 
L 446.570719 208.866886 
L 386.306719 208.866886 
z
" clip-path="url(#p67a120b43d)" style="fill: #1741a1; stroke: #ffffff; stroke-linejoin: miter"/>
   </g>
   <g id="patch_19">
    <path d="M 587.186719 400.496875 
L 647.450719 400.496875 
L 647.450719 257.262239 
L 587.186719 257.262239 
z
" clip-path="url(#p67a120b43d)" style="fill: #1741a1; stroke: #ffffff; stroke-linejoin: miter"/>
   </g>
   <g id="patch_20">
    <path d="M 788.066719 400.496875 
L 848.330719 400.496875 
L 848.330719 73.828237 
L 788.066719 73.828237 
z
" clip-path="url(#p67a120b43d)" style="fill: #1741a1; stroke: #ffffff; stroke-linejoin: miter"/>
   </g>
   <g id="patch_21">
    <path d="M 185.426719 400.496875 
L 185.426719 400.496875 
L 185.426719 400.496875 
L 185.426719 400.496875 
z
" clip-path="url(#p67a120b43d)" style="fill: #138141; stroke: #ffffff; stroke-linejoin: miter"/>
   </g>
   <g id="patch_22">
    <path d="M 185.426719 400.496875 
L 185.426719 400.496875 
L 185.426719 400.496875 
L 185.426719 400.496875 
z
" clip-path="url(#p67a120b43d)" style="fill: #1741a1; stroke: #ffffff; stroke-linejoin: miter"/>
   </g>
   <g id="patch_23">
    <path d="M 125.162719 400.496875 
L 185.426719 400.496875 
L 185.426719 30.896875 
L 125.162719 30.896875 
z
" clip-path="url(#p67a120b43d)" style="fill: #138141; stroke: #ffffff; stroke-linejoin: miter"/>
   </g>
   <g id="patch_24">
    <path d="M 326.042719 400.496875 
L 386.306719 400.496875 
L 386.306719 210.428026 
L 326.042719 210.428026 
z
" clip-path="url(#p67a120b43d)" style="fill: #138141; stroke: #ffffff; stroke-linejoin: miter"/>
   </g>
   <g id="patch_25">
    <path d="M 526.922719 400.496875 
L 587.186719 400.496875 
L 587.186719 250.627392 
L 526.922719 250.627392 
z
" clip-path="url(#p67a120b43d)" style="fill: #138141; stroke: #ffffff; stroke-linejoin: miter"/>
   </g>
   <g id="patch_26">
    <path d="M 727.802719 400.496875 
L 788.066719 400.496875 
L 788.066719 135.103 
L 727.802719 135.103 
z
" clip-path="url(#p67a120b43d)" style="fill: #138141; stroke: #ffffff; stroke-linejoin: miter"/>
   </g>
   <g id="patch_27">
    <path d="M 185.426719 400.496875 
L 245.690719 400.496875 
L 245.690719 352.101521 
L 185.426719 352.101521 
z
" clip-path="url(#p67a120b43d)" style="fill: #1741a1; stroke: #ffffff; stroke-linejoin: miter"/>
   </g>
   <g id="patch_28">
    <path d="M 386.306719 400.496875 
L 446.570719 400.496875 
L 446.570719 208.866886 
L 386.306719 208.866886 
z
" clip-path="url(#p67a120b43d)" style="fill: #1741a1; stroke: #ffffff; stroke-linejoin: miter"/>
   </g>
   <g id="patch_29">
    <path d="M 587.186719 400.496875 
L 647.450719 400.496875 
L 647.450719 257.262239 
L 587.186719 257.262239 
z
" clip-path="url(#p67a120b43d)" style="fill: #1741a1; stroke: #ffffff; stroke-linejoin: miter"/>
   </g>
   <g id="patch_30">
    <path d="M 788.066719 400.496875 
L 848.330719 400.496875 
L 848.330719 73.828237 
L 788.066719 73.828237 
z
" clip-path="url(#p67a120b43d)" style="fill: #1741a1; stroke: #ffffff; stroke-linejoin: miter"/>
   </g>
   <g id="patch_31">
    <path d="M 185.426719 400.496875 
L 185.426719 400.496875 
L 185.426719 400.496875 
L 185.426719 400.496875 
z
" clip-path="url(#p67a120b43d)" style="fill: #138141; stroke: #ffffff; stroke-linejoin: miter"/>
   </g>
   <g id="patch_32">
    <path d="M 185.426719 400.496875 
L 185.426719 400.496875 
L 185.426719 400.496875 
L 185.426719 400.496875 
z
" clip-path="url(#p67a120b43d)" style="fill: #1741a1; stroke: #ffffff; stroke-linejoin: miter"/>
   </g>
   <g id="patch_33">
    <path d="M 125.162719 400.496875 
L 185.426719 400.496875 
L 185.426719 30.896875 
L 125.162719 30.896875 
z
" clip-path="url(#p67a120b43d)" style="fill: #138141; stroke: #ffffff; stroke-linejoin: miter"/>
   </g>
   <g id="patch_34">
    <path d="M 326.042719 400.496875 
L 386.306719 400.496875 
L 386.306719 210.428026 
L 326.042719 210.428026 
z
" clip-path="url(#p67a120b43d)" style="fill: #138141; stroke: #ffffff; stroke-linejoin: miter"/>
   </g>
   <g id="patch_35">
    <path d="M 526.922719 400.496875 
L 587.186719 400.496875 
L 587.186719 250.627392 
L 526.922719 250.627392 
z
" clip-path="url(#p67a120b43d)" style="fill: #138141; stroke: #ffffff; stroke-linejoin: miter"/>
   </g>
   <g id="patch_36">
    <path d="M 727.802719 400.496875 
L 788.066719 400.496875 
L 788.066719 135.103 
L 727.802719 135.103 
z
" clip-path="url(#p67a120b43d)" style="fill: #138141; stroke: #ffffff; stroke-linejoin: miter"/>
   </g>
   <g id="patch_37">
    <path d="M 185.426719 400.496875 
L 245.690719 400.496875 
L 245.690719 352.101521 
L 185.426719 352.101521 
z
" clip-path="url(#p67a120b43d)" style="fill: #1741a1; stroke: #ffffff; stroke-linejoin: miter"/>
   </g>
   <g id="patch_38">
    <path d="M 386.306719 400.496875 
L 446.570719 400.496875 
L 446.570719 208.866886 
L 386.306719 208.866886 
z
" clip-path="url(#p67a120b43d)" style="fill: #1741a1; stroke: #ffffff; stroke-linejoin: miter"/>
   </g>
   <g id="patch_39">
    <path d="M 587.186719 400.496875 
L 647.450719 400.496875 
L 647.450719 257.262239 
L 587.186719 257.262239 
z
" clip-path="url(#p67a120b43d)" style="fill: #1741a1; stroke: #ffffff; stroke-linejoin: miter"/>
   </g>
   <g id="patch_40">
    <path d="M 788.066719 400.496875 
L 848.330719 400.496875 
L 848.330719 73.828237 
L 788.066719 73.828237 
z
" clip-path="url(#p67a120b43d)" style="fill: #1741a1; stroke: #ffffff; stroke-linejoin: miter"/>
   </g>
   <g id="patch_41">
    <path d="M 185.426719 400.496875 
L 185.426719 400.496875 
L 185.426719 400.496875 
L 185.426719 400.496875 
z
" clip-path="url(#p67a120b43d)" style="fill: #138141; stroke: #ffffff; stroke-linejoin: miter"/>
   </g>
   <g id="patch_42">
    <path d="M 185.426719 400.496875 
L 185.426719 400.496875 
L 185.426719 400.496875 
L 185.426719 400.496875 
z
" clip-path="url(#p67a120b43d)" style="fill: #1741a1; stroke: #ffffff; stroke-linejoin: miter"/>
   </g>
   <g id="patch_43">
    <path d="M 84.986719 400.496875 
L 84.986719 12.416875 
" style="fill: none; stroke: #cccccc; stroke-width: 1.25; stroke-linejoin: miter; stroke-linecap: square"/>
   </g>
   <g id="patch_44">
    <path d="M 1089.386719 400.496875 
L 1089.386719 12.416875 
" style="fill: none; stroke: #cccccc; stroke-width: 1.25; stroke-linejoin: miter; stroke-linecap: square"/>
   </g>
   <g id="patch_45">
    <path d="M 84.986719 400.496875 
L 1089.386719 400.496875 
" style="fill: none; stroke: #cccccc; stroke-width: 1.25; stroke-linejoin: miter; stroke-linecap: square"/>
   </g>
   <g id="text_12">
    <!-- 947 -->
    <g style="fill: #262626" transform="translate(142.782609 17.936719) scale(0.15 -0.15)">
     <defs>
      <path id="Arial-BoldMT-39" d="M 291 1059 
L 1141 1153 
Q 1172 894 1303 769 
Q 1434 644 1650 644 
Q 1922 644 2112 894 
Q 2303 1144 2356 1931 
Q 2025 1547 1528 1547 
Q 988 1547 595 1964 
Q 203 2381 203 3050 
Q 203 3747 617 4173 
Q 1031 4600 1672 4600 
Q 2369 4600 2816 4061 
Q 3263 3522 3263 2288 
Q 3263 1031 2797 475 
Q 2331 -81 1584 -81 
Q 1047 -81 715 205 
Q 384 491 291 1059 
z
M 2278 2978 
Q 2278 3403 2083 3637 
Q 1888 3872 1631 3872 
Q 1388 3872 1227 3680 
Q 1066 3488 1066 3050 
Q 1066 2606 1241 2398 
Q 1416 2191 1678 2191 
Q 1931 2191 2104 2391 
Q 2278 2591 2278 2978 
z
" transform="scale(0.015625)"/>
      <path id="Arial-BoldMT-34" d="M 1994 0 
L 1994 922 
L 119 922 
L 119 1691 
L 2106 4600 
L 2844 4600 
L 2844 1694 
L 3413 1694 
L 3413 922 
L 2844 922 
L 2844 0 
L 1994 0 
z
M 1994 1694 
L 1994 3259 
L 941 1694 
L 1994 1694 
z
" transform="scale(0.015625)"/>
      <path id="Arial-BoldMT-37" d="M 272 3703 
L 272 4519 
L 3275 4519 
L 3275 3881 
Q 2903 3516 2518 2831 
Q 2134 2147 1932 1376 
Q 1731 606 1734 0 
L 888 0 
Q 909 950 1279 1937 
Q 1650 2925 2269 3703 
L 272 3703 
z
" transform="scale(0.015625)"/>
     </defs>
     <use xlink:href="#Arial-BoldMT-39"/>
     <use xlink:href="#Arial-BoldMT-34" transform="translate(55.615234 0)"/>
     <use xlink:href="#Arial-BoldMT-37" transform="translate(111.230469 0)"/>
    </g>
   </g>
   <g id="text_13">
    <!-- 487 -->
    <g style="fill: #262626" transform="translate(343.662609 197.46787) scale(0.15 -0.15)">
     <defs>
      <path id="Arial-BoldMT-38" d="M 1025 2472 
Q 684 2616 529 2867 
Q 375 3119 375 3419 
Q 375 3931 733 4265 
Q 1091 4600 1750 4600 
Q 2403 4600 2764 4265 
Q 3125 3931 3125 3419 
Q 3125 3100 2959 2851 
Q 2794 2603 2494 2472 
Q 2875 2319 3073 2025 
Q 3272 1731 3272 1347 
Q 3272 713 2867 316 
Q 2463 -81 1791 -81 
Q 1166 -81 750 247 
Q 259 634 259 1309 
Q 259 1681 443 1992 
Q 628 2303 1025 2472 
z
M 1206 3356 
Q 1206 3094 1354 2947 
Q 1503 2800 1750 2800 
Q 2000 2800 2150 2948 
Q 2300 3097 2300 3359 
Q 2300 3606 2151 3754 
Q 2003 3903 1759 3903 
Q 1506 3903 1356 3753 
Q 1206 3603 1206 3356 
z
M 1125 1394 
Q 1125 1031 1311 828 
Q 1497 625 1775 625 
Q 2047 625 2225 820 
Q 2403 1016 2403 1384 
Q 2403 1706 2222 1901 
Q 2041 2097 1763 2097 
Q 1441 2097 1283 1875 
Q 1125 1653 1125 1394 
z
" transform="scale(0.015625)"/>
     </defs>
     <use xlink:href="#Arial-BoldMT-34"/>
     <use xlink:href="#Arial-BoldMT-38" transform="translate(55.615234 0)"/>
     <use xlink:href="#Arial-BoldMT-37" transform="translate(111.230469 0)"/>
    </g>
   </g>
   <g id="text_14">
    <!-- 384 -->
    <g style="fill: #262626" transform="translate(544.542609 237.667236) scale(0.15 -0.15)">
     <defs>
      <path id="Arial-BoldMT-33" d="M 241 1216 
L 1091 1319 
Q 1131 994 1309 822 
Q 1488 650 1741 650 
Q 2013 650 2198 856 
Q 2384 1063 2384 1413 
Q 2384 1744 2206 1937 
Q 2028 2131 1772 2131 
Q 1603 2131 1369 2066 
L 1466 2781 
Q 1822 2772 2009 2936 
Q 2197 3100 2197 3372 
Q 2197 3603 2059 3740 
Q 1922 3878 1694 3878 
Q 1469 3878 1309 3722 
Q 1150 3566 1116 3266 
L 306 3403 
Q 391 3819 561 4067 
Q 731 4316 1036 4458 
Q 1341 4600 1719 4600 
Q 2366 4600 2756 4188 
Q 3078 3850 3078 3425 
Q 3078 2822 2419 2463 
Q 2813 2378 3048 2084 
Q 3284 1791 3284 1375 
Q 3284 772 2843 347 
Q 2403 -78 1747 -78 
Q 1125 -78 715 280 
Q 306 638 241 1216 
z
" transform="scale(0.015625)"/>
     </defs>
     <use xlink:href="#Arial-BoldMT-33"/>
     <use xlink:href="#Arial-BoldMT-38" transform="translate(55.615234 0)"/>
     <use xlink:href="#Arial-BoldMT-34" transform="translate(111.230469 0)"/>
    </g>
   </g>
   <g id="text_15">
    <!-- 680 -->
    <g style="fill: #262626" transform="translate(745.422609 122.142843) scale(0.15 -0.15)">
     <defs>
      <path id="Arial-BoldMT-36" d="M 3247 3459 
L 2397 3366 
Q 2366 3628 2234 3753 
Q 2103 3878 1894 3878 
Q 1616 3878 1423 3628 
Q 1231 3378 1181 2588 
Q 1509 2975 1997 2975 
Q 2547 2975 2939 2556 
Q 3331 2138 3331 1475 
Q 3331 772 2918 347 
Q 2506 -78 1859 -78 
Q 1166 -78 719 461 
Q 272 1000 272 2228 
Q 272 3488 737 4044 
Q 1203 4600 1947 4600 
Q 2469 4600 2811 4308 
Q 3153 4016 3247 3459 
z
M 1256 1544 
Q 1256 1116 1453 883 
Q 1650 650 1903 650 
Q 2147 650 2309 840 
Q 2472 1031 2472 1466 
Q 2472 1913 2297 2120 
Q 2122 2328 1859 2328 
Q 1606 2328 1431 2129 
Q 1256 1931 1256 1544 
z
" transform="scale(0.015625)"/>
      <path id="Arial-BoldMT-30" d="M 1756 4600 
Q 2422 4600 2797 4125 
Q 3244 3563 3244 2259 
Q 3244 959 2794 391 
Q 2422 -78 1756 -78 
Q 1088 -78 678 436 
Q 269 950 269 2269 
Q 269 3563 719 4131 
Q 1091 4600 1756 4600 
z
M 1756 3872 
Q 1597 3872 1472 3770 
Q 1347 3669 1278 3406 
Q 1188 3066 1188 2259 
Q 1188 1453 1269 1151 
Q 1350 850 1473 750 
Q 1597 650 1756 650 
Q 1916 650 2041 751 
Q 2166 853 2234 1116 
Q 2325 1453 2325 2259 
Q 2325 3066 2244 3367 
Q 2163 3669 2039 3770 
Q 1916 3872 1756 3872 
z
" transform="scale(0.015625)"/>
     </defs>
     <use xlink:href="#Arial-BoldMT-36"/>
     <use xlink:href="#Arial-BoldMT-38" transform="translate(55.615234 0)"/>
     <use xlink:href="#Arial-BoldMT-30" transform="translate(111.230469 0)"/>
    </g>
   </g>
   <g id="text_16">
    <!-- 124 -->
    <g style="fill: #262626" transform="translate(203.046609 339.141365) scale(0.15 -0.15)">
     <defs>
      <path id="Arial-BoldMT-31" d="M 2519 0 
L 1641 0 
L 1641 3309 
Q 1159 2859 506 2644 
L 506 3441 
Q 850 3553 1253 3867 
Q 1656 4181 1806 4600 
L 2519 4600 
L 2519 0 
z
" transform="scale(0.015625)"/>
      <path id="Arial-BoldMT-32" d="M 3238 816 
L 3238 0 
L 159 0 
Q 209 463 459 877 
Q 709 1291 1447 1975 
Q 2041 2528 2175 2725 
Q 2356 2997 2356 3263 
Q 2356 3556 2198 3714 
Q 2041 3872 1763 3872 
Q 1488 3872 1325 3706 
Q 1163 3541 1138 3156 
L 263 3244 
Q 341 3969 753 4284 
Q 1166 4600 1784 4600 
Q 2463 4600 2850 4234 
Q 3238 3869 3238 3325 
Q 3238 3016 3127 2736 
Q 3016 2456 2775 2150 
Q 2616 1947 2200 1565 
Q 1784 1184 1673 1059 
Q 1563 934 1494 816 
L 3238 816 
z
" transform="scale(0.015625)"/>
     </defs>
     <use xlink:href="#Arial-BoldMT-31"/>
     <use xlink:href="#Arial-BoldMT-32" transform="translate(55.615234 0)"/>
     <use xlink:href="#Arial-BoldMT-34" transform="translate(111.230469 0)"/>
    </g>
   </g>
   <g id="text_17">
    <!-- 491 -->
    <g style="fill: #262626" transform="translate(403.926609 195.906729) scale(0.15 -0.15)">
     <use xlink:href="#Arial-BoldMT-34"/>
     <use xlink:href="#Arial-BoldMT-39" transform="translate(55.615234 0)"/>
     <use xlink:href="#Arial-BoldMT-31" transform="translate(111.230469 0)"/>
    </g>
   </g>
   <g id="text_18">
    <!-- 367 -->
    <g style="fill: #262626" transform="translate(604.806609 244.302083) scale(0.15 -0.15)">
     <use xlink:href="#Arial-BoldMT-33"/>
     <use xlink:href="#Arial-BoldMT-36" transform="translate(55.615234 0)"/>
     <use xlink:href="#Arial-BoldMT-37" transform="translate(111.230469 0)"/>
    </g>
   </g>
   <g id="text_19">
    <!-- 837 -->
    <g style="fill: #262626" transform="translate(805.686609 60.868081) scale(0.15 -0.15)">
     <use xlink:href="#Arial-BoldMT-38"/>
     <use xlink:href="#Arial-BoldMT-33" transform="translate(55.615234 0)"/>
     <use xlink:href="#Arial-BoldMT-37" transform="translate(111.230469 0)"/>
    </g>
   </g>
   <g id="text_20">
    <!-- 947 -->
    <g style="fill: #262626" transform="translate(142.782609 17.936719) scale(0.15 -0.15)">
     <use xlink:href="#Arial-BoldMT-39"/>
     <use xlink:href="#Arial-BoldMT-34" transform="translate(55.615234 0)"/>
     <use xlink:href="#Arial-BoldMT-37" transform="translate(111.230469 0)"/>
    </g>
   </g>
   <g id="text_21">
    <!-- 487 -->
    <g style="fill: #262626" transform="translate(343.662609 197.46787) scale(0.15 -0.15)">
     <use xlink:href="#Arial-BoldMT-34"/>
     <use xlink:href="#Arial-BoldMT-38" transform="translate(55.615234 0)"/>
     <use xlink:href="#Arial-BoldMT-37" transform="translate(111.230469 0)"/>
    </g>
   </g>
   <g id="text_22">
    <!-- 384 -->
    <g style="fill: #262626" transform="translate(544.542609 237.667236) scale(0.15 -0.15)">
     <use xlink:href="#Arial-BoldMT-33"/>
     <use xlink:href="#Arial-BoldMT-38" transform="translate(55.615234 0)"/>
     <use xlink:href="#Arial-BoldMT-34" transform="translate(111.230469 0)"/>
    </g>
   </g>
   <g id="text_23">
    <!-- 680 -->
    <g style="fill: #262626" transform="translate(745.422609 122.142843) scale(0.15 -0.15)">
     <use xlink:href="#Arial-BoldMT-36"/>
     <use xlink:href="#Arial-BoldMT-38" transform="translate(55.615234 0)"/>
     <use xlink:href="#Arial-BoldMT-30" transform="translate(111.230469 0)"/>
    </g>
   </g>
   <g id="text_24">
    <!-- 124 -->
    <g style="fill: #262626" transform="translate(203.046609 339.141365) scale(0.15 -0.15)">
     <use xlink:href="#Arial-BoldMT-31"/>
     <use xlink:href="#Arial-BoldMT-32" transform="translate(55.615234 0)"/>
     <use xlink:href="#Arial-BoldMT-34" transform="translate(111.230469 0)"/>
    </g>
   </g>
   <g id="text_25">
    <!-- 491 -->
    <g style="fill: #262626" transform="translate(403.926609 195.906729) scale(0.15 -0.15)">
     <use xlink:href="#Arial-BoldMT-34"/>
     <use xlink:href="#Arial-BoldMT-39" transform="translate(55.615234 0)"/>
     <use xlink:href="#Arial-BoldMT-31" transform="translate(111.230469 0)"/>
    </g>
   </g>
   <g id="text_26">
    <!-- 367 -->
    <g style="fill: #262626" transform="translate(604.806609 244.302083) scale(0.15 -0.15)">
     <use xlink:href="#Arial-BoldMT-33"/>
     <use xlink:href="#Arial-BoldMT-36" transform="translate(55.615234 0)"/>
     <use xlink:href="#Arial-BoldMT-37" transform="translate(111.230469 0)"/>
    </g>
   </g>
   <g id="text_27">
    <!-- 837 -->
    <g style="fill: #262626" transform="translate(805.686609 60.868081) scale(0.15 -0.15)">
     <use xlink:href="#Arial-BoldMT-38"/>
     <use xlink:href="#Arial-BoldMT-33" transform="translate(55.615234 0)"/>
     <use xlink:href="#Arial-BoldMT-37" transform="translate(111.230469 0)"/>
    </g>
   </g>
   <g id="text_28">
    <!-- 947 -->
    <g style="fill: #262626" transform="translate(142.782609 17.936719) scale(0.15 -0.15)">
     <use xlink:href="#Arial-BoldMT-39"/>
     <use xlink:href="#Arial-BoldMT-34" transform="translate(55.615234 0)"/>
     <use xlink:href="#Arial-BoldMT-37" transform="translate(111.230469 0)"/>
    </g>
   </g>
   <g id="text_29">
    <!-- 487 -->
    <g style="fill: #262626" transform="translate(343.662609 197.46787) scale(0.15 -0.15)">
     <use xlink:href="#Arial-BoldMT-34"/>
     <use xlink:href="#Arial-BoldMT-38" transform="translate(55.615234 0)"/>
     <use xlink:href="#Arial-BoldMT-37" transform="translate(111.230469 0)"/>
    </g>
   </g>
   <g id="text_30">
    <!-- 384 -->
    <g style="fill: #262626" transform="translate(544.542609 237.667236) scale(0.15 -0.15)">
     <use xlink:href="#Arial-BoldMT-33"/>
     <use xlink:href="#Arial-BoldMT-38" transform="translate(55.615234 0)"/>
     <use xlink:href="#Arial-BoldMT-34" transform="translate(111.230469 0)"/>
    </g>
   </g>
   <g id="text_31">
    <!-- 680 -->
    <g style="fill: #262626" transform="translate(745.422609 122.142843) scale(0.15 -0.15)">
     <use xlink:href="#Arial-BoldMT-36"/>
     <use xlink:href="#Arial-BoldMT-38" transform="translate(55.615234 0)"/>
     <use xlink:href="#Arial-BoldMT-30" transform="translate(111.230469 0)"/>
    </g>
   </g>
   <g id="text_32">
    <!-- 124 -->
    <g style="fill: #262626" transform="translate(203.046609 339.141365) scale(0.15 -0.15)">
     <use xlink:href="#Arial-BoldMT-31"/>
     <use xlink:href="#Arial-BoldMT-32" transform="translate(55.615234 0)"/>
     <use xlink:href="#Arial-BoldMT-34" transform="translate(111.230469 0)"/>
    </g>
   </g>
   <g id="text_33">
    <!-- 491 -->
    <g style="fill: #262626" transform="translate(403.926609 195.906729) scale(0.15 -0.15)">
     <use xlink:href="#Arial-BoldMT-34"/>
     <use xlink:href="#Arial-BoldMT-39" transform="translate(55.615234 0)"/>
     <use xlink:href="#Arial-BoldMT-31" transform="translate(111.230469 0)"/>
    </g>
   </g>
   <g id="text_34">
    <!-- 367 -->
    <g style="fill: #262626" transform="translate(604.806609 244.302083) scale(0.15 -0.15)">
     <use xlink:href="#Arial-BoldMT-33"/>
     <use xlink:href="#Arial-BoldMT-36" transform="translate(55.615234 0)"/>
     <use xlink:href="#Arial-BoldMT-37" transform="translate(111.230469 0)"/>
    </g>
   </g>
   <g id="text_35">
    <!-- 837 -->
    <g style="fill: #262626" transform="translate(805.686609 60.868081) scale(0.15 -0.15)">
     <use xlink:href="#Arial-BoldMT-38"/>
     <use xlink:href="#Arial-BoldMT-33" transform="translate(55.615234 0)"/>
     <use xlink:href="#Arial-BoldMT-37" transform="translate(111.230469 0)"/>
    </g>
   </g>
   <g id="text_36">
    <!-- 947 -->
    <g style="fill: #262626" transform="translate(142.782609 17.936719) scale(0.15 -0.15)">
     <use xlink:href="#Arial-BoldMT-39"/>
     <use xlink:href="#Arial-BoldMT-34" transform="translate(55.615234 0)"/>
     <use xlink:href="#Arial-BoldMT-37" transform="translate(111.230469 0)"/>
    </g>
   </g>
   <g id="text_37">
    <!-- 487 -->
    <g style="fill: #262626" transform="translate(343.662609 197.46787) scale(0.15 -0.15)">
     <use xlink:href="#Arial-BoldMT-34"/>
     <use xlink:href="#Arial-BoldMT-38" transform="translate(55.615234 0)"/>
     <use xlink:href="#Arial-BoldMT-37" transform="translate(111.230469 0)"/>
    </g>
   </g>
   <g id="text_38">
    <!-- 384 -->
    <g style="fill: #262626" transform="translate(544.542609 237.667236) scale(0.15 -0.15)">
     <use xlink:href="#Arial-BoldMT-33"/>
     <use xlink:href="#Arial-BoldMT-38" transform="translate(55.615234 0)"/>
     <use xlink:href="#Arial-BoldMT-34" transform="translate(111.230469 0)"/>
    </g>
   </g>
   <g id="text_39">
    <!-- 680 -->
    <g style="fill: #262626" transform="translate(745.422609 122.142843) scale(0.15 -0.15)">
     <use xlink:href="#Arial-BoldMT-36"/>
     <use xlink:href="#Arial-BoldMT-38" transform="translate(55.615234 0)"/>
     <use xlink:href="#Arial-BoldMT-30" transform="translate(111.230469 0)"/>
    </g>
   </g>
   <g id="text_40">
    <!-- 124 -->
    <g style="fill: #262626" transform="translate(203.046609 339.141365) scale(0.15 -0.15)">
     <use xlink:href="#Arial-BoldMT-31"/>
     <use xlink:href="#Arial-BoldMT-32" transform="translate(55.615234 0)"/>
     <use xlink:href="#Arial-BoldMT-34" transform="translate(111.230469 0)"/>
    </g>
   </g>
   <g id="text_41">
    <!-- 491 -->
    <g style="fill: #262626" transform="translate(403.926609 195.906729) scale(0.15 -0.15)">
     <use xlink:href="#Arial-BoldMT-34"/>
     <use xlink:href="#Arial-BoldMT-39" transform="translate(55.615234 0)"/>
     <use xlink:href="#Arial-BoldMT-31" transform="translate(111.230469 0)"/>
    </g>
   </g>
   <g id="text_42">
    <!-- 367 -->
    <g style="fill: #262626" transform="translate(604.806609 244.302083) scale(0.15 -0.15)">
     <use xlink:href="#Arial-BoldMT-33"/>
     <use xlink:href="#Arial-BoldMT-36" transform="translate(55.615234 0)"/>
     <use xlink:href="#Arial-BoldMT-37" transform="translate(111.230469 0)"/>
    </g>
   </g>
   <g id="text_43">
    <!-- 837 -->
    <g style="fill: #262626" transform="translate(805.686609 60.868081) scale(0.15 -0.15)">
     <use xlink:href="#Arial-BoldMT-38"/>
     <use xlink:href="#Arial-BoldMT-33" transform="translate(55.615234 0)"/>
     <use xlink:href="#Arial-BoldMT-37" transform="translate(111.230469 0)"/>
    </g>
   </g>
  </g>
  <g id="axes_2">
   <g id="matplotlib.axis_3">
    <g id="ytick_6">
     <g id="line2d_6">
      <defs>
       <path id="mc97d3220e0" d="M 0 0 
L 6 0 
" style="stroke: #262626; stroke-width: 1.25"/>
      </defs>
      <g>
       <use xlink:href="#mc97d3220e0" x="1089.386719" y="400.496875" style="fill: #262626; stroke: #262626; stroke-width: 1.25"/>
      </g>
     </g>
     <g id="text_44">
      <!-- 0 -->
      <g style="fill: #ca2400" transform="translate(1098.886719 405.865234) scale(0.15 -0.15)">
       <use xlink:href="#ArialMT-30"/>
      </g>
     </g>
    </g>
    <g id="ytick_7">
     <g id="line2d_7">
      <g>
       <use xlink:href="#mc97d3220e0" x="1089.386719" y="347.583489" style="fill: #262626; stroke: #262626; stroke-width: 1.25"/>
      </g>
     </g>
     <g id="text_45">
      <!-- 20000 -->
      <g style="fill: #ca2400" transform="translate(1098.886719 352.951849) scale(0.15 -0.15)">
       <use xlink:href="#ArialMT-32"/>
       <use xlink:href="#ArialMT-30" transform="translate(55.615234 0)"/>
       <use xlink:href="#ArialMT-30" transform="translate(111.230469 0)"/>
       <use xlink:href="#ArialMT-30" transform="translate(166.845703 0)"/>
       <use xlink:href="#ArialMT-30" transform="translate(222.460938 0)"/>
      </g>
     </g>
    </g>
    <g id="ytick_8">
     <g id="line2d_8">
      <g>
       <use xlink:href="#mc97d3220e0" x="1089.386719" y="294.670103" style="fill: #262626; stroke: #262626; stroke-width: 1.25"/>
      </g>
     </g>
     <g id="text_46">
      <!-- 40000 -->
      <g style="fill: #ca2400" transform="translate(1098.886719 300.038463) scale(0.15 -0.15)">
       <use xlink:href="#ArialMT-34"/>
       <use xlink:href="#ArialMT-30" transform="translate(55.615234 0)"/>
       <use xlink:href="#ArialMT-30" transform="translate(111.230469 0)"/>
       <use xlink:href="#ArialMT-30" transform="translate(166.845703 0)"/>
       <use xlink:href="#ArialMT-30" transform="translate(222.460938 0)"/>
      </g>
     </g>
    </g>
    <g id="ytick_9">
     <g id="line2d_9">
      <g>
       <use xlink:href="#mc97d3220e0" x="1089.386719" y="241.756718" style="fill: #262626; stroke: #262626; stroke-width: 1.25"/>
      </g>
     </g>
     <g id="text_47">
      <!-- 60000 -->
      <g style="fill: #ca2400" transform="translate(1098.886719 247.125077) scale(0.15 -0.15)">
       <use xlink:href="#ArialMT-36"/>
       <use xlink:href="#ArialMT-30" transform="translate(55.615234 0)"/>
       <use xlink:href="#ArialMT-30" transform="translate(111.230469 0)"/>
       <use xlink:href="#ArialMT-30" transform="translate(166.845703 0)"/>
       <use xlink:href="#ArialMT-30" transform="translate(222.460938 0)"/>
      </g>
     </g>
    </g>
    <g id="ytick_10">
     <g id="line2d_10">
      <g>
       <use xlink:href="#mc97d3220e0" x="1089.386719" y="188.843332" style="fill: #262626; stroke: #262626; stroke-width: 1.25"/>
      </g>
     </g>
     <g id="text_48">
      <!-- 80000 -->
      <g style="fill: #ca2400" transform="translate(1098.886719 194.211691) scale(0.15 -0.15)">
       <use xlink:href="#ArialMT-38"/>
       <use xlink:href="#ArialMT-30" transform="translate(55.615234 0)"/>
       <use xlink:href="#ArialMT-30" transform="translate(111.230469 0)"/>
       <use xlink:href="#ArialMT-30" transform="translate(166.845703 0)"/>
       <use xlink:href="#ArialMT-30" transform="translate(222.460938 0)"/>
      </g>
     </g>
    </g>
    <g id="ytick_11">
     <g id="line2d_11">
      <g>
       <use xlink:href="#mc97d3220e0" x="1089.386719" y="135.929946" style="fill: #262626; stroke: #262626; stroke-width: 1.25"/>
      </g>
     </g>
     <g id="text_49">
      <!-- 100000 -->
      <g style="fill: #ca2400" transform="translate(1098.886719 141.298305) scale(0.15 -0.15)">
       <defs>
        <path id="ArialMT-31" d="M 2384 0 
L 1822 0 
L 1822 3584 
Q 1619 3391 1289 3197 
Q 959 3003 697 2906 
L 697 3450 
Q 1169 3672 1522 3987 
Q 1875 4303 2022 4600 
L 2384 4600 
L 2384 0 
z
" transform="scale(0.015625)"/>
       </defs>
       <use xlink:href="#ArialMT-31"/>
       <use xlink:href="#ArialMT-30" transform="translate(55.615234 0)"/>
       <use xlink:href="#ArialMT-30" transform="translate(111.230469 0)"/>
       <use xlink:href="#ArialMT-30" transform="translate(166.845703 0)"/>
       <use xlink:href="#ArialMT-30" transform="translate(222.460938 0)"/>
       <use xlink:href="#ArialMT-30" transform="translate(278.076172 0)"/>
      </g>
     </g>
    </g>
    <g id="ytick_12">
     <g id="line2d_12">
      <g>
       <use xlink:href="#mc97d3220e0" x="1089.386719" y="83.01656" style="fill: #262626; stroke: #262626; stroke-width: 1.25"/>
      </g>
     </g>
     <g id="text_50">
      <!-- 120000 -->
      <g style="fill: #ca2400" transform="translate(1098.886719 88.384919) scale(0.15 -0.15)">
       <use xlink:href="#ArialMT-31"/>
       <use xlink:href="#ArialMT-32" transform="translate(55.615234 0)"/>
       <use xlink:href="#ArialMT-30" transform="translate(111.230469 0)"/>
       <use xlink:href="#ArialMT-30" transform="translate(166.845703 0)"/>
       <use xlink:href="#ArialMT-30" transform="translate(222.460938 0)"/>
       <use xlink:href="#ArialMT-30" transform="translate(278.076172 0)"/>
      </g>
     </g>
    </g>
    <g id="ytick_13">
     <g id="line2d_13">
      <g>
       <use xlink:href="#mc97d3220e0" x="1089.386719" y="30.103174" style="fill: #262626; stroke: #262626; stroke-width: 1.25"/>
      </g>
     </g>
     <g id="text_51">
      <!-- 140000 -->
      <g style="fill: #ca2400" transform="translate(1098.886719 35.471534) scale(0.15 -0.15)">
       <use xlink:href="#ArialMT-31"/>
       <use xlink:href="#ArialMT-34" transform="translate(55.615234 0)"/>
       <use xlink:href="#ArialMT-30" transform="translate(111.230469 0)"/>
       <use xlink:href="#ArialMT-30" transform="translate(166.845703 0)"/>
       <use xlink:href="#ArialMT-30" transform="translate(222.460938 0)"/>
       <use xlink:href="#ArialMT-30" transform="translate(278.076172 0)"/>
      </g>
     </g>
    </g>
   </g>
   <g id="patch_46">
    <path d="M 928.682719 400.496875 
L 988.946719 400.496875 
L 988.946719 30.896875 
L 928.682719 30.896875 
z
" clip-path="url(#p67a120b43d)" style="fill: #b13419; stroke: #ffffff; stroke-linejoin: miter"/>
   </g>
   <g id="patch_47">
    <path d="M 988.946719 400.496875 
L 1049.210719 400.496875 
L 1049.210719 382.506324 
L 988.946719 382.506324 
z
" clip-path="url(#p67a120b43d)" style="stroke: #ffffff; stroke-linejoin: miter"/>
   </g>
   <g id="patch_48">
    <path d="M 185.426719 400.496875 
L 185.426719 400.496875 
L 185.426719 400.496875 
L 185.426719 400.496875 
z
" clip-path="url(#p67a120b43d)" style="fill: #b13419; stroke: #ffffff; stroke-linejoin: miter"/>
   </g>
   <g id="patch_49">
    <path d="M 185.426719 400.496875 
L 185.426719 400.496875 
L 185.426719 400.496875 
L 185.426719 400.496875 
z
" clip-path="url(#p67a120b43d)" style="stroke: #ffffff; stroke-linejoin: miter"/>
   </g>
   <g id="line2d_14">
    <path clip-path="url(#p67a120b43d)" style="fill: none; stroke: #424242; stroke-width: 2.25; stroke-linecap: round"/>
   </g>
   <g id="line2d_15">
    <path clip-path="url(#p67a120b43d)" style="fill: none; stroke: #424242; stroke-width: 2.25; stroke-linecap: round"/>
   </g>
   <g id="patch_50">
    <path d="M 84.986719 400.496875 
L 84.986719 12.416875 
" style="fill: none; stroke: #cccccc; stroke-width: 1.25; stroke-linejoin: miter; stroke-linecap: square"/>
   </g>
   <g id="patch_51">
    <path d="M 1089.386719 400.496875 
L 1089.386719 12.416875 
" style="fill: none; stroke: #cccccc; stroke-width: 1.25; stroke-linejoin: miter; stroke-linecap: square"/>
   </g>
   <g id="patch_52">
    <path d="M 84.986719 400.496875 
L 1089.386719 400.496875 
" style="fill: none; stroke: #cccccc; stroke-width: 1.25; stroke-linejoin: miter; stroke-linecap: square"/>
   </g>
   <g id="text_52">
    <!-- 139700 -->
    <g style="fill: #ca2400" transform="translate(933.7905 17.936719) scale(0.15 -0.15)">
     <use xlink:href="#Arial-BoldMT-31"/>
     <use xlink:href="#Arial-BoldMT-33" transform="translate(55.615234 0)"/>
     <use xlink:href="#Arial-BoldMT-39" transform="translate(111.230469 0)"/>
     <use xlink:href="#Arial-BoldMT-37" transform="translate(166.845703 0)"/>
     <use xlink:href="#Arial-BoldMT-30" transform="translate(222.460938 0)"/>
     <use xlink:href="#Arial-BoldMT-30" transform="translate(278.076172 0)"/>
    </g>
   </g>
   <g id="text_53">
    <!-- 6800 -->
    <g style="fill: #ca2400" transform="translate(1002.395906 369.546168) scale(0.15 -0.15)">
     <use xlink:href="#Arial-BoldMT-36"/>
     <use xlink:href="#Arial-BoldMT-38" transform="translate(55.615234 0)"/>
     <use xlink:href="#Arial-BoldMT-30" transform="translate(111.230469 0)"/>
     <use xlink:href="#Arial-BoldMT-30" transform="translate(166.845703 0)"/>
    </g>
   </g>
  </g>
  <g id="axes_3">
   <g id="matplotlib.axis_4">
    <g id="ytick_14">
     <g id="line2d_16">
      <g>
       <use xlink:href="#mc97d3220e0" x="1089.386719" y="400.496875" style="fill: #262626; stroke: #262626; stroke-width: 1.25"/>
      </g>
     </g>
     <g id="text_54">
      <!-- 0 -->
      <g style="fill: #ca2400" transform="translate(1098.886719 405.865234) scale(0.15 -0.15)">
       <use xlink:href="#ArialMT-30"/>
      </g>
     </g>
    </g>
    <g id="ytick_15">
     <g id="line2d_17">
      <g>
       <use xlink:href="#mc97d3220e0" x="1089.386719" y="347.583489" style="fill: #262626; stroke: #262626; stroke-width: 1.25"/>
      </g>
     </g>
     <g id="text_55">
      <!-- 20000 -->
      <g style="fill: #ca2400" transform="translate(1098.886719 352.951849) scale(0.15 -0.15)">
       <use xlink:href="#ArialMT-32"/>
       <use xlink:href="#ArialMT-30" transform="translate(55.615234 0)"/>
       <use xlink:href="#ArialMT-30" transform="translate(111.230469 0)"/>
       <use xlink:href="#ArialMT-30" transform="translate(166.845703 0)"/>
       <use xlink:href="#ArialMT-30" transform="translate(222.460938 0)"/>
      </g>
     </g>
    </g>
    <g id="ytick_16">
     <g id="line2d_18">
      <g>
       <use xlink:href="#mc97d3220e0" x="1089.386719" y="294.670103" style="fill: #262626; stroke: #262626; stroke-width: 1.25"/>
      </g>
     </g>
     <g id="text_56">
      <!-- 40000 -->
      <g style="fill: #ca2400" transform="translate(1098.886719 300.038463) scale(0.15 -0.15)">
       <use xlink:href="#ArialMT-34"/>
       <use xlink:href="#ArialMT-30" transform="translate(55.615234 0)"/>
       <use xlink:href="#ArialMT-30" transform="translate(111.230469 0)"/>
       <use xlink:href="#ArialMT-30" transform="translate(166.845703 0)"/>
       <use xlink:href="#ArialMT-30" transform="translate(222.460938 0)"/>
      </g>
     </g>
    </g>
    <g id="ytick_17">
     <g id="line2d_19">
      <g>
       <use xlink:href="#mc97d3220e0" x="1089.386719" y="241.756718" style="fill: #262626; stroke: #262626; stroke-width: 1.25"/>
      </g>
     </g>
     <g id="text_57">
      <!-- 60000 -->
      <g style="fill: #ca2400" transform="translate(1098.886719 247.125077) scale(0.15 -0.15)">
       <use xlink:href="#ArialMT-36"/>
       <use xlink:href="#ArialMT-30" transform="translate(55.615234 0)"/>
       <use xlink:href="#ArialMT-30" transform="translate(111.230469 0)"/>
       <use xlink:href="#ArialMT-30" transform="translate(166.845703 0)"/>
       <use xlink:href="#ArialMT-30" transform="translate(222.460938 0)"/>
      </g>
     </g>
    </g>
    <g id="ytick_18">
     <g id="line2d_20">
      <g>
       <use xlink:href="#mc97d3220e0" x="1089.386719" y="188.843332" style="fill: #262626; stroke: #262626; stroke-width: 1.25"/>
      </g>
     </g>
     <g id="text_58">
      <!-- 80000 -->
      <g style="fill: #ca2400" transform="translate(1098.886719 194.211691) scale(0.15 -0.15)">
       <use xlink:href="#ArialMT-38"/>
       <use xlink:href="#ArialMT-30" transform="translate(55.615234 0)"/>
       <use xlink:href="#ArialMT-30" transform="translate(111.230469 0)"/>
       <use xlink:href="#ArialMT-30" transform="translate(166.845703 0)"/>
       <use xlink:href="#ArialMT-30" transform="translate(222.460938 0)"/>
      </g>
     </g>
    </g>
    <g id="ytick_19">
     <g id="line2d_21">
      <g>
       <use xlink:href="#mc97d3220e0" x="1089.386719" y="135.929946" style="fill: #262626; stroke: #262626; stroke-width: 1.25"/>
      </g>
     </g>
     <g id="text_59">
      <!-- 100000 -->
      <g style="fill: #ca2400" transform="translate(1098.886719 141.298305) scale(0.15 -0.15)">
       <use xlink:href="#ArialMT-31"/>
       <use xlink:href="#ArialMT-30" transform="translate(55.615234 0)"/>
       <use xlink:href="#ArialMT-30" transform="translate(111.230469 0)"/>
       <use xlink:href="#ArialMT-30" transform="translate(166.845703 0)"/>
       <use xlink:href="#ArialMT-30" transform="translate(222.460938 0)"/>
       <use xlink:href="#ArialMT-30" transform="translate(278.076172 0)"/>
      </g>
     </g>
    </g>
    <g id="ytick_20">
     <g id="line2d_22">
      <g>
       <use xlink:href="#mc97d3220e0" x="1089.386719" y="83.01656" style="fill: #262626; stroke: #262626; stroke-width: 1.25"/>
      </g>
     </g>
     <g id="text_60">
      <!-- 120000 -->
      <g style="fill: #ca2400" transform="translate(1098.886719 88.384919) scale(0.15 -0.15)">
       <use xlink:href="#ArialMT-31"/>
       <use xlink:href="#ArialMT-32" transform="translate(55.615234 0)"/>
       <use xlink:href="#ArialMT-30" transform="translate(111.230469 0)"/>
       <use xlink:href="#ArialMT-30" transform="translate(166.845703 0)"/>
       <use xlink:href="#ArialMT-30" transform="translate(222.460938 0)"/>
       <use xlink:href="#ArialMT-30" transform="translate(278.076172 0)"/>
      </g>
     </g>
    </g>
    <g id="ytick_21">
     <g id="line2d_23">
      <g>
       <use xlink:href="#mc97d3220e0" x="1089.386719" y="30.103174" style="fill: #262626; stroke: #262626; stroke-width: 1.25"/>
      </g>
     </g>
     <g id="text_61">
      <!-- 140000 -->
      <g style="fill: #ca2400" transform="translate(1098.886719 35.471534) scale(0.15 -0.15)">
       <use xlink:href="#ArialMT-31"/>
       <use xlink:href="#ArialMT-34" transform="translate(55.615234 0)"/>
       <use xlink:href="#ArialMT-30" transform="translate(111.230469 0)"/>
       <use xlink:href="#ArialMT-30" transform="translate(166.845703 0)"/>
       <use xlink:href="#ArialMT-30" transform="translate(222.460938 0)"/>
       <use xlink:href="#ArialMT-30" transform="translate(278.076172 0)"/>
      </g>
     </g>
    </g>
   </g>
   <g id="patch_53">
    <path d="M 928.682719 400.496875 
L 988.946719 400.496875 
L 988.946719 30.896875 
L 928.682719 30.896875 
z
" clip-path="url(#p67a120b43d)" style="fill: #b13419; stroke: #ffffff; stroke-linejoin: miter"/>
   </g>
   <g id="patch_54">
    <path d="M 988.946719 400.496875 
L 1049.210719 400.496875 
L 1049.210719 382.506324 
L 988.946719 382.506324 
z
" clip-path="url(#p67a120b43d)" style="stroke: #ffffff; stroke-linejoin: miter"/>
   </g>
   <g id="patch_55">
    <path d="M 185.426719 400.496875 
L 185.426719 400.496875 
L 185.426719 400.496875 
L 185.426719 400.496875 
z
" clip-path="url(#p67a120b43d)" style="fill: #b13419; stroke: #ffffff; stroke-linejoin: miter"/>
   </g>
   <g id="patch_56">
    <path d="M 185.426719 400.496875 
L 185.426719 400.496875 
L 185.426719 400.496875 
L 185.426719 400.496875 
z
" clip-path="url(#p67a120b43d)" style="stroke: #ffffff; stroke-linejoin: miter"/>
   </g>
   <g id="line2d_24">
    <path clip-path="url(#p67a120b43d)" style="fill: none; stroke: #424242; stroke-width: 2.25; stroke-linecap: round"/>
   </g>
   <g id="line2d_25">
    <path clip-path="url(#p67a120b43d)" style="fill: none; stroke: #424242; stroke-width: 2.25; stroke-linecap: round"/>
   </g>
   <g id="patch_57">
    <path d="M 84.986719 400.496875 
L 84.986719 12.416875 
" style="fill: none; stroke: #cccccc; stroke-width: 1.25; stroke-linejoin: miter; stroke-linecap: square"/>
   </g>
   <g id="patch_58">
    <path d="M 1089.386719 400.496875 
L 1089.386719 12.416875 
" style="fill: none; stroke: #cccccc; stroke-width: 1.25; stroke-linejoin: miter; stroke-linecap: square"/>
   </g>
   <g id="patch_59">
    <path d="M 84.986719 400.496875 
L 1089.386719 400.496875 
" style="fill: none; stroke: #cccccc; stroke-width: 1.25; stroke-linejoin: miter; stroke-linecap: square"/>
   </g>
   <g id="text_62">
    <!-- 139700 -->
    <g style="fill: #ca2400" transform="translate(933.7905 17.936719) scale(0.15 -0.15)">
     <use xlink:href="#Arial-BoldMT-31"/>
     <use xlink:href="#Arial-BoldMT-33" transform="translate(55.615234 0)"/>
     <use xlink:href="#Arial-BoldMT-39" transform="translate(111.230469 0)"/>
     <use xlink:href="#Arial-BoldMT-37" transform="translate(166.845703 0)"/>
     <use xlink:href="#Arial-BoldMT-30" transform="translate(222.460938 0)"/>
     <use xlink:href="#Arial-BoldMT-30" transform="translate(278.076172 0)"/>
    </g>
   </g>
   <g id="text_63">
    <!-- 6800 -->
    <g style="fill: #ca2400" transform="translate(1002.395906 369.546168) scale(0.15 -0.15)">
     <use xlink:href="#Arial-BoldMT-36"/>
     <use xlink:href="#Arial-BoldMT-38" transform="translate(55.615234 0)"/>
     <use xlink:href="#Arial-BoldMT-30" transform="translate(111.230469 0)"/>
     <use xlink:href="#Arial-BoldMT-30" transform="translate(166.845703 0)"/>
    </g>
   </g>
  </g>
  <g id="axes_4">
   <g id="matplotlib.axis_5">
    <g id="ytick_22">
     <g id="line2d_26">
      <g>
       <use xlink:href="#mc97d3220e0" x="1089.386719" y="400.496875" style="fill: #262626; stroke: #262626; stroke-width: 1.25"/>
      </g>
     </g>
     <g id="text_64">
      <!-- 0 -->
      <g style="fill: #ca2400" transform="translate(1098.886719 405.865234) scale(0.15 -0.15)">
       <use xlink:href="#ArialMT-30"/>
      </g>
     </g>
    </g>
    <g id="ytick_23">
     <g id="line2d_27">
      <g>
       <use xlink:href="#mc97d3220e0" x="1089.386719" y="347.583489" style="fill: #262626; stroke: #262626; stroke-width: 1.25"/>
      </g>
     </g>
     <g id="text_65">
      <!-- 20000 -->
      <g style="fill: #ca2400" transform="translate(1098.886719 352.951849) scale(0.15 -0.15)">
       <use xlink:href="#ArialMT-32"/>
       <use xlink:href="#ArialMT-30" transform="translate(55.615234 0)"/>
       <use xlink:href="#ArialMT-30" transform="translate(111.230469 0)"/>
       <use xlink:href="#ArialMT-30" transform="translate(166.845703 0)"/>
       <use xlink:href="#ArialMT-30" transform="translate(222.460938 0)"/>
      </g>
     </g>
    </g>
    <g id="ytick_24">
     <g id="line2d_28">
      <g>
       <use xlink:href="#mc97d3220e0" x="1089.386719" y="294.670103" style="fill: #262626; stroke: #262626; stroke-width: 1.25"/>
      </g>
     </g>
     <g id="text_66">
      <!-- 40000 -->
      <g style="fill: #ca2400" transform="translate(1098.886719 300.038463) scale(0.15 -0.15)">
       <use xlink:href="#ArialMT-34"/>
       <use xlink:href="#ArialMT-30" transform="translate(55.615234 0)"/>
       <use xlink:href="#ArialMT-30" transform="translate(111.230469 0)"/>
       <use xlink:href="#ArialMT-30" transform="translate(166.845703 0)"/>
       <use xlink:href="#ArialMT-30" transform="translate(222.460938 0)"/>
      </g>
     </g>
    </g>
    <g id="ytick_25">
     <g id="line2d_29">
      <g>
       <use xlink:href="#mc97d3220e0" x="1089.386719" y="241.756718" style="fill: #262626; stroke: #262626; stroke-width: 1.25"/>
      </g>
     </g>
     <g id="text_67">
      <!-- 60000 -->
      <g style="fill: #ca2400" transform="translate(1098.886719 247.125077) scale(0.15 -0.15)">
       <use xlink:href="#ArialMT-36"/>
       <use xlink:href="#ArialMT-30" transform="translate(55.615234 0)"/>
       <use xlink:href="#ArialMT-30" transform="translate(111.230469 0)"/>
       <use xlink:href="#ArialMT-30" transform="translate(166.845703 0)"/>
       <use xlink:href="#ArialMT-30" transform="translate(222.460938 0)"/>
      </g>
     </g>
    </g>
    <g id="ytick_26">
     <g id="line2d_30">
      <g>
       <use xlink:href="#mc97d3220e0" x="1089.386719" y="188.843332" style="fill: #262626; stroke: #262626; stroke-width: 1.25"/>
      </g>
     </g>
     <g id="text_68">
      <!-- 80000 -->
      <g style="fill: #ca2400" transform="translate(1098.886719 194.211691) scale(0.15 -0.15)">
       <use xlink:href="#ArialMT-38"/>
       <use xlink:href="#ArialMT-30" transform="translate(55.615234 0)"/>
       <use xlink:href="#ArialMT-30" transform="translate(111.230469 0)"/>
       <use xlink:href="#ArialMT-30" transform="translate(166.845703 0)"/>
       <use xlink:href="#ArialMT-30" transform="translate(222.460938 0)"/>
      </g>
     </g>
    </g>
    <g id="ytick_27">
     <g id="line2d_31">
      <g>
       <use xlink:href="#mc97d3220e0" x="1089.386719" y="135.929946" style="fill: #262626; stroke: #262626; stroke-width: 1.25"/>
      </g>
     </g>
     <g id="text_69">
      <!-- 100000 -->
      <g style="fill: #ca2400" transform="translate(1098.886719 141.298305) scale(0.15 -0.15)">
       <use xlink:href="#ArialMT-31"/>
       <use xlink:href="#ArialMT-30" transform="translate(55.615234 0)"/>
       <use xlink:href="#ArialMT-30" transform="translate(111.230469 0)"/>
       <use xlink:href="#ArialMT-30" transform="translate(166.845703 0)"/>
       <use xlink:href="#ArialMT-30" transform="translate(222.460938 0)"/>
       <use xlink:href="#ArialMT-30" transform="translate(278.076172 0)"/>
      </g>
     </g>
    </g>
    <g id="ytick_28">
     <g id="line2d_32">
      <g>
       <use xlink:href="#mc97d3220e0" x="1089.386719" y="83.01656" style="fill: #262626; stroke: #262626; stroke-width: 1.25"/>
      </g>
     </g>
     <g id="text_70">
      <!-- 120000 -->
      <g style="fill: #ca2400" transform="translate(1098.886719 88.384919) scale(0.15 -0.15)">
       <use xlink:href="#ArialMT-31"/>
       <use xlink:href="#ArialMT-32" transform="translate(55.615234 0)"/>
       <use xlink:href="#ArialMT-30" transform="translate(111.230469 0)"/>
       <use xlink:href="#ArialMT-30" transform="translate(166.845703 0)"/>
       <use xlink:href="#ArialMT-30" transform="translate(222.460938 0)"/>
       <use xlink:href="#ArialMT-30" transform="translate(278.076172 0)"/>
      </g>
     </g>
    </g>
    <g id="ytick_29">
     <g id="line2d_33">
      <g>
       <use xlink:href="#mc97d3220e0" x="1089.386719" y="30.103174" style="fill: #262626; stroke: #262626; stroke-width: 1.25"/>
      </g>
     </g>
     <g id="text_71">
      <!-- 140000 -->
      <g style="fill: #ca2400" transform="translate(1098.886719 35.471534) scale(0.15 -0.15)">
       <use xlink:href="#ArialMT-31"/>
       <use xlink:href="#ArialMT-34" transform="translate(55.615234 0)"/>
       <use xlink:href="#ArialMT-30" transform="translate(111.230469 0)"/>
       <use xlink:href="#ArialMT-30" transform="translate(166.845703 0)"/>
       <use xlink:href="#ArialMT-30" transform="translate(222.460938 0)"/>
       <use xlink:href="#ArialMT-30" transform="translate(278.076172 0)"/>
      </g>
     </g>
    </g>
   </g>
   <g id="patch_60">
    <path d="M 928.682719 400.496875 
L 988.946719 400.496875 
L 988.946719 30.896875 
L 928.682719 30.896875 
z
" clip-path="url(#p67a120b43d)" style="fill: #b13419; stroke: #ffffff; stroke-linejoin: miter"/>
   </g>
   <g id="patch_61">
    <path d="M 988.946719 400.496875 
L 1049.210719 400.496875 
L 1049.210719 382.506324 
L 988.946719 382.506324 
z
" clip-path="url(#p67a120b43d)" style="stroke: #ffffff; stroke-linejoin: miter"/>
   </g>
   <g id="patch_62">
    <path d="M 185.426719 400.496875 
L 185.426719 400.496875 
L 185.426719 400.496875 
L 185.426719 400.496875 
z
" clip-path="url(#p67a120b43d)" style="fill: #b13419; stroke: #ffffff; stroke-linejoin: miter"/>
   </g>
   <g id="patch_63">
    <path d="M 185.426719 400.496875 
L 185.426719 400.496875 
L 185.426719 400.496875 
L 185.426719 400.496875 
z
" clip-path="url(#p67a120b43d)" style="stroke: #ffffff; stroke-linejoin: miter"/>
   </g>
   <g id="line2d_34">
    <path clip-path="url(#p67a120b43d)" style="fill: none; stroke: #424242; stroke-width: 2.25; stroke-linecap: round"/>
   </g>
   <g id="line2d_35">
    <path clip-path="url(#p67a120b43d)" style="fill: none; stroke: #424242; stroke-width: 2.25; stroke-linecap: round"/>
   </g>
   <g id="patch_64">
    <path d="M 84.986719 400.496875 
L 84.986719 12.416875 
" style="fill: none; stroke: #cccccc; stroke-width: 1.25; stroke-linejoin: miter; stroke-linecap: square"/>
   </g>
   <g id="patch_65">
    <path d="M 1089.386719 400.496875 
L 1089.386719 12.416875 
" style="fill: none; stroke: #cccccc; stroke-width: 1.25; stroke-linejoin: miter; stroke-linecap: square"/>
   </g>
   <g id="patch_66">
    <path d="M 84.986719 400.496875 
L 1089.386719 400.496875 
" style="fill: none; stroke: #cccccc; stroke-width: 1.25; stroke-linejoin: miter; stroke-linecap: square"/>
   </g>
   <g id="text_72">
    <!-- 139700 -->
    <g style="fill: #ca2400" transform="translate(933.7905 17.936719) scale(0.15 -0.15)">
     <use xlink:href="#Arial-BoldMT-31"/>
     <use xlink:href="#Arial-BoldMT-33" transform="translate(55.615234 0)"/>
     <use xlink:href="#Arial-BoldMT-39" transform="translate(111.230469 0)"/>
     <use xlink:href="#Arial-BoldMT-37" transform="translate(166.845703 0)"/>
     <use xlink:href="#Arial-BoldMT-30" transform="translate(222.460938 0)"/>
     <use xlink:href="#Arial-BoldMT-30" transform="translate(278.076172 0)"/>
    </g>
   </g>
   <g id="text_73">
    <!-- 6800 -->
    <g style="fill: #ca2400" transform="translate(1002.395906 369.546168) scale(0.15 -0.15)">
     <use xlink:href="#Arial-BoldMT-36"/>
     <use xlink:href="#Arial-BoldMT-38" transform="translate(55.615234 0)"/>
     <use xlink:href="#Arial-BoldMT-30" transform="translate(111.230469 0)"/>
     <use xlink:href="#Arial-BoldMT-30" transform="translate(166.845703 0)"/>
    </g>
   </g>
  </g>
  <g id="axes_5">
   <g id="matplotlib.axis_6">
    <g id="ytick_30">
     <g id="line2d_36">
      <g>
       <use xlink:href="#mc97d3220e0" x="1089.386719" y="400.496875" style="fill: #262626; stroke: #262626; stroke-width: 1.25"/>
      </g>
     </g>
     <g id="text_74">
      <!-- 0 -->
      <g style="fill: #ca2400" transform="translate(1098.886719 405.865234) scale(0.15 -0.15)">
       <use xlink:href="#ArialMT-30"/>
      </g>
     </g>
    </g>
    <g id="ytick_31">
     <g id="line2d_37">
      <g>
       <use xlink:href="#mc97d3220e0" x="1089.386719" y="347.583489" style="fill: #262626; stroke: #262626; stroke-width: 1.25"/>
      </g>
     </g>
     <g id="text_75">
      <!-- 20000 -->
      <g style="fill: #ca2400" transform="translate(1098.886719 352.951849) scale(0.15 -0.15)">
       <use xlink:href="#ArialMT-32"/>
       <use xlink:href="#ArialMT-30" transform="translate(55.615234 0)"/>
       <use xlink:href="#ArialMT-30" transform="translate(111.230469 0)"/>
       <use xlink:href="#ArialMT-30" transform="translate(166.845703 0)"/>
       <use xlink:href="#ArialMT-30" transform="translate(222.460938 0)"/>
      </g>
     </g>
    </g>
    <g id="ytick_32">
     <g id="line2d_38">
      <g>
       <use xlink:href="#mc97d3220e0" x="1089.386719" y="294.670103" style="fill: #262626; stroke: #262626; stroke-width: 1.25"/>
      </g>
     </g>
     <g id="text_76">
      <!-- 40000 -->
      <g style="fill: #ca2400" transform="translate(1098.886719 300.038463) scale(0.15 -0.15)">
       <use xlink:href="#ArialMT-34"/>
       <use xlink:href="#ArialMT-30" transform="translate(55.615234 0)"/>
       <use xlink:href="#ArialMT-30" transform="translate(111.230469 0)"/>
       <use xlink:href="#ArialMT-30" transform="translate(166.845703 0)"/>
       <use xlink:href="#ArialMT-30" transform="translate(222.460938 0)"/>
      </g>
     </g>
    </g>
    <g id="ytick_33">
     <g id="line2d_39">
      <g>
       <use xlink:href="#mc97d3220e0" x="1089.386719" y="241.756718" style="fill: #262626; stroke: #262626; stroke-width: 1.25"/>
      </g>
     </g>
     <g id="text_77">
      <!-- 60000 -->
      <g style="fill: #ca2400" transform="translate(1098.886719 247.125077) scale(0.15 -0.15)">
       <use xlink:href="#ArialMT-36"/>
       <use xlink:href="#ArialMT-30" transform="translate(55.615234 0)"/>
       <use xlink:href="#ArialMT-30" transform="translate(111.230469 0)"/>
       <use xlink:href="#ArialMT-30" transform="translate(166.845703 0)"/>
       <use xlink:href="#ArialMT-30" transform="translate(222.460938 0)"/>
      </g>
     </g>
    </g>
    <g id="ytick_34">
     <g id="line2d_40">
      <g>
       <use xlink:href="#mc97d3220e0" x="1089.386719" y="188.843332" style="fill: #262626; stroke: #262626; stroke-width: 1.25"/>
      </g>
     </g>
     <g id="text_78">
      <!-- 80000 -->
      <g style="fill: #ca2400" transform="translate(1098.886719 194.211691) scale(0.15 -0.15)">
       <use xlink:href="#ArialMT-38"/>
       <use xlink:href="#ArialMT-30" transform="translate(55.615234 0)"/>
       <use xlink:href="#ArialMT-30" transform="translate(111.230469 0)"/>
       <use xlink:href="#ArialMT-30" transform="translate(166.845703 0)"/>
       <use xlink:href="#ArialMT-30" transform="translate(222.460938 0)"/>
      </g>
     </g>
    </g>
    <g id="ytick_35">
     <g id="line2d_41">
      <g>
       <use xlink:href="#mc97d3220e0" x="1089.386719" y="135.929946" style="fill: #262626; stroke: #262626; stroke-width: 1.25"/>
      </g>
     </g>
     <g id="text_79">
      <!-- 100000 -->
      <g style="fill: #ca2400" transform="translate(1098.886719 141.298305) scale(0.15 -0.15)">
       <use xlink:href="#ArialMT-31"/>
       <use xlink:href="#ArialMT-30" transform="translate(55.615234 0)"/>
       <use xlink:href="#ArialMT-30" transform="translate(111.230469 0)"/>
       <use xlink:href="#ArialMT-30" transform="translate(166.845703 0)"/>
       <use xlink:href="#ArialMT-30" transform="translate(222.460938 0)"/>
       <use xlink:href="#ArialMT-30" transform="translate(278.076172 0)"/>
      </g>
     </g>
    </g>
    <g id="ytick_36">
     <g id="line2d_42">
      <g>
       <use xlink:href="#mc97d3220e0" x="1089.386719" y="83.01656" style="fill: #262626; stroke: #262626; stroke-width: 1.25"/>
      </g>
     </g>
     <g id="text_80">
      <!-- 120000 -->
      <g style="fill: #ca2400" transform="translate(1098.886719 88.384919) scale(0.15 -0.15)">
       <use xlink:href="#ArialMT-31"/>
       <use xlink:href="#ArialMT-32" transform="translate(55.615234 0)"/>
       <use xlink:href="#ArialMT-30" transform="translate(111.230469 0)"/>
       <use xlink:href="#ArialMT-30" transform="translate(166.845703 0)"/>
       <use xlink:href="#ArialMT-30" transform="translate(222.460938 0)"/>
       <use xlink:href="#ArialMT-30" transform="translate(278.076172 0)"/>
      </g>
     </g>
    </g>
    <g id="ytick_37">
     <g id="line2d_43">
      <g>
       <use xlink:href="#mc97d3220e0" x="1089.386719" y="30.103174" style="fill: #262626; stroke: #262626; stroke-width: 1.25"/>
      </g>
     </g>
     <g id="text_81">
      <!-- 140000 -->
      <g style="fill: #ca2400" transform="translate(1098.886719 35.471534) scale(0.15 -0.15)">
       <use xlink:href="#ArialMT-31"/>
       <use xlink:href="#ArialMT-34" transform="translate(55.615234 0)"/>
       <use xlink:href="#ArialMT-30" transform="translate(111.230469 0)"/>
       <use xlink:href="#ArialMT-30" transform="translate(166.845703 0)"/>
       <use xlink:href="#ArialMT-30" transform="translate(222.460938 0)"/>
       <use xlink:href="#ArialMT-30" transform="translate(278.076172 0)"/>
      </g>
     </g>
    </g>
    <g id="text_82">
     <!-- Actual Casualty Counts in 1000s -->
     <g style="fill: #ca2400" transform="translate(1188.494531 360.936562) rotate(-90) scale(0.2 -0.2)">
      <use xlink:href="#Arial-BoldMT-41"/>
      <use xlink:href="#Arial-BoldMT-63" transform="translate(72.216797 0)"/>
      <use xlink:href="#Arial-BoldMT-74" transform="translate(127.832031 0)"/>
      <use xlink:href="#Arial-BoldMT-75" transform="translate(161.132812 0)"/>
      <use xlink:href="#Arial-BoldMT-61" transform="translate(222.216797 0)"/>
      <use xlink:href="#Arial-BoldMT-6c" transform="translate(277.832031 0)"/>
      <use xlink:href="#Arial-BoldMT-20" transform="translate(305.615234 0)"/>
      <use xlink:href="#Arial-BoldMT-43" transform="translate(333.398438 0)"/>
      <use xlink:href="#Arial-BoldMT-61" transform="translate(405.615234 0)"/>
      <use xlink:href="#Arial-BoldMT-73" transform="translate(461.230469 0)"/>
      <use xlink:href="#Arial-BoldMT-75" transform="translate(516.845703 0)"/>
      <use xlink:href="#Arial-BoldMT-61" transform="translate(577.929688 0)"/>
      <use xlink:href="#Arial-BoldMT-6c" transform="translate(633.544922 0)"/>
      <use xlink:href="#Arial-BoldMT-74" transform="translate(661.328125 0)"/>
      <use xlink:href="#Arial-BoldMT-79" transform="translate(694.628906 0)"/>
      <use xlink:href="#Arial-BoldMT-20" transform="translate(750.244141 0)"/>
      <use xlink:href="#Arial-BoldMT-43" transform="translate(778.027344 0)"/>
      <use xlink:href="#Arial-BoldMT-6f" transform="translate(850.244141 0)"/>
      <use xlink:href="#Arial-BoldMT-75" transform="translate(911.328125 0)"/>
      <use xlink:href="#Arial-BoldMT-6e" transform="translate(972.412109 0)"/>
      <use xlink:href="#Arial-BoldMT-74" transform="translate(1033.496094 0)"/>
      <use xlink:href="#Arial-BoldMT-73" transform="translate(1066.796875 0)"/>
      <use xlink:href="#Arial-BoldMT-20" transform="translate(1122.412109 0)"/>
      <use xlink:href="#Arial-BoldMT-69" transform="translate(1150.195312 0)"/>
      <use xlink:href="#Arial-BoldMT-6e" transform="translate(1177.978516 0)"/>
      <use xlink:href="#Arial-BoldMT-20" transform="translate(1239.0625 0)"/>
      <use xlink:href="#Arial-BoldMT-31" transform="translate(1266.845703 0)"/>
      <use xlink:href="#Arial-BoldMT-30" transform="translate(1322.460938 0)"/>
      <use xlink:href="#Arial-BoldMT-30" transform="translate(1378.076172 0)"/>
      <use xlink:href="#Arial-BoldMT-30" transform="translate(1433.691406 0)"/>
      <use xlink:href="#Arial-BoldMT-73" transform="translate(1489.306641 0)"/>
     </g>
    </g>
   </g>
   <g id="patch_67">
    <path d="M 928.682719 400.496875 
L 988.946719 400.496875 
L 988.946719 30.896875 
L 928.682719 30.896875 
z
" clip-path="url(#p67a120b43d)" style="fill: #b13419; stroke: #ffffff; stroke-linejoin: miter"/>
   </g>
   <g id="patch_68">
    <path d="M 988.946719 400.496875 
L 1049.210719 400.496875 
L 1049.210719 382.506324 
L 988.946719 382.506324 
z
" clip-path="url(#p67a120b43d)" style="stroke: #ffffff; stroke-linejoin: miter"/>
   </g>
   <g id="patch_69">
    <path d="M 185.426719 400.496875 
L 185.426719 400.496875 
L 185.426719 400.496875 
L 185.426719 400.496875 
z
" clip-path="url(#p67a120b43d)" style="fill: #b13419; stroke: #ffffff; stroke-linejoin: miter"/>
   </g>
   <g id="patch_70">
    <path d="M 185.426719 400.496875 
L 185.426719 400.496875 
L 185.426719 400.496875 
L 185.426719 400.496875 
z
" clip-path="url(#p67a120b43d)" style="stroke: #ffffff; stroke-linejoin: miter"/>
   </g>
   <g id="line2d_44">
    <path clip-path="url(#p67a120b43d)" style="fill: none; stroke: #424242; stroke-width: 2.25; stroke-linecap: round"/>
   </g>
   <g id="line2d_45">
    <path clip-path="url(#p67a120b43d)" style="fill: none; stroke: #424242; stroke-width: 2.25; stroke-linecap: round"/>
   </g>
   <g id="patch_71">
    <path d="M 84.986719 400.496875 
L 84.986719 12.416875 
" style="fill: none; stroke: #cccccc; stroke-width: 1.25; stroke-linejoin: miter; stroke-linecap: square"/>
   </g>
   <g id="patch_72">
    <path d="M 1089.386719 400.496875 
L 1089.386719 12.416875 
" style="fill: none; stroke: #cccccc; stroke-width: 1.25; stroke-linejoin: miter; stroke-linecap: square"/>
   </g>
   <g id="patch_73">
    <path d="M 84.986719 400.496875 
L 1089.386719 400.496875 
" style="fill: none; stroke: #cccccc; stroke-width: 1.25; stroke-linejoin: miter; stroke-linecap: square"/>
   </g>
   <g id="text_83">
    <!-- 139700 -->
    <g style="fill: #ca2400" transform="translate(933.7905 17.936719) scale(0.15 -0.15)">
     <use xlink:href="#Arial-BoldMT-31"/>
     <use xlink:href="#Arial-BoldMT-33" transform="translate(55.615234 0)"/>
     <use xlink:href="#Arial-BoldMT-39" transform="translate(111.230469 0)"/>
     <use xlink:href="#Arial-BoldMT-37" transform="translate(166.845703 0)"/>
     <use xlink:href="#Arial-BoldMT-30" transform="translate(222.460938 0)"/>
     <use xlink:href="#Arial-BoldMT-30" transform="translate(278.076172 0)"/>
    </g>
   </g>
   <g id="text_84">
    <!-- 6800 -->
    <g style="fill: #ca2400" transform="translate(1002.395906 369.546168) scale(0.15 -0.15)">
     <use xlink:href="#Arial-BoldMT-36"/>
     <use xlink:href="#Arial-BoldMT-38" transform="translate(55.615234 0)"/>
     <use xlink:href="#Arial-BoldMT-30" transform="translate(111.230469 0)"/>
     <use xlink:href="#Arial-BoldMT-30" transform="translate(166.845703 0)"/>
    </g>
   </g>
  </g>
  <g id="legend_1">
   <g id="patch_74">
    <path d="M 527.011172 153.536875 
L 640.882266 153.536875 
Q 643.882266 153.536875 643.882266 150.536875 
L 643.882266 67.165 
Q 643.882266 64.165 640.882266 64.165 
L 527.011172 64.165 
Q 524.011172 64.165 524.011172 67.165 
L 524.011172 150.536875 
Q 524.011172 153.536875 527.011172 153.536875 
z
" style="fill: #ffffff; opacity: 0.8; stroke: #cccccc; stroke-linejoin: miter"/>
   </g>
   <g id="patch_75">
    <path d="M 530.011172 80.901719 
L 560.011172 80.901719 
L 560.011172 70.401719 
L 530.011172 70.401719 
z
" style="fill: #138141; stroke: #ffffff; stroke-linejoin: miter"/>
   </g>
   <g id="text_85">
    <!-- Palestine -->
    <g style="fill: #262626" transform="translate(572.011172 80.901719) scale(0.15 -0.15)">
     <defs>
      <path id="ArialMT-50" d="M 494 0 
L 494 4581 
L 2222 4581 
Q 2678 4581 2919 4538 
Q 3256 4481 3484 4323 
Q 3713 4166 3852 3881 
Q 3991 3597 3991 3256 
Q 3991 2672 3619 2267 
Q 3247 1863 2275 1863 
L 1100 1863 
L 1100 0 
L 494 0 
z
M 1100 2403 
L 2284 2403 
Q 2872 2403 3119 2622 
Q 3366 2841 3366 3238 
Q 3366 3525 3220 3729 
Q 3075 3934 2838 4000 
Q 2684 4041 2272 4041 
L 1100 4041 
L 1100 2403 
z
" transform="scale(0.015625)"/>
      <path id="ArialMT-61" d="M 2588 409 
Q 2275 144 1986 34 
Q 1697 -75 1366 -75 
Q 819 -75 525 192 
Q 231 459 231 875 
Q 231 1119 342 1320 
Q 453 1522 633 1644 
Q 813 1766 1038 1828 
Q 1203 1872 1538 1913 
Q 2219 1994 2541 2106 
Q 2544 2222 2544 2253 
Q 2544 2597 2384 2738 
Q 2169 2928 1744 2928 
Q 1347 2928 1158 2789 
Q 969 2650 878 2297 
L 328 2372 
Q 403 2725 575 2942 
Q 747 3159 1072 3276 
Q 1397 3394 1825 3394 
Q 2250 3394 2515 3294 
Q 2781 3194 2906 3042 
Q 3031 2891 3081 2659 
Q 3109 2516 3109 2141 
L 3109 1391 
Q 3109 606 3145 398 
Q 3181 191 3288 0 
L 2700 0 
Q 2613 175 2588 409 
z
M 2541 1666 
Q 2234 1541 1622 1453 
Q 1275 1403 1131 1340 
Q 988 1278 909 1158 
Q 831 1038 831 891 
Q 831 666 1001 516 
Q 1172 366 1500 366 
Q 1825 366 2078 508 
Q 2331 650 2450 897 
Q 2541 1088 2541 1459 
L 2541 1666 
z
" transform="scale(0.015625)"/>
      <path id="ArialMT-6c" d="M 409 0 
L 409 4581 
L 972 4581 
L 972 0 
L 409 0 
z
" transform="scale(0.015625)"/>
      <path id="ArialMT-65" d="M 2694 1069 
L 3275 997 
Q 3138 488 2766 206 
Q 2394 -75 1816 -75 
Q 1088 -75 661 373 
Q 234 822 234 1631 
Q 234 2469 665 2931 
Q 1097 3394 1784 3394 
Q 2450 3394 2872 2941 
Q 3294 2488 3294 1666 
Q 3294 1616 3291 1516 
L 816 1516 
Q 847 969 1125 678 
Q 1403 388 1819 388 
Q 2128 388 2347 550 
Q 2566 713 2694 1069 
z
M 847 1978 
L 2700 1978 
Q 2663 2397 2488 2606 
Q 2219 2931 1791 2931 
Q 1403 2931 1139 2672 
Q 875 2413 847 1978 
z
" transform="scale(0.015625)"/>
      <path id="ArialMT-73" d="M 197 991 
L 753 1078 
Q 800 744 1014 566 
Q 1228 388 1613 388 
Q 2000 388 2187 545 
Q 2375 703 2375 916 
Q 2375 1106 2209 1216 
Q 2094 1291 1634 1406 
Q 1016 1563 777 1677 
Q 538 1791 414 1992 
Q 291 2194 291 2438 
Q 291 2659 392 2848 
Q 494 3038 669 3163 
Q 800 3259 1026 3326 
Q 1253 3394 1513 3394 
Q 1903 3394 2198 3281 
Q 2494 3169 2634 2976 
Q 2775 2784 2828 2463 
L 2278 2388 
Q 2241 2644 2061 2787 
Q 1881 2931 1553 2931 
Q 1166 2931 1000 2803 
Q 834 2675 834 2503 
Q 834 2394 903 2306 
Q 972 2216 1119 2156 
Q 1203 2125 1616 2013 
Q 2213 1853 2448 1751 
Q 2684 1650 2818 1456 
Q 2953 1263 2953 975 
Q 2953 694 2789 445 
Q 2625 197 2315 61 
Q 2006 -75 1616 -75 
Q 969 -75 630 194 
Q 291 463 197 991 
z
" transform="scale(0.015625)"/>
      <path id="ArialMT-74" d="M 1650 503 
L 1731 6 
Q 1494 -44 1306 -44 
Q 1000 -44 831 53 
Q 663 150 594 308 
Q 525 466 525 972 
L 525 2881 
L 113 2881 
L 113 3319 
L 525 3319 
L 525 4141 
L 1084 4478 
L 1084 3319 
L 1650 3319 
L 1650 2881 
L 1084 2881 
L 1084 941 
Q 1084 700 1114 631 
Q 1144 563 1211 522 
Q 1278 481 1403 481 
Q 1497 481 1650 503 
z
" transform="scale(0.015625)"/>
      <path id="ArialMT-69" d="M 425 3934 
L 425 4581 
L 988 4581 
L 988 3934 
L 425 3934 
z
M 425 0 
L 425 3319 
L 988 3319 
L 988 0 
L 425 0 
z
" transform="scale(0.015625)"/>
      <path id="ArialMT-6e" d="M 422 0 
L 422 3319 
L 928 3319 
L 928 2847 
Q 1294 3394 1984 3394 
Q 2284 3394 2536 3286 
Q 2788 3178 2913 3003 
Q 3038 2828 3088 2588 
Q 3119 2431 3119 2041 
L 3119 0 
L 2556 0 
L 2556 2019 
Q 2556 2363 2490 2533 
Q 2425 2703 2258 2804 
Q 2091 2906 1866 2906 
Q 1506 2906 1245 2678 
Q 984 2450 984 1813 
L 984 0 
L 422 0 
z
" transform="scale(0.015625)"/>
     </defs>
     <use xlink:href="#ArialMT-50"/>
     <use xlink:href="#ArialMT-61" transform="translate(66.699219 0)"/>
     <use xlink:href="#ArialMT-6c" transform="translate(122.314453 0)"/>
     <use xlink:href="#ArialMT-65" transform="translate(144.53125 0)"/>
     <use xlink:href="#ArialMT-73" transform="translate(200.146484 0)"/>
     <use xlink:href="#ArialMT-74" transform="translate(250.146484 0)"/>
     <use xlink:href="#ArialMT-69" transform="translate(277.929688 0)"/>
     <use xlink:href="#ArialMT-6e" transform="translate(300.146484 0)"/>
     <use xlink:href="#ArialMT-65" transform="translate(355.761719 0)"/>
    </g>
   </g>
   <g id="patch_76">
    <path d="M 530.011172 102.119687 
L 560.011172 102.119687 
L 560.011172 91.619687 
L 530.011172 91.619687 
z
" style="fill: #1741a1; stroke: #ffffff; stroke-linejoin: miter"/>
   </g>
   <g id="text_86">
    <!-- Israel -->
    <g style="fill: #262626" transform="translate(572.011172 102.119687) scale(0.15 -0.15)">
     <defs>
      <path id="ArialMT-49" d="M 597 0 
L 597 4581 
L 1203 4581 
L 1203 0 
L 597 0 
z
" transform="scale(0.015625)"/>
      <path id="ArialMT-72" d="M 416 0 
L 416 3319 
L 922 3319 
L 922 2816 
Q 1116 3169 1280 3281 
Q 1444 3394 1641 3394 
Q 1925 3394 2219 3213 
L 2025 2691 
Q 1819 2813 1613 2813 
Q 1428 2813 1281 2702 
Q 1134 2591 1072 2394 
Q 978 2094 978 1738 
L 978 0 
L 416 0 
z
" transform="scale(0.015625)"/>
     </defs>
     <use xlink:href="#ArialMT-49"/>
     <use xlink:href="#ArialMT-73" transform="translate(27.783203 0)"/>
     <use xlink:href="#ArialMT-72" transform="translate(77.783203 0)"/>
     <use xlink:href="#ArialMT-61" transform="translate(111.083984 0)"/>
     <use xlink:href="#ArialMT-65" transform="translate(166.699219 0)"/>
     <use xlink:href="#ArialMT-6c" transform="translate(222.314453 0)"/>
    </g>
   </g>
   <g id="patch_77">
    <path d="M 530.011172 123.337656 
L 560.011172 123.337656 
L 560.011172 112.837656 
L 530.011172 112.837656 
z
" style="fill: #b13419; stroke: #ffffff; stroke-linejoin: miter"/>
   </g>
   <g id="text_87">
    <!-- Palestine  -->
    <g style="fill: #262626" transform="translate(572.011172 123.337656) scale(0.15 -0.15)">
     <defs>
      <path id="ArialMT-20" transform="scale(0.015625)"/>
     </defs>
     <use xlink:href="#ArialMT-50"/>
     <use xlink:href="#ArialMT-61" transform="translate(66.699219 0)"/>
     <use xlink:href="#ArialMT-6c" transform="translate(122.314453 0)"/>
     <use xlink:href="#ArialMT-65" transform="translate(144.53125 0)"/>
     <use xlink:href="#ArialMT-73" transform="translate(200.146484 0)"/>
     <use xlink:href="#ArialMT-74" transform="translate(250.146484 0)"/>
     <use xlink:href="#ArialMT-69" transform="translate(277.929688 0)"/>
     <use xlink:href="#ArialMT-6e" transform="translate(300.146484 0)"/>
     <use xlink:href="#ArialMT-65" transform="translate(355.761719 0)"/>
     <use xlink:href="#ArialMT-20" transform="translate(411.376953 0)"/>
    </g>
   </g>
   <g id="patch_78">
    <path d="M 530.011172 144.555625 
L 560.011172 144.555625 
L 560.011172 134.055625 
L 530.011172 134.055625 
z
" style="stroke: #ffffff; stroke-linejoin: miter"/>
   </g>
   <g id="text_88">
    <!-- Israel  -->
    <g style="fill: #262626" transform="translate(572.011172 144.555625) scale(0.15 -0.15)">
     <use xlink:href="#ArialMT-49"/>
     <use xlink:href="#ArialMT-73" transform="translate(27.783203 0)"/>
     <use xlink:href="#ArialMT-72" transform="translate(77.783203 0)"/>
     <use xlink:href="#ArialMT-61" transform="translate(111.083984 0)"/>
     <use xlink:href="#ArialMT-65" transform="translate(166.699219 0)"/>
     <use xlink:href="#ArialMT-6c" transform="translate(222.314453 0)"/>
     <use xlink:href="#ArialMT-20" transform="translate(244.53125 0)"/>
    </g>
   </g>
  </g>
 </g>
 <defs>
  <clipPath id="p67a120b43d">
   <rect x="84.986719" y="12.416875" width="1004.4" height="388.08"/>
  </clipPath>
 </defs>
</svg>
