<?xml version="1.0" encoding="utf-8" standalone="no"?>
<!DOCTYPE svg PUBLIC "-//W3C//DTD SVG 1.1//EN"
  "http://www.w3.org/Graphics/SVG/1.1/DTD/svg11.dtd">
<svg xmlns:xlink="http://www.w3.org/1999/xlink" width="1113.834375pt" height="1072.31625pt" viewBox="0 0 1113.834375 1072.31625" xmlns="http://www.w3.org/2000/svg" version="1.1">
 <metadata>
  <rdf:RDF xmlns:dc="http://purl.org/dc/elements/1.1/" xmlns:cc="http://creativecommons.org/ns#" xmlns:rdf="http://www.w3.org/1999/02/22-rdf-syntax-ns#">
   <cc:Work>
    <dc:type rdf:resource="http://purl.org/dc/dcmitype/StillImage"/>
    <dc:date>2026-07-16T16:44:15.147820</dc:date>
    <dc:format>image/svg+xml</dc:format>
    <dc:creator>
     <cc:Agent>
      <dc:title>Matplotlib v3.10.9, https://matplotlib.org/</dc:title>
     </cc:Agent>
    </dc:creator>
   </cc:Work>
  </rdf:RDF>
 </metadata>
 <defs>
  <style type="text/css">*{stroke-linejoin: round; stroke-linecap: butt}</style>
 </defs>
 <g id="figure_1">
  <g id="patch_1">
   <path d="M 0 1072.31625 
L 1113.834375 1072.31625 
L 1113.834375 0 
L 0 0 
z
" style="fill: #ffffff"/>
  </g>
  <g id="axes_1">
   <g id="patch_2">
    <path d="M 105.563125 338.473333 
L 701.533125 338.473333 
L 701.533125 11.16 
L 105.563125 11.16 
z
" style="fill: #ffffff"/>
   </g>
   <g id="matplotlib.axis_1">
    <g id="xtick_1"/>
    <g id="xtick_2"/>
    <g id="xtick_3"/>
    <g id="xtick_4"/>
    <g id="xtick_5"/>
   </g>
   <g id="matplotlib.axis_2">
    <g id="ytick_1">
     <g id="line2d_1">
      <path d="M 105.563125 338.473333 
L 701.533125 338.473333 
" clip-path="url(#p6c212906b5)" style="fill: none; stroke: #cccccc; stroke-linecap: round"/>
     </g>
     <g id="text_1">
      <!-- 0% -->
      <g style="fill: #262626" transform="translate(70.0475 344.915365) scale(0.18 -0.18)">
       <defs>
        <path id="Arial-BoldMT-30" d="M 1756 4600 
Q 2422 4600 2797 4125 
Q 3244 3563 3244 2259 
Q 3244 959 2794 391 
Q 2422 -78 1756 -78 
Q 1088 -78 678 436 
Q 269 950 269 2269 
Q 269 3563 719 4131 
Q 1091 4600 1756 4600 
z
M 1756 3872 
Q 1597 3872 1472 3770 
Q 1347 3669 1278 3406 
Q 1188 3066 1188 2259 
Q 1188 1453 1269 1151 
Q 1350 850 1473 750 
Q 1597 650 1756 650 
Q 1916 650 2041 751 
Q 2166 853 2234 1116 
Q 2325 1453 2325 2259 
Q 2325 3066 2244 3367 
Q 2163 3669 2039 3770 
Q 1916 3872 1756 3872 
z
" transform="scale(0.015625)"/>
        <path id="Arial-BoldMT-25" d="M 278 3450 
Q 278 4066 548 4362 
Q 819 4659 1281 4659 
Q 1759 4659 2029 4364 
Q 2300 4069 2300 3450 
Q 2300 2834 2029 2537 
Q 1759 2241 1297 2241 
Q 819 2241 548 2536 
Q 278 2831 278 3450 
z
M 963 3456 
Q 963 3009 1066 2856 
Q 1144 2744 1281 2744 
Q 1422 2744 1500 2856 
Q 1600 3009 1600 3456 
Q 1600 3903 1500 4053 
Q 1422 4169 1281 4169 
Q 1144 4169 1066 4056 
Q 963 3903 963 3456 
z
M 1950 -175 
L 1300 -175 
L 3741 4659 
L 4372 4659 
L 1950 -175 
z
M 3369 1028 
Q 3369 1644 3639 1941 
Q 3909 2238 4378 2238 
Q 4850 2238 5120 1941 
Q 5391 1644 5391 1028 
Q 5391 409 5120 112 
Q 4850 -184 4388 -184 
Q 3909 -184 3639 112 
Q 3369 409 3369 1028 
z
M 4053 1031 
Q 4053 584 4156 434 
Q 4234 319 4372 319 
Q 4513 319 4588 431 
Q 4691 584 4691 1031 
Q 4691 1478 4591 1631 
Q 4513 1744 4372 1744 
Q 4231 1744 4156 1631 
Q 4053 1478 4053 1031 
z
" transform="scale(0.015625)"/>
       </defs>
       <use xlink:href="#Arial-BoldMT-30"/>
       <use xlink:href="#Arial-BoldMT-25" transform="translate(55.615234 0)"/>
      </g>
     </g>
    </g>
    <g id="ytick_2">
     <g id="line2d_2">
      <path d="M 105.563125 276.127937 
L 701.533125 276.127937 
" clip-path="url(#p6c212906b5)" style="fill: none; stroke: #cccccc; stroke-linecap: round"/>
     </g>
     <g id="text_2">
      <!-- 20% -->
      <g style="fill: #262626" transform="translate(60.037813 282.569968) scale(0.18 -0.18)">
       <defs>
        <path id="Arial-BoldMT-32" d="M 3238 816 
L 3238 0 
L 159 0 
Q 209 463 459 877 
Q 709 1291 1447 1975 
Q 2041 2528 2175 2725 
Q 2356 2997 2356 3263 
Q 2356 3556 2198 3714 
Q 2041 3872 1763 3872 
Q 1488 3872 1325 3706 
Q 1163 3541 1138 3156 
L 263 3244 
Q 341 3969 753 4284 
Q 1166 4600 1784 4600 
Q 2463 4600 2850 4234 
Q 3238 3869 3238 3325 
Q 3238 3016 3127 2736 
Q 3016 2456 2775 2150 
Q 2616 1947 2200 1565 
Q 1784 1184 1673 1059 
Q 1563 934 1494 816 
L 3238 816 
z
" transform="scale(0.015625)"/>
       </defs>
       <use xlink:href="#Arial-BoldMT-32"/>
       <use xlink:href="#Arial-BoldMT-30" transform="translate(55.615234 0)"/>
       <use xlink:href="#Arial-BoldMT-25" transform="translate(111.230469 0)"/>
      </g>
     </g>
    </g>
    <g id="ytick_3">
     <g id="line2d_3">
      <path d="M 105.563125 213.78254 
L 701.533125 213.78254 
" clip-path="url(#p6c212906b5)" style="fill: none; stroke: #cccccc; stroke-linecap: round"/>
     </g>
     <g id="text_3">
      <!-- 40% -->
      <g style="fill: #262626" transform="translate(60.037813 220.224571) scale(0.18 -0.18)">
       <defs>
        <path id="Arial-BoldMT-34" d="M 1994 0 
L 1994 922 
L 119 922 
L 119 1691 
L 2106 4600 
L 2844 4600 
L 2844 1694 
L 3413 1694 
L 3413 922 
L 2844 922 
L 2844 0 
L 1994 0 
z
M 1994 1694 
L 1994 3259 
L 941 1694 
L 1994 1694 
z
" transform="scale(0.015625)"/>
       </defs>
       <use xlink:href="#Arial-BoldMT-34"/>
       <use xlink:href="#Arial-BoldMT-30" transform="translate(55.615234 0)"/>
       <use xlink:href="#Arial-BoldMT-25" transform="translate(111.230469 0)"/>
      </g>
     </g>
    </g>
    <g id="ytick_4">
     <g id="line2d_4">
      <path d="M 105.563125 151.437143 
L 701.533125 151.437143 
" clip-path="url(#p6c212906b5)" style="fill: none; stroke: #cccccc; stroke-linecap: round"/>
     </g>
     <g id="text_4">
      <!-- 60% -->
      <g style="fill: #262626" transform="translate(60.037813 157.879174) scale(0.18 -0.18)">
       <defs>
        <path id="Arial-BoldMT-36" d="M 3247 3459 
L 2397 3366 
Q 2366 3628 2234 3753 
Q 2103 3878 1894 3878 
Q 1616 3878 1423 3628 
Q 1231 3378 1181 2588 
Q 1509 2975 1997 2975 
Q 2547 2975 2939 2556 
Q 3331 2138 3331 1475 
Q 3331 772 2918 347 
Q 2506 -78 1859 -78 
Q 1166 -78 719 461 
Q 272 1000 272 2228 
Q 272 3488 737 4044 
Q 1203 4600 1947 4600 
Q 2469 4600 2811 4308 
Q 3153 4016 3247 3459 
z
M 1256 1544 
Q 1256 1116 1453 883 
Q 1650 650 1903 650 
Q 2147 650 2309 840 
Q 2472 1031 2472 1466 
Q 2472 1913 2297 2120 
Q 2122 2328 1859 2328 
Q 1606 2328 1431 2129 
Q 1256 1931 1256 1544 
z
" transform="scale(0.015625)"/>
       </defs>
       <use xlink:href="#Arial-BoldMT-36"/>
       <use xlink:href="#Arial-BoldMT-30" transform="translate(55.615234 0)"/>
       <use xlink:href="#Arial-BoldMT-25" transform="translate(111.230469 0)"/>
      </g>
     </g>
    </g>
    <g id="ytick_5">
     <g id="line2d_5">
      <path d="M 105.563125 89.091746 
L 701.533125 89.091746 
" clip-path="url(#p6c212906b5)" style="fill: none; stroke: #cccccc; stroke-linecap: round"/>
     </g>
     <g id="text_5">
      <!-- 80% -->
      <g style="fill: #262626" transform="translate(60.037813 95.533777) scale(0.18 -0.18)">
       <defs>
        <path id="Arial-BoldMT-38" d="M 1025 2472 
Q 684 2616 529 2867 
Q 375 3119 375 3419 
Q 375 3931 733 4265 
Q 1091 4600 1750 4600 
Q 2403 4600 2764 4265 
Q 3125 3931 3125 3419 
Q 3125 3100 2959 2851 
Q 2794 2603 2494 2472 
Q 2875 2319 3073 2025 
Q 3272 1731 3272 1347 
Q 3272 713 2867 316 
Q 2463 -81 1791 -81 
Q 1166 -81 750 247 
Q 259 634 259 1309 
Q 259 1681 443 1992 
Q 628 2303 1025 2472 
z
M 1206 3356 
Q 1206 3094 1354 2947 
Q 1503 2800 1750 2800 
Q 2000 2800 2150 2948 
Q 2300 3097 2300 3359 
Q 2300 3606 2151 3754 
Q 2003 3903 1759 3903 
Q 1506 3903 1356 3753 
Q 1206 3603 1206 3356 
z
M 1125 1394 
Q 1125 1031 1311 828 
Q 1497 625 1775 625 
Q 2047 625 2225 820 
Q 2403 1016 2403 1384 
Q 2403 1706 2222 1901 
Q 2041 2097 1763 2097 
Q 1441 2097 1283 1875 
Q 1125 1653 1125 1394 
z
" transform="scale(0.015625)"/>
       </defs>
       <use xlink:href="#Arial-BoldMT-38"/>
       <use xlink:href="#Arial-BoldMT-30" transform="translate(55.615234 0)"/>
       <use xlink:href="#Arial-BoldMT-25" transform="translate(111.230469 0)"/>
      </g>
     </g>
    </g>
    <g id="ytick_6">
     <g id="line2d_6">
      <path d="M 105.563125 26.746349 
L 701.533125 26.746349 
" clip-path="url(#p6c212906b5)" style="fill: none; stroke: #cccccc; stroke-linecap: round"/>
     </g>
     <g id="text_6">
      <!-- 100% -->
      <g style="fill: #262626" transform="translate(50.028125 33.18838) scale(0.18 -0.18)">
       <defs>
        <path id="Arial-BoldMT-31" d="M 2519 0 
L 1641 0 
L 1641 3309 
Q 1159 2859 506 2644 
L 506 3441 
Q 850 3553 1253 3867 
Q 1656 4181 1806 4600 
L 2519 4600 
L 2519 0 
z
" transform="scale(0.015625)"/>
       </defs>
       <use xlink:href="#Arial-BoldMT-31"/>
       <use xlink:href="#Arial-BoldMT-30" transform="translate(55.615234 0)"/>
       <use xlink:href="#Arial-BoldMT-30" transform="translate(111.230469 0)"/>
       <use xlink:href="#Arial-BoldMT-25" transform="translate(166.845703 0)"/>
      </g>
     </g>
    </g>
    <g id="text_7">
     <!-- 2008-2012 -->
     <g style="fill: #262626" transform="translate(25.094531 234.588151) rotate(-90) scale(0.25 -0.25)">
      <defs>
       <path id="Arial-BoldMT-2d" d="M 359 1222 
L 359 2100 
L 2084 2100 
L 2084 1222 
L 359 1222 
z
" transform="scale(0.015625)"/>
      </defs>
      <use xlink:href="#Arial-BoldMT-32"/>
      <use xlink:href="#Arial-BoldMT-30" transform="translate(55.615234 0)"/>
      <use xlink:href="#Arial-BoldMT-30" transform="translate(111.230469 0)"/>
      <use xlink:href="#Arial-BoldMT-38" transform="translate(166.845703 0)"/>
      <use xlink:href="#Arial-BoldMT-2d" transform="translate(222.460938 0)"/>
      <use xlink:href="#Arial-BoldMT-32" transform="translate(255.761719 0)"/>
      <use xlink:href="#Arial-BoldMT-30" transform="translate(311.376953 0)"/>
      <use xlink:href="#Arial-BoldMT-31" transform="translate(366.992188 0)"/>
      <use xlink:href="#Arial-BoldMT-32" transform="translate(422.607422 0)"/>
     </g>
    </g>
   </g>
   <g id="patch_3">
    <path d="M 117.482525 338.473333 
L 212.837725 338.473333 
L 212.837725 26.746349 
L 117.482525 26.746349 
z
" clip-path="url(#p6c212906b5)" style="stroke: #ffffff; stroke-linejoin: miter"/>
   </g>
   <g id="patch_4">
    <path d="M 236.676525 338.473333 
L 332.031725 338.473333 
L 332.031725 26.746349 
L 236.676525 26.746349 
z
" clip-path="url(#p6c212906b5)" style="fill: #1741a1; stroke: #ffffff; stroke-linejoin: miter"/>
   </g>
   <g id="patch_5">
    <path d="M 355.870525 338.473333 
L 451.225725 338.473333 
L 451.225725 26.746349 
L 355.870525 26.746349 
z
" clip-path="url(#p6c212906b5)" style="fill: #1741a1; stroke: #ffffff; stroke-linejoin: miter"/>
   </g>
   <g id="patch_6">
    <path d="M 475.064525 338.473333 
L 570.419725 338.473333 
L 570.419725 26.746349 
L 475.064525 26.746349 
z
" clip-path="url(#p6c212906b5)" style="fill: #1741a1; stroke: #ffffff; stroke-linejoin: miter"/>
   </g>
   <g id="patch_7">
    <path d="M 594.258525 338.473333 
L 689.613725 338.473333 
L 689.613725 26.746349 
L 594.258525 26.746349 
z
" clip-path="url(#p6c212906b5)" style="fill: #1741a1; stroke: #ffffff; stroke-linejoin: miter"/>
   </g>
   <g id="patch_8">
    <path d="M 117.482525 338.473333 
L 212.837725 338.473333 
L 212.837725 41.397517 
L 117.482525 41.397517 
z
" clip-path="url(#p6c212906b5)" style="fill: #b13419; stroke: #ffffff; stroke-linejoin: miter"/>
   </g>
   <g id="patch_9">
    <path d="M 236.676525 338.473333 
L 332.031725 338.473333 
L 332.031725 77.246121 
L 236.676525 77.246121 
z
" clip-path="url(#p6c212906b5)" style="fill: #138141; stroke: #ffffff; stroke-linejoin: miter"/>
   </g>
   <g id="patch_10">
    <path d="M 355.870525 338.473333 
L 451.225725 338.473333 
L 451.225725 93.767651 
L 355.870525 93.767651 
z
" clip-path="url(#p6c212906b5)" style="fill: #138141; stroke: #ffffff; stroke-linejoin: miter"/>
   </g>
   <g id="patch_11">
    <path d="M 475.064525 338.473333 
L 570.419725 338.473333 
L 570.419725 101.249098 
L 475.064525 101.249098 
z
" clip-path="url(#p6c212906b5)" style="fill: #138141; stroke: #ffffff; stroke-linejoin: miter"/>
   </g>
   <g id="patch_12">
    <path d="M 594.258525 338.473333 
L 689.613725 338.473333 
L 689.613725 77.557848 
L 594.258525 77.557848 
z
" clip-path="url(#p6c212906b5)" style="fill: #138141; stroke: #ffffff; stroke-linejoin: miter"/>
   </g>
   <g id="line2d_7">
    <path clip-path="url(#p6c212906b5)" style="fill: none; stroke: #424242; stroke-width: 2.25; stroke-linecap: round"/>
   </g>
   <g id="line2d_8">
    <path clip-path="url(#p6c212906b5)" style="fill: none; stroke: #424242; stroke-width: 2.25; stroke-linecap: round"/>
   </g>
   <g id="line2d_9">
    <path clip-path="url(#p6c212906b5)" style="fill: none; stroke: #424242; stroke-width: 2.25; stroke-linecap: round"/>
   </g>
   <g id="line2d_10">
    <path clip-path="url(#p6c212906b5)" style="fill: none; stroke: #424242; stroke-width: 2.25; stroke-linecap: round"/>
   </g>
   <g id="line2d_11">
    <path clip-path="url(#p6c212906b5)" style="fill: none; stroke: #424242; stroke-width: 2.25; stroke-linecap: round"/>
   </g>
   <g id="line2d_12">
    <path clip-path="url(#p6c212906b5)" style="fill: none; stroke: #424242; stroke-width: 2.25; stroke-linecap: round"/>
   </g>
   <g id="line2d_13">
    <path clip-path="url(#p6c212906b5)" style="fill: none; stroke: #424242; stroke-width: 2.25; stroke-linecap: round"/>
   </g>
   <g id="line2d_14">
    <path clip-path="url(#p6c212906b5)" style="fill: none; stroke: #424242; stroke-width: 2.25; stroke-linecap: round"/>
   </g>
   <g id="line2d_15">
    <path clip-path="url(#p6c212906b5)" style="fill: none; stroke: #424242; stroke-width: 2.25; stroke-linecap: round"/>
   </g>
   <g id="line2d_16">
    <path clip-path="url(#p6c212906b5)" style="fill: none; stroke: #424242; stroke-width: 2.25; stroke-linecap: round"/>
   </g>
  </g>
  <g id="axes_2">
   <g id="patch_13">
    <path d="M 105.563125 688.826667 
L 701.533125 688.826667 
L 701.533125 361.513333 
L 105.563125 361.513333 
z
" style="fill: #ffffff"/>
   </g>
   <g id="matplotlib.axis_3">
    <g id="xtick_6"/>
    <g id="xtick_7"/>
    <g id="xtick_8"/>
    <g id="xtick_9"/>
    <g id="xtick_10"/>
   </g>
   <g id="matplotlib.axis_4">
    <g id="ytick_7">
     <g id="line2d_17">
      <path d="M 105.563125 688.826667 
L 701.533125 688.826667 
" clip-path="url(#p62b7db26ba)" style="fill: none; stroke: #cccccc; stroke-linecap: round"/>
     </g>
     <g id="text_8">
      <!-- 0% -->
      <g style="fill: #262626" transform="translate(70.0475 695.268698) scale(0.18 -0.18)">
       <use xlink:href="#Arial-BoldMT-30"/>
       <use xlink:href="#Arial-BoldMT-25" transform="translate(55.615234 0)"/>
      </g>
     </g>
    </g>
    <g id="ytick_8">
     <g id="line2d_18">
      <path d="M 105.563125 626.48127 
L 701.533125 626.48127 
" clip-path="url(#p62b7db26ba)" style="fill: none; stroke: #cccccc; stroke-linecap: round"/>
     </g>
     <g id="text_9">
      <!-- 20% -->
      <g style="fill: #262626" transform="translate(60.037813 632.923301) scale(0.18 -0.18)">
       <use xlink:href="#Arial-BoldMT-32"/>
       <use xlink:href="#Arial-BoldMT-30" transform="translate(55.615234 0)"/>
       <use xlink:href="#Arial-BoldMT-25" transform="translate(111.230469 0)"/>
      </g>
     </g>
    </g>
    <g id="ytick_9">
     <g id="line2d_19">
      <path d="M 105.563125 564.135873 
L 701.533125 564.135873 
" clip-path="url(#p62b7db26ba)" style="fill: none; stroke: #cccccc; stroke-linecap: round"/>
     </g>
     <g id="text_10">
      <!-- 40% -->
      <g style="fill: #262626" transform="translate(60.037813 570.577904) scale(0.18 -0.18)">
       <use xlink:href="#Arial-BoldMT-34"/>
       <use xlink:href="#Arial-BoldMT-30" transform="translate(55.615234 0)"/>
       <use xlink:href="#Arial-BoldMT-25" transform="translate(111.230469 0)"/>
      </g>
     </g>
    </g>
    <g id="ytick_10">
     <g id="line2d_20">
      <path d="M 105.563125 501.790476 
L 701.533125 501.790476 
" clip-path="url(#p62b7db26ba)" style="fill: none; stroke: #cccccc; stroke-linecap: round"/>
     </g>
     <g id="text_11">
      <!-- 60% -->
      <g style="fill: #262626" transform="translate(60.037813 508.232507) scale(0.18 -0.18)">
       <use xlink:href="#Arial-BoldMT-36"/>
       <use xlink:href="#Arial-BoldMT-30" transform="translate(55.615234 0)"/>
       <use xlink:href="#Arial-BoldMT-25" transform="translate(111.230469 0)"/>
      </g>
     </g>
    </g>
    <g id="ytick_11">
     <g id="line2d_21">
      <path d="M 105.563125 439.445079 
L 701.533125 439.445079 
" clip-path="url(#p62b7db26ba)" style="fill: none; stroke: #cccccc; stroke-linecap: round"/>
     </g>
     <g id="text_12">
      <!-- 80% -->
      <g style="fill: #262626" transform="translate(60.037813 445.887111) scale(0.18 -0.18)">
       <use xlink:href="#Arial-BoldMT-38"/>
       <use xlink:href="#Arial-BoldMT-30" transform="translate(55.615234 0)"/>
       <use xlink:href="#Arial-BoldMT-25" transform="translate(111.230469 0)"/>
      </g>
     </g>
    </g>
    <g id="ytick_12">
     <g id="line2d_22">
      <path d="M 105.563125 377.099683 
L 701.533125 377.099683 
" clip-path="url(#p62b7db26ba)" style="fill: none; stroke: #cccccc; stroke-linecap: round"/>
     </g>
     <g id="text_13">
      <!-- 100% -->
      <g style="fill: #262626" transform="translate(50.028125 383.541714) scale(0.18 -0.18)">
       <use xlink:href="#Arial-BoldMT-31"/>
       <use xlink:href="#Arial-BoldMT-30" transform="translate(55.615234 0)"/>
       <use xlink:href="#Arial-BoldMT-30" transform="translate(111.230469 0)"/>
       <use xlink:href="#Arial-BoldMT-25" transform="translate(166.845703 0)"/>
      </g>
     </g>
    </g>
    <g id="text_14">
     <!-- 2014 -->
     <g style="fill: #262626" transform="translate(25.094531 552.974687) rotate(-90) scale(0.25 -0.25)">
      <use xlink:href="#Arial-BoldMT-32"/>
      <use xlink:href="#Arial-BoldMT-30" transform="translate(55.615234 0)"/>
      <use xlink:href="#Arial-BoldMT-31" transform="translate(111.230469 0)"/>
      <use xlink:href="#Arial-BoldMT-34" transform="translate(166.845703 0)"/>
     </g>
    </g>
   </g>
   <g id="patch_14">
    <path d="M 117.482525 688.826667 
L 212.837725 688.826667 
L 212.837725 377.099683 
L 117.482525 377.099683 
z
" clip-path="url(#p62b7db26ba)" style="stroke: #ffffff; stroke-linejoin: miter"/>
   </g>
   <g id="patch_15">
    <path d="M 236.676525 688.826667 
L 332.031725 688.826667 
L 332.031725 377.099683 
L 236.676525 377.099683 
z
" clip-path="url(#p62b7db26ba)" style="fill: #1741a1; stroke: #ffffff; stroke-linejoin: miter"/>
   </g>
   <g id="patch_16">
    <path d="M 355.870525 688.826667 
L 451.225725 688.826667 
L 451.225725 377.099683 
L 355.870525 377.099683 
z
" clip-path="url(#p62b7db26ba)" style="fill: #1741a1; stroke: #ffffff; stroke-linejoin: miter"/>
   </g>
   <g id="patch_17">
    <path d="M 475.064525 688.826667 
L 570.419725 688.826667 
L 570.419725 377.099683 
L 475.064525 377.099683 
z
" clip-path="url(#p62b7db26ba)" style="fill: #1741a1; stroke: #ffffff; stroke-linejoin: miter"/>
   </g>
   <g id="patch_18">
    <path d="M 594.258525 688.826667 
L 689.613725 688.826667 
L 689.613725 377.099683 
L 594.258525 377.099683 
z
" clip-path="url(#p62b7db26ba)" style="fill: #1741a1; stroke: #ffffff; stroke-linejoin: miter"/>
   </g>
   <g id="patch_19">
    <path d="M 117.482525 688.826667 
L 212.837725 688.826667 
L 212.837725 412.013105 
L 117.482525 412.013105 
z
" clip-path="url(#p62b7db26ba)" style="fill: #b13419; stroke: #ffffff; stroke-linejoin: miter"/>
   </g>
   <g id="patch_20">
    <path d="M 236.676525 688.826667 
L 332.031725 688.826667 
L 332.031725 412.324832 
L 236.676525 412.324832 
z
" clip-path="url(#p62b7db26ba)" style="fill: #138141; stroke: #ffffff; stroke-linejoin: miter"/>
   </g>
   <g id="patch_21">
    <path d="M 355.870525 688.826667 
L 451.225725 688.826667 
L 451.225725 507.089835 
L 355.870525 507.089835 
z
" clip-path="url(#p62b7db26ba)" style="fill: #138141; stroke: #ffffff; stroke-linejoin: miter"/>
   </g>
   <g id="patch_22">
    <path d="M 475.064525 688.826667 
L 570.419725 688.826667 
L 570.419725 455.031429 
L 475.064525 455.031429 
z
" clip-path="url(#p62b7db26ba)" style="fill: #138141; stroke: #ffffff; stroke-linejoin: miter"/>
   </g>
   <g id="patch_23">
    <path d="M 594.258525 688.826667 
L 689.613725 688.826667 
L 689.613725 460.642514 
L 594.258525 460.642514 
z
" clip-path="url(#p62b7db26ba)" style="fill: #138141; stroke: #ffffff; stroke-linejoin: miter"/>
   </g>
   <g id="line2d_23">
    <path clip-path="url(#p62b7db26ba)" style="fill: none; stroke: #424242; stroke-width: 2.25; stroke-linecap: round"/>
   </g>
   <g id="line2d_24">
    <path clip-path="url(#p62b7db26ba)" style="fill: none; stroke: #424242; stroke-width: 2.25; stroke-linecap: round"/>
   </g>
   <g id="line2d_25">
    <path clip-path="url(#p62b7db26ba)" style="fill: none; stroke: #424242; stroke-width: 2.25; stroke-linecap: round"/>
   </g>
   <g id="line2d_26">
    <path clip-path="url(#p62b7db26ba)" style="fill: none; stroke: #424242; stroke-width: 2.25; stroke-linecap: round"/>
   </g>
   <g id="line2d_27">
    <path clip-path="url(#p62b7db26ba)" style="fill: none; stroke: #424242; stroke-width: 2.25; stroke-linecap: round"/>
   </g>
   <g id="line2d_28">
    <path clip-path="url(#p62b7db26ba)" style="fill: none; stroke: #424242; stroke-width: 2.25; stroke-linecap: round"/>
   </g>
   <g id="line2d_29">
    <path clip-path="url(#p62b7db26ba)" style="fill: none; stroke: #424242; stroke-width: 2.25; stroke-linecap: round"/>
   </g>
   <g id="line2d_30">
    <path clip-path="url(#p62b7db26ba)" style="fill: none; stroke: #424242; stroke-width: 2.25; stroke-linecap: round"/>
   </g>
   <g id="line2d_31">
    <path clip-path="url(#p62b7db26ba)" style="fill: none; stroke: #424242; stroke-width: 2.25; stroke-linecap: round"/>
   </g>
   <g id="line2d_32">
    <path clip-path="url(#p62b7db26ba)" style="fill: none; stroke: #424242; stroke-width: 2.25; stroke-linecap: round"/>
   </g>
  </g>
  <g id="axes_3">
   <g id="patch_24">
    <path d="M 105.563125 1039.18 
L 701.533125 1039.18 
L 701.533125 711.866667 
L 105.563125 711.866667 
z
" style="fill: #ffffff"/>
   </g>
   <g id="matplotlib.axis_5">
    <g id="xtick_11">
     <g id="text_15">
      <!-- ACTUAL -->
      <g style="fill: #262626" transform="translate(128.167312 1061.564062) scale(0.18 -0.18)">
       <defs>
        <path id="Arial-BoldMT-41" d="M 4597 0 
L 3591 0 
L 3191 1041 
L 1359 1041 
L 981 0 
L 0 0 
L 1784 4581 
L 2763 4581 
L 4597 0 
z
M 2894 1813 
L 2263 3513 
L 1644 1813 
L 2894 1813 
z
" transform="scale(0.015625)"/>
        <path id="Arial-BoldMT-43" d="M 3397 1684 
L 4294 1400 
Q 4088 650 3608 286 
Q 3128 -78 2391 -78 
Q 1478 -78 890 545 
Q 303 1169 303 2250 
Q 303 3394 893 4026 
Q 1484 4659 2447 4659 
Q 3288 4659 3813 4163 
Q 4125 3869 4281 3319 
L 3366 3100 
Q 3284 3456 3026 3662 
Q 2769 3869 2400 3869 
Q 1891 3869 1573 3503 
Q 1256 3138 1256 2319 
Q 1256 1450 1568 1081 
Q 1881 713 2381 713 
Q 2750 713 3015 947 
Q 3281 1181 3397 1684 
z
" transform="scale(0.015625)"/>
        <path id="Arial-BoldMT-54" d="M 1497 0 
L 1497 3806 
L 138 3806 
L 138 4581 
L 3778 4581 
L 3778 3806 
L 2422 3806 
L 2422 0 
L 1497 0 
z
" transform="scale(0.015625)"/>
        <path id="Arial-BoldMT-55" d="M 459 4581 
L 1384 4581 
L 1384 2100 
Q 1384 1509 1419 1334 
Q 1478 1053 1701 883 
Q 1925 713 2313 713 
Q 2706 713 2906 873 
Q 3106 1034 3147 1268 
Q 3188 1503 3188 2047 
L 3188 4581 
L 4113 4581 
L 4113 2175 
Q 4113 1350 4038 1009 
Q 3963 669 3761 434 
Q 3559 200 3221 61 
Q 2884 -78 2341 -78 
Q 1684 -78 1345 73 
Q 1006 225 809 467 
Q 613 709 550 975 
Q 459 1369 459 2138 
L 459 4581 
z
" transform="scale(0.015625)"/>
        <path id="Arial-BoldMT-4c" d="M 491 0 
L 491 4544 
L 1416 4544 
L 1416 772 
L 3716 772 
L 3716 0 
L 491 0 
z
" transform="scale(0.015625)"/>
       </defs>
       <use xlink:href="#Arial-BoldMT-41"/>
       <use xlink:href="#Arial-BoldMT-43" transform="translate(72.216797 0)"/>
       <use xlink:href="#Arial-BoldMT-54" transform="translate(144.433594 0)"/>
       <use xlink:href="#Arial-BoldMT-55" transform="translate(205.517578 0)"/>
       <use xlink:href="#Arial-BoldMT-41" transform="translate(277.734375 0)"/>
       <use xlink:href="#Arial-BoldMT-4c" transform="translate(349.951172 0)"/>
      </g>
     </g>
    </g>
    <g id="xtick_12">
     <g id="text_16">
      <!-- AJE -->
      <g style="fill: #262626" transform="translate(266.846313 1061.564062) scale(0.18 -0.18)">
       <defs>
        <path id="Arial-BoldMT-4a" d="M 2119 4581 
L 3041 4581 
L 3041 1681 
Q 3041 1113 2941 806 
Q 2806 406 2453 164 
Q 2100 -78 1522 -78 
Q 844 -78 478 301 
Q 113 681 109 1416 
L 981 1516 
Q 997 1122 1097 959 
Q 1247 713 1553 713 
Q 1863 713 1991 889 
Q 2119 1066 2119 1622 
L 2119 4581 
z
" transform="scale(0.015625)"/>
        <path id="Arial-BoldMT-45" d="M 466 0 
L 466 4581 
L 3863 4581 
L 3863 3806 
L 1391 3806 
L 1391 2791 
L 3691 2791 
L 3691 2019 
L 1391 2019 
L 1391 772 
L 3950 772 
L 3950 0 
L 466 0 
z
" transform="scale(0.015625)"/>
       </defs>
       <use xlink:href="#Arial-BoldMT-41"/>
       <use xlink:href="#Arial-BoldMT-4a" transform="translate(72.216797 0)"/>
       <use xlink:href="#Arial-BoldMT-45" transform="translate(127.832031 0)"/>
      </g>
     </g>
    </g>
    <g id="xtick_13">
     <g id="text_17">
      <!-- BBC -->
      <g style="fill: #262626" transform="translate(384.049063 1061.564062) scale(0.18 -0.18)">
       <defs>
        <path id="Arial-BoldMT-42" d="M 469 4581 
L 2300 4581 
Q 2844 4581 3111 4536 
Q 3378 4491 3589 4347 
Q 3800 4203 3940 3964 
Q 4081 3725 4081 3428 
Q 4081 3106 3907 2837 
Q 3734 2569 3438 2434 
Q 3856 2313 4081 2019 
Q 4306 1725 4306 1328 
Q 4306 1016 4161 720 
Q 4016 425 3764 248 
Q 3513 72 3144 31 
Q 2913 6 2028 0 
L 469 0 
L 469 4581 
z
M 1394 3819 
L 1394 2759 
L 2000 2759 
Q 2541 2759 2672 2775 
Q 2909 2803 3045 2939 
Q 3181 3075 3181 3297 
Q 3181 3509 3064 3642 
Q 2947 3775 2716 3803 
Q 2578 3819 1925 3819 
L 1394 3819 
z
M 1394 1997 
L 1394 772 
L 2250 772 
Q 2750 772 2884 800 
Q 3091 838 3220 983 
Q 3350 1128 3350 1372 
Q 3350 1578 3250 1722 
Q 3150 1866 2961 1931 
Q 2772 1997 2141 1997 
L 1394 1997 
z
" transform="scale(0.015625)"/>
       </defs>
       <use xlink:href="#Arial-BoldMT-42"/>
       <use xlink:href="#Arial-BoldMT-42" transform="translate(72.216797 0)"/>
       <use xlink:href="#Arial-BoldMT-43" transform="translate(144.433594 0)"/>
      </g>
     </g>
    </g>
    <g id="xtick_14">
     <g id="text_18">
      <!-- CNN -->
      <g style="fill: #262626" transform="translate(503.243063 1061.564062) scale(0.18 -0.18)">
       <defs>
        <path id="Arial-BoldMT-4e" d="M 475 0 
L 475 4581 
L 1375 4581 
L 3250 1522 
L 3250 4581 
L 4109 4581 
L 4109 0 
L 3181 0 
L 1334 2988 
L 1334 0 
L 475 0 
z
" transform="scale(0.015625)"/>
       </defs>
       <use xlink:href="#Arial-BoldMT-43"/>
       <use xlink:href="#Arial-BoldMT-4e" transform="translate(72.216797 0)"/>
       <use xlink:href="#Arial-BoldMT-4e" transform="translate(144.433594 0)"/>
      </g>
     </g>
    </g>
    <g id="xtick_15">
     <g id="text_19">
      <!-- NYT -->
      <g style="fill: #262626" transform="translate(623.936125 1061.564062) scale(0.18 -0.18)">
       <defs>
        <path id="Arial-BoldMT-59" d="M 1669 0 
L 1669 1928 
L -9 4581 
L 1075 4581 
L 2153 2769 
L 3209 4581 
L 4275 4581 
L 2591 1922 
L 2591 0 
L 1669 0 
z
" transform="scale(0.015625)"/>
       </defs>
       <use xlink:href="#Arial-BoldMT-4e"/>
       <use xlink:href="#Arial-BoldMT-59" transform="translate(72.216797 0)"/>
       <use xlink:href="#Arial-BoldMT-54" transform="translate(138.916016 0)"/>
      </g>
     </g>
    </g>
   </g>
   <g id="matplotlib.axis_6">
    <g id="ytick_13">
     <g id="line2d_33">
      <path d="M 105.563125 1039.18 
L 701.533125 1039.18 
" clip-path="url(#p647c84b18c)" style="fill: none; stroke: #cccccc; stroke-linecap: round"/>
     </g>
     <g id="text_20">
      <!-- 0% -->
      <g style="fill: #262626" transform="translate(70.0475 1045.622031) scale(0.18 -0.18)">
       <use xlink:href="#Arial-BoldMT-30"/>
       <use xlink:href="#Arial-BoldMT-25" transform="translate(55.615234 0)"/>
      </g>
     </g>
    </g>
    <g id="ytick_14">
     <g id="line2d_34">
      <path d="M 105.563125 976.834603 
L 701.533125 976.834603 
" clip-path="url(#p647c84b18c)" style="fill: none; stroke: #cccccc; stroke-linecap: round"/>
     </g>
     <g id="text_21">
      <!-- 20% -->
      <g style="fill: #262626" transform="translate(60.037813 983.276634) scale(0.18 -0.18)">
       <use xlink:href="#Arial-BoldMT-32"/>
       <use xlink:href="#Arial-BoldMT-30" transform="translate(55.615234 0)"/>
       <use xlink:href="#Arial-BoldMT-25" transform="translate(111.230469 0)"/>
      </g>
     </g>
    </g>
    <g id="ytick_15">
     <g id="line2d_35">
      <path d="M 105.563125 914.489206 
L 701.533125 914.489206 
" clip-path="url(#p647c84b18c)" style="fill: none; stroke: #cccccc; stroke-linecap: round"/>
     </g>
     <g id="text_22">
      <!-- 40% -->
      <g style="fill: #262626" transform="translate(60.037813 920.931238) scale(0.18 -0.18)">
       <use xlink:href="#Arial-BoldMT-34"/>
       <use xlink:href="#Arial-BoldMT-30" transform="translate(55.615234 0)"/>
       <use xlink:href="#Arial-BoldMT-25" transform="translate(111.230469 0)"/>
      </g>
     </g>
    </g>
    <g id="ytick_16">
     <g id="line2d_36">
      <path d="M 105.563125 852.14381 
L 701.533125 852.14381 
" clip-path="url(#p647c84b18c)" style="fill: none; stroke: #cccccc; stroke-linecap: round"/>
     </g>
     <g id="text_23">
      <!-- 60% -->
      <g style="fill: #262626" transform="translate(60.037813 858.585841) scale(0.18 -0.18)">
       <use xlink:href="#Arial-BoldMT-36"/>
       <use xlink:href="#Arial-BoldMT-30" transform="translate(55.615234 0)"/>
       <use xlink:href="#Arial-BoldMT-25" transform="translate(111.230469 0)"/>
      </g>
     </g>
    </g>
    <g id="ytick_17">
     <g id="line2d_37">
      <path d="M 105.563125 789.798413 
L 701.533125 789.798413 
" clip-path="url(#p647c84b18c)" style="fill: none; stroke: #cccccc; stroke-linecap: round"/>
     </g>
     <g id="text_24">
      <!-- 80% -->
      <g style="fill: #262626" transform="translate(60.037813 796.240444) scale(0.18 -0.18)">
       <use xlink:href="#Arial-BoldMT-38"/>
       <use xlink:href="#Arial-BoldMT-30" transform="translate(55.615234 0)"/>
       <use xlink:href="#Arial-BoldMT-25" transform="translate(111.230469 0)"/>
      </g>
     </g>
    </g>
    <g id="ytick_18">
     <g id="line2d_38">
      <path d="M 105.563125 727.453016 
L 701.533125 727.453016 
" clip-path="url(#p647c84b18c)" style="fill: none; stroke: #cccccc; stroke-linecap: round"/>
     </g>
     <g id="text_25">
      <!-- 100% -->
      <g style="fill: #262626" transform="translate(50.028125 733.895047) scale(0.18 -0.18)">
       <use xlink:href="#Arial-BoldMT-31"/>
       <use xlink:href="#Arial-BoldMT-30" transform="translate(55.615234 0)"/>
       <use xlink:href="#Arial-BoldMT-30" transform="translate(111.230469 0)"/>
       <use xlink:href="#Arial-BoldMT-25" transform="translate(166.845703 0)"/>
      </g>
     </g>
    </g>
    <g id="text_26">
     <!-- 2023 -->
     <g style="fill: #262626" transform="translate(25.094531 903.328021) rotate(-90) scale(0.25 -0.25)">
      <defs>
       <path id="Arial-BoldMT-33" d="M 241 1216 
L 1091 1319 
Q 1131 994 1309 822 
Q 1488 650 1741 650 
Q 2013 650 2198 856 
Q 2384 1063 2384 1413 
Q 2384 1744 2206 1937 
Q 2028 2131 1772 2131 
Q 1603 2131 1369 2066 
L 1466 2781 
Q 1822 2772 2009 2936 
Q 2197 3100 2197 3372 
Q 2197 3603 2059 3740 
Q 1922 3878 1694 3878 
Q 1469 3878 1309 3722 
Q 1150 3566 1116 3266 
L 306 3403 
Q 391 3819 561 4067 
Q 731 4316 1036 4458 
Q 1341 4600 1719 4600 
Q 2366 4600 2756 4188 
Q 3078 3850 3078 3425 
Q 3078 2822 2419 2463 
Q 2813 2378 3048 2084 
Q 3284 1791 3284 1375 
Q 3284 772 2843 347 
Q 2403 -78 1747 -78 
Q 1125 -78 715 280 
Q 306 638 241 1216 
z
" transform="scale(0.015625)"/>
      </defs>
      <use xlink:href="#Arial-BoldMT-32"/>
      <use xlink:href="#Arial-BoldMT-30" transform="translate(55.615234 0)"/>
      <use xlink:href="#Arial-BoldMT-32" transform="translate(111.230469 0)"/>
      <use xlink:href="#Arial-BoldMT-33" transform="translate(166.845703 0)"/>
     </g>
    </g>
   </g>
   <g id="patch_25">
    <path d="M 117.482525 1039.18 
L 212.837725 1039.18 
L 212.837725 727.453016 
L 117.482525 727.453016 
z
" clip-path="url(#p647c84b18c)" style="stroke: #ffffff; stroke-linejoin: miter"/>
   </g>
   <g id="patch_26">
    <path d="M 236.676525 1039.18 
L 332.031725 1039.18 
L 332.031725 727.453016 
L 236.676525 727.453016 
z
" clip-path="url(#p647c84b18c)" style="fill: #1741a1; stroke: #ffffff; stroke-linejoin: miter"/>
   </g>
   <g id="patch_27">
    <path d="M 355.870525 1039.18 
L 451.225725 1039.18 
L 451.225725 727.453016 
L 355.870525 727.453016 
z
" clip-path="url(#p647c84b18c)" style="fill: #1741a1; stroke: #ffffff; stroke-linejoin: miter"/>
   </g>
   <g id="patch_28">
    <path d="M 475.064525 1039.18 
L 570.419725 1039.18 
L 570.419725 727.453016 
L 475.064525 727.453016 
z
" clip-path="url(#p647c84b18c)" style="fill: #1741a1; stroke: #ffffff; stroke-linejoin: miter"/>
   </g>
   <g id="patch_29">
    <path d="M 594.258525 1039.18 
L 689.613725 1039.18 
L 689.613725 727.453016 
L 594.258525 727.453016 
z
" clip-path="url(#p647c84b18c)" style="fill: #1741a1; stroke: #ffffff; stroke-linejoin: miter"/>
   </g>
   <g id="patch_30">
    <path d="M 117.482525 1039.18 
L 212.837725 1039.18 
L 212.837725 741.792457 
L 117.482525 741.792457 
z
" clip-path="url(#p647c84b18c)" style="fill: #b13419; stroke: #ffffff; stroke-linejoin: miter"/>
   </g>
   <g id="patch_31">
    <path d="M 236.676525 1039.18 
L 332.031725 1039.18 
L 332.031725 763.613346 
L 236.676525 763.613346 
z
" clip-path="url(#p647c84b18c)" style="fill: #138141; stroke: #ffffff; stroke-linejoin: miter"/>
   </g>
   <g id="patch_32">
    <path d="M 355.870525 1039.18 
L 451.225725 1039.18 
L 451.225725 883.939962 
L 355.870525 883.939962 
z
" clip-path="url(#p647c84b18c)" style="fill: #138141; stroke: #ffffff; stroke-linejoin: miter"/>
   </g>
   <g id="patch_33">
    <path d="M 475.064525 1039.18 
L 570.419725 1039.18 
L 570.419725 879.887511 
L 475.064525 879.887511 
z
" clip-path="url(#p647c84b18c)" style="fill: #138141; stroke: #ffffff; stroke-linejoin: miter"/>
   </g>
   <g id="patch_34">
    <path d="M 594.258525 1039.18 
L 689.613725 1039.18 
L 689.613725 899.526311 
L 594.258525 899.526311 
z
" clip-path="url(#p647c84b18c)" style="fill: #138141; stroke: #ffffff; stroke-linejoin: miter"/>
   </g>
   <g id="line2d_39">
    <path clip-path="url(#p647c84b18c)" style="fill: none; stroke: #424242; stroke-width: 2.25; stroke-linecap: round"/>
   </g>
   <g id="line2d_40">
    <path clip-path="url(#p647c84b18c)" style="fill: none; stroke: #424242; stroke-width: 2.25; stroke-linecap: round"/>
   </g>
   <g id="line2d_41">
    <path clip-path="url(#p647c84b18c)" style="fill: none; stroke: #424242; stroke-width: 2.25; stroke-linecap: round"/>
   </g>
   <g id="line2d_42">
    <path clip-path="url(#p647c84b18c)" style="fill: none; stroke: #424242; stroke-width: 2.25; stroke-linecap: round"/>
   </g>
   <g id="line2d_43">
    <path clip-path="url(#p647c84b18c)" style="fill: none; stroke: #424242; stroke-width: 2.25; stroke-linecap: round"/>
   </g>
   <g id="line2d_44">
    <path clip-path="url(#p647c84b18c)" style="fill: none; stroke: #424242; stroke-width: 2.25; stroke-linecap: round"/>
   </g>
   <g id="line2d_45">
    <path clip-path="url(#p647c84b18c)" style="fill: none; stroke: #424242; stroke-width: 2.25; stroke-linecap: round"/>
   </g>
   <g id="line2d_46">
    <path clip-path="url(#p647c84b18c)" style="fill: none; stroke: #424242; stroke-width: 2.25; stroke-linecap: round"/>
   </g>
   <g id="line2d_47">
    <path clip-path="url(#p647c84b18c)" style="fill: none; stroke: #424242; stroke-width: 2.25; stroke-linecap: round"/>
   </g>
   <g id="line2d_48">
    <path clip-path="url(#p647c84b18c)" style="fill: none; stroke: #424242; stroke-width: 2.25; stroke-linecap: round"/>
   </g>
  </g>
  <g id="legend_1">
   <g id="patch_35">
    <path d="M 737.893125 27.503437 
L 773.893125 27.503437 
L 773.893125 14.903437 
L 737.893125 14.903437 
z
" style="stroke: #ffffff; stroke-linejoin: miter"/>
   </g>
   <g id="text_27">
    <!-- Israel - Actual Casualty Share -->
    <g style="fill: #262626" transform="translate(788.293125 27.503437) scale(0.18 -0.18)">
     <defs>
      <path id="ArialMT-49" d="M 597 0 
L 597 4581 
L 1203 4581 
L 1203 0 
L 597 0 
z
" transform="scale(0.015625)"/>
      <path id="ArialMT-73" d="M 197 991 
L 753 1078 
Q 800 744 1014 566 
Q 1228 388 1613 388 
Q 2000 388 2187 545 
Q 2375 703 2375 916 
Q 2375 1106 2209 1216 
Q 2094 1291 1634 1406 
Q 1016 1563 777 1677 
Q 538 1791 414 1992 
Q 291 2194 291 2438 
Q 291 2659 392 2848 
Q 494 3038 669 3163 
Q 800 3259 1026 3326 
Q 1253 3394 1513 3394 
Q 1903 3394 2198 3281 
Q 2494 3169 2634 2976 
Q 2775 2784 2828 2463 
L 2278 2388 
Q 2241 2644 2061 2787 
Q 1881 2931 1553 2931 
Q 1166 2931 1000 2803 
Q 834 2675 834 2503 
Q 834 2394 903 2306 
Q 972 2216 1119 2156 
Q 1203 2125 1616 2013 
Q 2213 1853 2448 1751 
Q 2684 1650 2818 1456 
Q 2953 1263 2953 975 
Q 2953 694 2789 445 
Q 2625 197 2315 61 
Q 2006 -75 1616 -75 
Q 969 -75 630 194 
Q 291 463 197 991 
z
" transform="scale(0.015625)"/>
      <path id="ArialMT-72" d="M 416 0 
L 416 3319 
L 922 3319 
L 922 2816 
Q 1116 3169 1280 3281 
Q 1444 3394 1641 3394 
Q 1925 3394 2219 3213 
L 2025 2691 
Q 1819 2813 1613 2813 
Q 1428 2813 1281 2702 
Q 1134 2591 1072 2394 
Q 978 2094 978 1738 
L 978 0 
L 416 0 
z
" transform="scale(0.015625)"/>
      <path id="ArialMT-61" d="M 2588 409 
Q 2275 144 1986 34 
Q 1697 -75 1366 -75 
Q 819 -75 525 192 
Q 231 459 231 875 
Q 231 1119 342 1320 
Q 453 1522 633 1644 
Q 813 1766 1038 1828 
Q 1203 1872 1538 1913 
Q 2219 1994 2541 2106 
Q 2544 2222 2544 2253 
Q 2544 2597 2384 2738 
Q 2169 2928 1744 2928 
Q 1347 2928 1158 2789 
Q 969 2650 878 2297 
L 328 2372 
Q 403 2725 575 2942 
Q 747 3159 1072 3276 
Q 1397 3394 1825 3394 
Q 2250 3394 2515 3294 
Q 2781 3194 2906 3042 
Q 3031 2891 3081 2659 
Q 3109 2516 3109 2141 
L 3109 1391 
Q 3109 606 3145 398 
Q 3181 191 3288 0 
L 2700 0 
Q 2613 175 2588 409 
z
M 2541 1666 
Q 2234 1541 1622 1453 
Q 1275 1403 1131 1340 
Q 988 1278 909 1158 
Q 831 1038 831 891 
Q 831 666 1001 516 
Q 1172 366 1500 366 
Q 1825 366 2078 508 
Q 2331 650 2450 897 
Q 2541 1088 2541 1459 
L 2541 1666 
z
" transform="scale(0.015625)"/>
      <path id="ArialMT-65" d="M 2694 1069 
L 3275 997 
Q 3138 488 2766 206 
Q 2394 -75 1816 -75 
Q 1088 -75 661 373 
Q 234 822 234 1631 
Q 234 2469 665 2931 
Q 1097 3394 1784 3394 
Q 2450 3394 2872 2941 
Q 3294 2488 3294 1666 
Q 3294 1616 3291 1516 
L 816 1516 
Q 847 969 1125 678 
Q 1403 388 1819 388 
Q 2128 388 2347 550 
Q 2566 713 2694 1069 
z
M 847 1978 
L 2700 1978 
Q 2663 2397 2488 2606 
Q 2219 2931 1791 2931 
Q 1403 2931 1139 2672 
Q 875 2413 847 1978 
z
" transform="scale(0.015625)"/>
      <path id="ArialMT-6c" d="M 409 0 
L 409 4581 
L 972 4581 
L 972 0 
L 409 0 
z
" transform="scale(0.015625)"/>
      <path id="ArialMT-20" transform="scale(0.015625)"/>
      <path id="ArialMT-2d" d="M 203 1375 
L 203 1941 
L 1931 1941 
L 1931 1375 
L 203 1375 
z
" transform="scale(0.015625)"/>
      <path id="ArialMT-41" d="M -9 0 
L 1750 4581 
L 2403 4581 
L 4278 0 
L 3588 0 
L 3053 1388 
L 1138 1388 
L 634 0 
L -9 0 
z
M 1313 1881 
L 2866 1881 
L 2388 3150 
Q 2169 3728 2063 4100 
Q 1975 3659 1816 3225 
L 1313 1881 
z
" transform="scale(0.015625)"/>
      <path id="ArialMT-63" d="M 2588 1216 
L 3141 1144 
Q 3050 572 2676 248 
Q 2303 -75 1759 -75 
Q 1078 -75 664 370 
Q 250 816 250 1647 
Q 250 2184 428 2587 
Q 606 2991 970 3192 
Q 1334 3394 1763 3394 
Q 2303 3394 2647 3120 
Q 2991 2847 3088 2344 
L 2541 2259 
Q 2463 2594 2264 2762 
Q 2066 2931 1784 2931 
Q 1359 2931 1093 2626 
Q 828 2322 828 1663 
Q 828 994 1084 691 
Q 1341 388 1753 388 
Q 2084 388 2306 591 
Q 2528 794 2588 1216 
z
" transform="scale(0.015625)"/>
      <path id="ArialMT-74" d="M 1650 503 
L 1731 6 
Q 1494 -44 1306 -44 
Q 1000 -44 831 53 
Q 663 150 594 308 
Q 525 466 525 972 
L 525 2881 
L 113 2881 
L 113 3319 
L 525 3319 
L 525 4141 
L 1084 4478 
L 1084 3319 
L 1650 3319 
L 1650 2881 
L 1084 2881 
L 1084 941 
Q 1084 700 1114 631 
Q 1144 563 1211 522 
Q 1278 481 1403 481 
Q 1497 481 1650 503 
z
" transform="scale(0.015625)"/>
      <path id="ArialMT-75" d="M 2597 0 
L 2597 488 
Q 2209 -75 1544 -75 
Q 1250 -75 995 37 
Q 741 150 617 320 
Q 494 491 444 738 
Q 409 903 409 1263 
L 409 3319 
L 972 3319 
L 972 1478 
Q 972 1038 1006 884 
Q 1059 663 1231 536 
Q 1403 409 1656 409 
Q 1909 409 2131 539 
Q 2353 669 2445 892 
Q 2538 1116 2538 1541 
L 2538 3319 
L 3100 3319 
L 3100 0 
L 2597 0 
z
" transform="scale(0.015625)"/>
      <path id="ArialMT-43" d="M 3763 1606 
L 4369 1453 
Q 4178 706 3683 314 
Q 3188 -78 2472 -78 
Q 1731 -78 1267 223 
Q 803 525 561 1097 
Q 319 1669 319 2325 
Q 319 3041 592 3573 
Q 866 4106 1370 4382 
Q 1875 4659 2481 4659 
Q 3169 4659 3637 4309 
Q 4106 3959 4291 3325 
L 3694 3184 
Q 3534 3684 3231 3912 
Q 2928 4141 2469 4141 
Q 1941 4141 1586 3887 
Q 1231 3634 1087 3207 
Q 944 2781 944 2328 
Q 944 1744 1114 1308 
Q 1284 872 1643 656 
Q 2003 441 2422 441 
Q 2931 441 3284 734 
Q 3638 1028 3763 1606 
z
" transform="scale(0.015625)"/>
      <path id="ArialMT-79" d="M 397 -1278 
L 334 -750 
Q 519 -800 656 -800 
Q 844 -800 956 -737 
Q 1069 -675 1141 -563 
Q 1194 -478 1313 -144 
Q 1328 -97 1363 -6 
L 103 3319 
L 709 3319 
L 1400 1397 
Q 1534 1031 1641 628 
Q 1738 1016 1872 1384 
L 2581 3319 
L 3144 3319 
L 1881 -56 
Q 1678 -603 1566 -809 
Q 1416 -1088 1222 -1217 
Q 1028 -1347 759 -1347 
Q 597 -1347 397 -1278 
z
" transform="scale(0.015625)"/>
      <path id="ArialMT-53" d="M 288 1472 
L 859 1522 
Q 900 1178 1048 958 
Q 1197 738 1509 602 
Q 1822 466 2213 466 
Q 2559 466 2825 569 
Q 3091 672 3220 851 
Q 3350 1031 3350 1244 
Q 3350 1459 3225 1620 
Q 3100 1781 2813 1891 
Q 2628 1963 1997 2114 
Q 1366 2266 1113 2400 
Q 784 2572 623 2826 
Q 463 3081 463 3397 
Q 463 3744 659 4045 
Q 856 4347 1234 4503 
Q 1613 4659 2075 4659 
Q 2584 4659 2973 4495 
Q 3363 4331 3572 4012 
Q 3781 3694 3797 3291 
L 3216 3247 
Q 3169 3681 2898 3903 
Q 2628 4125 2100 4125 
Q 1550 4125 1298 3923 
Q 1047 3722 1047 3438 
Q 1047 3191 1225 3031 
Q 1400 2872 2139 2705 
Q 2878 2538 3153 2413 
Q 3553 2228 3743 1945 
Q 3934 1663 3934 1294 
Q 3934 928 3725 604 
Q 3516 281 3123 101 
Q 2731 -78 2241 -78 
Q 1619 -78 1198 103 
Q 778 284 539 648 
Q 300 1013 288 1472 
z
" transform="scale(0.015625)"/>
      <path id="ArialMT-68" d="M 422 0 
L 422 4581 
L 984 4581 
L 984 2938 
Q 1378 3394 1978 3394 
Q 2347 3394 2619 3248 
Q 2891 3103 3008 2847 
Q 3125 2591 3125 2103 
L 3125 0 
L 2563 0 
L 2563 2103 
Q 2563 2525 2380 2717 
Q 2197 2909 1863 2909 
Q 1613 2909 1392 2779 
Q 1172 2650 1078 2428 
Q 984 2206 984 1816 
L 984 0 
L 422 0 
z
" transform="scale(0.015625)"/>
     </defs>
     <use xlink:href="#ArialMT-49"/>
     <use xlink:href="#ArialMT-73" transform="translate(27.783203 0)"/>
     <use xlink:href="#ArialMT-72" transform="translate(77.783203 0)"/>
     <use xlink:href="#ArialMT-61" transform="translate(111.083984 0)"/>
     <use xlink:href="#ArialMT-65" transform="translate(166.699219 0)"/>
     <use xlink:href="#ArialMT-6c" transform="translate(222.314453 0)"/>
     <use xlink:href="#ArialMT-20" transform="translate(244.53125 0)"/>
     <use xlink:href="#ArialMT-2d" transform="translate(272.314453 0)"/>
     <use xlink:href="#ArialMT-20" transform="translate(305.615234 0)"/>
     <use xlink:href="#ArialMT-41" transform="translate(327.898438 0)"/>
     <use xlink:href="#ArialMT-63" transform="translate(394.597656 0)"/>
     <use xlink:href="#ArialMT-74" transform="translate(444.597656 0)"/>
     <use xlink:href="#ArialMT-75" transform="translate(472.380859 0)"/>
     <use xlink:href="#ArialMT-61" transform="translate(527.996094 0)"/>
     <use xlink:href="#ArialMT-6c" transform="translate(583.611328 0)"/>
     <use xlink:href="#ArialMT-20" transform="translate(605.828125 0)"/>
     <use xlink:href="#ArialMT-43" transform="translate(633.611328 0)"/>
     <use xlink:href="#ArialMT-61" transform="translate(705.828125 0)"/>
     <use xlink:href="#ArialMT-73" transform="translate(761.443359 0)"/>
     <use xlink:href="#ArialMT-75" transform="translate(811.443359 0)"/>
     <use xlink:href="#ArialMT-61" transform="translate(867.058594 0)"/>
     <use xlink:href="#ArialMT-6c" transform="translate(922.673828 0)"/>
     <use xlink:href="#ArialMT-74" transform="translate(944.890625 0)"/>
     <use xlink:href="#ArialMT-79" transform="translate(972.673828 0)"/>
     <use xlink:href="#ArialMT-20" transform="translate(1022.673828 0)"/>
     <use xlink:href="#ArialMT-53" transform="translate(1050.457031 0)"/>
     <use xlink:href="#ArialMT-68" transform="translate(1117.15625 0)"/>
     <use xlink:href="#ArialMT-61" transform="translate(1172.771484 0)"/>
     <use xlink:href="#ArialMT-72" transform="translate(1228.386719 0)"/>
     <use xlink:href="#ArialMT-65" transform="translate(1261.6875 0)"/>
    </g>
   </g>
   <g id="patch_36">
    <path d="M 737.893125 53.395312 
L 773.893125 53.395312 
L 773.893125 40.795312 
L 737.893125 40.795312 
z
" style="fill: #ca2400; stroke: #ffffff; stroke-linejoin: miter"/>
   </g>
   <g id="text_28">
    <!-- Palestine - Actual Casualty Share -->
    <g style="fill: #262626" transform="translate(788.293125 53.395312) scale(0.18 -0.18)">
     <defs>
      <path id="ArialMT-50" d="M 494 0 
L 494 4581 
L 2222 4581 
Q 2678 4581 2919 4538 
Q 3256 4481 3484 4323 
Q 3713 4166 3852 3881 
Q 3991 3597 3991 3256 
Q 3991 2672 3619 2267 
Q 3247 1863 2275 1863 
L 1100 1863 
L 1100 0 
L 494 0 
z
M 1100 2403 
L 2284 2403 
Q 2872 2403 3119 2622 
Q 3366 2841 3366 3238 
Q 3366 3525 3220 3729 
Q 3075 3934 2838 4000 
Q 2684 4041 2272 4041 
L 1100 4041 
L 1100 2403 
z
" transform="scale(0.015625)"/>
      <path id="ArialMT-69" d="M 425 3934 
L 425 4581 
L 988 4581 
L 988 3934 
L 425 3934 
z
M 425 0 
L 425 3319 
L 988 3319 
L 988 0 
L 425 0 
z
" transform="scale(0.015625)"/>
      <path id="ArialMT-6e" d="M 422 0 
L 422 3319 
L 928 3319 
L 928 2847 
Q 1294 3394 1984 3394 
Q 2284 3394 2536 3286 
Q 2788 3178 2913 3003 
Q 3038 2828 3088 2588 
Q 3119 2431 3119 2041 
L 3119 0 
L 2556 0 
L 2556 2019 
Q 2556 2363 2490 2533 
Q 2425 2703 2258 2804 
Q 2091 2906 1866 2906 
Q 1506 2906 1245 2678 
Q 984 2450 984 1813 
L 984 0 
L 422 0 
z
" transform="scale(0.015625)"/>
     </defs>
     <use xlink:href="#ArialMT-50"/>
     <use xlink:href="#ArialMT-61" transform="translate(66.699219 0)"/>
     <use xlink:href="#ArialMT-6c" transform="translate(122.314453 0)"/>
     <use xlink:href="#ArialMT-65" transform="translate(144.53125 0)"/>
     <use xlink:href="#ArialMT-73" transform="translate(200.146484 0)"/>
     <use xlink:href="#ArialMT-74" transform="translate(250.146484 0)"/>
     <use xlink:href="#ArialMT-69" transform="translate(277.929688 0)"/>
     <use xlink:href="#ArialMT-6e" transform="translate(300.146484 0)"/>
     <use xlink:href="#ArialMT-65" transform="translate(355.761719 0)"/>
     <use xlink:href="#ArialMT-20" transform="translate(411.376953 0)"/>
     <use xlink:href="#ArialMT-2d" transform="translate(439.160156 0)"/>
     <use xlink:href="#ArialMT-20" transform="translate(472.460938 0)"/>
     <use xlink:href="#ArialMT-41" transform="translate(494.744141 0)"/>
     <use xlink:href="#ArialMT-63" transform="translate(561.443359 0)"/>
     <use xlink:href="#ArialMT-74" transform="translate(611.443359 0)"/>
     <use xlink:href="#ArialMT-75" transform="translate(639.226562 0)"/>
     <use xlink:href="#ArialMT-61" transform="translate(694.841797 0)"/>
     <use xlink:href="#ArialMT-6c" transform="translate(750.457031 0)"/>
     <use xlink:href="#ArialMT-20" transform="translate(772.673828 0)"/>
     <use xlink:href="#ArialMT-43" transform="translate(800.457031 0)"/>
     <use xlink:href="#ArialMT-61" transform="translate(872.673828 0)"/>
     <use xlink:href="#ArialMT-73" transform="translate(928.289062 0)"/>
     <use xlink:href="#ArialMT-75" transform="translate(978.289062 0)"/>
     <use xlink:href="#ArialMT-61" transform="translate(1033.904297 0)"/>
     <use xlink:href="#ArialMT-6c" transform="translate(1089.519531 0)"/>
     <use xlink:href="#ArialMT-74" transform="translate(1111.736328 0)"/>
     <use xlink:href="#ArialMT-79" transform="translate(1139.519531 0)"/>
     <use xlink:href="#ArialMT-20" transform="translate(1189.519531 0)"/>
     <use xlink:href="#ArialMT-53" transform="translate(1217.302734 0)"/>
     <use xlink:href="#ArialMT-68" transform="translate(1284.001953 0)"/>
     <use xlink:href="#ArialMT-61" transform="translate(1339.617188 0)"/>
     <use xlink:href="#ArialMT-72" transform="translate(1395.232422 0)"/>
     <use xlink:href="#ArialMT-65" transform="translate(1428.533203 0)"/>
    </g>
   </g>
   <g id="patch_37">
    <path d="M 737.893125 79.287187 
L 773.893125 79.287187 
L 773.893125 66.687187 
L 737.893125 66.687187 
z
" style="fill: #0038b8; stroke: #ffffff; stroke-linejoin: miter"/>
   </g>
   <g id="text_29">
    <!-- Israel - Share of Casualty Mentions -->
    <g style="fill: #262626" transform="translate(788.293125 79.287187) scale(0.18 -0.18)">
     <defs>
      <path id="ArialMT-6f" d="M 213 1659 
Q 213 2581 725 3025 
Q 1153 3394 1769 3394 
Q 2453 3394 2887 2945 
Q 3322 2497 3322 1706 
Q 3322 1066 3130 698 
Q 2938 331 2570 128 
Q 2203 -75 1769 -75 
Q 1072 -75 642 372 
Q 213 819 213 1659 
z
M 791 1659 
Q 791 1022 1069 705 
Q 1347 388 1769 388 
Q 2188 388 2466 706 
Q 2744 1025 2744 1678 
Q 2744 2294 2464 2611 
Q 2184 2928 1769 2928 
Q 1347 2928 1069 2612 
Q 791 2297 791 1659 
z
" transform="scale(0.015625)"/>
      <path id="ArialMT-66" d="M 556 0 
L 556 2881 
L 59 2881 
L 59 3319 
L 556 3319 
L 556 3672 
Q 556 4006 616 4169 
Q 697 4388 901 4523 
Q 1106 4659 1475 4659 
Q 1713 4659 2000 4603 
L 1916 4113 
Q 1741 4144 1584 4144 
Q 1328 4144 1222 4034 
Q 1116 3925 1116 3625 
L 1116 3319 
L 1763 3319 
L 1763 2881 
L 1116 2881 
L 1116 0 
L 556 0 
z
" transform="scale(0.015625)"/>
      <path id="ArialMT-4d" d="M 475 0 
L 475 4581 
L 1388 4581 
L 2472 1338 
Q 2622 884 2691 659 
Q 2769 909 2934 1394 
L 4031 4581 
L 4847 4581 
L 4847 0 
L 4263 0 
L 4263 3834 
L 2931 0 
L 2384 0 
L 1059 3900 
L 1059 0 
L 475 0 
z
" transform="scale(0.015625)"/>
     </defs>
     <use xlink:href="#ArialMT-49"/>
     <use xlink:href="#ArialMT-73" transform="translate(27.783203 0)"/>
     <use xlink:href="#ArialMT-72" transform="translate(77.783203 0)"/>
     <use xlink:href="#ArialMT-61" transform="translate(111.083984 0)"/>
     <use xlink:href="#ArialMT-65" transform="translate(166.699219 0)"/>
     <use xlink:href="#ArialMT-6c" transform="translate(222.314453 0)"/>
     <use xlink:href="#ArialMT-20" transform="translate(244.53125 0)"/>
     <use xlink:href="#ArialMT-2d" transform="translate(272.314453 0)"/>
     <use xlink:href="#ArialMT-20" transform="translate(305.615234 0)"/>
     <use xlink:href="#ArialMT-53" transform="translate(333.398438 0)"/>
     <use xlink:href="#ArialMT-68" transform="translate(400.097656 0)"/>
     <use xlink:href="#ArialMT-61" transform="translate(455.712891 0)"/>
     <use xlink:href="#ArialMT-72" transform="translate(511.328125 0)"/>
     <use xlink:href="#ArialMT-65" transform="translate(544.628906 0)"/>
     <use xlink:href="#ArialMT-20" transform="translate(600.244141 0)"/>
     <use xlink:href="#ArialMT-6f" transform="translate(628.027344 0)"/>
     <use xlink:href="#ArialMT-66" transform="translate(683.642578 0)"/>
     <use xlink:href="#ArialMT-20" transform="translate(711.425781 0)"/>
     <use xlink:href="#ArialMT-43" transform="translate(739.208984 0)"/>
     <use xlink:href="#ArialMT-61" transform="translate(811.425781 0)"/>
     <use xlink:href="#ArialMT-73" transform="translate(867.041016 0)"/>
     <use xlink:href="#ArialMT-75" transform="translate(917.041016 0)"/>
     <use xlink:href="#ArialMT-61" transform="translate(972.65625 0)"/>
     <use xlink:href="#ArialMT-6c" transform="translate(1028.271484 0)"/>
     <use xlink:href="#ArialMT-74" transform="translate(1050.488281 0)"/>
     <use xlink:href="#ArialMT-79" transform="translate(1078.271484 0)"/>
     <use xlink:href="#ArialMT-20" transform="translate(1128.271484 0)"/>
     <use xlink:href="#ArialMT-4d" transform="translate(1156.054688 0)"/>
     <use xlink:href="#ArialMT-65" transform="translate(1239.355469 0)"/>
     <use xlink:href="#ArialMT-6e" transform="translate(1294.970703 0)"/>
     <use xlink:href="#ArialMT-74" transform="translate(1350.585938 0)"/>
     <use xlink:href="#ArialMT-69" transform="translate(1378.369141 0)"/>
     <use xlink:href="#ArialMT-6f" transform="translate(1400.585938 0)"/>
     <use xlink:href="#ArialMT-6e" transform="translate(1456.201172 0)"/>
     <use xlink:href="#ArialMT-73" transform="translate(1511.816406 0)"/>
    </g>
   </g>
   <g id="patch_38">
    <path d="M 737.893125 105.179062 
L 773.893125 105.179062 
L 773.893125 92.579062 
L 737.893125 92.579062 
z
" style="fill: #01933e; stroke: #ffffff; stroke-linejoin: miter"/>
   </g>
   <g id="text_30">
    <!-- Palestine - Share of Casualty Mentions -->
    <g style="fill: #262626" transform="translate(788.293125 105.179062) scale(0.18 -0.18)">
     <use xlink:href="#ArialMT-50"/>
     <use xlink:href="#ArialMT-61" transform="translate(66.699219 0)"/>
     <use xlink:href="#ArialMT-6c" transform="translate(122.314453 0)"/>
     <use xlink:href="#ArialMT-65" transform="translate(144.53125 0)"/>
     <use xlink:href="#ArialMT-73" transform="translate(200.146484 0)"/>
     <use xlink:href="#ArialMT-74" transform="translate(250.146484 0)"/>
     <use xlink:href="#ArialMT-69" transform="translate(277.929688 0)"/>
     <use xlink:href="#ArialMT-6e" transform="translate(300.146484 0)"/>
     <use xlink:href="#ArialMT-65" transform="translate(355.761719 0)"/>
     <use xlink:href="#ArialMT-20" transform="translate(411.376953 0)"/>
     <use xlink:href="#ArialMT-2d" transform="translate(439.160156 0)"/>
     <use xlink:href="#ArialMT-20" transform="translate(472.460938 0)"/>
     <use xlink:href="#ArialMT-53" transform="translate(500.244141 0)"/>
     <use xlink:href="#ArialMT-68" transform="translate(566.943359 0)"/>
     <use xlink:href="#ArialMT-61" transform="translate(622.558594 0)"/>
     <use xlink:href="#ArialMT-72" transform="translate(678.173828 0)"/>
     <use xlink:href="#ArialMT-65" transform="translate(711.474609 0)"/>
     <use xlink:href="#ArialMT-20" transform="translate(767.089844 0)"/>
     <use xlink:href="#ArialMT-6f" transform="translate(794.873047 0)"/>
     <use xlink:href="#ArialMT-66" transform="translate(850.488281 0)"/>
     <use xlink:href="#ArialMT-20" transform="translate(878.271484 0)"/>
     <use xlink:href="#ArialMT-43" transform="translate(906.054688 0)"/>
     <use xlink:href="#ArialMT-61" transform="translate(978.271484 0)"/>
     <use xlink:href="#ArialMT-73" transform="translate(1033.886719 0)"/>
     <use xlink:href="#ArialMT-75" transform="translate(1083.886719 0)"/>
     <use xlink:href="#ArialMT-61" transform="translate(1139.501953 0)"/>
     <use xlink:href="#ArialMT-6c" transform="translate(1195.117188 0)"/>
     <use xlink:href="#ArialMT-74" transform="translate(1217.333984 0)"/>
     <use xlink:href="#ArialMT-79" transform="translate(1245.117188 0)"/>
     <use xlink:href="#ArialMT-20" transform="translate(1295.117188 0)"/>
     <use xlink:href="#ArialMT-4d" transform="translate(1322.900391 0)"/>
     <use xlink:href="#ArialMT-65" transform="translate(1406.201172 0)"/>
     <use xlink:href="#ArialMT-6e" transform="translate(1461.816406 0)"/>
     <use xlink:href="#ArialMT-74" transform="translate(1517.431641 0)"/>
     <use xlink:href="#ArialMT-69" transform="translate(1545.214844 0)"/>
     <use xlink:href="#ArialMT-6f" transform="translate(1567.431641 0)"/>
     <use xlink:href="#ArialMT-6e" transform="translate(1623.046875 0)"/>
     <use xlink:href="#ArialMT-73" transform="translate(1678.662109 0)"/>
    </g>
   </g>
  </g>
 </g>
 <defs>
  <clipPath id="p6c212906b5">
   <rect x="105.563125" y="11.16" width="595.97" height="327.313333"/>
  </clipPath>
  <clipPath id="p62b7db26ba">
   <rect x="105.563125" y="361.513333" width="595.97" height="327.313333"/>
  </clipPath>
  <clipPath id="p647c84b18c">
   <rect x="105.563125" y="711.866667" width="595.97" height="327.313333"/>
  </clipPath>
 </defs>
</svg>
