<?xml version="1.0" encoding="utf-8" standalone="no"?>
<!DOCTYPE svg PUBLIC "-//W3C//DTD SVG 1.1//EN"
  "http://www.w3.org/Graphics/SVG/1.1/DTD/svg11.dtd">
<svg xmlns:xlink="http://www.w3.org/1999/xlink" width="517.667109pt" height="392.557344pt" viewBox="0 0 517.667109 392.557344" xmlns="http://www.w3.org/2000/svg" version="1.1">
 <metadata>
  <rdf:RDF xmlns:dc="http://purl.org/dc/elements/1.1/" xmlns:cc="http://creativecommons.org/ns#" xmlns:rdf="http://www.w3.org/1999/02/22-rdf-syntax-ns#">
   <cc:Work>
    <dc:type rdf:resource="http://purl.org/dc/dcmitype/StillImage"/>
    <dc:date>2026-07-16T16:42:00.610343</dc:date>
    <dc:format>image/svg+xml</dc:format>
    <dc:creator>
     <cc:Agent>
      <dc:title>Matplotlib v3.10.9, https://matplotlib.org/</dc:title>
     </cc:Agent>
    </dc:creator>
   </cc:Work>
  </rdf:RDF>
 </metadata>
 <defs>
  <style type="text/css">*{stroke-linejoin: round; stroke-linecap: butt}</style>
 </defs>
 <g id="figure_1">
  <g id="patch_1">
   <path d="M 0 392.557344 
L 517.667109 392.557344 
L 517.667109 0 
L 0 0 
z
" style="fill: #ffffff"/>
  </g>
  <g id="axes_1">
   <g id="patch_2">
    <path d="M 54.891563 339.84 
L 501.291562 339.84 
L 501.291562 7.2 
L 54.891563 7.2 
z
" style="fill: #ffffff"/>
   </g>
   <g id="matplotlib.axis_1">
    <g id="xtick_1">
     <g id="text_1">
      <!-- 0 -->
      <g style="fill: #262626" transform="translate(65.842501 357.213594) scale(0.11 -0.11)">
       <defs>
        <path id="ArialMT-30" d="M 266 2259 
Q 266 3072 433 3567 
Q 600 4063 929 4331 
Q 1259 4600 1759 4600 
Q 2128 4600 2406 4451 
Q 2684 4303 2865 4023 
Q 3047 3744 3150 3342 
Q 3253 2941 3253 2259 
Q 3253 1453 3087 958 
Q 2922 463 2592 192 
Q 2263 -78 1759 -78 
Q 1097 -78 719 397 
Q 266 969 266 2259 
z
M 844 2259 
Q 844 1131 1108 757 
Q 1372 384 1759 384 
Q 2147 384 2411 759 
Q 2675 1134 2675 2259 
Q 2675 3391 2411 3762 
Q 2147 4134 1753 4134 
Q 1366 4134 1134 3806 
Q 844 3388 844 2259 
z
" transform="scale(0.015625)"/>
       </defs>
       <use xlink:href="#ArialMT-30"/>
      </g>
     </g>
    </g>
    <g id="xtick_2">
     <g id="text_2">
      <!-- 50 -->
      <g style="fill: #262626" transform="translate(106.02304 357.213594) scale(0.11 -0.11)">
       <defs>
        <path id="ArialMT-35" d="M 266 1200 
L 856 1250 
Q 922 819 1161 601 
Q 1400 384 1738 384 
Q 2144 384 2425 690 
Q 2706 997 2706 1503 
Q 2706 1984 2436 2262 
Q 2166 2541 1728 2541 
Q 1456 2541 1237 2417 
Q 1019 2294 894 2097 
L 366 2166 
L 809 4519 
L 3088 4519 
L 3088 3981 
L 1259 3981 
L 1013 2750 
Q 1425 3038 1878 3038 
Q 2478 3038 2890 2622 
Q 3303 2206 3303 1553 
Q 3303 931 2941 478 
Q 2500 -78 1738 -78 
Q 1113 -78 717 272 
Q 322 622 266 1200 
z
" transform="scale(0.015625)"/>
       </defs>
       <use xlink:href="#ArialMT-35"/>
       <use xlink:href="#ArialMT-30" transform="translate(55.615234 0)"/>
      </g>
     </g>
    </g>
    <g id="xtick_3">
     <g id="text_3">
      <!-- 100 -->
      <g style="fill: #262626" transform="translate(146.203579 357.213594) scale(0.11 -0.11)">
       <defs>
        <path id="ArialMT-31" d="M 2384 0 
L 1822 0 
L 1822 3584 
Q 1619 3391 1289 3197 
Q 959 3003 697 2906 
L 697 3450 
Q 1169 3672 1522 3987 
Q 1875 4303 2022 4600 
L 2384 4600 
L 2384 0 
z
" transform="scale(0.015625)"/>
       </defs>
       <use xlink:href="#ArialMT-31"/>
       <use xlink:href="#ArialMT-30" transform="translate(55.615234 0)"/>
       <use xlink:href="#ArialMT-30" transform="translate(111.230469 0)"/>
      </g>
     </g>
    </g>
    <g id="xtick_4">
     <g id="text_4">
      <!-- 150 -->
      <g style="fill: #262626" transform="translate(189.442633 357.213594) scale(0.11 -0.11)">
       <use xlink:href="#ArialMT-31"/>
       <use xlink:href="#ArialMT-35" transform="translate(55.615234 0)"/>
       <use xlink:href="#ArialMT-30" transform="translate(111.230469 0)"/>
      </g>
     </g>
    </g>
    <g id="xtick_5">
     <g id="text_5">
      <!-- 200 -->
      <g style="fill: #262626" transform="translate(232.681688 357.213594) scale(0.11 -0.11)">
       <defs>
        <path id="ArialMT-32" d="M 3222 541 
L 3222 0 
L 194 0 
Q 188 203 259 391 
Q 375 700 629 1000 
Q 884 1300 1366 1694 
Q 2113 2306 2375 2664 
Q 2638 3022 2638 3341 
Q 2638 3675 2398 3904 
Q 2159 4134 1775 4134 
Q 1369 4134 1125 3890 
Q 881 3647 878 3216 
L 300 3275 
Q 359 3922 746 4261 
Q 1134 4600 1788 4600 
Q 2447 4600 2831 4234 
Q 3216 3869 3216 3328 
Q 3216 3053 3103 2787 
Q 2991 2522 2730 2228 
Q 2469 1934 1863 1422 
Q 1356 997 1212 845 
Q 1069 694 975 541 
L 3222 541 
z
" transform="scale(0.015625)"/>
       </defs>
       <use xlink:href="#ArialMT-32"/>
       <use xlink:href="#ArialMT-30" transform="translate(55.615234 0)"/>
       <use xlink:href="#ArialMT-30" transform="translate(111.230469 0)"/>
      </g>
     </g>
    </g>
    <g id="xtick_6">
     <g id="text_6">
      <!-- 250 -->
      <g style="fill: #262626" transform="translate(275.920742 357.213594) scale(0.11 -0.11)">
       <use xlink:href="#ArialMT-32"/>
       <use xlink:href="#ArialMT-35" transform="translate(55.615234 0)"/>
       <use xlink:href="#ArialMT-30" transform="translate(111.230469 0)"/>
      </g>
     </g>
    </g>
    <g id="xtick_7">
     <g id="text_7">
      <!-- 300 -->
      <g style="fill: #262626" transform="translate(319.159797 357.213594) scale(0.11 -0.11)">
       <defs>
        <path id="ArialMT-33" d="M 269 1209 
L 831 1284 
Q 928 806 1161 595 
Q 1394 384 1728 384 
Q 2125 384 2398 659 
Q 2672 934 2672 1341 
Q 2672 1728 2419 1979 
Q 2166 2231 1775 2231 
Q 1616 2231 1378 2169 
L 1441 2663 
Q 1497 2656 1531 2656 
Q 1891 2656 2178 2843 
Q 2466 3031 2466 3422 
Q 2466 3731 2256 3934 
Q 2047 4138 1716 4138 
Q 1388 4138 1169 3931 
Q 950 3725 888 3313 
L 325 3413 
Q 428 3978 793 4289 
Q 1159 4600 1703 4600 
Q 2078 4600 2393 4439 
Q 2709 4278 2876 4000 
Q 3044 3722 3044 3409 
Q 3044 3113 2884 2869 
Q 2725 2625 2413 2481 
Q 2819 2388 3044 2092 
Q 3269 1797 3269 1353 
Q 3269 753 2831 336 
Q 2394 -81 1725 -81 
Q 1122 -81 723 278 
Q 325 638 269 1209 
z
" transform="scale(0.015625)"/>
       </defs>
       <use xlink:href="#ArialMT-33"/>
       <use xlink:href="#ArialMT-30" transform="translate(55.615234 0)"/>
       <use xlink:href="#ArialMT-30" transform="translate(111.230469 0)"/>
      </g>
     </g>
    </g>
    <g id="xtick_8">
     <g id="text_8">
      <!-- 350 -->
      <g style="fill: #262626" transform="translate(362.398852 357.213594) scale(0.11 -0.11)">
       <use xlink:href="#ArialMT-33"/>
       <use xlink:href="#ArialMT-35" transform="translate(55.615234 0)"/>
       <use xlink:href="#ArialMT-30" transform="translate(111.230469 0)"/>
      </g>
     </g>
    </g>
    <g id="xtick_9">
     <g id="text_9">
      <!-- 400 -->
      <g style="fill: #262626" transform="translate(405.637906 357.213594) scale(0.11 -0.11)">
       <defs>
        <path id="ArialMT-34" d="M 2069 0 
L 2069 1097 
L 81 1097 
L 81 1613 
L 2172 4581 
L 2631 4581 
L 2631 1613 
L 3250 1613 
L 3250 1097 
L 2631 1097 
L 2631 0 
L 2069 0 
z
M 2069 1613 
L 2069 3678 
L 634 1613 
L 2069 1613 
z
" transform="scale(0.015625)"/>
       </defs>
       <use xlink:href="#ArialMT-34"/>
       <use xlink:href="#ArialMT-30" transform="translate(55.615234 0)"/>
       <use xlink:href="#ArialMT-30" transform="translate(111.230469 0)"/>
      </g>
     </g>
    </g>
    <g id="xtick_10">
     <g id="text_10">
      <!-- 450 -->
      <g style="fill: #262626" transform="translate(448.876961 357.213594) scale(0.11 -0.11)">
       <use xlink:href="#ArialMT-34"/>
       <use xlink:href="#ArialMT-35" transform="translate(55.615234 0)"/>
       <use xlink:href="#ArialMT-30" transform="translate(111.230469 0)"/>
      </g>
     </g>
    </g>
    <g id="xtick_11">
     <g id="text_11">
      <!-- 500 -->
      <g style="fill: #262626" transform="translate(492.116016 357.213594) scale(0.11 -0.11)">
       <use xlink:href="#ArialMT-35"/>
       <use xlink:href="#ArialMT-30" transform="translate(55.615234 0)"/>
       <use xlink:href="#ArialMT-30" transform="translate(111.230469 0)"/>
      </g>
     </g>
    </g>
    <g id="text_12">
     <!-- Num of Palestinian Deaths -->
     <g style="fill: #262626" transform="translate(202.41375 382.989219) scale(0.12 -0.12)">
      <defs>
       <path id="Arial-BoldMT-4e" d="M 475 0 
L 475 4581 
L 1375 4581 
L 3250 1522 
L 3250 4581 
L 4109 4581 
L 4109 0 
L 3181 0 
L 1334 2988 
L 1334 0 
L 475 0 
z
" transform="scale(0.015625)"/>
       <path id="Arial-BoldMT-75" d="M 2644 0 
L 2644 497 
Q 2463 231 2167 78 
Q 1872 -75 1544 -75 
Q 1209 -75 943 72 
Q 678 219 559 484 
Q 441 750 441 1219 
L 441 3319 
L 1319 3319 
L 1319 1794 
Q 1319 1094 1367 936 
Q 1416 778 1544 686 
Q 1672 594 1869 594 
Q 2094 594 2272 717 
Q 2450 841 2515 1023 
Q 2581 1206 2581 1919 
L 2581 3319 
L 3459 3319 
L 3459 0 
L 2644 0 
z
" transform="scale(0.015625)"/>
       <path id="Arial-BoldMT-6d" d="M 394 3319 
L 1203 3319 
L 1203 2866 
Q 1638 3394 2238 3394 
Q 2556 3394 2790 3262 
Q 3025 3131 3175 2866 
Q 3394 3131 3647 3262 
Q 3900 3394 4188 3394 
Q 4553 3394 4806 3245 
Q 5059 3097 5184 2809 
Q 5275 2597 5275 2122 
L 5275 0 
L 4397 0 
L 4397 1897 
Q 4397 2391 4306 2534 
Q 4184 2722 3931 2722 
Q 3747 2722 3584 2609 
Q 3422 2497 3350 2280 
Q 3278 2063 3278 1594 
L 3278 0 
L 2400 0 
L 2400 1819 
Q 2400 2303 2353 2443 
Q 2306 2584 2207 2653 
Q 2109 2722 1941 2722 
Q 1738 2722 1575 2612 
Q 1413 2503 1342 2297 
Q 1272 2091 1272 1613 
L 1272 0 
L 394 0 
L 394 3319 
z
" transform="scale(0.015625)"/>
       <path id="Arial-BoldMT-20" transform="scale(0.015625)"/>
       <path id="Arial-BoldMT-6f" d="M 256 1706 
Q 256 2144 472 2553 
Q 688 2963 1083 3178 
Q 1478 3394 1966 3394 
Q 2719 3394 3200 2905 
Q 3681 2416 3681 1669 
Q 3681 916 3195 420 
Q 2709 -75 1972 -75 
Q 1516 -75 1102 131 
Q 688 338 472 736 
Q 256 1134 256 1706 
z
M 1156 1659 
Q 1156 1166 1390 903 
Q 1625 641 1969 641 
Q 2313 641 2545 903 
Q 2778 1166 2778 1666 
Q 2778 2153 2545 2415 
Q 2313 2678 1969 2678 
Q 1625 2678 1390 2415 
Q 1156 2153 1156 1659 
z
" transform="scale(0.015625)"/>
       <path id="Arial-BoldMT-66" d="M 75 3319 
L 563 3319 
L 563 3569 
Q 563 3988 652 4194 
Q 741 4400 980 4529 
Q 1219 4659 1584 4659 
Q 1959 4659 2319 4547 
L 2200 3934 
Q 1991 3984 1797 3984 
Q 1606 3984 1523 3895 
Q 1441 3806 1441 3553 
L 1441 3319 
L 2097 3319 
L 2097 2628 
L 1441 2628 
L 1441 0 
L 563 0 
L 563 2628 
L 75 2628 
L 75 3319 
z
" transform="scale(0.015625)"/>
       <path id="Arial-BoldMT-50" d="M 466 0 
L 466 4581 
L 1950 4581 
Q 2794 4581 3050 4513 
Q 3444 4409 3709 4064 
Q 3975 3719 3975 3172 
Q 3975 2750 3822 2462 
Q 3669 2175 3433 2011 
Q 3197 1847 2953 1794 
Q 2622 1728 1994 1728 
L 1391 1728 
L 1391 0 
L 466 0 
z
M 1391 3806 
L 1391 2506 
L 1897 2506 
Q 2444 2506 2628 2578 
Q 2813 2650 2917 2803 
Q 3022 2956 3022 3159 
Q 3022 3409 2875 3571 
Q 2728 3734 2503 3775 
Q 2338 3806 1838 3806 
L 1391 3806 
z
" transform="scale(0.015625)"/>
       <path id="Arial-BoldMT-61" d="M 1116 2306 
L 319 2450 
Q 453 2931 781 3162 
Q 1109 3394 1756 3394 
Q 2344 3394 2631 3255 
Q 2919 3116 3036 2902 
Q 3153 2688 3153 2116 
L 3144 1091 
Q 3144 653 3186 445 
Q 3228 238 3344 0 
L 2475 0 
Q 2441 88 2391 259 
Q 2369 338 2359 363 
Q 2134 144 1878 34 
Q 1622 -75 1331 -75 
Q 819 -75 523 203 
Q 228 481 228 906 
Q 228 1188 362 1408 
Q 497 1628 739 1745 
Q 981 1863 1438 1950 
Q 2053 2066 2291 2166 
L 2291 2253 
Q 2291 2506 2166 2614 
Q 2041 2722 1694 2722 
Q 1459 2722 1328 2630 
Q 1197 2538 1116 2306 
z
M 2291 1594 
Q 2122 1538 1756 1459 
Q 1391 1381 1278 1306 
Q 1106 1184 1106 997 
Q 1106 813 1243 678 
Q 1381 544 1594 544 
Q 1831 544 2047 700 
Q 2206 819 2256 991 
Q 2291 1103 2291 1419 
L 2291 1594 
z
" transform="scale(0.015625)"/>
       <path id="Arial-BoldMT-6c" d="M 459 0 
L 459 4581 
L 1338 4581 
L 1338 0 
L 459 0 
z
" transform="scale(0.015625)"/>
       <path id="Arial-BoldMT-65" d="M 2381 1056 
L 3256 909 
Q 3088 428 2723 176 
Q 2359 -75 1813 -75 
Q 947 -75 531 491 
Q 203 944 203 1634 
Q 203 2459 634 2926 
Q 1066 3394 1725 3394 
Q 2466 3394 2894 2905 
Q 3322 2416 3303 1406 
L 1103 1406 
Q 1113 1016 1316 798 
Q 1519 581 1822 581 
Q 2028 581 2168 693 
Q 2309 806 2381 1056 
z
M 2431 1944 
Q 2422 2325 2234 2523 
Q 2047 2722 1778 2722 
Q 1491 2722 1303 2513 
Q 1116 2303 1119 1944 
L 2431 1944 
z
" transform="scale(0.015625)"/>
       <path id="Arial-BoldMT-73" d="M 150 947 
L 1031 1081 
Q 1088 825 1259 692 
Q 1431 559 1741 559 
Q 2081 559 2253 684 
Q 2369 772 2369 919 
Q 2369 1019 2306 1084 
Q 2241 1147 2013 1200 
Q 950 1434 666 1628 
Q 272 1897 272 2375 
Q 272 2806 612 3100 
Q 953 3394 1669 3394 
Q 2350 3394 2681 3172 
Q 3013 2950 3138 2516 
L 2309 2363 
Q 2256 2556 2107 2659 
Q 1959 2763 1684 2763 
Q 1338 2763 1188 2666 
Q 1088 2597 1088 2488 
Q 1088 2394 1175 2328 
Q 1294 2241 1995 2081 
Q 2697 1922 2975 1691 
Q 3250 1456 3250 1038 
Q 3250 581 2869 253 
Q 2488 -75 1741 -75 
Q 1063 -75 667 200 
Q 272 475 150 947 
z
" transform="scale(0.015625)"/>
       <path id="Arial-BoldMT-74" d="M 1981 3319 
L 1981 2619 
L 1381 2619 
L 1381 1281 
Q 1381 875 1398 808 
Q 1416 741 1477 697 
Q 1538 653 1625 653 
Q 1747 653 1978 738 
L 2053 56 
Q 1747 -75 1359 -75 
Q 1122 -75 931 4 
Q 741 84 652 211 
Q 563 338 528 553 
Q 500 706 500 1172 
L 500 2619 
L 97 2619 
L 97 3319 
L 500 3319 
L 500 3978 
L 1381 4491 
L 1381 3319 
L 1981 3319 
z
" transform="scale(0.015625)"/>
       <path id="Arial-BoldMT-69" d="M 459 3769 
L 459 4581 
L 1338 4581 
L 1338 3769 
L 459 3769 
z
M 459 0 
L 459 3319 
L 1338 3319 
L 1338 0 
L 459 0 
z
" transform="scale(0.015625)"/>
       <path id="Arial-BoldMT-6e" d="M 3478 0 
L 2600 0 
L 2600 1694 
Q 2600 2231 2544 2389 
Q 2488 2547 2361 2634 
Q 2234 2722 2056 2722 
Q 1828 2722 1647 2597 
Q 1466 2472 1398 2265 
Q 1331 2059 1331 1503 
L 1331 0 
L 453 0 
L 453 3319 
L 1269 3319 
L 1269 2831 
Q 1703 3394 2363 3394 
Q 2653 3394 2893 3289 
Q 3134 3184 3257 3021 
Q 3381 2859 3429 2653 
Q 3478 2447 3478 2063 
L 3478 0 
z
" transform="scale(0.015625)"/>
       <path id="Arial-BoldMT-44" d="M 463 4581 
L 2153 4581 
Q 2725 4581 3025 4494 
Q 3428 4375 3715 4072 
Q 4003 3769 4153 3330 
Q 4303 2891 4303 2247 
Q 4303 1681 4163 1272 
Q 3991 772 3672 463 
Q 3431 228 3022 97 
Q 2716 0 2203 0 
L 463 0 
L 463 4581 
z
M 1388 3806 
L 1388 772 
L 2078 772 
Q 2466 772 2638 816 
Q 2863 872 3011 1006 
Q 3159 1141 3253 1448 
Q 3347 1756 3347 2288 
Q 3347 2819 3253 3103 
Q 3159 3388 2990 3547 
Q 2822 3706 2563 3763 
Q 2369 3806 1803 3806 
L 1388 3806 
z
" transform="scale(0.015625)"/>
       <path id="Arial-BoldMT-68" d="M 1334 4581 
L 1334 2897 
Q 1759 3394 2350 3394 
Q 2653 3394 2897 3281 
Q 3141 3169 3264 2994 
Q 3388 2819 3433 2606 
Q 3478 2394 3478 1947 
L 3478 0 
L 2600 0 
L 2600 1753 
Q 2600 2275 2550 2415 
Q 2500 2556 2373 2639 
Q 2247 2722 2056 2722 
Q 1838 2722 1666 2615 
Q 1494 2509 1414 2295 
Q 1334 2081 1334 1663 
L 1334 0 
L 456 0 
L 456 4581 
L 1334 4581 
z
" transform="scale(0.015625)"/>
      </defs>
      <use xlink:href="#Arial-BoldMT-4e"/>
      <use xlink:href="#Arial-BoldMT-75" transform="translate(72.216797 0)"/>
      <use xlink:href="#Arial-BoldMT-6d" transform="translate(133.300781 0)"/>
      <use xlink:href="#Arial-BoldMT-20" transform="translate(222.216797 0)"/>
      <use xlink:href="#Arial-BoldMT-6f" transform="translate(250 0)"/>
      <use xlink:href="#Arial-BoldMT-66" transform="translate(311.083984 0)"/>
      <use xlink:href="#Arial-BoldMT-20" transform="translate(344.384766 0)"/>
      <use xlink:href="#Arial-BoldMT-50" transform="translate(372.167969 0)"/>
      <use xlink:href="#Arial-BoldMT-61" transform="translate(438.867188 0)"/>
      <use xlink:href="#Arial-BoldMT-6c" transform="translate(494.482422 0)"/>
      <use xlink:href="#Arial-BoldMT-65" transform="translate(522.265625 0)"/>
      <use xlink:href="#Arial-BoldMT-73" transform="translate(577.880859 0)"/>
      <use xlink:href="#Arial-BoldMT-74" transform="translate(633.496094 0)"/>
      <use xlink:href="#Arial-BoldMT-69" transform="translate(666.796875 0)"/>
      <use xlink:href="#Arial-BoldMT-6e" transform="translate(694.580078 0)"/>
      <use xlink:href="#Arial-BoldMT-69" transform="translate(755.664062 0)"/>
      <use xlink:href="#Arial-BoldMT-61" transform="translate(783.447266 0)"/>
      <use xlink:href="#Arial-BoldMT-6e" transform="translate(839.0625 0)"/>
      <use xlink:href="#Arial-BoldMT-20" transform="translate(900.146484 0)"/>
      <use xlink:href="#Arial-BoldMT-44" transform="translate(927.929688 0)"/>
      <use xlink:href="#Arial-BoldMT-65" transform="translate(1000.146484 0)"/>
      <use xlink:href="#Arial-BoldMT-61" transform="translate(1055.761719 0)"/>
      <use xlink:href="#Arial-BoldMT-74" transform="translate(1111.376953 0)"/>
      <use xlink:href="#Arial-BoldMT-68" transform="translate(1144.677734 0)"/>
      <use xlink:href="#Arial-BoldMT-73" transform="translate(1205.761719 0)"/>
     </g>
    </g>
   </g>
   <g id="matplotlib.axis_2">
    <g id="ytick_1">
     <g id="text_13">
      <!-- 0 -->
      <g style="fill: #262626" transform="translate(39.274531 320.640513) scale(0.11 -0.11)">
       <use xlink:href="#ArialMT-30"/>
      </g>
     </g>
    </g>
    <g id="ytick_2">
     <g id="text_14">
      <!-- 10 -->
      <g style="fill: #262626" transform="translate(33.1575 286.890081) scale(0.11 -0.11)">
       <use xlink:href="#ArialMT-31"/>
       <use xlink:href="#ArialMT-30" transform="translate(55.615234 0)"/>
      </g>
     </g>
    </g>
    <g id="ytick_3">
     <g id="text_15">
      <!-- 20 -->
      <g style="fill: #262626" transform="translate(33.1575 253.13965) scale(0.11 -0.11)">
       <use xlink:href="#ArialMT-32"/>
       <use xlink:href="#ArialMT-30" transform="translate(55.615234 0)"/>
      </g>
     </g>
    </g>
    <g id="ytick_4">
     <g id="text_16">
      <!-- 30 -->
      <g style="fill: #262626" transform="translate(33.1575 219.389218) scale(0.11 -0.11)">
       <use xlink:href="#ArialMT-33"/>
       <use xlink:href="#ArialMT-30" transform="translate(55.615234 0)"/>
      </g>
     </g>
    </g>
    <g id="ytick_5">
     <g id="text_17">
      <!-- 40 -->
      <g style="fill: #262626" transform="translate(33.1575 185.638786) scale(0.11 -0.11)">
       <use xlink:href="#ArialMT-34"/>
       <use xlink:href="#ArialMT-30" transform="translate(55.615234 0)"/>
      </g>
     </g>
    </g>
    <g id="ytick_6">
     <g id="text_18">
      <!-- 50 -->
      <g style="fill: #262626" transform="translate(33.1575 151.888355) scale(0.11 -0.11)">
       <use xlink:href="#ArialMT-35"/>
       <use xlink:href="#ArialMT-30" transform="translate(55.615234 0)"/>
      </g>
     </g>
    </g>
    <g id="ytick_7">
     <g id="text_19">
      <!-- 60 -->
      <g style="fill: #262626" transform="translate(33.1575 118.137923) scale(0.11 -0.11)">
       <defs>
        <path id="ArialMT-36" d="M 3184 3459 
L 2625 3416 
Q 2550 3747 2413 3897 
Q 2184 4138 1850 4138 
Q 1581 4138 1378 3988 
Q 1113 3794 959 3422 
Q 806 3050 800 2363 
Q 1003 2672 1297 2822 
Q 1591 2972 1913 2972 
Q 2475 2972 2870 2558 
Q 3266 2144 3266 1488 
Q 3266 1056 3080 686 
Q 2894 316 2569 119 
Q 2244 -78 1831 -78 
Q 1128 -78 684 439 
Q 241 956 241 2144 
Q 241 3472 731 4075 
Q 1159 4600 1884 4600 
Q 2425 4600 2770 4297 
Q 3116 3994 3184 3459 
z
M 888 1484 
Q 888 1194 1011 928 
Q 1134 663 1356 523 
Q 1578 384 1822 384 
Q 2178 384 2434 671 
Q 2691 959 2691 1453 
Q 2691 1928 2437 2201 
Q 2184 2475 1800 2475 
Q 1419 2475 1153 2201 
Q 888 1928 888 1484 
z
" transform="scale(0.015625)"/>
       </defs>
       <use xlink:href="#ArialMT-36"/>
       <use xlink:href="#ArialMT-30" transform="translate(55.615234 0)"/>
      </g>
     </g>
    </g>
    <g id="ytick_8">
     <g id="text_20">
      <!-- 70 -->
      <g style="fill: #262626" transform="translate(33.1575 84.387492) scale(0.11 -0.11)">
       <defs>
        <path id="ArialMT-37" d="M 303 3981 
L 303 4522 
L 3269 4522 
L 3269 4084 
Q 2831 3619 2401 2847 
Q 1972 2075 1738 1259 
Q 1569 684 1522 0 
L 944 0 
Q 953 541 1156 1306 
Q 1359 2072 1739 2783 
Q 2119 3494 2547 3981 
L 303 3981 
z
" transform="scale(0.015625)"/>
       </defs>
       <use xlink:href="#ArialMT-37"/>
       <use xlink:href="#ArialMT-30" transform="translate(55.615234 0)"/>
      </g>
     </g>
    </g>
    <g id="ytick_9">
     <g id="text_21">
      <!-- 80 -->
      <g style="fill: #262626" transform="translate(33.1575 50.63706) scale(0.11 -0.11)">
       <defs>
        <path id="ArialMT-38" d="M 1131 2484 
Q 781 2613 612 2850 
Q 444 3088 444 3419 
Q 444 3919 803 4259 
Q 1163 4600 1759 4600 
Q 2359 4600 2725 4251 
Q 3091 3903 3091 3403 
Q 3091 3084 2923 2848 
Q 2756 2613 2416 2484 
Q 2838 2347 3058 2040 
Q 3278 1734 3278 1309 
Q 3278 722 2862 322 
Q 2447 -78 1769 -78 
Q 1091 -78 675 323 
Q 259 725 259 1325 
Q 259 1772 486 2073 
Q 713 2375 1131 2484 
z
M 1019 3438 
Q 1019 3113 1228 2906 
Q 1438 2700 1772 2700 
Q 2097 2700 2305 2904 
Q 2513 3109 2513 3406 
Q 2513 3716 2298 3927 
Q 2084 4138 1766 4138 
Q 1444 4138 1231 3931 
Q 1019 3725 1019 3438 
z
M 838 1322 
Q 838 1081 952 856 
Q 1066 631 1291 507 
Q 1516 384 1775 384 
Q 2178 384 2440 643 
Q 2703 903 2703 1303 
Q 2703 1709 2433 1975 
Q 2163 2241 1756 2241 
Q 1359 2241 1098 1978 
Q 838 1716 838 1322 
z
" transform="scale(0.015625)"/>
       </defs>
       <use xlink:href="#ArialMT-38"/>
       <use xlink:href="#ArialMT-30" transform="translate(55.615234 0)"/>
      </g>
     </g>
    </g>
    <g id="ytick_10">
     <g id="text_22">
      <!-- 90 -->
      <g style="fill: #262626" transform="translate(33.1575 16.886629) scale(0.11 -0.11)">
       <defs>
        <path id="ArialMT-39" d="M 350 1059 
L 891 1109 
Q 959 728 1153 556 
Q 1347 384 1650 384 
Q 1909 384 2104 503 
Q 2300 622 2425 820 
Q 2550 1019 2634 1356 
Q 2719 1694 2719 2044 
Q 2719 2081 2716 2156 
Q 2547 1888 2255 1720 
Q 1963 1553 1622 1553 
Q 1053 1553 659 1965 
Q 266 2378 266 3053 
Q 266 3750 677 4175 
Q 1088 4600 1706 4600 
Q 2153 4600 2523 4359 
Q 2894 4119 3086 3673 
Q 3278 3228 3278 2384 
Q 3278 1506 3087 986 
Q 2897 466 2520 194 
Q 2144 -78 1638 -78 
Q 1100 -78 759 220 
Q 419 519 350 1059 
z
M 2653 3081 
Q 2653 3566 2395 3850 
Q 2138 4134 1775 4134 
Q 1400 4134 1122 3828 
Q 844 3522 844 3034 
Q 844 2597 1108 2323 
Q 1372 2050 1759 2050 
Q 2150 2050 2401 2323 
Q 2653 2597 2653 3081 
z
" transform="scale(0.015625)"/>
       </defs>
       <use xlink:href="#ArialMT-39"/>
       <use xlink:href="#ArialMT-30" transform="translate(55.615234 0)"/>
      </g>
     </g>
    </g>
    <g id="text_23">
     <!-- Num of Israeli Stories Related to Oct 7 Attack -->
     <g style="fill: #262626" transform="translate(15.789375 302.322187) rotate(-90) scale(0.12 -0.12)">
      <defs>
       <path id="Arial-BoldMT-49" d="M 438 0 
L 438 4581 
L 1363 4581 
L 1363 0 
L 438 0 
z
" transform="scale(0.015625)"/>
       <path id="Arial-BoldMT-72" d="M 1300 0 
L 422 0 
L 422 3319 
L 1238 3319 
L 1238 2847 
Q 1447 3181 1614 3287 
Q 1781 3394 1994 3394 
Q 2294 3394 2572 3228 
L 2300 2463 
Q 2078 2606 1888 2606 
Q 1703 2606 1575 2504 
Q 1447 2403 1373 2137 
Q 1300 1872 1300 1025 
L 1300 0 
z
" transform="scale(0.015625)"/>
       <path id="Arial-BoldMT-53" d="M 231 1491 
L 1131 1578 
Q 1213 1125 1461 912 
Q 1709 700 2131 700 
Q 2578 700 2804 889 
Q 3031 1078 3031 1331 
Q 3031 1494 2936 1608 
Q 2841 1722 2603 1806 
Q 2441 1863 1863 2006 
Q 1119 2191 819 2459 
Q 397 2838 397 3381 
Q 397 3731 595 4036 
Q 794 4341 1167 4500 
Q 1541 4659 2069 4659 
Q 2931 4659 3367 4281 
Q 3803 3903 3825 3272 
L 2900 3231 
Q 2841 3584 2645 3739 
Q 2450 3894 2059 3894 
Q 1656 3894 1428 3728 
Q 1281 3622 1281 3444 
Q 1281 3281 1419 3166 
Q 1594 3019 2269 2859 
Q 2944 2700 3267 2529 
Q 3591 2359 3773 2064 
Q 3956 1769 3956 1334 
Q 3956 941 3737 597 
Q 3519 253 3119 86 
Q 2719 -81 2122 -81 
Q 1253 -81 787 320 
Q 322 722 231 1491 
z
" transform="scale(0.015625)"/>
       <path id="Arial-BoldMT-52" d="M 469 0 
L 469 4581 
L 2416 4581 
Q 3150 4581 3483 4457 
Q 3816 4334 4016 4018 
Q 4216 3703 4216 3297 
Q 4216 2781 3912 2445 
Q 3609 2109 3006 2022 
Q 3306 1847 3501 1637 
Q 3697 1428 4028 894 
L 4588 0 
L 3481 0 
L 2813 997 
Q 2456 1531 2325 1670 
Q 2194 1809 2047 1861 
Q 1900 1913 1581 1913 
L 1394 1913 
L 1394 0 
L 469 0 
z
M 1394 2644 
L 2078 2644 
Q 2744 2644 2909 2700 
Q 3075 2756 3169 2893 
Q 3263 3031 3263 3238 
Q 3263 3469 3139 3611 
Q 3016 3753 2791 3791 
Q 2678 3806 2116 3806 
L 1394 3806 
L 1394 2644 
z
" transform="scale(0.015625)"/>
       <path id="Arial-BoldMT-64" d="M 3503 0 
L 2688 0 
L 2688 488 
Q 2484 203 2207 64 
Q 1931 -75 1650 -75 
Q 1078 -75 670 386 
Q 263 847 263 1672 
Q 263 2516 659 2955 
Q 1056 3394 1663 3394 
Q 2219 3394 2625 2931 
L 2625 4581 
L 3503 4581 
L 3503 0 
z
M 1159 1731 
Q 1159 1200 1306 963 
Q 1519 619 1900 619 
Q 2203 619 2415 876 
Q 2628 1134 2628 1647 
Q 2628 2219 2422 2470 
Q 2216 2722 1894 2722 
Q 1581 2722 1370 2473 
Q 1159 2225 1159 1731 
z
" transform="scale(0.015625)"/>
       <path id="Arial-BoldMT-4f" d="M 278 2263 
Q 278 2963 488 3438 
Q 644 3788 914 4066 
Q 1184 4344 1506 4478 
Q 1934 4659 2494 4659 
Q 3506 4659 4114 4031 
Q 4722 3403 4722 2284 
Q 4722 1175 4119 548 
Q 3516 -78 2506 -78 
Q 1484 -78 881 545 
Q 278 1169 278 2263 
z
M 1231 2294 
Q 1231 1516 1590 1114 
Q 1950 713 2503 713 
Q 3056 713 3411 1111 
Q 3766 1509 3766 2306 
Q 3766 3094 3420 3481 
Q 3075 3869 2503 3869 
Q 1931 3869 1581 3476 
Q 1231 3084 1231 2294 
z
" transform="scale(0.015625)"/>
       <path id="Arial-BoldMT-63" d="M 3353 2338 
L 2488 2181 
Q 2444 2441 2289 2572 
Q 2134 2703 1888 2703 
Q 1559 2703 1364 2476 
Q 1169 2250 1169 1719 
Q 1169 1128 1367 884 
Q 1566 641 1900 641 
Q 2150 641 2309 783 
Q 2469 925 2534 1272 
L 3397 1125 
Q 3263 531 2881 228 
Q 2500 -75 1859 -75 
Q 1131 -75 698 384 
Q 266 844 266 1656 
Q 266 2478 700 2936 
Q 1134 3394 1875 3394 
Q 2481 3394 2839 3133 
Q 3197 2872 3353 2338 
z
" transform="scale(0.015625)"/>
       <path id="Arial-BoldMT-37" d="M 272 3703 
L 272 4519 
L 3275 4519 
L 3275 3881 
Q 2903 3516 2518 2831 
Q 2134 2147 1932 1376 
Q 1731 606 1734 0 
L 888 0 
Q 909 950 1279 1937 
Q 1650 2925 2269 3703 
L 272 3703 
z
" transform="scale(0.015625)"/>
       <path id="Arial-BoldMT-41" d="M 4597 0 
L 3591 0 
L 3191 1041 
L 1359 1041 
L 981 0 
L 0 0 
L 1784 4581 
L 2763 4581 
L 4597 0 
z
M 2894 1813 
L 2263 3513 
L 1644 1813 
L 2894 1813 
z
" transform="scale(0.015625)"/>
       <path id="Arial-BoldMT-6b" d="M 428 0 
L 428 4581 
L 1306 4581 
L 1306 2150 
L 2334 3319 
L 3416 3319 
L 2281 2106 
L 3497 0 
L 2550 0 
L 1716 1491 
L 1306 1063 
L 1306 0 
L 428 0 
z
" transform="scale(0.015625)"/>
      </defs>
      <use xlink:href="#Arial-BoldMT-4e"/>
      <use xlink:href="#Arial-BoldMT-75" transform="translate(72.216797 0)"/>
      <use xlink:href="#Arial-BoldMT-6d" transform="translate(133.300781 0)"/>
      <use xlink:href="#Arial-BoldMT-20" transform="translate(222.216797 0)"/>
      <use xlink:href="#Arial-BoldMT-6f" transform="translate(250 0)"/>
      <use xlink:href="#Arial-BoldMT-66" transform="translate(311.083984 0)"/>
      <use xlink:href="#Arial-BoldMT-20" transform="translate(344.384766 0)"/>
      <use xlink:href="#Arial-BoldMT-49" transform="translate(372.167969 0)"/>
      <use xlink:href="#Arial-BoldMT-73" transform="translate(399.951172 0)"/>
      <use xlink:href="#Arial-BoldMT-72" transform="translate(455.566406 0)"/>
      <use xlink:href="#Arial-BoldMT-61" transform="translate(494.482422 0)"/>
      <use xlink:href="#Arial-BoldMT-65" transform="translate(550.097656 0)"/>
      <use xlink:href="#Arial-BoldMT-6c" transform="translate(605.712891 0)"/>
      <use xlink:href="#Arial-BoldMT-69" transform="translate(633.496094 0)"/>
      <use xlink:href="#Arial-BoldMT-20" transform="translate(661.279297 0)"/>
      <use xlink:href="#Arial-BoldMT-53" transform="translate(689.0625 0)"/>
      <use xlink:href="#Arial-BoldMT-74" transform="translate(755.761719 0)"/>
      <use xlink:href="#Arial-BoldMT-6f" transform="translate(789.0625 0)"/>
      <use xlink:href="#Arial-BoldMT-72" transform="translate(850.146484 0)"/>
      <use xlink:href="#Arial-BoldMT-69" transform="translate(889.0625 0)"/>
      <use xlink:href="#Arial-BoldMT-65" transform="translate(916.845703 0)"/>
      <use xlink:href="#Arial-BoldMT-73" transform="translate(972.460938 0)"/>
      <use xlink:href="#Arial-BoldMT-20" transform="translate(1028.076172 0)"/>
      <use xlink:href="#Arial-BoldMT-52" transform="translate(1055.859375 0)"/>
      <use xlink:href="#Arial-BoldMT-65" transform="translate(1128.076172 0)"/>
      <use xlink:href="#Arial-BoldMT-6c" transform="translate(1183.691406 0)"/>
      <use xlink:href="#Arial-BoldMT-61" transform="translate(1211.474609 0)"/>
      <use xlink:href="#Arial-BoldMT-74" transform="translate(1267.089844 0)"/>
      <use xlink:href="#Arial-BoldMT-65" transform="translate(1300.390625 0)"/>
      <use xlink:href="#Arial-BoldMT-64" transform="translate(1356.005859 0)"/>
      <use xlink:href="#Arial-BoldMT-20" transform="translate(1417.089844 0)"/>
      <use xlink:href="#Arial-BoldMT-74" transform="translate(1444.873047 0)"/>
      <use xlink:href="#Arial-BoldMT-6f" transform="translate(1478.173828 0)"/>
      <use xlink:href="#Arial-BoldMT-20" transform="translate(1539.257812 0)"/>
      <use xlink:href="#Arial-BoldMT-4f" transform="translate(1567.041016 0)"/>
      <use xlink:href="#Arial-BoldMT-63" transform="translate(1644.824219 0)"/>
      <use xlink:href="#Arial-BoldMT-74" transform="translate(1700.439453 0)"/>
      <use xlink:href="#Arial-BoldMT-20" transform="translate(1733.740234 0)"/>
      <use xlink:href="#Arial-BoldMT-37" transform="translate(1761.523438 0)"/>
      <use xlink:href="#Arial-BoldMT-20" transform="translate(1817.138672 0)"/>
      <use xlink:href="#Arial-BoldMT-41" transform="translate(1841.171875 0)"/>
      <use xlink:href="#Arial-BoldMT-74" transform="translate(1913.388672 0)"/>
      <use xlink:href="#Arial-BoldMT-74" transform="translate(1946.689453 0)"/>
      <use xlink:href="#Arial-BoldMT-61" transform="translate(1979.990234 0)"/>
      <use xlink:href="#Arial-BoldMT-63" transform="translate(2035.605469 0)"/>
      <use xlink:href="#Arial-BoldMT-6b" transform="translate(2091.220703 0)"/>
     </g>
    </g>
   </g>
   <g id="PathCollection_1">
    <defs>
     <path id="C0_0_eeccd3e05b" d="M 0 3 
C 0.795609 3 1.55874 2.683901 2.12132 2.12132 
C 2.683901 1.55874 3 0.795609 3 -0 
C 3 -0.795609 2.683901 -1.55874 2.12132 -2.12132 
C 1.55874 -2.683901 0.795609 -3 0 -3 
C -0.795609 -3 -1.55874 -2.683901 -2.12132 -2.12132 
C -2.683901 -1.55874 -3 -0.795609 -3 0 
C -3 0.795609 -2.683901 1.55874 -2.12132 2.12132 
C -1.55874 2.683901 -0.795609 3 0 3 
z
"/>
    </defs>
    <g clip-path="url(#p56441c0b90)">
     <use xlink:href="#C0_0_eeccd3e05b" x="476.212911" y="53.45035" style="fill: #ff7f0e; stroke: #ffffff; stroke-width: 0.48"/>
    </g>
    <g clip-path="url(#p56441c0b90)">
     <use xlink:href="#C0_0_eeccd3e05b" x="108.680946" y="215.452421" style="fill: #c49c94; stroke: #ffffff; stroke-width: 0.48"/>
    </g>
    <g clip-path="url(#p56441c0b90)">
     <use xlink:href="#C0_0_eeccd3e05b" x="326.605782" y="215.452421" style="fill: #aec7e8; stroke: #ffffff; stroke-width: 0.48"/>
    </g>
    <g clip-path="url(#p56441c0b90)">
     <use xlink:href="#C0_0_eeccd3e05b" x="264.341543" y="218.827464" style="fill: #9edae5; stroke: #ffffff; stroke-width: 0.48"/>
    </g>
    <g clip-path="url(#p56441c0b90)">
     <use xlink:href="#C0_0_eeccd3e05b" x="81.872733" y="279.578241" style="fill: #ff7f0e; stroke: #ffffff; stroke-width: 0.48"/>
    </g>
    <g clip-path="url(#p56441c0b90)">
     <use xlink:href="#C0_0_eeccd3e05b" x="107.816165" y="282.953284" style="fill: #8c564b; stroke: #ffffff; stroke-width: 0.48"/>
    </g>
    <g clip-path="url(#p56441c0b90)">
     <use xlink:href="#C0_0_eeccd3e05b" x="228.020737" y="100.700954" style="fill: #17becf; stroke: #ffffff; stroke-width: 0.48"/>
    </g>
    <g clip-path="url(#p56441c0b90)">
     <use xlink:href="#C0_0_eeccd3e05b" x="76.684046" y="222.202507" style="fill: #aec7e8; stroke: #ffffff; stroke-width: 0.48"/>
    </g>
    <g clip-path="url(#p56441c0b90)">
     <use xlink:href="#C0_0_eeccd3e05b" x="155.379125" y="272.828155" style="fill: #c7c7c7; stroke: #ffffff; stroke-width: 0.48"/>
    </g>
    <g clip-path="url(#p56441c0b90)">
     <use xlink:href="#C0_0_eeccd3e05b" x="170.080404" y="282.953284" style="fill: #dbdb8d; stroke: #ffffff; stroke-width: 0.48"/>
    </g>
    <g clip-path="url(#p56441c0b90)">
     <use xlink:href="#C0_0_eeccd3e05b" x="86.196638" y="309.953629" style="fill: #d62728; stroke: #ffffff; stroke-width: 0.48"/>
    </g>
    <g clip-path="url(#p56441c0b90)">
     <use xlink:href="#C0_0_eeccd3e05b" x="74.954484" y="303.203543" style="fill: #1f77b4; stroke: #ffffff; stroke-width: 0.48"/>
    </g>
    <g clip-path="url(#p56441c0b90)">
     <use xlink:href="#C0_0_eeccd3e05b" x="115.599195" y="313.328673" style="fill: #e377c2; stroke: #ffffff; stroke-width: 0.48"/>
    </g>
    <g clip-path="url(#p56441c0b90)">
     <use xlink:href="#C0_0_eeccd3e05b" x="107.816165" y="306.578586" style="fill: #8c564b; stroke: #ffffff; stroke-width: 0.48"/>
    </g>
    <g clip-path="url(#p56441c0b90)">
     <use xlink:href="#C0_0_eeccd3e05b" x="87.061419" y="299.8285" style="fill: #ff9896; stroke: #ffffff; stroke-width: 0.48"/>
    </g>
    <g clip-path="url(#p56441c0b90)">
     <use xlink:href="#C0_0_eeccd3e05b" x="97.438792" y="316.703716" style="fill: #c5b0d5; stroke: #ffffff; stroke-width: 0.48"/>
    </g>
    <g clip-path="url(#p56441c0b90)">
     <use xlink:href="#C0_0_eeccd3e05b" x="305.851036" y="178.326946" style="fill: #1f77b4; stroke: #ffffff; stroke-width: 0.48"/>
    </g>
    <g clip-path="url(#p56441c0b90)">
     <use xlink:href="#C0_0_eeccd3e05b" x="138.948285" y="316.703716" style="fill: #7f7f7f; stroke: #ffffff; stroke-width: 0.48"/>
    </g>
    <g clip-path="url(#p56441c0b90)">
     <use xlink:href="#C0_0_eeccd3e05b" x="164.026936" y="309.953629" style="fill: #bcbd22; stroke: #ffffff; stroke-width: 0.48"/>
    </g>
    <g clip-path="url(#p56441c0b90)">
     <use xlink:href="#C0_0_eeccd3e05b" x="132.030036" y="276.203198" style="fill: #f7b6d2; stroke: #ffffff; stroke-width: 0.48"/>
    </g>
    <g clip-path="url(#p56441c0b90)">
     <use xlink:href="#C0_0_eeccd3e05b" x="94.844449" y="309.953629" style="fill: #9467bd; stroke: #ffffff; stroke-width: 0.48"/>
    </g>
    <g clip-path="url(#p56441c0b90)">
     <use xlink:href="#C0_0_eeccd3e05b" x="82.737514" y="306.578586" style="fill: #ffbb78; stroke: #ffffff; stroke-width: 0.48"/>
    </g>
    <g clip-path="url(#p56441c0b90)">
     <use xlink:href="#C0_0_eeccd3e05b" x="155.379125" y="316.703716" style="fill: #c7c7c7; stroke: #ffffff; stroke-width: 0.48"/>
    </g>
    <g clip-path="url(#p56441c0b90)">
     <use xlink:href="#C0_0_eeccd3e05b" x="84.467076" y="316.703716" style="fill: #2ca02c; stroke: #ffffff; stroke-width: 0.48"/>
    </g>
    <g clip-path="url(#p56441c0b90)">
     <use xlink:href="#C0_0_eeccd3e05b" x="85.331857" y="296.453457" style="fill: #98df8a; stroke: #ffffff; stroke-width: 0.48"/>
    </g>
    <g clip-path="url(#p56441c0b90)">
     <use xlink:href="#C0_0_eeccd3e05b" x="84.467076" y="309.953629" style="fill: #2ca02c; stroke: #ffffff; stroke-width: 0.48"/>
    </g>
   </g>
   <g id="FillBetweenPolyCollection_1">
    <defs>
     <path id="ma42247ce40" d="M 74.954484 -102.202961 
L 74.954484 -67.837344 
L 79.007599 -70.473979 
L 83.060715 -73.012495 
L 87.11383 -75.475476 
L 91.166946 -77.918293 
L 95.220061 -80.4051 
L 99.273176 -82.743105 
L 103.326292 -85.008725 
L 107.379407 -87.429141 
L 111.432523 -90.123822 
L 115.485638 -91.992688 
L 119.538754 -94.147236 
L 123.591869 -95.904948 
L 127.644984 -98.050134 
L 131.6981 -100.002749 
L 135.751215 -102.158765 
L 139.804331 -104.237362 
L 143.857446 -106.428632 
L 147.910561 -108.238784 
L 151.963677 -110.399451 
L 156.016792 -112.015412 
L 160.069908 -114.025978 
L 164.123023 -115.708995 
L 168.176139 -117.381563 
L 172.229254 -118.626895 
L 176.282369 -119.977758 
L 180.335485 -121.346236 
L 184.3886 -122.863019 
L 188.441716 -124.071926 
L 192.494831 -125.328139 
L 196.547947 -126.436393 
L 200.601062 -127.699828 
L 204.654177 -129.144955 
L 208.707293 -130.362268 
L 212.760408 -131.579581 
L 216.813524 -132.796894 
L 220.866639 -134.014207 
L 224.919755 -135.080084 
L 228.97287 -135.907994 
L 233.025985 -136.910976 
L 237.079101 -138.055612 
L 241.132216 -139.212579 
L 245.185332 -140.369546 
L 249.238447 -141.521306 
L 253.291562 -142.671071 
L 257.344678 -143.870387 
L 261.397793 -145.233189 
L 265.450909 -146.46618 
L 269.504024 -147.885584 
L 273.55714 -149.311853 
L 277.610255 -150.699401 
L 281.66337 -152.067734 
L 285.716486 -153.436068 
L 289.769601 -154.793337 
L 293.822717 -156.166276 
L 297.875832 -157.529231 
L 301.928948 -158.892185 
L 305.982063 -160.167943 
L 310.035178 -161.208197 
L 314.088294 -162.248451 
L 318.141409 -163.288705 
L 322.194525 -164.498681 
L 326.24764 -165.713087 
L 330.300756 -166.826599 
L 334.353871 -167.908075 
L 338.406986 -168.989551 
L 342.460102 -170.071027 
L 346.513217 -171.152503 
L 350.566333 -172.233979 
L 354.619448 -173.315456 
L 358.672564 -174.396932 
L 362.725679 -175.480802 
L 366.778794 -176.566958 
L 370.83191 -177.653115 
L 374.885025 -178.739271 
L 378.938141 -179.825428 
L 382.991256 -180.911584 
L 387.044371 -182.111316 
L 391.097487 -183.3307 
L 395.150602 -184.554546 
L 399.203718 -185.77987 
L 403.256833 -187.005194 
L 407.309949 -188.297633 
L 411.363064 -189.615481 
L 415.416179 -190.933328 
L 419.469295 -192.251175 
L 423.52241 -193.569023 
L 427.575526 -194.88687 
L 431.628641 -196.204718 
L 435.681757 -197.522565 
L 439.734872 -198.840412 
L 443.787987 -200.15826 
L 447.841103 -201.476107 
L 451.894218 -202.793955 
L 455.947334 -204.111802 
L 460.000449 -205.429649 
L 464.053565 -206.747497 
L 468.10668 -208.065344 
L 472.159795 -209.383192 
L 476.212911 -210.701039 
L 476.212911 -370.237344 
L 476.212911 -370.237344 
L 472.159795 -367.193921 
L 468.10668 -364.150499 
L 464.053565 -361.107076 
L 460.000449 -358.063654 
L 455.947334 -355.020231 
L 451.894218 -351.976808 
L 447.841103 -348.933386 
L 443.787987 -346.062522 
L 439.734872 -343.257045 
L 435.681757 -340.45092 
L 431.628641 -337.640441 
L 427.575526 -334.829961 
L 423.52241 -332.019481 
L 419.469295 -329.209001 
L 415.416179 -326.398521 
L 411.363064 -323.588041 
L 407.309949 -320.777562 
L 403.256833 -317.967082 
L 399.203718 -315.156602 
L 395.150602 -312.346122 
L 391.097487 -309.535642 
L 387.044371 -306.725162 
L 382.991256 -303.761899 
L 378.938141 -301.018926 
L 374.885025 -298.275952 
L 370.83191 -295.50608 
L 366.778794 -292.703206 
L 362.725679 -289.900332 
L 358.672564 -287.094411 
L 354.619448 -284.20951 
L 350.566333 -281.233805 
L 346.513217 -278.258101 
L 342.460102 -275.322603 
L 338.406986 -272.49349 
L 334.353871 -269.664378 
L 330.300756 -266.835266 
L 326.24764 -264.006154 
L 322.194525 -261.114418 
L 318.141409 -258.166541 
L 314.088294 -255.218311 
L 310.035178 -252.266401 
L 305.982063 -249.349327 
L 301.928948 -246.529916 
L 297.875832 -243.56716 
L 293.822717 -240.584169 
L 289.769601 -237.643163 
L 285.716486 -234.964526 
L 281.66337 -232.209582 
L 277.610255 -229.286119 
L 273.55714 -226.206916 
L 269.504024 -223.354565 
L 265.450909 -220.72465 
L 261.397793 -218.094735 
L 257.344678 -215.464819 
L 253.291562 -212.750335 
L 249.238447 -209.939977 
L 245.185332 -207.127073 
L 241.132216 -204.504068 
L 237.079101 -201.661307 
L 233.025985 -198.91537 
L 228.97287 -196.178273 
L 224.919755 -193.361252 
L 220.866639 -190.538142 
L 216.813524 -187.580842 
L 212.760408 -184.446053 
L 208.707293 -181.422799 
L 204.654177 -178.694722 
L 200.601062 -175.523845 
L 196.547947 -172.950299 
L 192.494831 -170.455428 
L 188.441716 -167.922275 
L 184.3886 -165.480727 
L 180.335485 -162.9977 
L 176.282369 -160.568681 
L 172.229254 -158.089827 
L 168.176139 -155.53472 
L 164.123023 -152.949975 
L 160.069908 -150.545217 
L 156.016792 -147.987858 
L 151.963677 -145.260684 
L 147.910561 -142.387851 
L 143.857446 -139.942905 
L 139.804331 -137.516441 
L 135.751215 -135.055217 
L 131.6981 -132.601621 
L 127.644984 -130.450021 
L 123.591869 -127.89214 
L 119.538754 -125.567899 
L 115.485638 -123.059941 
L 111.432523 -120.722994 
L 107.379407 -118.334192 
L 103.326292 -116.025986 
L 99.273176 -114.093197 
L 95.220061 -112.000213 
L 91.166946 -109.682774 
L 87.11383 -107.519018 
L 83.060715 -106.159295 
L 79.007599 -104.178584 
L 74.954484 -102.202961 
z
" style="stroke: #ffffff; stroke-opacity: 0.15"/>
    </defs>
    <g clip-path="url(#p56441c0b90)">
     <use xlink:href="#ma42247ce40" x="0" y="392.557344" style="fill-opacity: 0.15; stroke: #ffffff; stroke-opacity: 0.15"/>
    </g>
   </g>
   <g id="line2d_1">
    <path d="M 74.954484 308.872636 
L 79.007599 306.580994 
L 83.060715 304.289351 
L 87.11383 301.997709 
L 91.166946 299.706067 
L 95.220061 297.414424 
L 99.273176 295.122782 
L 103.326292 292.83114 
L 107.379407 290.539497 
L 111.432523 288.247855 
L 115.485638 285.956213 
L 119.538754 283.66457 
L 123.591869 281.372928 
L 127.644984 279.081286 
L 131.6981 276.789643 
L 135.751215 274.498001 
L 139.804331 272.206359 
L 143.857446 269.914716 
L 147.910561 267.623074 
L 151.963677 265.331432 
L 156.016792 263.03979 
L 160.069908 260.748147 
L 164.123023 258.456505 
L 168.176139 256.164863 
L 172.229254 253.87322 
L 176.282369 251.581578 
L 180.335485 249.289936 
L 184.3886 246.998293 
L 188.441716 244.706651 
L 192.494831 242.415009 
L 196.547947 240.123366 
L 200.601062 237.831724 
L 204.654177 235.540082 
L 208.707293 233.248439 
L 212.760408 230.956797 
L 216.813524 228.665155 
L 220.866639 226.373512 
L 224.919755 224.08187 
L 228.97287 221.790228 
L 233.025985 219.498585 
L 237.079101 217.206943 
L 241.132216 214.915301 
L 245.185332 212.623658 
L 249.238447 210.332016 
L 253.291562 208.040374 
L 257.344678 205.748731 
L 261.397793 203.457089 
L 265.450909 201.165447 
L 269.504024 198.873804 
L 273.55714 196.582162 
L 277.610255 194.29052 
L 281.66337 191.998877 
L 285.716486 189.707235 
L 289.769601 187.415593 
L 293.822717 185.12395 
L 297.875832 182.832308 
L 301.928948 180.540666 
L 305.982063 178.249024 
L 310.035178 175.957381 
L 314.088294 173.665739 
L 318.141409 171.374097 
L 322.194525 169.082454 
L 326.24764 166.790812 
L 330.300756 164.49917 
L 334.353871 162.207527 
L 338.406986 159.915885 
L 342.460102 157.624243 
L 346.513217 155.3326 
L 350.566333 153.040958 
L 354.619448 150.749316 
L 358.672564 148.457673 
L 362.725679 146.166031 
L 366.778794 143.874389 
L 370.83191 141.582746 
L 374.885025 139.291104 
L 378.938141 136.999462 
L 382.991256 134.707819 
L 387.044371 132.416177 
L 391.097487 130.124535 
L 395.150602 127.832892 
L 399.203718 125.54125 
L 403.256833 123.249608 
L 407.309949 120.957965 
L 411.363064 118.666323 
L 415.416179 116.374681 
L 419.469295 114.083038 
L 423.52241 111.791396 
L 427.575526 109.499754 
L 431.628641 107.208111 
L 435.681757 104.916469 
L 439.734872 102.624827 
L 443.787987 100.333185 
L 447.841103 98.041542 
L 451.894218 95.7499 
L 455.947334 93.458258 
L 460.000449 91.166615 
L 464.053565 88.874973 
L 468.10668 86.583331 
L 472.159795 84.291688 
L 476.212911 82.000046 
" clip-path="url(#p56441c0b90)" style="fill: none; stroke: #000000; stroke-linecap: round"/>
   </g>
   <g id="patch_3">
    <path d="M 54.891563 339.84 
L 54.891563 7.2 
" style="fill: none; stroke: #cccccc; stroke-width: 1.25; stroke-linejoin: miter; stroke-linecap: square"/>
   </g>
   <g id="patch_4">
    <path d="M 501.291562 339.84 
L 501.291562 7.2 
" style="fill: none; stroke: #cccccc; stroke-width: 1.25; stroke-linejoin: miter; stroke-linecap: square"/>
   </g>
   <g id="patch_5">
    <path d="M 54.891563 339.84 
L 501.291562 339.84 
" style="fill: none; stroke: #cccccc; stroke-width: 1.25; stroke-linejoin: miter; stroke-linecap: square"/>
   </g>
   <g id="patch_6">
    <path d="M 54.891563 7.2 
L 501.291562 7.2 
" style="fill: none; stroke: #cccccc; stroke-width: 1.25; stroke-linejoin: miter; stroke-linecap: square"/>
   </g>
   <g id="text_24">
    <!-- r = 0.8, p = 0.0 -->
    <g style="fill: #262626" transform="translate(77.548827 46.700263) scale(0.12 -0.12)">
     <defs>
      <path id="Arial-ItalicMT-72" d="M 213 0 
L 906 3319 
L 1406 3319 
L 1266 2641 
Q 1522 3025 1767 3209 
Q 2013 3394 2269 3394 
Q 2438 3394 2684 3272 
L 2453 2747 
Q 2306 2853 2131 2853 
Q 1834 2853 1521 2522 
Q 1209 2191 1031 1331 
L 750 0 
L 213 0 
z
" transform="scale(0.015625)"/>
      <path id="Arial-ItalicMT-20" transform="scale(0.015625)"/>
      <path id="Arial-ItalicMT-3d" d="M 3600 2694 
L 575 2694 
L 575 3219 
L 3600 3219 
L 3600 2694 
z
M 3600 1303 
L 575 1303 
L 575 1828 
L 3600 1828 
L 3600 1303 
z
" transform="scale(0.015625)"/>
      <path id="Arial-ItalicMT-30" d="M 453 1503 
Q 453 2084 626 2684 
Q 800 3284 1012 3643 
Q 1225 4003 1453 4206 
Q 1681 4409 1901 4504 
Q 2122 4600 2391 4600 
Q 2916 4600 3267 4209 
Q 3619 3819 3619 3081 
Q 3619 2322 3375 1578 
Q 3088 697 2575 256 
Q 2181 -78 1678 -78 
Q 1163 -78 808 326 
Q 453 731 453 1503 
z
M 1000 1359 
Q 1000 938 1141 700 
Q 1331 372 1706 372 
Q 2034 372 2303 669 
Q 2691 1088 2886 1895 
Q 3081 2703 3081 3216 
Q 3081 3709 2892 3928 
Q 2703 4147 2394 4147 
Q 2169 4147 1973 4031 
Q 1778 3916 1600 3634 
Q 1347 3238 1159 2447 
Q 1000 1772 1000 1359 
z
" transform="scale(0.015625)"/>
      <path id="Arial-ItalicMT-2e" d="M 369 0 
L 503 641 
L 1144 641 
L 1006 0 
L 369 0 
z
" transform="scale(0.015625)"/>
      <path id="Arial-ItalicMT-38" d="M 1444 2519 
Q 1188 2659 1059 2879 
Q 931 3100 931 3353 
Q 931 3769 1231 4122 
Q 1631 4600 2316 4600 
Q 2919 4600 3266 4276 
Q 3613 3953 3613 3484 
Q 3613 3150 3425 2881 
Q 3238 2613 2838 2453 
Q 3113 2281 3231 2088 
Q 3384 1834 3384 1497 
Q 3384 881 2948 400 
Q 2513 -81 1788 -81 
Q 1209 -81 843 275 
Q 478 631 478 1166 
Q 478 1669 737 2030 
Q 997 2391 1444 2519 
z
M 1488 3328 
Q 1488 3034 1677 2854 
Q 1866 2675 2197 2675 
Q 2584 2675 2826 2911 
Q 3069 3147 3069 3491 
Q 3069 3781 2880 3964 
Q 2691 4147 2359 4147 
Q 2109 4147 1900 4031 
Q 1691 3916 1589 3717 
Q 1488 3519 1488 3328 
z
M 1047 1119 
Q 1047 928 1139 753 
Q 1231 578 1418 475 
Q 1606 372 1847 372 
Q 2306 372 2591 803 
Q 2816 1141 2816 1531 
Q 2816 1850 2608 2053 
Q 2400 2256 2063 2256 
Q 1638 2256 1342 1940 
Q 1047 1625 1047 1119 
z
" transform="scale(0.015625)"/>
      <path id="Arial-ItalicMT-2c" d="M 347 0 
L 481 641 
L 1125 641 
L 1009 81 
Q 903 -422 679 -656 
Q 456 -891 153 -925 
L 206 -678 
Q 578 -575 697 0 
L 347 0 
z
" transform="scale(0.015625)"/>
      <path id="Arial-ItalicMT-70" d="M -66 -1272 
L 894 3319 
L 1416 3319 
L 1319 2856 
Q 1609 3159 1839 3276 
Q 2069 3394 2325 3394 
Q 2800 3394 3112 3048 
Q 3425 2703 3425 2059 
Q 3425 1541 3253 1114 
Q 3081 688 2831 428 
Q 2581 169 2325 47 
Q 2069 -75 1800 -75 
Q 1203 -75 875 531 
L 500 -1272 
L -66 -1272 
z
M 1053 1356 
Q 1053 984 1106 841 
Q 1184 638 1362 513 
Q 1541 388 1775 388 
Q 2263 388 2563 936 
Q 2863 1484 2863 2056 
Q 2863 2478 2661 2708 
Q 2459 2938 2159 2938 
Q 1944 2938 1759 2823 
Q 1575 2709 1417 2482 
Q 1259 2256 1156 1928 
Q 1053 1600 1053 1356 
z
" transform="scale(0.015625)"/>
     </defs>
     <use xlink:href="#Arial-ItalicMT-72"/>
     <use xlink:href="#Arial-ItalicMT-20" transform="translate(33.300781 0)"/>
     <use xlink:href="#Arial-ItalicMT-3d" transform="translate(61.083984 0)"/>
     <use xlink:href="#Arial-ItalicMT-20" transform="translate(119.482422 0)"/>
     <use xlink:href="#Arial-ItalicMT-30" transform="translate(147.265625 0)"/>
     <use xlink:href="#Arial-ItalicMT-2e" transform="translate(202.880859 0)"/>
     <use xlink:href="#Arial-ItalicMT-38" transform="translate(230.664062 0)"/>
     <use xlink:href="#Arial-ItalicMT-2c" transform="translate(286.279297 0)"/>
     <use xlink:href="#Arial-ItalicMT-20" transform="translate(314.0625 0)"/>
     <use xlink:href="#Arial-ItalicMT-70" transform="translate(341.845703 0)"/>
     <use xlink:href="#Arial-ItalicMT-20" transform="translate(397.460938 0)"/>
     <use xlink:href="#Arial-ItalicMT-3d" transform="translate(425.244141 0)"/>
     <use xlink:href="#Arial-ItalicMT-20" transform="translate(483.642578 0)"/>
     <use xlink:href="#Arial-ItalicMT-30" transform="translate(511.425781 0)"/>
     <use xlink:href="#Arial-ItalicMT-2e" transform="translate(567.041016 0)"/>
     <use xlink:href="#Arial-ItalicMT-30" transform="translate(594.824219 0)"/>
    </g>
   </g>
  </g>
 </g>
 <defs>
  <clipPath id="p56441c0b90">
   <rect x="54.891563" y="7.2" width="446.4" height="332.64"/>
  </clipPath>
 </defs>
</svg>
