<?xml version="1.0" encoding="utf-8" standalone="no"?>
<!DOCTYPE svg PUBLIC "-//W3C//DTD SVG 1.1//EN"
  "http://www.w3.org/Graphics/SVG/1.1/DTD/svg11.dtd">
<svg xmlns:xlink="http://www.w3.org/1999/xlink" width="1104.397346pt" height="1394.243442pt" viewBox="0 0 1104.397346 1394.243442" xmlns="http://www.w3.org/2000/svg" version="1.1">
 <metadata>
  <rdf:RDF xmlns:dc="http://purl.org/dc/elements/1.1/" xmlns:cc="http://creativecommons.org/ns#" xmlns:rdf="http://www.w3.org/1999/02/22-rdf-syntax-ns#">
   <cc:Work>
    <dc:type rdf:resource="http://purl.org/dc/dcmitype/StillImage"/>
    <dc:date>2026-07-16T16:41:59.871071</dc:date>
    <dc:format>image/svg+xml</dc:format>
    <dc:creator>
     <cc:Agent>
      <dc:title>Matplotlib v3.10.9, https://matplotlib.org/</dc:title>
     </cc:Agent>
    </dc:creator>
   </cc:Work>
  </rdf:RDF>
 </metadata>
 <defs>
  <style type="text/css">*{stroke-linejoin: round; stroke-linecap: butt}</style>
 </defs>
 <g id="figure_1">
  <g id="patch_1">
   <path d="M 0 1394.243442 
L 1104.397346 1394.243442 
L 1104.397346 0 
L 0 0 
z
" style="fill: #ffffff"/>
  </g>
  <g id="axes_1">
   <g id="patch_2">
    <path d="M 84.96 325.734103 
L 1089.36 325.734103 
L 1089.36 84.690625 
L 84.96 84.690625 
z
" style="fill: #ffffff"/>
   </g>
   <g id="matplotlib.axis_1">
    <g id="xtick_1"/>
    <g id="xtick_2"/>
    <g id="xtick_3"/>
    <g id="xtick_4"/>
    <g id="xtick_5"/>
    <g id="xtick_6"/>
    <g id="xtick_7"/>
    <g id="xtick_8"/>
   </g>
   <g id="matplotlib.axis_2">
    <g id="ytick_1">
     <g id="text_1">
      <!-- 0 -->
      <g style="fill: #262626" transform="translate(65.450312 332.176135) scale(0.18 -0.18)">
       <defs>
        <path id="ArialMT-30" d="M 266 2259 
Q 266 3072 433 3567 
Q 600 4063 929 4331 
Q 1259 4600 1759 4600 
Q 2128 4600 2406 4451 
Q 2684 4303 2865 4023 
Q 3047 3744 3150 3342 
Q 3253 2941 3253 2259 
Q 3253 1453 3087 958 
Q 2922 463 2592 192 
Q 2263 -78 1759 -78 
Q 1097 -78 719 397 
Q 266 969 266 2259 
z
M 844 2259 
Q 844 1131 1108 757 
Q 1372 384 1759 384 
Q 2147 384 2411 759 
Q 2675 1134 2675 2259 
Q 2675 3391 2411 3762 
Q 2147 4134 1753 4134 
Q 1366 4134 1134 3806 
Q 844 3388 844 2259 
z
" transform="scale(0.015625)"/>
       </defs>
       <use xlink:href="#ArialMT-30"/>
      </g>
     </g>
    </g>
    <g id="ytick_2">
     <g id="text_2">
      <!-- 200 -->
      <g style="fill: #262626" transform="translate(45.430937 283.693512) scale(0.18 -0.18)">
       <defs>
        <path id="ArialMT-32" d="M 3222 541 
L 3222 0 
L 194 0 
Q 188 203 259 391 
Q 375 700 629 1000 
Q 884 1300 1366 1694 
Q 2113 2306 2375 2664 
Q 2638 3022 2638 3341 
Q 2638 3675 2398 3904 
Q 2159 4134 1775 4134 
Q 1369 4134 1125 3890 
Q 881 3647 878 3216 
L 300 3275 
Q 359 3922 746 4261 
Q 1134 4600 1788 4600 
Q 2447 4600 2831 4234 
Q 3216 3869 3216 3328 
Q 3216 3053 3103 2787 
Q 2991 2522 2730 2228 
Q 2469 1934 1863 1422 
Q 1356 997 1212 845 
Q 1069 694 975 541 
L 3222 541 
z
" transform="scale(0.015625)"/>
       </defs>
       <use xlink:href="#ArialMT-32"/>
       <use xlink:href="#ArialMT-30" transform="translate(55.615234 0)"/>
       <use xlink:href="#ArialMT-30" transform="translate(111.230469 0)"/>
      </g>
     </g>
    </g>
    <g id="ytick_3">
     <g id="text_3">
      <!-- 400 -->
      <g style="fill: #262626" transform="translate(45.430937 235.21089) scale(0.18 -0.18)">
       <defs>
        <path id="ArialMT-34" d="M 2069 0 
L 2069 1097 
L 81 1097 
L 81 1613 
L 2172 4581 
L 2631 4581 
L 2631 1613 
L 3250 1613 
L 3250 1097 
L 2631 1097 
L 2631 0 
L 2069 0 
z
M 2069 1613 
L 2069 3678 
L 634 1613 
L 2069 1613 
z
" transform="scale(0.015625)"/>
       </defs>
       <use xlink:href="#ArialMT-34"/>
       <use xlink:href="#ArialMT-30" transform="translate(55.615234 0)"/>
       <use xlink:href="#ArialMT-30" transform="translate(111.230469 0)"/>
      </g>
     </g>
    </g>
    <g id="ytick_4">
     <g id="text_4">
      <!-- 600 -->
      <g style="fill: #262626" transform="translate(45.430937 186.728267) scale(0.18 -0.18)">
       <defs>
        <path id="ArialMT-36" d="M 3184 3459 
L 2625 3416 
Q 2550 3747 2413 3897 
Q 2184 4138 1850 4138 
Q 1581 4138 1378 3988 
Q 1113 3794 959 3422 
Q 806 3050 800 2363 
Q 1003 2672 1297 2822 
Q 1591 2972 1913 2972 
Q 2475 2972 2870 2558 
Q 3266 2144 3266 1488 
Q 3266 1056 3080 686 
Q 2894 316 2569 119 
Q 2244 -78 1831 -78 
Q 1128 -78 684 439 
Q 241 956 241 2144 
Q 241 3472 731 4075 
Q 1159 4600 1884 4600 
Q 2425 4600 2770 4297 
Q 3116 3994 3184 3459 
z
M 888 1484 
Q 888 1194 1011 928 
Q 1134 663 1356 523 
Q 1578 384 1822 384 
Q 2178 384 2434 671 
Q 2691 959 2691 1453 
Q 2691 1928 2437 2201 
Q 2184 2475 1800 2475 
Q 1419 2475 1153 2201 
Q 888 1928 888 1484 
z
" transform="scale(0.015625)"/>
       </defs>
       <use xlink:href="#ArialMT-36"/>
       <use xlink:href="#ArialMT-30" transform="translate(55.615234 0)"/>
       <use xlink:href="#ArialMT-30" transform="translate(111.230469 0)"/>
      </g>
     </g>
    </g>
    <g id="ytick_5">
     <g id="text_5">
      <!-- 800 -->
      <g style="fill: #262626" transform="translate(45.430937 138.245645) scale(0.18 -0.18)">
       <defs>
        <path id="ArialMT-38" d="M 1131 2484 
Q 781 2613 612 2850 
Q 444 3088 444 3419 
Q 444 3919 803 4259 
Q 1163 4600 1759 4600 
Q 2359 4600 2725 4251 
Q 3091 3903 3091 3403 
Q 3091 3084 2923 2848 
Q 2756 2613 2416 2484 
Q 2838 2347 3058 2040 
Q 3278 1734 3278 1309 
Q 3278 722 2862 322 
Q 2447 -78 1769 -78 
Q 1091 -78 675 323 
Q 259 725 259 1325 
Q 259 1772 486 2073 
Q 713 2375 1131 2484 
z
M 1019 3438 
Q 1019 3113 1228 2906 
Q 1438 2700 1772 2700 
Q 2097 2700 2305 2904 
Q 2513 3109 2513 3406 
Q 2513 3716 2298 3927 
Q 2084 4138 1766 4138 
Q 1444 4138 1231 3931 
Q 1019 3725 1019 3438 
z
M 838 1322 
Q 838 1081 952 856 
Q 1066 631 1291 507 
Q 1516 384 1775 384 
Q 2178 384 2440 643 
Q 2703 903 2703 1303 
Q 2703 1709 2433 1975 
Q 2163 2241 1756 2241 
Q 1359 2241 1098 1978 
Q 838 1716 838 1322 
z
" transform="scale(0.015625)"/>
       </defs>
       <use xlink:href="#ArialMT-38"/>
       <use xlink:href="#ArialMT-30" transform="translate(55.615234 0)"/>
       <use xlink:href="#ArialMT-30" transform="translate(111.230469 0)"/>
      </g>
     </g>
    </g>
   </g>
   <g id="patch_3">
    <path d="M 122.625 325.734103 
L 147.735 325.734103 
L 147.735 96.168886 
L 122.625 96.168886 
z
" clip-path="url(#p4faffa8434)" style="fill: #138141; stroke: #ffffff; stroke-linejoin: miter"/>
   </g>
   <g id="patch_4">
    <path d="M 248.175 325.734103 
L 273.285 325.734103 
L 273.285 296.402117 
L 248.175 296.402117 
z
" clip-path="url(#p4faffa8434)" style="fill: #138141; stroke: #ffffff; stroke-linejoin: miter"/>
   </g>
   <g id="patch_5">
    <path d="M 373.725 325.734103 
L 398.835 325.734103 
L 398.835 277.97872 
L 373.725 277.97872 
z
" clip-path="url(#p4faffa8434)" style="fill: #138141; stroke: #ffffff; stroke-linejoin: miter"/>
   </g>
   <g id="patch_6">
    <path d="M 499.275 325.734103 
L 524.385 325.734103 
L 524.385 301.492792 
L 499.275 301.492792 
z
" clip-path="url(#p4faffa8434)" style="fill: #138141; stroke: #ffffff; stroke-linejoin: miter"/>
   </g>
   <g id="patch_7">
    <path d="M 624.825 325.734103 
L 649.935 325.734103 
L 649.935 291.311441 
L 624.825 291.311441 
z
" clip-path="url(#p4faffa8434)" style="fill: #138141; stroke: #ffffff; stroke-linejoin: miter"/>
   </g>
   <g id="patch_8">
    <path d="M 750.375 325.734103 
L 775.485 325.734103 
L 775.485 324.279625 
L 750.375 324.279625 
z
" clip-path="url(#p4faffa8434)" style="fill: #138141; stroke: #ffffff; stroke-linejoin: miter"/>
   </g>
   <g id="patch_9">
    <path d="M 875.925 325.734103 
L 901.035 325.734103 
L 901.035 323.552385 
L 875.925 323.552385 
z
" clip-path="url(#p4faffa8434)" style="fill: #138141; stroke: #ffffff; stroke-linejoin: miter"/>
   </g>
   <g id="patch_10">
    <path d="M 147.735 325.734103 
L 172.845 325.734103 
L 172.845 295.674877 
L 147.735 295.674877 
z
" clip-path="url(#p4faffa8434)" style="fill: #1741a1; stroke: #ffffff; stroke-linejoin: miter"/>
   </g>
   <g id="patch_11">
    <path d="M 398.835 325.734103 
L 423.945 325.734103 
L 423.945 324.279625 
L 398.835 324.279625 
z
" clip-path="url(#p4faffa8434)" style="fill: #1741a1; stroke: #ffffff; stroke-linejoin: miter"/>
   </g>
   <g id="patch_12">
    <path d="M 524.385 325.734103 
L 549.495 325.734103 
L 549.495 325.006864 
L 524.385 325.006864 
z
" clip-path="url(#p4faffa8434)" style="fill: #1741a1; stroke: #ffffff; stroke-linejoin: miter"/>
   </g>
   <g id="patch_13">
    <path d="M 649.935 325.734103 
L 675.045 325.734103 
L 675.045 294.220399 
L 649.935 294.220399 
z
" clip-path="url(#p4faffa8434)" style="fill: #1741a1; stroke: #ffffff; stroke-linejoin: miter"/>
   </g>
   <g id="patch_14">
    <path d="M 775.485 325.734103 
L 800.595 325.734103 
L 800.595 323.794798 
L 775.485 323.794798 
z
" clip-path="url(#p4faffa8434)" style="fill: #1741a1; stroke: #ffffff; stroke-linejoin: miter"/>
   </g>
   <g id="patch_15">
    <path d="M 901.035 325.734103 
L 926.145 325.734103 
L 926.145 324.522038 
L 901.035 324.522038 
z
" clip-path="url(#p4faffa8434)" style="fill: #1741a1; stroke: #ffffff; stroke-linejoin: miter"/>
   </g>
   <g id="patch_16">
    <path d="M 147.735 325.734103 
L 147.735 325.734103 
L 147.735 325.734103 
L 147.735 325.734103 
z
" clip-path="url(#p4faffa8434)" style="fill: #138141; stroke: #ffffff; stroke-linejoin: miter"/>
   </g>
   <g id="patch_17">
    <path d="M 147.735 325.734103 
L 147.735 325.734103 
L 147.735 325.734103 
L 147.735 325.734103 
z
" clip-path="url(#p4faffa8434)" style="fill: #1741a1; stroke: #ffffff; stroke-linejoin: miter"/>
   </g>
   <g id="patch_18">
    <path d="M 84.96 325.734103 
L 84.96 84.690625 
" style="fill: none; stroke: #cccccc; stroke-width: 1.25; stroke-linejoin: miter; stroke-linecap: square"/>
   </g>
   <g id="patch_19">
    <path d="M 84.96 325.734103 
L 1089.36 325.734103 
" style="fill: none; stroke: #cccccc; stroke-width: 1.25; stroke-linejoin: miter; stroke-linecap: square"/>
   </g>
   <g id="text_6">
    <!-- 947 -->
    <g style="fill: #262626" transform="translate(122.667891 93.20873) scale(0.15 -0.15)">
     <defs>
      <path id="Arial-BoldMT-39" d="M 291 1059 
L 1141 1153 
Q 1172 894 1303 769 
Q 1434 644 1650 644 
Q 1922 644 2112 894 
Q 2303 1144 2356 1931 
Q 2025 1547 1528 1547 
Q 988 1547 595 1964 
Q 203 2381 203 3050 
Q 203 3747 617 4173 
Q 1031 4600 1672 4600 
Q 2369 4600 2816 4061 
Q 3263 3522 3263 2288 
Q 3263 1031 2797 475 
Q 2331 -81 1584 -81 
Q 1047 -81 715 205 
Q 384 491 291 1059 
z
M 2278 2978 
Q 2278 3403 2083 3637 
Q 1888 3872 1631 3872 
Q 1388 3872 1227 3680 
Q 1066 3488 1066 3050 
Q 1066 2606 1241 2398 
Q 1416 2191 1678 2191 
Q 1931 2191 2104 2391 
Q 2278 2591 2278 2978 
z
" transform="scale(0.015625)"/>
      <path id="Arial-BoldMT-34" d="M 1994 0 
L 1994 922 
L 119 922 
L 119 1691 
L 2106 4600 
L 2844 4600 
L 2844 1694 
L 3413 1694 
L 3413 922 
L 2844 922 
L 2844 0 
L 1994 0 
z
M 1994 1694 
L 1994 3259 
L 941 1694 
L 1994 1694 
z
" transform="scale(0.015625)"/>
      <path id="Arial-BoldMT-37" d="M 272 3703 
L 272 4519 
L 3275 4519 
L 3275 3881 
Q 2903 3516 2518 2831 
Q 2134 2147 1932 1376 
Q 1731 606 1734 0 
L 888 0 
Q 909 950 1279 1937 
Q 1650 2925 2269 3703 
L 272 3703 
z
" transform="scale(0.015625)"/>
     </defs>
     <use xlink:href="#Arial-BoldMT-39"/>
     <use xlink:href="#Arial-BoldMT-34" transform="translate(55.615234 0)"/>
     <use xlink:href="#Arial-BoldMT-37" transform="translate(111.230469 0)"/>
    </g>
   </g>
   <g id="text_7">
    <!-- 121 -->
    <g style="fill: #262626" transform="translate(248.217891 293.44196) scale(0.15 -0.15)">
     <defs>
      <path id="Arial-BoldMT-31" d="M 2519 0 
L 1641 0 
L 1641 3309 
Q 1159 2859 506 2644 
L 506 3441 
Q 850 3553 1253 3867 
Q 1656 4181 1806 4600 
L 2519 4600 
L 2519 0 
z
" transform="scale(0.015625)"/>
      <path id="Arial-BoldMT-32" d="M 3238 816 
L 3238 0 
L 159 0 
Q 209 463 459 877 
Q 709 1291 1447 1975 
Q 2041 2528 2175 2725 
Q 2356 2997 2356 3263 
Q 2356 3556 2198 3714 
Q 2041 3872 1763 3872 
Q 1488 3872 1325 3706 
Q 1163 3541 1138 3156 
L 263 3244 
Q 341 3969 753 4284 
Q 1166 4600 1784 4600 
Q 2463 4600 2850 4234 
Q 3238 3869 3238 3325 
Q 3238 3016 3127 2736 
Q 3016 2456 2775 2150 
Q 2616 1947 2200 1565 
Q 1784 1184 1673 1059 
Q 1563 934 1494 816 
L 3238 816 
z
" transform="scale(0.015625)"/>
     </defs>
     <use xlink:href="#Arial-BoldMT-31"/>
     <use xlink:href="#Arial-BoldMT-32" transform="translate(55.615234 0)"/>
     <use xlink:href="#Arial-BoldMT-31" transform="translate(111.230469 0)"/>
    </g>
   </g>
   <g id="text_8">
    <!-- 197 -->
    <g style="fill: #262626" transform="translate(373.767891 275.018564) scale(0.15 -0.15)">
     <use xlink:href="#Arial-BoldMT-31"/>
     <use xlink:href="#Arial-BoldMT-39" transform="translate(55.615234 0)"/>
     <use xlink:href="#Arial-BoldMT-37" transform="translate(111.230469 0)"/>
    </g>
   </g>
   <g id="text_9">
    <!-- 100 -->
    <g style="fill: #262626" transform="translate(499.317891 298.532636) scale(0.15 -0.15)">
     <defs>
      <path id="Arial-BoldMT-30" d="M 1756 4600 
Q 2422 4600 2797 4125 
Q 3244 3563 3244 2259 
Q 3244 959 2794 391 
Q 2422 -78 1756 -78 
Q 1088 -78 678 436 
Q 269 950 269 2269 
Q 269 3563 719 4131 
Q 1091 4600 1756 4600 
z
M 1756 3872 
Q 1597 3872 1472 3770 
Q 1347 3669 1278 3406 
Q 1188 3066 1188 2259 
Q 1188 1453 1269 1151 
Q 1350 850 1473 750 
Q 1597 650 1756 650 
Q 1916 650 2041 751 
Q 2166 853 2234 1116 
Q 2325 1453 2325 2259 
Q 2325 3066 2244 3367 
Q 2163 3669 2039 3770 
Q 1916 3872 1756 3872 
z
" transform="scale(0.015625)"/>
     </defs>
     <use xlink:href="#Arial-BoldMT-31"/>
     <use xlink:href="#Arial-BoldMT-30" transform="translate(55.615234 0)"/>
     <use xlink:href="#Arial-BoldMT-30" transform="translate(111.230469 0)"/>
    </g>
   </g>
   <g id="text_10">
    <!-- 142 -->
    <g style="fill: #262626" transform="translate(624.867891 288.351285) scale(0.15 -0.15)">
     <use xlink:href="#Arial-BoldMT-31"/>
     <use xlink:href="#Arial-BoldMT-34" transform="translate(55.615234 0)"/>
     <use xlink:href="#Arial-BoldMT-32" transform="translate(111.230469 0)"/>
    </g>
   </g>
   <g id="text_11">
    <!-- 6 -->
    <g style="fill: #262626" transform="translate(758.759297 321.319468) scale(0.15 -0.15)">
     <defs>
      <path id="Arial-BoldMT-36" d="M 3247 3459 
L 2397 3366 
Q 2366 3628 2234 3753 
Q 2103 3878 1894 3878 
Q 1616 3878 1423 3628 
Q 1231 3378 1181 2588 
Q 1509 2975 1997 2975 
Q 2547 2975 2939 2556 
Q 3331 2138 3331 1475 
Q 3331 772 2918 347 
Q 2506 -78 1859 -78 
Q 1166 -78 719 461 
Q 272 1000 272 2228 
Q 272 3488 737 4044 
Q 1203 4600 1947 4600 
Q 2469 4600 2811 4308 
Q 3153 4016 3247 3459 
z
M 1256 1544 
Q 1256 1116 1453 883 
Q 1650 650 1903 650 
Q 2147 650 2309 840 
Q 2472 1031 2472 1466 
Q 2472 1913 2297 2120 
Q 2122 2328 1859 2328 
Q 1606 2328 1431 2129 
Q 1256 1931 1256 1544 
z
" transform="scale(0.015625)"/>
     </defs>
     <use xlink:href="#Arial-BoldMT-36"/>
    </g>
   </g>
   <g id="text_12">
    <!-- 9 -->
    <g style="fill: #262626" transform="translate(884.309297 320.592229) scale(0.15 -0.15)">
     <use xlink:href="#Arial-BoldMT-39"/>
    </g>
   </g>
   <g id="text_13">
    <!-- 124 -->
    <g style="fill: #262626" transform="translate(147.777891 292.714721) scale(0.15 -0.15)">
     <use xlink:href="#Arial-BoldMT-31"/>
     <use xlink:href="#Arial-BoldMT-32" transform="translate(55.615234 0)"/>
     <use xlink:href="#Arial-BoldMT-34" transform="translate(111.230469 0)"/>
    </g>
   </g>
   <g id="text_14">
    <!-- 6 -->
    <g style="fill: #262626" transform="translate(407.219297 321.319468) scale(0.15 -0.15)">
     <use xlink:href="#Arial-BoldMT-36"/>
    </g>
   </g>
   <g id="text_15">
    <!-- 3 -->
    <g style="fill: #262626" transform="translate(532.769297 322.046708) scale(0.15 -0.15)">
     <defs>
      <path id="Arial-BoldMT-33" d="M 241 1216 
L 1091 1319 
Q 1131 994 1309 822 
Q 1488 650 1741 650 
Q 2013 650 2198 856 
Q 2384 1063 2384 1413 
Q 2384 1744 2206 1937 
Q 2028 2131 1772 2131 
Q 1603 2131 1369 2066 
L 1466 2781 
Q 1822 2772 2009 2936 
Q 2197 3100 2197 3372 
Q 2197 3603 2059 3740 
Q 1922 3878 1694 3878 
Q 1469 3878 1309 3722 
Q 1150 3566 1116 3266 
L 306 3403 
Q 391 3819 561 4067 
Q 731 4316 1036 4458 
Q 1341 4600 1719 4600 
Q 2366 4600 2756 4188 
Q 3078 3850 3078 3425 
Q 3078 2822 2419 2463 
Q 2813 2378 3048 2084 
Q 3284 1791 3284 1375 
Q 3284 772 2843 347 
Q 2403 -78 1747 -78 
Q 1125 -78 715 280 
Q 306 638 241 1216 
z
" transform="scale(0.015625)"/>
     </defs>
     <use xlink:href="#Arial-BoldMT-33"/>
    </g>
   </g>
   <g id="text_16">
    <!-- 130 -->
    <g style="fill: #262626" transform="translate(649.977891 291.260242) scale(0.15 -0.15)">
     <use xlink:href="#Arial-BoldMT-31"/>
     <use xlink:href="#Arial-BoldMT-33" transform="translate(55.615234 0)"/>
     <use xlink:href="#Arial-BoldMT-30" transform="translate(111.230469 0)"/>
    </g>
   </g>
   <g id="text_17">
    <!-- 8 -->
    <g style="fill: #262626" transform="translate(783.869297 320.834642) scale(0.15 -0.15)">
     <defs>
      <path id="Arial-BoldMT-38" d="M 1025 2472 
Q 684 2616 529 2867 
Q 375 3119 375 3419 
Q 375 3931 733 4265 
Q 1091 4600 1750 4600 
Q 2403 4600 2764 4265 
Q 3125 3931 3125 3419 
Q 3125 3100 2959 2851 
Q 2794 2603 2494 2472 
Q 2875 2319 3073 2025 
Q 3272 1731 3272 1347 
Q 3272 713 2867 316 
Q 2463 -81 1791 -81 
Q 1166 -81 750 247 
Q 259 634 259 1309 
Q 259 1681 443 1992 
Q 628 2303 1025 2472 
z
M 1206 3356 
Q 1206 3094 1354 2947 
Q 1503 2800 1750 2800 
Q 2000 2800 2150 2948 
Q 2300 3097 2300 3359 
Q 2300 3606 2151 3754 
Q 2003 3903 1759 3903 
Q 1506 3903 1356 3753 
Q 1206 3603 1206 3356 
z
M 1125 1394 
Q 1125 1031 1311 828 
Q 1497 625 1775 625 
Q 2047 625 2225 820 
Q 2403 1016 2403 1384 
Q 2403 1706 2222 1901 
Q 2041 2097 1763 2097 
Q 1441 2097 1283 1875 
Q 1125 1653 1125 1394 
z
" transform="scale(0.015625)"/>
     </defs>
     <use xlink:href="#Arial-BoldMT-38"/>
    </g>
   </g>
   <g id="text_18">
    <!-- 5 -->
    <g style="fill: #262626" transform="translate(909.419297 321.561881) scale(0.15 -0.15)">
     <defs>
      <path id="Arial-BoldMT-35" d="M 284 1178 
L 1159 1269 
Q 1197 972 1381 798 
Q 1566 625 1806 625 
Q 2081 625 2272 848 
Q 2463 1072 2463 1522 
Q 2463 1944 2273 2155 
Q 2084 2366 1781 2366 
Q 1403 2366 1103 2031 
L 391 2134 
L 841 4519 
L 3163 4519 
L 3163 3697 
L 1506 3697 
L 1369 2919 
Q 1663 3066 1969 3066 
Q 2553 3066 2959 2641 
Q 3366 2216 3366 1538 
Q 3366 972 3038 528 
Q 2591 -78 1797 -78 
Q 1163 -78 763 262 
Q 363 603 284 1178 
z
" transform="scale(0.015625)"/>
     </defs>
     <use xlink:href="#Arial-BoldMT-35"/>
    </g>
   </g>
   <g id="text_19">
    <!-- AJE -->
    <g style="fill: #262626" transform="translate(577.433438 78.690625) scale(0.1 -0.1)">
     <defs>
      <path id="Arial-BoldMT-41" d="M 4597 0 
L 3591 0 
L 3191 1041 
L 1359 1041 
L 981 0 
L 0 0 
L 1784 4581 
L 2763 4581 
L 4597 0 
z
M 2894 1813 
L 2263 3513 
L 1644 1813 
L 2894 1813 
z
" transform="scale(0.015625)"/>
      <path id="Arial-BoldMT-4a" d="M 2119 4581 
L 3041 4581 
L 3041 1681 
Q 3041 1113 2941 806 
Q 2806 406 2453 164 
Q 2100 -78 1522 -78 
Q 844 -78 478 301 
Q 113 681 109 1416 
L 981 1516 
Q 997 1122 1097 959 
Q 1247 713 1553 713 
Q 1863 713 1991 889 
Q 2119 1066 2119 1622 
L 2119 4581 
z
" transform="scale(0.015625)"/>
      <path id="Arial-BoldMT-45" d="M 466 0 
L 466 4581 
L 3863 4581 
L 3863 3806 
L 1391 3806 
L 1391 2791 
L 3691 2791 
L 3691 2019 
L 1391 2019 
L 1391 772 
L 3950 772 
L 3950 0 
L 466 0 
z
" transform="scale(0.015625)"/>
     </defs>
     <use xlink:href="#Arial-BoldMT-41"/>
     <use xlink:href="#Arial-BoldMT-4a" transform="translate(72.216797 0)"/>
     <use xlink:href="#Arial-BoldMT-45" transform="translate(127.832031 0)"/>
    </g>
   </g>
  </g>
  <g id="axes_2">
   <g id="patch_20">
    <path d="M 84.96 614.986277 
L 1089.36 614.986277 
L 1089.36 373.942799 
L 84.96 373.942799 
z
" style="fill: #ffffff"/>
   </g>
   <g id="matplotlib.axis_3">
    <g id="xtick_9"/>
    <g id="xtick_10"/>
    <g id="xtick_11"/>
    <g id="xtick_12"/>
    <g id="xtick_13"/>
    <g id="xtick_14"/>
    <g id="xtick_15"/>
    <g id="xtick_16"/>
   </g>
   <g id="matplotlib.axis_4">
    <g id="ytick_6">
     <g id="text_20">
      <!-- 0 -->
      <g style="fill: #262626" transform="translate(65.450312 621.428308) scale(0.18 -0.18)">
       <use xlink:href="#ArialMT-30"/>
      </g>
     </g>
    </g>
    <g id="ytick_7">
     <g id="text_21">
      <!-- 200 -->
      <g style="fill: #262626" transform="translate(45.430937 572.945686) scale(0.18 -0.18)">
       <use xlink:href="#ArialMT-32"/>
       <use xlink:href="#ArialMT-30" transform="translate(55.615234 0)"/>
       <use xlink:href="#ArialMT-30" transform="translate(111.230469 0)"/>
      </g>
     </g>
    </g>
    <g id="ytick_8">
     <g id="text_22">
      <!-- 400 -->
      <g style="fill: #262626" transform="translate(45.430937 524.463063) scale(0.18 -0.18)">
       <use xlink:href="#ArialMT-34"/>
       <use xlink:href="#ArialMT-30" transform="translate(55.615234 0)"/>
       <use xlink:href="#ArialMT-30" transform="translate(111.230469 0)"/>
      </g>
     </g>
    </g>
    <g id="ytick_9">
     <g id="text_23">
      <!-- 600 -->
      <g style="fill: #262626" transform="translate(45.430937 475.980441) scale(0.18 -0.18)">
       <use xlink:href="#ArialMT-36"/>
       <use xlink:href="#ArialMT-30" transform="translate(55.615234 0)"/>
       <use xlink:href="#ArialMT-30" transform="translate(111.230469 0)"/>
      </g>
     </g>
    </g>
    <g id="ytick_10">
     <g id="text_24">
      <!-- 800 -->
      <g style="fill: #262626" transform="translate(45.430937 427.497819) scale(0.18 -0.18)">
       <use xlink:href="#ArialMT-38"/>
       <use xlink:href="#ArialMT-30" transform="translate(55.615234 0)"/>
       <use xlink:href="#ArialMT-30" transform="translate(111.230469 0)"/>
      </g>
     </g>
    </g>
   </g>
   <g id="patch_21">
    <path d="M 122.625 614.986277 
L 147.735 614.986277 
L 147.735 496.931091 
L 122.625 496.931091 
z
" clip-path="url(#p3b1926c150)" style="fill: #138141; stroke: #ffffff; stroke-linejoin: miter"/>
   </g>
   <g id="patch_22">
    <path d="M 248.175 614.986277 
L 273.285 614.986277 
L 273.285 582.745333 
L 248.175 582.745333 
z
" clip-path="url(#p3b1926c150)" style="fill: #138141; stroke: #ffffff; stroke-linejoin: miter"/>
   </g>
   <g id="patch_23">
    <path d="M 373.725 614.986277 
L 398.835 614.986277 
L 398.835 586.139117 
L 373.725 586.139117 
z
" clip-path="url(#p3b1926c150)" style="fill: #138141; stroke: #ffffff; stroke-linejoin: miter"/>
   </g>
   <g id="patch_24">
    <path d="M 499.275 614.986277 
L 524.385 614.986277 
L 524.385 598.259772 
L 499.275 598.259772 
z
" clip-path="url(#p3b1926c150)" style="fill: #138141; stroke: #ffffff; stroke-linejoin: miter"/>
   </g>
   <g id="patch_25">
    <path d="M 624.825 614.986277 
L 649.935 614.986277 
L 649.935 606.016992 
L 624.825 606.016992 
z
" clip-path="url(#p3b1926c150)" style="fill: #138141; stroke: #ffffff; stroke-linejoin: miter"/>
   </g>
   <g id="patch_26">
    <path d="M 750.375 614.986277 
L 775.485 614.986277 
L 775.485 614.501451 
L 750.375 614.501451 
z
" clip-path="url(#p3b1926c150)" style="fill: #138141; stroke: #ffffff; stroke-linejoin: miter"/>
   </g>
   <g id="patch_27">
    <path d="M 875.925 614.986277 
L 901.035 614.986277 
L 901.035 613.531798 
L 875.925 613.531798 
z
" clip-path="url(#p3b1926c150)" style="fill: #138141; stroke: #ffffff; stroke-linejoin: miter"/>
   </g>
   <g id="patch_28">
    <path d="M 147.735 614.986277 
L 172.845 614.986277 
L 172.845 495.961439 
L 147.735 495.961439 
z
" clip-path="url(#p3b1926c150)" style="fill: #1741a1; stroke: #ffffff; stroke-linejoin: miter"/>
   </g>
   <g id="patch_29">
    <path d="M 273.285 614.986277 
L 298.395 614.986277 
L 298.395 614.016625 
L 273.285 614.016625 
z
" clip-path="url(#p3b1926c150)" style="fill: #1741a1; stroke: #ffffff; stroke-linejoin: miter"/>
   </g>
   <g id="patch_30">
    <path d="M 398.835 614.986277 
L 423.945 614.986277 
L 423.945 611.35008 
L 398.835 611.35008 
z
" clip-path="url(#p3b1926c150)" style="fill: #1741a1; stroke: #ffffff; stroke-linejoin: miter"/>
   </g>
   <g id="patch_31">
    <path d="M 524.385 614.986277 
L 549.495 614.986277 
L 549.495 612.07732 
L 524.385 612.07732 
z
" clip-path="url(#p3b1926c150)" style="fill: #1741a1; stroke: #ffffff; stroke-linejoin: miter"/>
   </g>
   <g id="patch_32">
    <path d="M 649.935 614.986277 
L 675.045 614.986277 
L 675.045 511.233465 
L 649.935 511.233465 
z
" clip-path="url(#p3b1926c150)" style="fill: #1741a1; stroke: #ffffff; stroke-linejoin: miter"/>
   </g>
   <g id="patch_33">
    <path d="M 775.485 614.986277 
L 800.595 614.986277 
L 800.595 601.895969 
L 775.485 601.895969 
z
" clip-path="url(#p3b1926c150)" style="fill: #1741a1; stroke: #ffffff; stroke-linejoin: miter"/>
   </g>
   <g id="patch_34">
    <path d="M 901.035 614.986277 
L 926.145 614.986277 
L 926.145 610.622841 
L 901.035 610.622841 
z
" clip-path="url(#p3b1926c150)" style="fill: #1741a1; stroke: #ffffff; stroke-linejoin: miter"/>
   </g>
   <g id="patch_35">
    <path d="M 147.735 614.986277 
L 147.735 614.986277 
L 147.735 614.986277 
L 147.735 614.986277 
z
" clip-path="url(#p3b1926c150)" style="fill: #138141; stroke: #ffffff; stroke-linejoin: miter"/>
   </g>
   <g id="patch_36">
    <path d="M 147.735 614.986277 
L 147.735 614.986277 
L 147.735 614.986277 
L 147.735 614.986277 
z
" clip-path="url(#p3b1926c150)" style="fill: #1741a1; stroke: #ffffff; stroke-linejoin: miter"/>
   </g>
   <g id="patch_37">
    <path d="M 84.96 614.986277 
L 84.96 373.942799 
" style="fill: none; stroke: #cccccc; stroke-width: 1.25; stroke-linejoin: miter; stroke-linecap: square"/>
   </g>
   <g id="patch_38">
    <path d="M 84.96 614.986277 
L 1089.36 614.986277 
" style="fill: none; stroke: #cccccc; stroke-width: 1.25; stroke-linejoin: miter; stroke-linecap: square"/>
   </g>
   <g id="text_25">
    <!-- 487 -->
    <g style="fill: #262626" transform="translate(122.667891 493.970935) scale(0.15 -0.15)">
     <use xlink:href="#Arial-BoldMT-34"/>
     <use xlink:href="#Arial-BoldMT-38" transform="translate(55.615234 0)"/>
     <use xlink:href="#Arial-BoldMT-37" transform="translate(111.230469 0)"/>
    </g>
   </g>
   <g id="text_26">
    <!-- 133 -->
    <g style="fill: #262626" transform="translate(248.217891 579.785177) scale(0.15 -0.15)">
     <use xlink:href="#Arial-BoldMT-31"/>
     <use xlink:href="#Arial-BoldMT-33" transform="translate(55.615234 0)"/>
     <use xlink:href="#Arial-BoldMT-33" transform="translate(111.230469 0)"/>
    </g>
   </g>
   <g id="text_27">
    <!-- 119 -->
    <g style="fill: #262626" transform="translate(374.180391 583.178961) scale(0.15 -0.15)">
     <use xlink:href="#Arial-BoldMT-31"/>
     <use xlink:href="#Arial-BoldMT-31" transform="translate(50.115234 0)"/>
     <use xlink:href="#Arial-BoldMT-39" transform="translate(105.730469 0)"/>
    </g>
   </g>
   <g id="text_28">
    <!-- 69 -->
    <g style="fill: #262626" transform="translate(503.488594 595.299616) scale(0.15 -0.15)">
     <use xlink:href="#Arial-BoldMT-36"/>
     <use xlink:href="#Arial-BoldMT-39" transform="translate(55.615234 0)"/>
    </g>
   </g>
   <g id="text_29">
    <!-- 37 -->
    <g style="fill: #262626" transform="translate(629.038594 603.056836) scale(0.15 -0.15)">
     <use xlink:href="#Arial-BoldMT-33"/>
     <use xlink:href="#Arial-BoldMT-37" transform="translate(55.615234 0)"/>
    </g>
   </g>
   <g id="text_30">
    <!-- 2 -->
    <g style="fill: #262626" transform="translate(758.759297 611.541295) scale(0.15 -0.15)">
     <use xlink:href="#Arial-BoldMT-32"/>
    </g>
   </g>
   <g id="text_31">
    <!-- 6 -->
    <g style="fill: #262626" transform="translate(884.309297 610.571642) scale(0.15 -0.15)">
     <use xlink:href="#Arial-BoldMT-36"/>
    </g>
   </g>
   <g id="text_32">
    <!-- 491 -->
    <g style="fill: #262626" transform="translate(147.777891 493.001283) scale(0.15 -0.15)">
     <use xlink:href="#Arial-BoldMT-34"/>
     <use xlink:href="#Arial-BoldMT-39" transform="translate(55.615234 0)"/>
     <use xlink:href="#Arial-BoldMT-31" transform="translate(111.230469 0)"/>
    </g>
   </g>
   <g id="text_33">
    <!-- 4 -->
    <g style="fill: #262626" transform="translate(281.669297 611.056468) scale(0.15 -0.15)">
     <use xlink:href="#Arial-BoldMT-34"/>
    </g>
   </g>
   <g id="text_34">
    <!-- 15 -->
    <g style="fill: #262626" transform="translate(403.048594 608.389924) scale(0.15 -0.15)">
     <use xlink:href="#Arial-BoldMT-31"/>
     <use xlink:href="#Arial-BoldMT-35" transform="translate(55.615234 0)"/>
    </g>
   </g>
   <g id="text_35">
    <!-- 12 -->
    <g style="fill: #262626" transform="translate(528.598594 609.117164) scale(0.15 -0.15)">
     <use xlink:href="#Arial-BoldMT-31"/>
     <use xlink:href="#Arial-BoldMT-32" transform="translate(55.615234 0)"/>
    </g>
   </g>
   <g id="text_36">
    <!-- 428 -->
    <g style="fill: #262626" transform="translate(649.977891 508.273309) scale(0.15 -0.15)">
     <use xlink:href="#Arial-BoldMT-34"/>
     <use xlink:href="#Arial-BoldMT-32" transform="translate(55.615234 0)"/>
     <use xlink:href="#Arial-BoldMT-38" transform="translate(111.230469 0)"/>
    </g>
   </g>
   <g id="text_37">
    <!-- 54 -->
    <g style="fill: #262626" transform="translate(779.698594 598.935813) scale(0.15 -0.15)">
     <use xlink:href="#Arial-BoldMT-35"/>
     <use xlink:href="#Arial-BoldMT-34" transform="translate(55.615234 0)"/>
    </g>
   </g>
   <g id="text_38">
    <!-- 18 -->
    <g style="fill: #262626" transform="translate(905.248594 607.662685) scale(0.15 -0.15)">
     <use xlink:href="#Arial-BoldMT-31"/>
     <use xlink:href="#Arial-BoldMT-38" transform="translate(55.615234 0)"/>
    </g>
   </g>
   <g id="text_39">
    <!-- BBC -->
    <g style="fill: #262626" transform="translate(576.327188 367.942799) scale(0.1 -0.1)">
     <defs>
      <path id="Arial-BoldMT-42" d="M 469 4581 
L 2300 4581 
Q 2844 4581 3111 4536 
Q 3378 4491 3589 4347 
Q 3800 4203 3940 3964 
Q 4081 3725 4081 3428 
Q 4081 3106 3907 2837 
Q 3734 2569 3438 2434 
Q 3856 2313 4081 2019 
Q 4306 1725 4306 1328 
Q 4306 1016 4161 720 
Q 4016 425 3764 248 
Q 3513 72 3144 31 
Q 2913 6 2028 0 
L 469 0 
L 469 4581 
z
M 1394 3819 
L 1394 2759 
L 2000 2759 
Q 2541 2759 2672 2775 
Q 2909 2803 3045 2939 
Q 3181 3075 3181 3297 
Q 3181 3509 3064 3642 
Q 2947 3775 2716 3803 
Q 2578 3819 1925 3819 
L 1394 3819 
z
M 1394 1997 
L 1394 772 
L 2250 772 
Q 2750 772 2884 800 
Q 3091 838 3220 983 
Q 3350 1128 3350 1372 
Q 3350 1578 3250 1722 
Q 3150 1866 2961 1931 
Q 2772 1997 2141 1997 
L 1394 1997 
z
" transform="scale(0.015625)"/>
      <path id="Arial-BoldMT-43" d="M 3397 1684 
L 4294 1400 
Q 4088 650 3608 286 
Q 3128 -78 2391 -78 
Q 1478 -78 890 545 
Q 303 1169 303 2250 
Q 303 3394 893 4026 
Q 1484 4659 2447 4659 
Q 3288 4659 3813 4163 
Q 4125 3869 4281 3319 
L 3366 3100 
Q 3284 3456 3026 3662 
Q 2769 3869 2400 3869 
Q 1891 3869 1573 3503 
Q 1256 3138 1256 2319 
Q 1256 1450 1568 1081 
Q 1881 713 2381 713 
Q 2750 713 3015 947 
Q 3281 1181 3397 1684 
z
" transform="scale(0.015625)"/>
     </defs>
     <use xlink:href="#Arial-BoldMT-42"/>
     <use xlink:href="#Arial-BoldMT-42" transform="translate(72.216797 0)"/>
     <use xlink:href="#Arial-BoldMT-43" transform="translate(144.433594 0)"/>
    </g>
   </g>
  </g>
  <g id="axes_3">
   <g id="patch_39">
    <path d="M 84.96 904.238451 
L 1089.36 904.238451 
L 1089.36 663.194973 
L 84.96 663.194973 
z
" style="fill: #ffffff"/>
   </g>
   <g id="matplotlib.axis_5">
    <g id="xtick_17"/>
    <g id="xtick_18"/>
    <g id="xtick_19"/>
    <g id="xtick_20"/>
    <g id="xtick_21"/>
    <g id="xtick_22"/>
    <g id="xtick_23"/>
    <g id="xtick_24"/>
   </g>
   <g id="matplotlib.axis_6">
    <g id="ytick_11">
     <g id="text_40">
      <!-- 0 -->
      <g style="fill: #262626" transform="translate(65.450312 910.680482) scale(0.18 -0.18)">
       <use xlink:href="#ArialMT-30"/>
      </g>
     </g>
    </g>
    <g id="ytick_12">
     <g id="text_41">
      <!-- 200 -->
      <g style="fill: #262626" transform="translate(45.430937 862.19786) scale(0.18 -0.18)">
       <use xlink:href="#ArialMT-32"/>
       <use xlink:href="#ArialMT-30" transform="translate(55.615234 0)"/>
       <use xlink:href="#ArialMT-30" transform="translate(111.230469 0)"/>
      </g>
     </g>
    </g>
    <g id="ytick_13">
     <g id="text_42">
      <!-- 400 -->
      <g style="fill: #262626" transform="translate(45.430937 813.715237) scale(0.18 -0.18)">
       <use xlink:href="#ArialMT-34"/>
       <use xlink:href="#ArialMT-30" transform="translate(55.615234 0)"/>
       <use xlink:href="#ArialMT-30" transform="translate(111.230469 0)"/>
      </g>
     </g>
    </g>
    <g id="ytick_14">
     <g id="text_43">
      <!-- 600 -->
      <g style="fill: #262626" transform="translate(45.430937 765.232615) scale(0.18 -0.18)">
       <use xlink:href="#ArialMT-36"/>
       <use xlink:href="#ArialMT-30" transform="translate(55.615234 0)"/>
       <use xlink:href="#ArialMT-30" transform="translate(111.230469 0)"/>
      </g>
     </g>
    </g>
    <g id="ytick_15">
     <g id="text_44">
      <!-- 800 -->
      <g style="fill: #262626" transform="translate(45.430937 716.749992) scale(0.18 -0.18)">
       <use xlink:href="#ArialMT-38"/>
       <use xlink:href="#ArialMT-30" transform="translate(55.615234 0)"/>
       <use xlink:href="#ArialMT-30" transform="translate(111.230469 0)"/>
      </g>
     </g>
    </g>
   </g>
   <g id="patch_40">
    <path d="M 122.625 904.238451 
L 147.735 904.238451 
L 147.735 811.151816 
L 122.625 811.151816 
z
" clip-path="url(#p54a900060c)" style="fill: #138141; stroke: #ffffff; stroke-linejoin: miter"/>
   </g>
   <g id="patch_41">
    <path d="M 248.175 904.238451 
L 273.285 904.238451 
L 273.285 886.057468 
L 248.175 886.057468 
z
" clip-path="url(#p54a900060c)" style="fill: #138141; stroke: #ffffff; stroke-linejoin: miter"/>
   </g>
   <g id="patch_42">
    <path d="M 373.725 904.238451 
L 398.835 904.238451 
L 398.835 879.512314 
L 373.725 879.512314 
z
" clip-path="url(#p54a900060c)" style="fill: #138141; stroke: #ffffff; stroke-linejoin: miter"/>
   </g>
   <g id="patch_43">
    <path d="M 499.275 904.238451 
L 524.385 904.238451 
L 524.385 888.239186 
L 499.275 888.239186 
z
" clip-path="url(#p54a900060c)" style="fill: #138141; stroke: #ffffff; stroke-linejoin: miter"/>
   </g>
   <g id="patch_44">
    <path d="M 624.825 904.238451 
L 649.935 904.238451 
L 649.935 891.632969 
L 624.825 891.632969 
z
" clip-path="url(#p54a900060c)" style="fill: #138141; stroke: #ffffff; stroke-linejoin: miter"/>
   </g>
   <g id="patch_45">
    <path d="M 750.375 904.238451 
L 775.485 904.238451 
L 775.485 902.299146 
L 750.375 902.299146 
z
" clip-path="url(#p54a900060c)" style="fill: #138141; stroke: #ffffff; stroke-linejoin: miter"/>
   </g>
   <g id="patch_46">
    <path d="M 875.925 904.238451 
L 901.035 904.238451 
L 901.035 901.329494 
L 875.925 901.329494 
z
" clip-path="url(#p54a900060c)" style="fill: #138141; stroke: #ffffff; stroke-linejoin: miter"/>
   </g>
   <g id="patch_47">
    <path d="M 1001.475 904.238451 
L 1026.585 904.238451 
L 1026.585 903.996038 
L 1001.475 903.996038 
z
" clip-path="url(#p54a900060c)" style="fill: #138141; stroke: #ffffff; stroke-linejoin: miter"/>
   </g>
   <g id="patch_48">
    <path d="M 147.735 904.238451 
L 172.845 904.238451 
L 172.845 815.272839 
L 147.735 815.272839 
z
" clip-path="url(#p54a900060c)" style="fill: #1741a1; stroke: #ffffff; stroke-linejoin: miter"/>
   </g>
   <g id="patch_49">
    <path d="M 273.285 904.238451 
L 298.395 904.238451 
L 298.395 903.268799 
L 273.285 903.268799 
z
" clip-path="url(#p54a900060c)" style="fill: #1741a1; stroke: #ffffff; stroke-linejoin: miter"/>
   </g>
   <g id="patch_50">
    <path d="M 398.835 904.238451 
L 423.945 904.238451 
L 423.945 899.147776 
L 398.835 899.147776 
z
" clip-path="url(#p54a900060c)" style="fill: #1741a1; stroke: #ffffff; stroke-linejoin: miter"/>
   </g>
   <g id="patch_51">
    <path d="M 524.385 904.238451 
L 549.495 904.238451 
L 549.495 900.844668 
L 524.385 900.844668 
z
" clip-path="url(#p54a900060c)" style="fill: #1741a1; stroke: #ffffff; stroke-linejoin: miter"/>
   </g>
   <g id="patch_52">
    <path d="M 649.935 904.238451 
L 675.045 904.238451 
L 675.045 851.877219 
L 649.935 851.877219 
z
" clip-path="url(#p54a900060c)" style="fill: #1741a1; stroke: #ffffff; stroke-linejoin: miter"/>
   </g>
   <g id="patch_53">
    <path d="M 775.485 904.238451 
L 800.595 904.238451 
L 800.595 899.632602 
L 775.485 899.632602 
z
" clip-path="url(#p54a900060c)" style="fill: #1741a1; stroke: #ffffff; stroke-linejoin: miter"/>
   </g>
   <g id="patch_54">
    <path d="M 901.035 904.238451 
L 926.145 904.238451 
L 926.145 901.087081 
L 901.035 901.087081 
z
" clip-path="url(#p54a900060c)" style="fill: #1741a1; stroke: #ffffff; stroke-linejoin: miter"/>
   </g>
   <g id="patch_55">
    <path d="M 147.735 904.238451 
L 147.735 904.238451 
L 147.735 904.238451 
L 147.735 904.238451 
z
" clip-path="url(#p54a900060c)" style="fill: #138141; stroke: #ffffff; stroke-linejoin: miter"/>
   </g>
   <g id="patch_56">
    <path d="M 147.735 904.238451 
L 147.735 904.238451 
L 147.735 904.238451 
L 147.735 904.238451 
z
" clip-path="url(#p54a900060c)" style="fill: #1741a1; stroke: #ffffff; stroke-linejoin: miter"/>
   </g>
   <g id="patch_57">
    <path d="M 84.96 904.238451 
L 84.96 663.194973 
" style="fill: none; stroke: #cccccc; stroke-width: 1.25; stroke-linejoin: miter; stroke-linecap: square"/>
   </g>
   <g id="patch_58">
    <path d="M 84.96 904.238451 
L 1089.36 904.238451 
" style="fill: none; stroke: #cccccc; stroke-width: 1.25; stroke-linejoin: miter; stroke-linecap: square"/>
   </g>
   <g id="text_45">
    <!-- 384 -->
    <g style="fill: #262626" transform="translate(122.667891 808.19166) scale(0.15 -0.15)">
     <use xlink:href="#Arial-BoldMT-33"/>
     <use xlink:href="#Arial-BoldMT-38" transform="translate(55.615234 0)"/>
     <use xlink:href="#Arial-BoldMT-34" transform="translate(111.230469 0)"/>
    </g>
   </g>
   <g id="text_46">
    <!-- 75 -->
    <g style="fill: #262626" transform="translate(252.388594 883.097311) scale(0.15 -0.15)">
     <use xlink:href="#Arial-BoldMT-37"/>
     <use xlink:href="#Arial-BoldMT-35" transform="translate(55.615234 0)"/>
    </g>
   </g>
   <g id="text_47">
    <!-- 102 -->
    <g style="fill: #262626" transform="translate(373.767891 876.552157) scale(0.15 -0.15)">
     <use xlink:href="#Arial-BoldMT-31"/>
     <use xlink:href="#Arial-BoldMT-30" transform="translate(55.615234 0)"/>
     <use xlink:href="#Arial-BoldMT-32" transform="translate(111.230469 0)"/>
    </g>
   </g>
   <g id="text_48">
    <!-- 66 -->
    <g style="fill: #262626" transform="translate(503.488594 885.279029) scale(0.15 -0.15)">
     <use xlink:href="#Arial-BoldMT-36"/>
     <use xlink:href="#Arial-BoldMT-36" transform="translate(55.615234 0)"/>
    </g>
   </g>
   <g id="text_49">
    <!-- 52 -->
    <g style="fill: #262626" transform="translate(629.038594 888.672813) scale(0.15 -0.15)">
     <use xlink:href="#Arial-BoldMT-35"/>
     <use xlink:href="#Arial-BoldMT-32" transform="translate(55.615234 0)"/>
    </g>
   </g>
   <g id="text_50">
    <!-- 8 -->
    <g style="fill: #262626" transform="translate(758.759297 899.33899) scale(0.15 -0.15)">
     <use xlink:href="#Arial-BoldMT-38"/>
    </g>
   </g>
   <g id="text_51">
    <!-- 12 -->
    <g style="fill: #262626" transform="translate(880.138594 898.369337) scale(0.15 -0.15)">
     <use xlink:href="#Arial-BoldMT-31"/>
     <use xlink:href="#Arial-BoldMT-32" transform="translate(55.615234 0)"/>
    </g>
   </g>
   <g id="text_52">
    <!-- 1 -->
    <g style="fill: #262626" transform="translate(1009.859297 901.035882) scale(0.15 -0.15)">
     <use xlink:href="#Arial-BoldMT-31"/>
    </g>
   </g>
   <g id="text_53">
    <!-- 367 -->
    <g style="fill: #262626" transform="translate(147.777891 812.312683) scale(0.15 -0.15)">
     <use xlink:href="#Arial-BoldMT-33"/>
     <use xlink:href="#Arial-BoldMT-36" transform="translate(55.615234 0)"/>
     <use xlink:href="#Arial-BoldMT-37" transform="translate(111.230469 0)"/>
    </g>
   </g>
   <g id="text_54">
    <!-- 4 -->
    <g style="fill: #262626" transform="translate(281.669297 900.308642) scale(0.15 -0.15)">
     <use xlink:href="#Arial-BoldMT-34"/>
    </g>
   </g>
   <g id="text_55">
    <!-- 21 -->
    <g style="fill: #262626" transform="translate(403.048594 896.187619) scale(0.15 -0.15)">
     <use xlink:href="#Arial-BoldMT-32"/>
     <use xlink:href="#Arial-BoldMT-31" transform="translate(55.615234 0)"/>
    </g>
   </g>
   <g id="text_56">
    <!-- 14 -->
    <g style="fill: #262626" transform="translate(528.598594 897.884511) scale(0.15 -0.15)">
     <use xlink:href="#Arial-BoldMT-31"/>
     <use xlink:href="#Arial-BoldMT-34" transform="translate(55.615234 0)"/>
    </g>
   </g>
   <g id="text_57">
    <!-- 216 -->
    <g style="fill: #262626" transform="translate(649.977891 848.917063) scale(0.15 -0.15)">
     <use xlink:href="#Arial-BoldMT-32"/>
     <use xlink:href="#Arial-BoldMT-31" transform="translate(55.615234 0)"/>
     <use xlink:href="#Arial-BoldMT-36" transform="translate(111.230469 0)"/>
    </g>
   </g>
   <g id="text_58">
    <!-- 19 -->
    <g style="fill: #262626" transform="translate(779.698594 896.672446) scale(0.15 -0.15)">
     <use xlink:href="#Arial-BoldMT-31"/>
     <use xlink:href="#Arial-BoldMT-39" transform="translate(55.615234 0)"/>
    </g>
   </g>
   <g id="text_59">
    <!-- 13 -->
    <g style="fill: #262626" transform="translate(905.248594 898.126924) scale(0.15 -0.15)">
     <use xlink:href="#Arial-BoldMT-31"/>
     <use xlink:href="#Arial-BoldMT-33" transform="translate(55.615234 0)"/>
    </g>
   </g>
   <g id="text_60">
    <!-- CNN -->
    <g style="fill: #262626" transform="translate(576.327188 657.194973) scale(0.1 -0.1)">
     <defs>
      <path id="Arial-BoldMT-4e" d="M 475 0 
L 475 4581 
L 1375 4581 
L 3250 1522 
L 3250 4581 
L 4109 4581 
L 4109 0 
L 3181 0 
L 1334 2988 
L 1334 0 
L 475 0 
z
" transform="scale(0.015625)"/>
     </defs>
     <use xlink:href="#Arial-BoldMT-43"/>
     <use xlink:href="#Arial-BoldMT-4e" transform="translate(72.216797 0)"/>
     <use xlink:href="#Arial-BoldMT-4e" transform="translate(144.433594 0)"/>
    </g>
   </g>
  </g>
  <g id="axes_4">
   <g id="patch_59">
    <path d="M 84.96 1193.490625 
L 1089.36 1193.490625 
L 1089.36 952.447147 
L 84.96 952.447147 
z
" style="fill: #ffffff"/>
   </g>
   <g id="matplotlib.axis_7">
    <g id="xtick_25">
     <g id="text_61">
      <!-- Casualties -->
      <g style="fill: #262626" transform="translate(116.031205 1283.852705) rotate(-45) scale(0.2 -0.2)">
       <defs>
        <path id="Arial-BoldMT-61" d="M 1116 2306 
L 319 2450 
Q 453 2931 781 3162 
Q 1109 3394 1756 3394 
Q 2344 3394 2631 3255 
Q 2919 3116 3036 2902 
Q 3153 2688 3153 2116 
L 3144 1091 
Q 3144 653 3186 445 
Q 3228 238 3344 0 
L 2475 0 
Q 2441 88 2391 259 
Q 2369 338 2359 363 
Q 2134 144 1878 34 
Q 1622 -75 1331 -75 
Q 819 -75 523 203 
Q 228 481 228 906 
Q 228 1188 362 1408 
Q 497 1628 739 1745 
Q 981 1863 1438 1950 
Q 2053 2066 2291 2166 
L 2291 2253 
Q 2291 2506 2166 2614 
Q 2041 2722 1694 2722 
Q 1459 2722 1328 2630 
Q 1197 2538 1116 2306 
z
M 2291 1594 
Q 2122 1538 1756 1459 
Q 1391 1381 1278 1306 
Q 1106 1184 1106 997 
Q 1106 813 1243 678 
Q 1381 544 1594 544 
Q 1831 544 2047 700 
Q 2206 819 2256 991 
Q 2291 1103 2291 1419 
L 2291 1594 
z
" transform="scale(0.015625)"/>
        <path id="Arial-BoldMT-73" d="M 150 947 
L 1031 1081 
Q 1088 825 1259 692 
Q 1431 559 1741 559 
Q 2081 559 2253 684 
Q 2369 772 2369 919 
Q 2369 1019 2306 1084 
Q 2241 1147 2013 1200 
Q 950 1434 666 1628 
Q 272 1897 272 2375 
Q 272 2806 612 3100 
Q 953 3394 1669 3394 
Q 2350 3394 2681 3172 
Q 3013 2950 3138 2516 
L 2309 2363 
Q 2256 2556 2107 2659 
Q 1959 2763 1684 2763 
Q 1338 2763 1188 2666 
Q 1088 2597 1088 2488 
Q 1088 2394 1175 2328 
Q 1294 2241 1995 2081 
Q 2697 1922 2975 1691 
Q 3250 1456 3250 1038 
Q 3250 581 2869 253 
Q 2488 -75 1741 -75 
Q 1063 -75 667 200 
Q 272 475 150 947 
z
" transform="scale(0.015625)"/>
        <path id="Arial-BoldMT-75" d="M 2644 0 
L 2644 497 
Q 2463 231 2167 78 
Q 1872 -75 1544 -75 
Q 1209 -75 943 72 
Q 678 219 559 484 
Q 441 750 441 1219 
L 441 3319 
L 1319 3319 
L 1319 1794 
Q 1319 1094 1367 936 
Q 1416 778 1544 686 
Q 1672 594 1869 594 
Q 2094 594 2272 717 
Q 2450 841 2515 1023 
Q 2581 1206 2581 1919 
L 2581 3319 
L 3459 3319 
L 3459 0 
L 2644 0 
z
" transform="scale(0.015625)"/>
        <path id="Arial-BoldMT-6c" d="M 459 0 
L 459 4581 
L 1338 4581 
L 1338 0 
L 459 0 
z
" transform="scale(0.015625)"/>
        <path id="Arial-BoldMT-74" d="M 1981 3319 
L 1981 2619 
L 1381 2619 
L 1381 1281 
Q 1381 875 1398 808 
Q 1416 741 1477 697 
Q 1538 653 1625 653 
Q 1747 653 1978 738 
L 2053 56 
Q 1747 -75 1359 -75 
Q 1122 -75 931 4 
Q 741 84 652 211 
Q 563 338 528 553 
Q 500 706 500 1172 
L 500 2619 
L 97 2619 
L 97 3319 
L 500 3319 
L 500 3978 
L 1381 4491 
L 1381 3319 
L 1981 3319 
z
" transform="scale(0.015625)"/>
        <path id="Arial-BoldMT-69" d="M 459 3769 
L 459 4581 
L 1338 4581 
L 1338 3769 
L 459 3769 
z
M 459 0 
L 459 3319 
L 1338 3319 
L 1338 0 
L 459 0 
z
" transform="scale(0.015625)"/>
        <path id="Arial-BoldMT-65" d="M 2381 1056 
L 3256 909 
Q 3088 428 2723 176 
Q 2359 -75 1813 -75 
Q 947 -75 531 491 
Q 203 944 203 1634 
Q 203 2459 634 2926 
Q 1066 3394 1725 3394 
Q 2466 3394 2894 2905 
Q 3322 2416 3303 1406 
L 1103 1406 
Q 1113 1016 1316 798 
Q 1519 581 1822 581 
Q 2028 581 2168 693 
Q 2309 806 2381 1056 
z
M 2431 1944 
Q 2422 2325 2234 2523 
Q 2047 2722 1778 2722 
Q 1491 2722 1303 2513 
Q 1116 2303 1119 1944 
L 2431 1944 
z
" transform="scale(0.015625)"/>
       </defs>
       <use xlink:href="#Arial-BoldMT-43"/>
       <use xlink:href="#Arial-BoldMT-61" transform="translate(72.216797 0)"/>
       <use xlink:href="#Arial-BoldMT-73" transform="translate(127.832031 0)"/>
       <use xlink:href="#Arial-BoldMT-75" transform="translate(183.447266 0)"/>
       <use xlink:href="#Arial-BoldMT-61" transform="translate(244.53125 0)"/>
       <use xlink:href="#Arial-BoldMT-6c" transform="translate(300.146484 0)"/>
       <use xlink:href="#Arial-BoldMT-74" transform="translate(327.929688 0)"/>
       <use xlink:href="#Arial-BoldMT-69" transform="translate(361.230469 0)"/>
       <use xlink:href="#Arial-BoldMT-65" transform="translate(389.013672 0)"/>
       <use xlink:href="#Arial-BoldMT-73" transform="translate(444.628906 0)"/>
      </g>
     </g>
    </g>
    <g id="xtick_26">
     <g id="text_62">
      <!-- Deprivation, -->
      <g style="fill: #262626" transform="translate(220.956888 1294.832747) rotate(-45) scale(0.2 -0.2)">
       <defs>
        <path id="Arial-BoldMT-44" d="M 463 4581 
L 2153 4581 
Q 2725 4581 3025 4494 
Q 3428 4375 3715 4072 
Q 4003 3769 4153 3330 
Q 4303 2891 4303 2247 
Q 4303 1681 4163 1272 
Q 3991 772 3672 463 
Q 3431 228 3022 97 
Q 2716 0 2203 0 
L 463 0 
L 463 4581 
z
M 1388 3806 
L 1388 772 
L 2078 772 
Q 2466 772 2638 816 
Q 2863 872 3011 1006 
Q 3159 1141 3253 1448 
Q 3347 1756 3347 2288 
Q 3347 2819 3253 3103 
Q 3159 3388 2990 3547 
Q 2822 3706 2563 3763 
Q 2369 3806 1803 3806 
L 1388 3806 
z
" transform="scale(0.015625)"/>
        <path id="Arial-BoldMT-70" d="M 434 3319 
L 1253 3319 
L 1253 2831 
Q 1413 3081 1684 3237 
Q 1956 3394 2288 3394 
Q 2866 3394 3269 2941 
Q 3672 2488 3672 1678 
Q 3672 847 3265 386 
Q 2859 -75 2281 -75 
Q 2006 -75 1782 34 
Q 1559 144 1313 409 
L 1313 -1263 
L 434 -1263 
L 434 3319 
z
M 1303 1716 
Q 1303 1156 1525 889 
Q 1747 622 2066 622 
Q 2372 622 2575 867 
Q 2778 1113 2778 1672 
Q 2778 2194 2568 2447 
Q 2359 2700 2050 2700 
Q 1728 2700 1515 2451 
Q 1303 2203 1303 1716 
z
" transform="scale(0.015625)"/>
        <path id="Arial-BoldMT-72" d="M 1300 0 
L 422 0 
L 422 3319 
L 1238 3319 
L 1238 2847 
Q 1447 3181 1614 3287 
Q 1781 3394 1994 3394 
Q 2294 3394 2572 3228 
L 2300 2463 
Q 2078 2606 1888 2606 
Q 1703 2606 1575 2504 
Q 1447 2403 1373 2137 
Q 1300 1872 1300 1025 
L 1300 0 
z
" transform="scale(0.015625)"/>
        <path id="Arial-BoldMT-76" d="M 1372 0 
L 34 3319 
L 956 3319 
L 1581 1625 
L 1763 1059 
Q 1834 1275 1853 1344 
Q 1897 1484 1947 1625 
L 2578 3319 
L 3481 3319 
L 2163 0 
L 1372 0 
z
" transform="scale(0.015625)"/>
        <path id="Arial-BoldMT-6f" d="M 256 1706 
Q 256 2144 472 2553 
Q 688 2963 1083 3178 
Q 1478 3394 1966 3394 
Q 2719 3394 3200 2905 
Q 3681 2416 3681 1669 
Q 3681 916 3195 420 
Q 2709 -75 1972 -75 
Q 1516 -75 1102 131 
Q 688 338 472 736 
Q 256 1134 256 1706 
z
M 1156 1659 
Q 1156 1166 1390 903 
Q 1625 641 1969 641 
Q 2313 641 2545 903 
Q 2778 1166 2778 1666 
Q 2778 2153 2545 2415 
Q 2313 2678 1969 2678 
Q 1625 2678 1390 2415 
Q 1156 2153 1156 1659 
z
" transform="scale(0.015625)"/>
        <path id="Arial-BoldMT-6e" d="M 3478 0 
L 2600 0 
L 2600 1694 
Q 2600 2231 2544 2389 
Q 2488 2547 2361 2634 
Q 2234 2722 2056 2722 
Q 1828 2722 1647 2597 
Q 1466 2472 1398 2265 
Q 1331 2059 1331 1503 
L 1331 0 
L 453 0 
L 453 3319 
L 1269 3319 
L 1269 2831 
Q 1703 3394 2363 3394 
Q 2653 3394 2893 3289 
Q 3134 3184 3257 3021 
Q 3381 2859 3429 2653 
Q 3478 2447 3478 2063 
L 3478 0 
z
" transform="scale(0.015625)"/>
        <path id="Arial-BoldMT-2c" d="M 438 878 
L 1316 878 
L 1316 250 
Q 1316 -131 1250 -351 
Q 1184 -572 1001 -747 
Q 819 -922 538 -1022 
L 366 -659 
Q 631 -572 743 -419 
Q 856 -266 863 0 
L 438 0 
L 438 878 
z
" transform="scale(0.015625)"/>
       </defs>
       <use xlink:href="#Arial-BoldMT-44"/>
       <use xlink:href="#Arial-BoldMT-65" transform="translate(72.216797 0)"/>
       <use xlink:href="#Arial-BoldMT-70" transform="translate(127.832031 0)"/>
       <use xlink:href="#Arial-BoldMT-72" transform="translate(188.916016 0)"/>
       <use xlink:href="#Arial-BoldMT-69" transform="translate(227.832031 0)"/>
       <use xlink:href="#Arial-BoldMT-76" transform="translate(255.615234 0)"/>
       <use xlink:href="#Arial-BoldMT-61" transform="translate(311.230469 0)"/>
       <use xlink:href="#Arial-BoldMT-74" transform="translate(366.845703 0)"/>
       <use xlink:href="#Arial-BoldMT-69" transform="translate(400.146484 0)"/>
       <use xlink:href="#Arial-BoldMT-6f" transform="translate(427.929688 0)"/>
       <use xlink:href="#Arial-BoldMT-6e" transform="translate(489.013672 0)"/>
       <use xlink:href="#Arial-BoldMT-2c" transform="translate(550.097656 0)"/>
      </g>
      <!-- Malnutrition -->
      <g style="fill: #262626" transform="translate(236.302652 1309.363129) rotate(-45) scale(0.2 -0.2)">
       <defs>
        <path id="Arial-BoldMT-4d" d="M 453 0 
L 453 4581 
L 1838 4581 
L 2669 1456 
L 3491 4581 
L 4878 4581 
L 4878 0 
L 4019 0 
L 4019 3606 
L 3109 0 
L 2219 0 
L 1313 3606 
L 1313 0 
L 453 0 
z
" transform="scale(0.015625)"/>
       </defs>
       <use xlink:href="#Arial-BoldMT-4d"/>
       <use xlink:href="#Arial-BoldMT-61" transform="translate(83.300781 0)"/>
       <use xlink:href="#Arial-BoldMT-6c" transform="translate(138.916016 0)"/>
       <use xlink:href="#Arial-BoldMT-6e" transform="translate(166.699219 0)"/>
       <use xlink:href="#Arial-BoldMT-75" transform="translate(227.783203 0)"/>
       <use xlink:href="#Arial-BoldMT-74" transform="translate(288.867188 0)"/>
       <use xlink:href="#Arial-BoldMT-72" transform="translate(322.167969 0)"/>
       <use xlink:href="#Arial-BoldMT-69" transform="translate(361.083984 0)"/>
       <use xlink:href="#Arial-BoldMT-74" transform="translate(388.867188 0)"/>
       <use xlink:href="#Arial-BoldMT-69" transform="translate(422.167969 0)"/>
       <use xlink:href="#Arial-BoldMT-6f" transform="translate(449.951172 0)"/>
       <use xlink:href="#Arial-BoldMT-6e" transform="translate(511.035156 0)"/>
      </g>
      <!-- &amp; Hunger -->
      <g style="fill: #262626" transform="translate(260.080886 1315.874698) rotate(-45) scale(0.2 -0.2)">
       <defs>
        <path id="Arial-BoldMT-26" d="M 4519 559 
L 3988 -119 
Q 3597 72 3238 406 
Q 2959 156 2646 37 
Q 2334 -81 1903 -81 
Q 1047 -81 616 400 
Q 281 772 281 1256 
Q 281 1697 543 2048 
Q 806 2400 1328 2659 
Q 1094 2938 975 3189 
Q 856 3441 856 3666 
Q 856 4081 1189 4370 
Q 1522 4659 2138 4659 
Q 2731 4659 3065 4356 
Q 3400 4053 3400 3616 
Q 3400 3338 3234 3088 
Q 3069 2838 2566 2522 
L 3203 1681 
Q 3316 1881 3397 2203 
L 4191 2022 
Q 4072 1600 3984 1404 
Q 3897 1209 3797 1078 
Q 3944 941 4176 777 
Q 4409 613 4519 559 
z
M 2128 3050 
L 2366 3231 
Q 2628 3434 2628 3634 
Q 2628 3803 2501 3922 
Q 2375 4041 2159 4041 
Q 1950 4041 1831 3936 
Q 1713 3831 1713 3694 
Q 1713 3531 1913 3300 
L 2128 3050 
z
M 1784 2097 
Q 1481 1944 1331 1728 
Q 1181 1513 1181 1288 
Q 1181 1003 1367 823 
Q 1553 644 1866 644 
Q 2072 644 2262 725 
Q 2453 806 2678 994 
L 1784 2097 
z
" transform="scale(0.015625)"/>
        <path id="Arial-BoldMT-20" transform="scale(0.015625)"/>
        <path id="Arial-BoldMT-48" d="M 469 0 
L 469 4581 
L 1394 4581 
L 1394 2778 
L 3206 2778 
L 3206 4581 
L 4131 4581 
L 4131 0 
L 3206 0 
L 3206 2003 
L 1394 2003 
L 1394 0 
L 469 0 
z
" transform="scale(0.015625)"/>
        <path id="Arial-BoldMT-67" d="M 378 -219 
L 1381 -341 
Q 1406 -516 1497 -581 
Q 1622 -675 1891 -675 
Q 2234 -675 2406 -572 
Q 2522 -503 2581 -350 
Q 2622 -241 2622 53 
L 2622 538 
Q 2228 0 1628 0 
Q 959 0 569 566 
Q 263 1013 263 1678 
Q 263 2513 664 2953 
Q 1066 3394 1663 3394 
Q 2278 3394 2678 2853 
L 2678 3319 
L 3500 3319 
L 3500 341 
Q 3500 -247 3403 -537 
Q 3306 -828 3131 -993 
Q 2956 -1159 2664 -1253 
Q 2372 -1347 1925 -1347 
Q 1081 -1347 728 -1058 
Q 375 -769 375 -325 
Q 375 -281 378 -219 
z
M 1163 1728 
Q 1163 1200 1367 954 
Q 1572 709 1872 709 
Q 2194 709 2416 961 
Q 2638 1213 2638 1706 
Q 2638 2222 2425 2472 
Q 2213 2722 1888 2722 
Q 1572 2722 1367 2476 
Q 1163 2231 1163 1728 
z
" transform="scale(0.015625)"/>
       </defs>
       <use xlink:href="#Arial-BoldMT-26"/>
       <use xlink:href="#Arial-BoldMT-20" transform="translate(72.216797 0)"/>
       <use xlink:href="#Arial-BoldMT-48" transform="translate(100 0)"/>
       <use xlink:href="#Arial-BoldMT-75" transform="translate(172.216797 0)"/>
       <use xlink:href="#Arial-BoldMT-6e" transform="translate(233.300781 0)"/>
       <use xlink:href="#Arial-BoldMT-67" transform="translate(294.384766 0)"/>
       <use xlink:href="#Arial-BoldMT-65" transform="translate(355.46875 0)"/>
       <use xlink:href="#Arial-BoldMT-72" transform="translate(411.083984 0)"/>
      </g>
     </g>
    </g>
    <g id="xtick_27">
     <g id="text_63">
      <!-- Displacement -->
      <g style="fill: #262626" transform="translate(348.859344 1305.065908) rotate(-45) scale(0.2 -0.2)">
       <defs>
        <path id="Arial-BoldMT-63" d="M 3353 2338 
L 2488 2181 
Q 2444 2441 2289 2572 
Q 2134 2703 1888 2703 
Q 1559 2703 1364 2476 
Q 1169 2250 1169 1719 
Q 1169 1128 1367 884 
Q 1566 641 1900 641 
Q 2150 641 2309 783 
Q 2469 925 2534 1272 
L 3397 1125 
Q 3263 531 2881 228 
Q 2500 -75 1859 -75 
Q 1131 -75 698 384 
Q 266 844 266 1656 
Q 266 2478 700 2936 
Q 1134 3394 1875 3394 
Q 2481 3394 2839 3133 
Q 3197 2872 3353 2338 
z
" transform="scale(0.015625)"/>
        <path id="Arial-BoldMT-6d" d="M 394 3319 
L 1203 3319 
L 1203 2866 
Q 1638 3394 2238 3394 
Q 2556 3394 2790 3262 
Q 3025 3131 3175 2866 
Q 3394 3131 3647 3262 
Q 3900 3394 4188 3394 
Q 4553 3394 4806 3245 
Q 5059 3097 5184 2809 
Q 5275 2597 5275 2122 
L 5275 0 
L 4397 0 
L 4397 1897 
Q 4397 2391 4306 2534 
Q 4184 2722 3931 2722 
Q 3747 2722 3584 2609 
Q 3422 2497 3350 2280 
Q 3278 2063 3278 1594 
L 3278 0 
L 2400 0 
L 2400 1819 
Q 2400 2303 2353 2443 
Q 2306 2584 2207 2653 
Q 2109 2722 1941 2722 
Q 1738 2722 1575 2612 
Q 1413 2503 1342 2297 
Q 1272 2091 1272 1613 
L 1272 0 
L 394 0 
L 394 3319 
z
" transform="scale(0.015625)"/>
       </defs>
       <use xlink:href="#Arial-BoldMT-44"/>
       <use xlink:href="#Arial-BoldMT-69" transform="translate(72.216797 0)"/>
       <use xlink:href="#Arial-BoldMT-73" transform="translate(100 0)"/>
       <use xlink:href="#Arial-BoldMT-70" transform="translate(155.615234 0)"/>
       <use xlink:href="#Arial-BoldMT-6c" transform="translate(216.699219 0)"/>
       <use xlink:href="#Arial-BoldMT-61" transform="translate(244.482422 0)"/>
       <use xlink:href="#Arial-BoldMT-63" transform="translate(300.097656 0)"/>
       <use xlink:href="#Arial-BoldMT-65" transform="translate(355.712891 0)"/>
       <use xlink:href="#Arial-BoldMT-6d" transform="translate(411.328125 0)"/>
       <use xlink:href="#Arial-BoldMT-65" transform="translate(500.244141 0)"/>
       <use xlink:href="#Arial-BoldMT-6e" transform="translate(555.859375 0)"/>
       <use xlink:href="#Arial-BoldMT-74" transform="translate(616.943359 0)"/>
      </g>
      <!-- &amp; Refugees -->
      <g style="fill: #262626" transform="translate(371.081943 1313.133113) rotate(-45) scale(0.2 -0.2)">
       <defs>
        <path id="Arial-BoldMT-52" d="M 469 0 
L 469 4581 
L 2416 4581 
Q 3150 4581 3483 4457 
Q 3816 4334 4016 4018 
Q 4216 3703 4216 3297 
Q 4216 2781 3912 2445 
Q 3609 2109 3006 2022 
Q 3306 1847 3501 1637 
Q 3697 1428 4028 894 
L 4588 0 
L 3481 0 
L 2813 997 
Q 2456 1531 2325 1670 
Q 2194 1809 2047 1861 
Q 1900 1913 1581 1913 
L 1394 1913 
L 1394 0 
L 469 0 
z
M 1394 2644 
L 2078 2644 
Q 2744 2644 2909 2700 
Q 3075 2756 3169 2893 
Q 3263 3031 3263 3238 
Q 3263 3469 3139 3611 
Q 3016 3753 2791 3791 
Q 2678 3806 2116 3806 
L 1394 3806 
L 1394 2644 
z
" transform="scale(0.015625)"/>
        <path id="Arial-BoldMT-66" d="M 75 3319 
L 563 3319 
L 563 3569 
Q 563 3988 652 4194 
Q 741 4400 980 4529 
Q 1219 4659 1584 4659 
Q 1959 4659 2319 4547 
L 2200 3934 
Q 1991 3984 1797 3984 
Q 1606 3984 1523 3895 
Q 1441 3806 1441 3553 
L 1441 3319 
L 2097 3319 
L 2097 2628 
L 1441 2628 
L 1441 0 
L 563 0 
L 563 2628 
L 75 2628 
L 75 3319 
z
" transform="scale(0.015625)"/>
       </defs>
       <use xlink:href="#Arial-BoldMT-26"/>
       <use xlink:href="#Arial-BoldMT-20" transform="translate(72.216797 0)"/>
       <use xlink:href="#Arial-BoldMT-52" transform="translate(100 0)"/>
       <use xlink:href="#Arial-BoldMT-65" transform="translate(172.216797 0)"/>
       <use xlink:href="#Arial-BoldMT-66" transform="translate(227.832031 0)"/>
       <use xlink:href="#Arial-BoldMT-75" transform="translate(261.132812 0)"/>
       <use xlink:href="#Arial-BoldMT-67" transform="translate(322.216797 0)"/>
       <use xlink:href="#Arial-BoldMT-65" transform="translate(383.300781 0)"/>
       <use xlink:href="#Arial-BoldMT-65" transform="translate(438.916016 0)"/>
       <use xlink:href="#Arial-BoldMT-73" transform="translate(494.53125 0)"/>
      </g>
     </g>
    </g>
    <g id="xtick_28">
     <g id="text_64">
      <!-- Health -->
      <g style="fill: #262626" transform="translate(491.504093 1271.63854) rotate(-45) scale(0.2 -0.2)">
       <defs>
        <path id="Arial-BoldMT-68" d="M 1334 4581 
L 1334 2897 
Q 1759 3394 2350 3394 
Q 2653 3394 2897 3281 
Q 3141 3169 3264 2994 
Q 3388 2819 3433 2606 
Q 3478 2394 3478 1947 
L 3478 0 
L 2600 0 
L 2600 1753 
Q 2600 2275 2550 2415 
Q 2500 2556 2373 2639 
Q 2247 2722 2056 2722 
Q 1838 2722 1666 2615 
Q 1494 2509 1414 2295 
Q 1334 2081 1334 1663 
L 1334 0 
L 456 0 
L 456 4581 
L 1334 4581 
z
" transform="scale(0.015625)"/>
       </defs>
       <use xlink:href="#Arial-BoldMT-48"/>
       <use xlink:href="#Arial-BoldMT-65" transform="translate(72.216797 0)"/>
       <use xlink:href="#Arial-BoldMT-61" transform="translate(127.832031 0)"/>
       <use xlink:href="#Arial-BoldMT-6c" transform="translate(183.447266 0)"/>
       <use xlink:href="#Arial-BoldMT-74" transform="translate(211.230469 0)"/>
       <use xlink:href="#Arial-BoldMT-68" transform="translate(244.53125 0)"/>
      </g>
      <!-- &amp; Medical -->
      <g style="fill: #262626" transform="translate(495.045593 1297.973185) rotate(-45) scale(0.2 -0.2)">
       <defs>
        <path id="Arial-BoldMT-64" d="M 3503 0 
L 2688 0 
L 2688 488 
Q 2484 203 2207 64 
Q 1931 -75 1650 -75 
Q 1078 -75 670 386 
Q 263 847 263 1672 
Q 263 2516 659 2955 
Q 1056 3394 1663 3394 
Q 2219 3394 2625 2931 
L 2625 4581 
L 3503 4581 
L 3503 0 
z
M 1159 1731 
Q 1159 1200 1306 963 
Q 1519 619 1900 619 
Q 2203 619 2415 876 
Q 2628 1134 2628 1647 
Q 2628 2219 2422 2470 
Q 2216 2722 1894 2722 
Q 1581 2722 1370 2473 
Q 1159 2225 1159 1731 
z
" transform="scale(0.015625)"/>
       </defs>
       <use xlink:href="#Arial-BoldMT-26"/>
       <use xlink:href="#Arial-BoldMT-20" transform="translate(72.216797 0)"/>
       <use xlink:href="#Arial-BoldMT-4d" transform="translate(100 0)"/>
       <use xlink:href="#Arial-BoldMT-65" transform="translate(183.300781 0)"/>
       <use xlink:href="#Arial-BoldMT-64" transform="translate(238.916016 0)"/>
       <use xlink:href="#Arial-BoldMT-69" transform="translate(300 0)"/>
       <use xlink:href="#Arial-BoldMT-63" transform="translate(327.783203 0)"/>
       <use xlink:href="#Arial-BoldMT-61" transform="translate(383.398438 0)"/>
       <use xlink:href="#Arial-BoldMT-6c" transform="translate(439.013672 0)"/>
      </g>
      <!-- Conditions -->
      <g style="fill: #262626" transform="translate(506.072481 1316.822442) rotate(-45) scale(0.2 -0.2)">
       <use xlink:href="#Arial-BoldMT-43"/>
       <use xlink:href="#Arial-BoldMT-6f" transform="translate(72.216797 0)"/>
       <use xlink:href="#Arial-BoldMT-6e" transform="translate(133.300781 0)"/>
       <use xlink:href="#Arial-BoldMT-64" transform="translate(194.384766 0)"/>
       <use xlink:href="#Arial-BoldMT-69" transform="translate(255.46875 0)"/>
       <use xlink:href="#Arial-BoldMT-74" transform="translate(283.251953 0)"/>
       <use xlink:href="#Arial-BoldMT-69" transform="translate(316.552734 0)"/>
       <use xlink:href="#Arial-BoldMT-6f" transform="translate(344.335938 0)"/>
       <use xlink:href="#Arial-BoldMT-6e" transform="translate(405.419922 0)"/>
       <use xlink:href="#Arial-BoldMT-73" transform="translate(466.503906 0)"/>
      </g>
     </g>
    </g>
    <g id="xtick_29">
     <g id="text_65">
      <!-- Imprisonment -->
      <g style="fill: #262626" transform="translate(599.381064 1306.614914) rotate(-45) scale(0.2 -0.2)">
       <defs>
        <path id="Arial-BoldMT-49" d="M 438 0 
L 438 4581 
L 1363 4581 
L 1363 0 
L 438 0 
z
" transform="scale(0.015625)"/>
       </defs>
       <use xlink:href="#Arial-BoldMT-49"/>
       <use xlink:href="#Arial-BoldMT-6d" transform="translate(27.783203 0)"/>
       <use xlink:href="#Arial-BoldMT-70" transform="translate(116.699219 0)"/>
       <use xlink:href="#Arial-BoldMT-72" transform="translate(177.783203 0)"/>
       <use xlink:href="#Arial-BoldMT-69" transform="translate(216.699219 0)"/>
       <use xlink:href="#Arial-BoldMT-73" transform="translate(244.482422 0)"/>
       <use xlink:href="#Arial-BoldMT-6f" transform="translate(300.097656 0)"/>
       <use xlink:href="#Arial-BoldMT-6e" transform="translate(361.181641 0)"/>
       <use xlink:href="#Arial-BoldMT-6d" transform="translate(422.265625 0)"/>
       <use xlink:href="#Arial-BoldMT-65" transform="translate(511.181641 0)"/>
       <use xlink:href="#Arial-BoldMT-6e" transform="translate(566.796875 0)"/>
       <use xlink:href="#Arial-BoldMT-74" transform="translate(627.880859 0)"/>
      </g>
      <!-- &amp; Detention -->
      <g style="fill: #262626" transform="translate(621.397938 1314.474185) rotate(-45) scale(0.2 -0.2)">
       <use xlink:href="#Arial-BoldMT-26"/>
       <use xlink:href="#Arial-BoldMT-20" transform="translate(72.216797 0)"/>
       <use xlink:href="#Arial-BoldMT-44" transform="translate(100 0)"/>
       <use xlink:href="#Arial-BoldMT-65" transform="translate(172.216797 0)"/>
       <use xlink:href="#Arial-BoldMT-74" transform="translate(227.832031 0)"/>
       <use xlink:href="#Arial-BoldMT-65" transform="translate(261.132812 0)"/>
       <use xlink:href="#Arial-BoldMT-6e" transform="translate(316.748047 0)"/>
       <use xlink:href="#Arial-BoldMT-74" transform="translate(377.832031 0)"/>
       <use xlink:href="#Arial-BoldMT-69" transform="translate(411.132812 0)"/>
       <use xlink:href="#Arial-BoldMT-6f" transform="translate(438.916016 0)"/>
       <use xlink:href="#Arial-BoldMT-6e" transform="translate(500 0)"/>
      </g>
     </g>
    </g>
    <g id="xtick_30">
     <g id="text_66">
      <!-- Missing -->
      <g style="fill: #262626" transform="translate(752.737154 1265.755191) rotate(-45) scale(0.2 -0.2)">
       <use xlink:href="#Arial-BoldMT-4d"/>
       <use xlink:href="#Arial-BoldMT-69" transform="translate(83.300781 0)"/>
       <use xlink:href="#Arial-BoldMT-73" transform="translate(111.083984 0)"/>
       <use xlink:href="#Arial-BoldMT-73" transform="translate(166.699219 0)"/>
       <use xlink:href="#Arial-BoldMT-69" transform="translate(222.314453 0)"/>
       <use xlink:href="#Arial-BoldMT-6e" transform="translate(250.097656 0)"/>
       <use xlink:href="#Arial-BoldMT-67" transform="translate(311.181641 0)"/>
      </g>
     </g>
    </g>
    <g id="xtick_31">
     <g id="text_67">
      <!-- Vulnerable -->
      <g style="fill: #262626" transform="translate(853.773751 1284.884639) rotate(-45) scale(0.2 -0.2)">
       <defs>
        <path id="Arial-BoldMT-56" d="M 1634 0 
L -3 4581 
L 1000 4581 
L 2159 1191 
L 3281 4581 
L 4263 4581 
L 2622 0 
L 1634 0 
z
" transform="scale(0.015625)"/>
        <path id="Arial-BoldMT-62" d="M 422 0 
L 422 4581 
L 1300 4581 
L 1300 2931 
Q 1706 3394 2263 3394 
Q 2869 3394 3266 2955 
Q 3663 2516 3663 1694 
Q 3663 844 3258 384 
Q 2853 -75 2275 -75 
Q 1991 -75 1714 67 
Q 1438 209 1238 488 
L 1238 0 
L 422 0 
z
M 1294 1731 
Q 1294 1216 1456 969 
Q 1684 619 2063 619 
Q 2353 619 2558 867 
Q 2763 1116 2763 1650 
Q 2763 2219 2556 2470 
Q 2350 2722 2028 2722 
Q 1713 2722 1503 2476 
Q 1294 2231 1294 1731 
z
" transform="scale(0.015625)"/>
       </defs>
       <use xlink:href="#Arial-BoldMT-56"/>
       <use xlink:href="#Arial-BoldMT-75" transform="translate(62.949219 0)"/>
       <use xlink:href="#Arial-BoldMT-6c" transform="translate(124.033203 0)"/>
       <use xlink:href="#Arial-BoldMT-6e" transform="translate(151.816406 0)"/>
       <use xlink:href="#Arial-BoldMT-65" transform="translate(212.900391 0)"/>
       <use xlink:href="#Arial-BoldMT-72" transform="translate(268.515625 0)"/>
       <use xlink:href="#Arial-BoldMT-61" transform="translate(307.431641 0)"/>
       <use xlink:href="#Arial-BoldMT-62" transform="translate(363.046875 0)"/>
       <use xlink:href="#Arial-BoldMT-6c" transform="translate(424.130859 0)"/>
       <use xlink:href="#Arial-BoldMT-65" transform="translate(451.914062 0)"/>
      </g>
      <!-- &amp; Affected -->
      <g style="fill: #262626" transform="translate(869.506213 1299.028321) rotate(-45) scale(0.2 -0.2)">
       <use xlink:href="#Arial-BoldMT-26"/>
       <use xlink:href="#Arial-BoldMT-20" transform="translate(72.216797 0)"/>
       <use xlink:href="#Arial-BoldMT-41" transform="translate(96.25 0)"/>
       <use xlink:href="#Arial-BoldMT-66" transform="translate(168.466797 0)"/>
       <use xlink:href="#Arial-BoldMT-66" transform="translate(201.767578 0)"/>
       <use xlink:href="#Arial-BoldMT-65" transform="translate(235.068359 0)"/>
       <use xlink:href="#Arial-BoldMT-63" transform="translate(290.683594 0)"/>
       <use xlink:href="#Arial-BoldMT-74" transform="translate(346.298828 0)"/>
       <use xlink:href="#Arial-BoldMT-65" transform="translate(379.599609 0)"/>
       <use xlink:href="#Arial-BoldMT-64" transform="translate(435.214844 0)"/>
      </g>
      <!-- Groups -->
      <g style="fill: #262626" transform="translate(894.601433 1304.222904) rotate(-45) scale(0.2 -0.2)">
       <defs>
        <path id="Arial-BoldMT-47" d="M 2597 1684 
L 2597 2456 
L 4591 2456 
L 4591 631 
Q 4300 350 3748 136 
Q 3197 -78 2631 -78 
Q 1913 -78 1378 223 
Q 844 525 575 1086 
Q 306 1647 306 2306 
Q 306 3022 606 3578 
Q 906 4134 1484 4431 
Q 1925 4659 2581 4659 
Q 3434 4659 3914 4301 
Q 4394 3944 4531 3313 
L 3613 3141 
Q 3516 3478 3248 3673 
Q 2981 3869 2581 3869 
Q 1975 3869 1617 3484 
Q 1259 3100 1259 2344 
Q 1259 1528 1621 1120 
Q 1984 713 2572 713 
Q 2863 713 3155 827 
Q 3447 941 3656 1103 
L 3656 1684 
L 2597 1684 
z
" transform="scale(0.015625)"/>
       </defs>
       <use xlink:href="#Arial-BoldMT-47"/>
       <use xlink:href="#Arial-BoldMT-72" transform="translate(77.783203 0)"/>
       <use xlink:href="#Arial-BoldMT-6f" transform="translate(116.699219 0)"/>
       <use xlink:href="#Arial-BoldMT-75" transform="translate(177.783203 0)"/>
       <use xlink:href="#Arial-BoldMT-70" transform="translate(238.867188 0)"/>
       <use xlink:href="#Arial-BoldMT-73" transform="translate(299.951172 0)"/>
      </g>
     </g>
    </g>
    <g id="xtick_32">
     <g id="text_68">
      <!-- Humanitarian -->
      <g style="fill: #262626" transform="translate(970.026401 1307.410409) rotate(-45) scale(0.2 -0.2)">
       <use xlink:href="#Arial-BoldMT-48"/>
       <use xlink:href="#Arial-BoldMT-75" transform="translate(72.216797 0)"/>
       <use xlink:href="#Arial-BoldMT-6d" transform="translate(133.300781 0)"/>
       <use xlink:href="#Arial-BoldMT-61" transform="translate(222.216797 0)"/>
       <use xlink:href="#Arial-BoldMT-6e" transform="translate(277.832031 0)"/>
       <use xlink:href="#Arial-BoldMT-69" transform="translate(338.916016 0)"/>
       <use xlink:href="#Arial-BoldMT-74" transform="translate(366.699219 0)"/>
       <use xlink:href="#Arial-BoldMT-61" transform="translate(400 0)"/>
       <use xlink:href="#Arial-BoldMT-72" transform="translate(455.615234 0)"/>
       <use xlink:href="#Arial-BoldMT-69" transform="translate(494.53125 0)"/>
       <use xlink:href="#Arial-BoldMT-61" transform="translate(522.314453 0)"/>
       <use xlink:href="#Arial-BoldMT-6e" transform="translate(577.929688 0)"/>
      </g>
      <!-- Aid -->
      <g style="fill: #262626" transform="translate(1018.757549 1288.555407) rotate(-45) scale(0.2 -0.2)">
       <use xlink:href="#Arial-BoldMT-41"/>
       <use xlink:href="#Arial-BoldMT-69" transform="translate(72.216797 0)"/>
       <use xlink:href="#Arial-BoldMT-64" transform="translate(100 0)"/>
      </g>
      <!-- &amp; Dependence -->
      <g style="fill: #262626" transform="translate(996.178304 1341.424455) rotate(-45) scale(0.2 -0.2)">
       <use xlink:href="#Arial-BoldMT-26"/>
       <use xlink:href="#Arial-BoldMT-20" transform="translate(72.216797 0)"/>
       <use xlink:href="#Arial-BoldMT-44" transform="translate(100 0)"/>
       <use xlink:href="#Arial-BoldMT-65" transform="translate(172.216797 0)"/>
       <use xlink:href="#Arial-BoldMT-70" transform="translate(227.832031 0)"/>
       <use xlink:href="#Arial-BoldMT-65" transform="translate(288.916016 0)"/>
       <use xlink:href="#Arial-BoldMT-6e" transform="translate(344.53125 0)"/>
       <use xlink:href="#Arial-BoldMT-64" transform="translate(405.615234 0)"/>
       <use xlink:href="#Arial-BoldMT-65" transform="translate(466.699219 0)"/>
       <use xlink:href="#Arial-BoldMT-6e" transform="translate(522.314453 0)"/>
       <use xlink:href="#Arial-BoldMT-63" transform="translate(583.398438 0)"/>
       <use xlink:href="#Arial-BoldMT-65" transform="translate(639.013672 0)"/>
      </g>
     </g>
    </g>
    <g id="text_69">
     <!-- Individual Instance Hardship Label -->
     <g style="fill: #262626" transform="translate(380.884609 1382.109848) scale(0.25 -0.25)">
      <defs>
       <path id="Arial-BoldMT-4c" d="M 491 0 
L 491 4544 
L 1416 4544 
L 1416 772 
L 3716 772 
L 3716 0 
L 491 0 
z
" transform="scale(0.015625)"/>
      </defs>
      <use xlink:href="#Arial-BoldMT-49"/>
      <use xlink:href="#Arial-BoldMT-6e" transform="translate(27.783203 0)"/>
      <use xlink:href="#Arial-BoldMT-64" transform="translate(88.867188 0)"/>
      <use xlink:href="#Arial-BoldMT-69" transform="translate(149.951172 0)"/>
      <use xlink:href="#Arial-BoldMT-76" transform="translate(177.734375 0)"/>
      <use xlink:href="#Arial-BoldMT-69" transform="translate(233.349609 0)"/>
      <use xlink:href="#Arial-BoldMT-64" transform="translate(261.132812 0)"/>
      <use xlink:href="#Arial-BoldMT-75" transform="translate(322.216797 0)"/>
      <use xlink:href="#Arial-BoldMT-61" transform="translate(383.300781 0)"/>
      <use xlink:href="#Arial-BoldMT-6c" transform="translate(438.916016 0)"/>
      <use xlink:href="#Arial-BoldMT-20" transform="translate(466.699219 0)"/>
      <use xlink:href="#Arial-BoldMT-49" transform="translate(494.482422 0)"/>
      <use xlink:href="#Arial-BoldMT-6e" transform="translate(522.265625 0)"/>
      <use xlink:href="#Arial-BoldMT-73" transform="translate(583.349609 0)"/>
      <use xlink:href="#Arial-BoldMT-74" transform="translate(638.964844 0)"/>
      <use xlink:href="#Arial-BoldMT-61" transform="translate(672.265625 0)"/>
      <use xlink:href="#Arial-BoldMT-6e" transform="translate(727.880859 0)"/>
      <use xlink:href="#Arial-BoldMT-63" transform="translate(788.964844 0)"/>
      <use xlink:href="#Arial-BoldMT-65" transform="translate(844.580078 0)"/>
      <use xlink:href="#Arial-BoldMT-20" transform="translate(900.195312 0)"/>
      <use xlink:href="#Arial-BoldMT-48" transform="translate(927.978516 0)"/>
      <use xlink:href="#Arial-BoldMT-61" transform="translate(1000.195312 0)"/>
      <use xlink:href="#Arial-BoldMT-72" transform="translate(1055.810547 0)"/>
      <use xlink:href="#Arial-BoldMT-64" transform="translate(1094.726562 0)"/>
      <use xlink:href="#Arial-BoldMT-73" transform="translate(1155.810547 0)"/>
      <use xlink:href="#Arial-BoldMT-68" transform="translate(1211.425781 0)"/>
      <use xlink:href="#Arial-BoldMT-69" transform="translate(1272.509766 0)"/>
      <use xlink:href="#Arial-BoldMT-70" transform="translate(1300.292969 0)"/>
      <use xlink:href="#Arial-BoldMT-20" transform="translate(1361.376953 0)"/>
      <use xlink:href="#Arial-BoldMT-4c" transform="translate(1389.160156 0)"/>
      <use xlink:href="#Arial-BoldMT-61" transform="translate(1450.244141 0)"/>
      <use xlink:href="#Arial-BoldMT-62" transform="translate(1505.859375 0)"/>
      <use xlink:href="#Arial-BoldMT-65" transform="translate(1566.943359 0)"/>
      <use xlink:href="#Arial-BoldMT-6c" transform="translate(1622.558594 0)"/>
     </g>
    </g>
   </g>
   <g id="matplotlib.axis_8">
    <g id="ytick_16">
     <g id="text_70">
      <!-- 0 -->
      <g style="fill: #262626" transform="translate(65.450312 1199.932656) scale(0.18 -0.18)">
       <use xlink:href="#ArialMT-30"/>
      </g>
     </g>
    </g>
    <g id="ytick_17">
     <g id="text_71">
      <!-- 200 -->
      <g style="fill: #262626" transform="translate(45.430937 1151.450034) scale(0.18 -0.18)">
       <use xlink:href="#ArialMT-32"/>
       <use xlink:href="#ArialMT-30" transform="translate(55.615234 0)"/>
       <use xlink:href="#ArialMT-30" transform="translate(111.230469 0)"/>
      </g>
     </g>
    </g>
    <g id="ytick_18">
     <g id="text_72">
      <!-- 400 -->
      <g style="fill: #262626" transform="translate(45.430937 1102.967411) scale(0.18 -0.18)">
       <use xlink:href="#ArialMT-34"/>
       <use xlink:href="#ArialMT-30" transform="translate(55.615234 0)"/>
       <use xlink:href="#ArialMT-30" transform="translate(111.230469 0)"/>
      </g>
     </g>
    </g>
    <g id="ytick_19">
     <g id="text_73">
      <!-- 600 -->
      <g style="fill: #262626" transform="translate(45.430937 1054.484789) scale(0.18 -0.18)">
       <use xlink:href="#ArialMT-36"/>
       <use xlink:href="#ArialMT-30" transform="translate(55.615234 0)"/>
       <use xlink:href="#ArialMT-30" transform="translate(111.230469 0)"/>
      </g>
     </g>
    </g>
    <g id="ytick_20">
     <g id="text_74">
      <!-- 800 -->
      <g style="fill: #262626" transform="translate(45.430937 1006.002166) scale(0.18 -0.18)">
       <use xlink:href="#ArialMT-38"/>
       <use xlink:href="#ArialMT-30" transform="translate(55.615234 0)"/>
       <use xlink:href="#ArialMT-30" transform="translate(111.230469 0)"/>
      </g>
     </g>
    </g>
   </g>
   <g id="patch_60">
    <path d="M 122.625 1193.490625 
L 147.735 1193.490625 
L 147.735 1028.649709 
L 122.625 1028.649709 
z
" clip-path="url(#pce7df7c65f)" style="fill: #138141; stroke: #ffffff; stroke-linejoin: miter"/>
   </g>
   <g id="patch_61">
    <path d="M 248.175 1193.490625 
L 273.285 1193.490625 
L 273.285 1151.06833 
L 248.175 1151.06833 
z
" clip-path="url(#pce7df7c65f)" style="fill: #138141; stroke: #ffffff; stroke-linejoin: miter"/>
   </g>
   <g id="patch_62">
    <path d="M 373.725 1193.490625 
L 398.835 1193.490625 
L 398.835 1137.250783 
L 373.725 1137.250783 
z
" clip-path="url(#pce7df7c65f)" style="fill: #138141; stroke: #ffffff; stroke-linejoin: miter"/>
   </g>
   <g id="patch_63">
    <path d="M 499.275 1193.490625 
L 524.385 1193.490625 
L 524.385 1174.339989 
L 499.275 1174.339989 
z
" clip-path="url(#pce7df7c65f)" style="fill: #138141; stroke: #ffffff; stroke-linejoin: miter"/>
   </g>
   <g id="patch_64">
    <path d="M 624.825 1193.490625 
L 649.935 1193.490625 
L 649.935 1178.461012 
L 624.825 1178.461012 
z
" clip-path="url(#pce7df7c65f)" style="fill: #138141; stroke: #ffffff; stroke-linejoin: miter"/>
   </g>
   <g id="patch_65">
    <path d="M 750.375 1193.490625 
L 775.485 1193.490625 
L 775.485 1193.248212 
L 750.375 1193.248212 
z
" clip-path="url(#pce7df7c65f)" style="fill: #138141; stroke: #ffffff; stroke-linejoin: miter"/>
   </g>
   <g id="patch_66">
    <path d="M 875.925 1193.490625 
L 901.035 1193.490625 
L 901.035 1185.975819 
L 875.925 1185.975819 
z
" clip-path="url(#pce7df7c65f)" style="fill: #138141; stroke: #ffffff; stroke-linejoin: miter"/>
   </g>
   <g id="patch_67">
    <path d="M 147.735 1193.490625 
L 172.845 1193.490625 
L 172.845 990.59085 
L 147.735 990.59085 
z
" clip-path="url(#pce7df7c65f)" style="fill: #1741a1; stroke: #ffffff; stroke-linejoin: miter"/>
   </g>
   <g id="patch_68">
    <path d="M 273.285 1193.490625 
L 298.395 1193.490625 
L 298.395 1192.520973 
L 273.285 1192.520973 
z
" clip-path="url(#pce7df7c65f)" style="fill: #1741a1; stroke: #ffffff; stroke-linejoin: miter"/>
   </g>
   <g id="patch_69">
    <path d="M 398.835 1193.490625 
L 423.945 1193.490625 
L 423.945 1180.400317 
L 398.835 1180.400317 
z
" clip-path="url(#pce7df7c65f)" style="fill: #1741a1; stroke: #ffffff; stroke-linejoin: miter"/>
   </g>
   <g id="patch_70">
    <path d="M 524.385 1193.490625 
L 549.495 1193.490625 
L 549.495 1186.218232 
L 524.385 1186.218232 
z
" clip-path="url(#pce7df7c65f)" style="fill: #1741a1; stroke: #ffffff; stroke-linejoin: miter"/>
   </g>
   <g id="patch_71">
    <path d="M 649.935 1193.490625 
L 675.045 1193.490625 
L 675.045 1057.981695 
L 649.935 1057.981695 
z
" clip-path="url(#pce7df7c65f)" style="fill: #1741a1; stroke: #ffffff; stroke-linejoin: miter"/>
   </g>
   <g id="patch_72">
    <path d="M 775.485 1193.490625 
L 800.595 1193.490625 
L 800.595 1181.854796 
L 775.485 1181.854796 
z
" clip-path="url(#pce7df7c65f)" style="fill: #1741a1; stroke: #ffffff; stroke-linejoin: miter"/>
   </g>
   <g id="patch_73">
    <path d="M 901.035 1193.490625 
L 926.145 1193.490625 
L 926.145 1185.248579 
L 901.035 1185.248579 
z
" clip-path="url(#pce7df7c65f)" style="fill: #1741a1; stroke: #ffffff; stroke-linejoin: miter"/>
   </g>
   <g id="patch_74">
    <path d="M 1026.585 1193.490625 
L 1051.695 1193.490625 
L 1051.695 1193.248212 
L 1026.585 1193.248212 
z
" clip-path="url(#pce7df7c65f)" style="fill: #1741a1; stroke: #ffffff; stroke-linejoin: miter"/>
   </g>
   <g id="patch_75">
    <path d="M 147.735 1193.490625 
L 147.735 1193.490625 
L 147.735 1193.490625 
L 147.735 1193.490625 
z
" clip-path="url(#pce7df7c65f)" style="fill: #138141; stroke: #ffffff; stroke-linejoin: miter"/>
   </g>
   <g id="patch_76">
    <path d="M 147.735 1193.490625 
L 147.735 1193.490625 
L 147.735 1193.490625 
L 147.735 1193.490625 
z
" clip-path="url(#pce7df7c65f)" style="fill: #1741a1; stroke: #ffffff; stroke-linejoin: miter"/>
   </g>
   <g id="patch_77">
    <path d="M 84.96 1193.490625 
L 84.96 952.447147 
" style="fill: none; stroke: #cccccc; stroke-width: 1.25; stroke-linejoin: miter; stroke-linecap: square"/>
   </g>
   <g id="patch_78">
    <path d="M 84.96 1193.490625 
L 1089.36 1193.490625 
" style="fill: none; stroke: #cccccc; stroke-width: 1.25; stroke-linejoin: miter; stroke-linecap: square"/>
   </g>
   <g id="text_75">
    <!-- 680 -->
    <g style="fill: #262626" transform="translate(122.667891 1025.689552) scale(0.15 -0.15)">
     <use xlink:href="#Arial-BoldMT-36"/>
     <use xlink:href="#Arial-BoldMT-38" transform="translate(55.615234 0)"/>
     <use xlink:href="#Arial-BoldMT-30" transform="translate(111.230469 0)"/>
    </g>
   </g>
   <g id="text_76">
    <!-- 175 -->
    <g style="fill: #262626" transform="translate(248.217891 1148.108174) scale(0.15 -0.15)">
     <use xlink:href="#Arial-BoldMT-31"/>
     <use xlink:href="#Arial-BoldMT-37" transform="translate(55.615234 0)"/>
     <use xlink:href="#Arial-BoldMT-35" transform="translate(111.230469 0)"/>
    </g>
   </g>
   <g id="text_77">
    <!-- 232 -->
    <g style="fill: #262626" transform="translate(373.767891 1134.290627) scale(0.15 -0.15)">
     <use xlink:href="#Arial-BoldMT-32"/>
     <use xlink:href="#Arial-BoldMT-33" transform="translate(55.615234 0)"/>
     <use xlink:href="#Arial-BoldMT-32" transform="translate(111.230469 0)"/>
    </g>
   </g>
   <g id="text_78">
    <!-- 79 -->
    <g style="fill: #262626" transform="translate(503.488594 1171.379833) scale(0.15 -0.15)">
     <use xlink:href="#Arial-BoldMT-37"/>
     <use xlink:href="#Arial-BoldMT-39" transform="translate(55.615234 0)"/>
    </g>
   </g>
   <g id="text_79">
    <!-- 62 -->
    <g style="fill: #262626" transform="translate(629.038594 1175.500856) scale(0.15 -0.15)">
     <use xlink:href="#Arial-BoldMT-36"/>
     <use xlink:href="#Arial-BoldMT-32" transform="translate(55.615234 0)"/>
    </g>
   </g>
   <g id="text_80">
    <!-- 1 -->
    <g style="fill: #262626" transform="translate(758.759297 1190.288056) scale(0.15 -0.15)">
     <use xlink:href="#Arial-BoldMT-31"/>
    </g>
   </g>
   <g id="text_81">
    <!-- 31 -->
    <g style="fill: #262626" transform="translate(880.138594 1183.015662) scale(0.15 -0.15)">
     <use xlink:href="#Arial-BoldMT-33"/>
     <use xlink:href="#Arial-BoldMT-31" transform="translate(55.615234 0)"/>
    </g>
   </g>
   <g id="text_82">
    <!-- 837 -->
    <g style="fill: #262626" transform="translate(147.777891 987.630694) scale(0.15 -0.15)">
     <use xlink:href="#Arial-BoldMT-38"/>
     <use xlink:href="#Arial-BoldMT-33" transform="translate(55.615234 0)"/>
     <use xlink:href="#Arial-BoldMT-37" transform="translate(111.230469 0)"/>
    </g>
   </g>
   <g id="text_83">
    <!-- 4 -->
    <g style="fill: #262626" transform="translate(281.669297 1189.560816) scale(0.15 -0.15)">
     <use xlink:href="#Arial-BoldMT-34"/>
    </g>
   </g>
   <g id="text_84">
    <!-- 54 -->
    <g style="fill: #262626" transform="translate(403.048594 1177.440161) scale(0.15 -0.15)">
     <use xlink:href="#Arial-BoldMT-35"/>
     <use xlink:href="#Arial-BoldMT-34" transform="translate(55.615234 0)"/>
    </g>
   </g>
   <g id="text_85">
    <!-- 30 -->
    <g style="fill: #262626" transform="translate(528.598594 1183.258075) scale(0.15 -0.15)">
     <use xlink:href="#Arial-BoldMT-33"/>
     <use xlink:href="#Arial-BoldMT-30" transform="translate(55.615234 0)"/>
    </g>
   </g>
   <g id="text_86">
    <!-- 559 -->
    <g style="fill: #262626" transform="translate(649.977891 1055.021539) scale(0.15 -0.15)">
     <use xlink:href="#Arial-BoldMT-35"/>
     <use xlink:href="#Arial-BoldMT-35" transform="translate(55.615234 0)"/>
     <use xlink:href="#Arial-BoldMT-39" transform="translate(111.230469 0)"/>
    </g>
   </g>
   <g id="text_87">
    <!-- 48 -->
    <g style="fill: #262626" transform="translate(779.698594 1178.894639) scale(0.15 -0.15)">
     <use xlink:href="#Arial-BoldMT-34"/>
     <use xlink:href="#Arial-BoldMT-38" transform="translate(55.615234 0)"/>
    </g>
   </g>
   <g id="text_88">
    <!-- 34 -->
    <g style="fill: #262626" transform="translate(905.248594 1182.288423) scale(0.15 -0.15)">
     <use xlink:href="#Arial-BoldMT-33"/>
     <use xlink:href="#Arial-BoldMT-34" transform="translate(55.615234 0)"/>
    </g>
   </g>
   <g id="text_89">
    <!-- 1 -->
    <g style="fill: #262626" transform="translate(1034.969297 1190.288056) scale(0.15 -0.15)">
     <use xlink:href="#Arial-BoldMT-31"/>
    </g>
   </g>
   <g id="text_90">
    <!-- NYT -->
    <g style="fill: #262626" transform="translate(577.16 946.447147) scale(0.1 -0.1)">
     <defs>
      <path id="Arial-BoldMT-59" d="M 1669 0 
L 1669 1928 
L -9 4581 
L 1075 4581 
L 2153 2769 
L 3209 4581 
L 4275 4581 
L 2591 1922 
L 2591 0 
L 1669 0 
z
" transform="scale(0.015625)"/>
      <path id="Arial-BoldMT-54" d="M 1497 0 
L 1497 3806 
L 138 3806 
L 138 4581 
L 3778 4581 
L 3778 3806 
L 2422 3806 
L 2422 0 
L 1497 0 
z
" transform="scale(0.015625)"/>
     </defs>
     <use xlink:href="#Arial-BoldMT-4e"/>
     <use xlink:href="#Arial-BoldMT-59" transform="translate(72.216797 0)"/>
     <use xlink:href="#Arial-BoldMT-54" transform="translate(138.916016 0)"/>
    </g>
   </g>
  </g>
  <g id="text_91">
   <!-- Individualized Instance Count -->
   <g style="fill: #262626" transform="translate(25.094531 808.279297) rotate(-90) scale(0.25 -0.25)">
    <defs>
     <path id="Arial-BoldMT-7a" d="M 106 0 
L 106 684 
L 1350 2113 
Q 1656 2463 1803 2609 
Q 1650 2600 1400 2597 
L 228 2591 
L 228 3319 
L 2972 3319 
L 2972 2697 
L 1703 1234 
L 1256 750 
Q 1622 772 1709 772 
L 3069 772 
L 3069 0 
L 106 0 
z
" transform="scale(0.015625)"/>
    </defs>
    <use xlink:href="#Arial-BoldMT-49"/>
    <use xlink:href="#Arial-BoldMT-6e" transform="translate(27.783203 0)"/>
    <use xlink:href="#Arial-BoldMT-64" transform="translate(88.867188 0)"/>
    <use xlink:href="#Arial-BoldMT-69" transform="translate(149.951172 0)"/>
    <use xlink:href="#Arial-BoldMT-76" transform="translate(177.734375 0)"/>
    <use xlink:href="#Arial-BoldMT-69" transform="translate(233.349609 0)"/>
    <use xlink:href="#Arial-BoldMT-64" transform="translate(261.132812 0)"/>
    <use xlink:href="#Arial-BoldMT-75" transform="translate(322.216797 0)"/>
    <use xlink:href="#Arial-BoldMT-61" transform="translate(383.300781 0)"/>
    <use xlink:href="#Arial-BoldMT-6c" transform="translate(438.916016 0)"/>
    <use xlink:href="#Arial-BoldMT-69" transform="translate(466.699219 0)"/>
    <use xlink:href="#Arial-BoldMT-7a" transform="translate(494.482422 0)"/>
    <use xlink:href="#Arial-BoldMT-65" transform="translate(544.482422 0)"/>
    <use xlink:href="#Arial-BoldMT-64" transform="translate(600.097656 0)"/>
    <use xlink:href="#Arial-BoldMT-20" transform="translate(661.181641 0)"/>
    <use xlink:href="#Arial-BoldMT-49" transform="translate(688.964844 0)"/>
    <use xlink:href="#Arial-BoldMT-6e" transform="translate(716.748047 0)"/>
    <use xlink:href="#Arial-BoldMT-73" transform="translate(777.832031 0)"/>
    <use xlink:href="#Arial-BoldMT-74" transform="translate(833.447266 0)"/>
    <use xlink:href="#Arial-BoldMT-61" transform="translate(866.748047 0)"/>
    <use xlink:href="#Arial-BoldMT-6e" transform="translate(922.363281 0)"/>
    <use xlink:href="#Arial-BoldMT-63" transform="translate(983.447266 0)"/>
    <use xlink:href="#Arial-BoldMT-65" transform="translate(1039.0625 0)"/>
    <use xlink:href="#Arial-BoldMT-20" transform="translate(1094.677734 0)"/>
    <use xlink:href="#Arial-BoldMT-43" transform="translate(1122.460938 0)"/>
    <use xlink:href="#Arial-BoldMT-6f" transform="translate(1194.677734 0)"/>
    <use xlink:href="#Arial-BoldMT-75" transform="translate(1255.761719 0)"/>
    <use xlink:href="#Arial-BoldMT-6e" transform="translate(1316.845703 0)"/>
    <use xlink:href="#Arial-BoldMT-74" transform="translate(1377.929688 0)"/>
   </g>
  </g>
  <g id="legend_1">
   <g id="patch_79">
    <path d="M 429.3725 29.515625 
L 469.3725 29.515625 
L 469.3725 15.515625 
L 429.3725 15.515625 
z
" style="fill: #138141; stroke: #ffffff; stroke-linejoin: miter"/>
   </g>
   <g id="text_92">
    <!-- Palestine -->
    <g style="fill: #262626" transform="translate(485.3725 29.515625) scale(0.2 -0.2)">
     <defs>
      <path id="ArialMT-50" d="M 494 0 
L 494 4581 
L 2222 4581 
Q 2678 4581 2919 4538 
Q 3256 4481 3484 4323 
Q 3713 4166 3852 3881 
Q 3991 3597 3991 3256 
Q 3991 2672 3619 2267 
Q 3247 1863 2275 1863 
L 1100 1863 
L 1100 0 
L 494 0 
z
M 1100 2403 
L 2284 2403 
Q 2872 2403 3119 2622 
Q 3366 2841 3366 3238 
Q 3366 3525 3220 3729 
Q 3075 3934 2838 4000 
Q 2684 4041 2272 4041 
L 1100 4041 
L 1100 2403 
z
" transform="scale(0.015625)"/>
      <path id="ArialMT-61" d="M 2588 409 
Q 2275 144 1986 34 
Q 1697 -75 1366 -75 
Q 819 -75 525 192 
Q 231 459 231 875 
Q 231 1119 342 1320 
Q 453 1522 633 1644 
Q 813 1766 1038 1828 
Q 1203 1872 1538 1913 
Q 2219 1994 2541 2106 
Q 2544 2222 2544 2253 
Q 2544 2597 2384 2738 
Q 2169 2928 1744 2928 
Q 1347 2928 1158 2789 
Q 969 2650 878 2297 
L 328 2372 
Q 403 2725 575 2942 
Q 747 3159 1072 3276 
Q 1397 3394 1825 3394 
Q 2250 3394 2515 3294 
Q 2781 3194 2906 3042 
Q 3031 2891 3081 2659 
Q 3109 2516 3109 2141 
L 3109 1391 
Q 3109 606 3145 398 
Q 3181 191 3288 0 
L 2700 0 
Q 2613 175 2588 409 
z
M 2541 1666 
Q 2234 1541 1622 1453 
Q 1275 1403 1131 1340 
Q 988 1278 909 1158 
Q 831 1038 831 891 
Q 831 666 1001 516 
Q 1172 366 1500 366 
Q 1825 366 2078 508 
Q 2331 650 2450 897 
Q 2541 1088 2541 1459 
L 2541 1666 
z
" transform="scale(0.015625)"/>
      <path id="ArialMT-6c" d="M 409 0 
L 409 4581 
L 972 4581 
L 972 0 
L 409 0 
z
" transform="scale(0.015625)"/>
      <path id="ArialMT-65" d="M 2694 1069 
L 3275 997 
Q 3138 488 2766 206 
Q 2394 -75 1816 -75 
Q 1088 -75 661 373 
Q 234 822 234 1631 
Q 234 2469 665 2931 
Q 1097 3394 1784 3394 
Q 2450 3394 2872 2941 
Q 3294 2488 3294 1666 
Q 3294 1616 3291 1516 
L 816 1516 
Q 847 969 1125 678 
Q 1403 388 1819 388 
Q 2128 388 2347 550 
Q 2566 713 2694 1069 
z
M 847 1978 
L 2700 1978 
Q 2663 2397 2488 2606 
Q 2219 2931 1791 2931 
Q 1403 2931 1139 2672 
Q 875 2413 847 1978 
z
" transform="scale(0.015625)"/>
      <path id="ArialMT-73" d="M 197 991 
L 753 1078 
Q 800 744 1014 566 
Q 1228 388 1613 388 
Q 2000 388 2187 545 
Q 2375 703 2375 916 
Q 2375 1106 2209 1216 
Q 2094 1291 1634 1406 
Q 1016 1563 777 1677 
Q 538 1791 414 1992 
Q 291 2194 291 2438 
Q 291 2659 392 2848 
Q 494 3038 669 3163 
Q 800 3259 1026 3326 
Q 1253 3394 1513 3394 
Q 1903 3394 2198 3281 
Q 2494 3169 2634 2976 
Q 2775 2784 2828 2463 
L 2278 2388 
Q 2241 2644 2061 2787 
Q 1881 2931 1553 2931 
Q 1166 2931 1000 2803 
Q 834 2675 834 2503 
Q 834 2394 903 2306 
Q 972 2216 1119 2156 
Q 1203 2125 1616 2013 
Q 2213 1853 2448 1751 
Q 2684 1650 2818 1456 
Q 2953 1263 2953 975 
Q 2953 694 2789 445 
Q 2625 197 2315 61 
Q 2006 -75 1616 -75 
Q 969 -75 630 194 
Q 291 463 197 991 
z
" transform="scale(0.015625)"/>
      <path id="ArialMT-74" d="M 1650 503 
L 1731 6 
Q 1494 -44 1306 -44 
Q 1000 -44 831 53 
Q 663 150 594 308 
Q 525 466 525 972 
L 525 2881 
L 113 2881 
L 113 3319 
L 525 3319 
L 525 4141 
L 1084 4478 
L 1084 3319 
L 1650 3319 
L 1650 2881 
L 1084 2881 
L 1084 941 
Q 1084 700 1114 631 
Q 1144 563 1211 522 
Q 1278 481 1403 481 
Q 1497 481 1650 503 
z
" transform="scale(0.015625)"/>
      <path id="ArialMT-69" d="M 425 3934 
L 425 4581 
L 988 4581 
L 988 3934 
L 425 3934 
z
M 425 0 
L 425 3319 
L 988 3319 
L 988 0 
L 425 0 
z
" transform="scale(0.015625)"/>
      <path id="ArialMT-6e" d="M 422 0 
L 422 3319 
L 928 3319 
L 928 2847 
Q 1294 3394 1984 3394 
Q 2284 3394 2536 3286 
Q 2788 3178 2913 3003 
Q 3038 2828 3088 2588 
Q 3119 2431 3119 2041 
L 3119 0 
L 2556 0 
L 2556 2019 
Q 2556 2363 2490 2533 
Q 2425 2703 2258 2804 
Q 2091 2906 1866 2906 
Q 1506 2906 1245 2678 
Q 984 2450 984 1813 
L 984 0 
L 422 0 
z
" transform="scale(0.015625)"/>
     </defs>
     <use xlink:href="#ArialMT-50"/>
     <use xlink:href="#ArialMT-61" transform="translate(66.699219 0)"/>
     <use xlink:href="#ArialMT-6c" transform="translate(122.314453 0)"/>
     <use xlink:href="#ArialMT-65" transform="translate(144.53125 0)"/>
     <use xlink:href="#ArialMT-73" transform="translate(200.146484 0)"/>
     <use xlink:href="#ArialMT-74" transform="translate(250.146484 0)"/>
     <use xlink:href="#ArialMT-69" transform="translate(277.929688 0)"/>
     <use xlink:href="#ArialMT-6e" transform="translate(300.146484 0)"/>
     <use xlink:href="#ArialMT-65" transform="translate(355.761719 0)"/>
    </g>
   </g>
   <g id="patch_80">
    <path d="M 607.644375 29.515625 
L 647.644375 29.515625 
L 647.644375 15.515625 
L 607.644375 15.515625 
z
" style="fill: #1741a1; stroke: #ffffff; stroke-linejoin: miter"/>
   </g>
   <g id="text_93">
    <!-- Israel -->
    <g style="fill: #262626" transform="translate(663.644375 29.515625) scale(0.2 -0.2)">
     <defs>
      <path id="ArialMT-49" d="M 597 0 
L 597 4581 
L 1203 4581 
L 1203 0 
L 597 0 
z
" transform="scale(0.015625)"/>
      <path id="ArialMT-72" d="M 416 0 
L 416 3319 
L 922 3319 
L 922 2816 
Q 1116 3169 1280 3281 
Q 1444 3394 1641 3394 
Q 1925 3394 2219 3213 
L 2025 2691 
Q 1819 2813 1613 2813 
Q 1428 2813 1281 2702 
Q 1134 2591 1072 2394 
Q 978 2094 978 1738 
L 978 0 
L 416 0 
z
" transform="scale(0.015625)"/>
     </defs>
     <use xlink:href="#ArialMT-49"/>
     <use xlink:href="#ArialMT-73" transform="translate(27.783203 0)"/>
     <use xlink:href="#ArialMT-72" transform="translate(77.783203 0)"/>
     <use xlink:href="#ArialMT-61" transform="translate(111.083984 0)"/>
     <use xlink:href="#ArialMT-65" transform="translate(166.699219 0)"/>
     <use xlink:href="#ArialMT-6c" transform="translate(222.314453 0)"/>
    </g>
   </g>
  </g>
 </g>
 <defs>
  <clipPath id="p4faffa8434">
   <rect x="84.96" y="84.690625" width="1004.4" height="241.043478"/>
  </clipPath>
  <clipPath id="p3b1926c150">
   <rect x="84.96" y="373.942799" width="1004.4" height="241.043478"/>
  </clipPath>
  <clipPath id="p54a900060c">
   <rect x="84.96" y="663.194973" width="1004.4" height="241.043478"/>
  </clipPath>
  <clipPath id="pce7df7c65f">
   <rect x="84.96" y="952.447147" width="1004.4" height="241.043478"/>
  </clipPath>
 </defs>
</svg>
